solid Created by Gmsh
facet normal 0.36705 -0.930081 -0.0149544
  outer loop
    vertex -0.7467993948462752 8.467130013402253 43.23286118576671
    vertex -5.077322823200706 6.816948947220098 39.57401301067857
    vertex -1.088023302112761 8.430077419220991 37.16211573565742
  endloop
endfacet
facet normal 0.375622 -0.926628 0.0163932
  outer loop
    vertex -1.148935603620672 8.421991865273487 17.21407419221849
    vertex -5.161869948471189 6.753154717246603 14.83217125110223
    vertex -0.7822659761728821 8.463926981166738 11.1828667167628
  endloop
endfacet
facet normal -0.949029 -0.31519 6.99863e-17
  outer loop
    vertex 8.5 4.440892098500615e-15 19.99999999999997
    vertex 6.811138048740699 5.085115385219565 17.29387408185704
    vertex 8.5 3.330669073875459e-15 14.99999999999997
  endloop
endfacet
facet normal -0.178522 -0.983644 -0.0239715
  outer loop
    vertex 3.901246454372794 7.55183925293989 46.17565756044717
    vertex -0.7467993948462752 8.467130013402253 43.23286118576671
    vertex 3.342233513477146 7.815335894341983 39.52646583571191
  endloop
endfacet
facet normal -0.643252 -0.765286 0.0237527
  outer loop
    vertex 6.982227847893451 4.847524551779102 42.48234958014429
    vertex 3.901246454372794 7.55183925293989 46.17565756044717
    vertex 3.342233513477146 7.815335894341983 39.52646583571191
  endloop
endfacet
facet normal -0.951666 -0.307134 6.81976e-17
  outer loop
    vertex 8.5 7.771561172376074e-15 34.99999999999994
    vertex 6.896362977856686 4.968921178449871 32.07773762154102
    vertex 8.5 6.66133814775092e-15 29.99999999999995
  endloop
endfacet
facet normal -0.954316 -0.298799 6.63467e-17
  outer loop
    vertex 8.5 9.992007221626387e-15 44.99999999999996
    vertex 6.982227847893451 4.847524551779102 42.48234958014429
    vertex 8.5 8.881784197001229e-15 39.99999999999994
  endloop
endfacet
facet normal -0.64238 -0.766348 0.00763825
  outer loop
    vertex 7.140858224260926 4.610655465441448 37.46555398610102
    vertex 3.342233513477146 7.815335894341983 39.52646583571191
    vertex 3.224839949592456 7.864502991258414 34.58657353436077
  endloop
endfacet
facet normal -0.955401 -0.294353 0.0237822
  outer loop
    vertex 7.140858224260926 4.610655465441448 37.46555398610102
    vertex 6.896362977856686 4.968921178449871 32.07773762154102
    vertex 8.5 7.771561172376074e-15 34.99999999999994
  endloop
endfacet
facet normal -0.628789 -0.777231 -0.0231484
  outer loop
    vertex 3.224839949592456 7.864502991258414 34.58657353436077
    vertex 6.896362977856686 4.968921178449871 32.07773762154102
    vertex 7.140858224260926 4.610655465441448 37.46555398610102
  endloop
endfacet
facet normal -0.954911 -0.293567 0.0443037
  outer loop
    vertex 7.247619827687749 4.440946614552735 22.4332834837773
    vertex 6.811138048740699 5.085115385219565 17.29387408185704
    vertex 8.5 4.440892098500615e-15 19.99999999999997
  endloop
endfacet
facet normal -0.673546 -0.738044 -0.040331
  outer loop
    vertex 7.139960565586286 4.61204543796706 47.55459837209442
    vertex 7.471199386363441 4.053539160931166 52.24324407715729
    vertex 3.488644627894232 7.751087579189433 51.08974228139908
  endloop
endfacet
facet normal -0.671062 -0.737244 -0.078404
  outer loop
    vertex 2.977339989190003 7.961497760394716 14.83919267974156
    vertex 4.211258670613153 7.383447731865211 9.713540085414152
    vertex 7.3970588235267 4.187304713211805 12.49999999999997
  endloop
endfacet
facet normal -0.619627 -0.783571 -0.0455881
  outer loop
    vertex 3.005331806041211 7.95097357155695 19.7633242462799
    vertex 6.811138048740699 5.085115385219565 17.29387408185704
    vertex 7.247619827687749 4.440946614552735 22.4332834837773
  endloop
endfacet
facet normal 0.367865 -0.929863 0.00556791
  outer loop
    vertex -0.7822659761728821 8.463926981166738 11.1828667167628
    vertex -5.161869948471189 6.753154717246603 14.83217125110223
    vertex -5.23680626788869 6.695211730229428 10.10641192495278
  endloop
endfacet
facet normal -0.200431 -0.979704 0.00282791
  outer loop
    vertex 3.977885694964516 7.511752485126002 24.66335560612643
    vertex -0.6836312320026972 8.47246412436373 27.10315639836356
    vertex -0.7313370338855484 8.468479565002651 22.34154229005873
  endloop
endfacet
facet normal 0.343486 -0.939111 0.00942544
  outer loop
    vertex -0.7467993948462752 8.467130013402253 43.23286118576671
    vertex -0.9352110633868811 8.448395129663313 48.23236937498948
    vertex -4.858910868714635 6.974308938517621 44.34970769202373
  endloop
endfacet
facet normal 0.344835 -0.938541 0.0151544
  outer loop
    vertex -4.858910868714635 6.974308938517621 44.34970769202373
    vertex -5.077322823200706 6.816948947220098 39.57401301067857
    vertex -0.7467993948462752 8.467130013402253 43.23286118576671
  endloop
endfacet
facet normal -0.14485 -0.989352 0.0141802
  outer loop
    vertex 3.342233513477146 7.815335894341983 39.52646583571191
    vertex -0.7467993948462752 8.467130013402253 43.23286118576671
    vertex -1.088023302112761 8.430077419220991 37.16211573565742
  endloop
endfacet
facet normal -0.665873 -0.745623 -0.0256764
  outer loop
    vertex 7.139960565586286 4.61204543796706 47.55459837209442
    vertex 3.488644627894232 7.751087579189433 51.08974228139908
    vertex 3.901246454372794 7.55183925293989 46.17565756044717
  endloop
endfacet
facet normal 0.644835 0.764281 0.00791708
  outer loop
    vertex -3.635826378256934 -7.683148218482516 4.431397331925389
    vertex -6.88954691339063 -4.978367536471131 8.334596947003988
    vertex -3.801303149932731 -7.602637329395076 10.13707825381488
  endloop
endfacet
facet normal -0.659716 -0.7488 0.0638201
  outer loop
    vertex 7.247619827687749 4.440946614552735 22.4332834837773
    vertex 3.977885694964516 7.511752485126002 24.66335560612643
    vertex 3.005331806041211 7.95097357155695 19.7633242462799
  endloop
endfacet
facet normal -0.338932 -0.939468 0.0502481
  outer loop
    vertex 4.211258670613153 7.383447731865211 9.713540085414152
    vertex 0.7129049858383431 8.470051149855403 6.432362149342957
    vertex 5.198401017806351 6.725074487176324 4.062643486180136
  endloop
endfacet
facet normal 0.363851 -0.93135 -0.0141016
  outer loop
    vertex -0.9352110633868811 8.448395129663313 48.23236937498948
    vertex -5.080048634198691 6.814917891961429 49.17098418796429
    vertex -4.858910868714635 6.974308938517621 44.34970769202373
  endloop
endfacet
facet normal -0.665484 -0.745082 -0.0445404
  outer loop
    vertex 3.977885694964516 7.511752485126002 24.66335560612643
    vertex 7.265145740888252 4.412216830987941 27.39768984663007
    vertex 3.281904680273319 7.840861028586088 29.55670152673948
  endloop
endfacet
facet normal -0.956564 -0.291071 0.0162335
  outer loop
    vertex 7.139960565586286 4.61204543796706 47.55459837209442
    vertex 6.982227847893451 4.847524551779102 42.48234958014429
    vertex 8.5 9.992007221626387e-15 44.99999999999996
  endloop
endfacet
facet normal -0.956565 -0.291051 -0.0165044
  outer loop
    vertex 8.5 8.881784197001229e-15 39.99999999999994
    vertex 6.982227847893451 4.847524551779102 42.48234958014429
    vertex 7.140858224260926 4.610655465441448 37.46555398610102
  endloop
endfacet
facet normal -0.626535 -0.776349 0.0688201
  outer loop
    vertex 7.3970588235267 4.187304713211805 12.49999999999997
    vertex 6.811138048740699 5.085115385219565 17.29387408185704
    vertex 2.977339989190003 7.961497760394716 14.83919267974156
  endloop
endfacet
facet normal -0.955274 -0.289013 -0.0626292
  outer loop
    vertex 8.5 3.330669073875459e-15 14.99999999999997
    vertex 6.811138048740699 5.085115385219565 17.29387408185704
    vertex 7.3970588235267 4.187304713211805 12.49999999999997
  endloop
endfacet
facet normal -0.118932 -0.992802 -0.0141335
  outer loop
    vertex -1.148935603620672 8.421991865273487 17.21407419221849
    vertex -0.7822659761728821 8.463926981166738 11.1828667167628
    vertex 2.977339989190003 7.961497760394716 14.83919267974156
  endloop
endfacet
facet normal -0.639635 -0.768511 0.0160602
  outer loop
    vertex 7.140858224260926 4.610655465441448 37.46555398610102
    vertex 6.982227847893451 4.847524551779102 42.48234958014429
    vertex 3.342233513477146 7.815335894341983 39.52646583571191
  endloop
endfacet
facet normal 0.215616 0.976449 -0.00752503
  outer loop
    vertex -3.801303149932731 -7.602637329395076 10.13707825381488
    vertex 0.1870452246003163 -8.497941755740282 8.240822535196429
    vertex -3.635826378256934 -7.683148218482516 4.431397331925389
  endloop
endfacet
facet normal -0.638959 -0.768146 0.0410237
  outer loop
    vertex 3.281904680273319 7.840861028586088 29.55670152673948
    vertex 7.265145740888252 4.412216830987941 27.39768984663007
    vertex 6.896362977856686 4.968921178449871 32.07773762154102
  endloop
endfacet
facet normal -0.181421 -0.98258 0.0402812
  outer loop
    vertex 3.281904680273319 7.840861028586088 29.55670152673948
    vertex -0.6836312320026972 8.47246412436373 27.10315639836356
    vertex 3.977885694964516 7.511752485126002 24.66335560612643
  endloop
endfacet
facet normal -0.173285 -0.983404 -0.0537552
  outer loop
    vertex 3.005331806041211 7.95097357155695 19.7633242462799
    vertex 3.977885694964516 7.511752485126002 24.66335560612643
    vertex -0.7313370338855484 8.468479565002651 22.34154229005873
  endloop
endfacet
facet normal -0.955722 -0.29145 -0.0406412
  outer loop
    vertex 6.896362977856686 4.968921178449871 32.07773762154102
    vertex 7.265145740888252 4.412216830987941 27.39768984663007
    vertex 8.5 6.66133814775092e-15 29.99999999999995
  endloop
endfacet
facet normal -0.265105 0.964194 0.00709563
  outer loop
    vertex 4.211688210054196 -7.383202721129258 49.91164477506189
    vertex 4.338746770089859 -7.309259638638842 44.61097310276917
    vertex 0.07017632851129775 -8.499710305823173 46.89499680578911
  endloop
endfacet
facet normal -0.711243 0.702909 -0.0072433
  outer loop
    vertex 7.400082369128036 -4.181958982357478 47.48971240123156
    vertex 4.338746770089859 -7.309259638638842 44.61097310276917
    vertex 4.211688210054196 -7.383202721129258 49.91164477506189
  endloop
endfacet
facet normal -0.72869 -0.683181 -0.0476974
  outer loop
    vertex 5.198401017806351 6.725074487176324 4.062643486180136
    vertex 7.484864562760408 4.02825054795918 7.758757600631036
    vertex 4.211258670613153 7.383447731865211 9.713540085414152
  endloop
endfacet
facet normal 0.663581 0.747269 0.0353322
  outer loop
    vertex -7.223817941817857 -4.479559614903056 4.062913843469389
    vertex -6.88954691339063 -4.978367536471131 8.334596947003988
    vertex -3.635826378256934 -7.683148218482516 4.431397331925389
  endloop
endfacet
facet normal -0.692629 -0.713916 0.102901
  outer loop
    vertex 3.488644627894232 7.751087579189433 51.08974228139908
    vertex 7.471199386363441 4.053539160931166 52.24324407715729
    vertex 5.566316238534907 6.423871382011209 55.86652698167883
  endloop
endfacet
facet normal -0.420879 -0.904545 -0.0682633
  outer loop
    vertex 5.566316238534907 6.423871382011209 55.86652698167883
    vertex 1.313286413277627 8.397933007395354 55.93071604851882
    vertex 3.488644627894232 7.751087579189433 51.08974228139908
  endloop
endfacet
facet normal 0.956447 -0.28163 -0.0767712
  outer loop
    vertex -8.012259172948653 2.837904675196156 51.80328720357336
    vertex -7.150655029065056 4.595446948372554 56.09007606387327
    vertex -8.499816414388903 0.05586520996976071 55.93482942706946
  endloop
endfacet
facet normal 0.136838 0.988153 -0.0694866
  outer loop
    vertex 1.186988988257164 -8.416712965389532 55.97727541151425
    vertex -0.5148142387538344 -8.484395458698062 51.66345921419924
    vertex -3.401928430000489 -7.789536761396945 55.85936887458556
  endloop
endfacet
facet normal -0.193038 -0.979105 0.0639486
  outer loop
    vertex 2.977339989190003 7.961497760394716 14.83919267974156
    vertex -0.7822659761728821 8.463926981166738 11.1828667167628
    vertex 4.211258670613153 7.383447731865211 9.713540085414152
  endloop
endfacet
facet normal -0.379236 -0.924559 -0.0370192
  outer loop
    vertex 0.7129049858383431 8.470051149855403 6.432362149342957
    vertex 1.209676125322914 8.41348225598793 2.75610385379337
    vertex 5.198401017806351 6.725074487176324 4.062643486180136
  endloop
endfacet
facet normal -0.705218 0.708988 -0.00187509
  outer loop
    vertex 7.30661255316963 -4.343203080430847 37.51267737591729
    vertex 4.289734351597713 -7.338131859862056 39.7473240728838
    vertex 7.325470851825186 -4.311319612260219 42.4755212865721
  endloop
endfacet
facet normal -0.711097 0.703054 -0.00755684
  outer loop
    vertex 7.325470851825186 -4.311319612260219 42.4755212865721
    vertex 4.338746770089859 -7.309259638638842 44.61097310276917
    vertex 7.400082369128036 -4.181958982357478 47.48971240123156
  endloop
endfacet
facet normal 0.330112 0.941247 0.0712687
  outer loop
    vertex -0.5148142387538344 -8.484395458698062 51.66345921419924
    vertex -4.690326697301224 -7.088782368826354 52.57226876768973
    vertex -3.401928430000489 -7.789536761396945 55.85936887458556
  endloop
endfacet
facet normal -0.186662 -0.982366 -0.0107158
  outer loop
    vertex 3.901246454372794 7.55183925293989 46.17565756044717
    vertex -0.9352110633868811 8.448395129663313 48.23236937498948
    vertex -0.7467993948462752 8.467130013402253 43.23286118576671
  endloop
endfacet
facet normal -0.238138 0.970693 -0.0323321
  outer loop
    vertex 0.07017632851129775 -8.499710305823173 46.89499680578911
    vertex -0.5148142387538344 -8.484395458698062 51.66345921419924
    vertex 4.211688210054196 -7.383202721129258 49.91164477506189
  endloop
endfacet
facet normal -0.685235 -0.72832 -0.00179581
  outer loop
    vertex 7.247619827687749 4.440946614552735 22.4332834837773
    vertex 7.265145740888252 4.412216830987941 27.39768984663007
    vertex 3.977885694964516 7.511752485126002 24.66335560612643
  endloop
endfacet
facet normal -0.668841 -0.743279 -0.0137076
  outer loop
    vertex 7.139960565586286 4.61204543796706 47.55459837209442
    vertex 3.901246454372794 7.55183925293989 46.17565756044717
    vertex 6.982227847893451 4.847524551779102 42.48234958014429
  endloop
endfacet
facet normal -0.717617 0.696425 -0.00410982
  outer loop
    vertex 7.420705974278078 -4.145253049370284 32.49999999999996
    vertex 4.402229897176887 -7.271201546677274 29.85299812578574
    vertex 4.332661107865821 -7.312868638529404 34.93978571969484
  endloop
endfacet
facet normal -0.712703 -0.70139 0.0103305
  outer loop
    vertex 4.211258670613153 7.383447731865211 9.713540085414152
    vertex 7.484864562760408 4.02825054795918 7.758757600631036
    vertex 7.3970588235267 4.187304713211805 12.49999999999997
  endloop
endfacet
facet normal -0.277311 0.960772 0.00407731
  outer loop
    vertex 4.332661107865821 -7.312868638529404 34.93978571969484
    vertex 4.402229897176887 -7.271201546677274 29.85299812578574
    vertex 0.1874273810434644 -8.497933335631387 32.25629874409665
  endloop
endfacet
facet normal 0.992318 -0.0214095 -0.121851
  outer loop
    vertex -8.010174055829532 2.843784730832394 7.622816225749645
    vertex -8.208341939545717 -2.207515029053 6.896521011090847
    vertex -8.5 -1.605651917847839e-14 4.133473018321176
  endloop
endfacet
facet normal -0.707382 0.706825 0.00293256
  outer loop
    vertex 7.325470851825186 -4.311319612260219 42.4755212865721
    vertex 4.289734351597713 -7.338131859862056 39.7473240728838
    vertex 4.338746770089859 -7.309259638638842 44.61097310276917
  endloop
endfacet
facet normal 0.994952 -0.0744531 0.0672787
  outer loop
    vertex -8.499816414388903 0.05586520996976071 55.93482942706946
    vertex -8.386364728732131 -1.385238837413125 52.66227036714909
    vertex -8.012259172948653 2.837904675196156 51.80328720357336
  endloop
endfacet
facet normal 0.153204 0.986534 0.057264
  outer loop
    vertex -3.635826378256934 -7.683148218482516 4.431397331925389
    vertex 0.1870452246003163 -8.497941755740282 8.240822535196429
    vertex 1.201873636366726 -8.414600392306614 4.089964734429159
  endloop
endfacet
facet normal 0.993312 -0.0536674 0.102228
  outer loop
    vertex -8.462972354372182 -0.792526926439819 10.11352275179559
    vertex -8.208341939545717 -2.207515029053 6.896521011090847
    vertex -8.010174055829532 2.843784730832394 7.622816225749645
  endloop
endfacet
facet normal -0.231701 -0.969955 -0.0741759
  outer loop
    vertex -0.7822659761728821 8.463926981166738 11.1828667167628
    vertex 0.7129049858383431 8.470051149855403 6.432362149342957
    vertex 4.211258670613153 7.383447731865211 9.713540085414152
  endloop
endfacet
facet normal -0.71828 0.695749 -0.00255492
  outer loop
    vertex 7.395961088620316 -4.189243317785944 27.47737386906476
    vertex 4.402229897176887 -7.271201546677274 29.85299812578574
    vertex 7.420705974278078 -4.145253049370284 32.49999999999996
  endloop
endfacet
facet normal -0.269086 0.962897 -0.0205438
  outer loop
    vertex 4.043106771145987 -7.476850114661486 10.12069516219019
    vertex 0.1984608019417812 -8.497682820045275 12.63158108514578
    vertex 4.398630866447244 -7.273379304060635 15.00074800542284
  endloop
endfacet
facet normal -0.17171 -0.984817 0.0255134
  outer loop
    vertex 3.901246454372794 7.55183925293989 46.17565756044717
    vertex 3.488644627894232 7.751087579189433 51.08974228139908
    vertex -0.9352110633868811 8.448395129663313 48.23236937498948
  endloop
endfacet
facet normal -0.680851 0.731213 -0.0420668
  outer loop
    vertex 6.871522292022884 -5.003217104047413 7.339971866847748
    vertex 4.043106771145987 -7.476850114661486 10.12069516219019
    vertex 7.359565332415341 -4.252857641387761 12.48388942889094
  endloop
endfacet
facet normal -0.695721 0.717573 0.0325747
  outer loop
    vertex 7.400082369128036 -4.181958982357478 47.48971240123156
    vertex 4.211688210054196 -7.383202721129258 49.91164477506189
    vertex 7.03886052635325 -4.764917889171443 52.61657005983815
  endloop
endfacet
facet normal -0.704812 0.709059 0.0217835
  outer loop
    vertex 7.359565332415341 -4.252857641387761 12.48388942889094
    vertex 4.043106771145987 -7.476850114661486 10.12069516219019
    vertex 4.398630866447244 -7.273379304060635 15.00074800542284
  endloop
endfacet
facet normal -0.274401 0.961615 -0.000790232
  outer loop
    vertex 0.1874273810434644 -8.497933335631387 32.25629874409665
    vertex 0.1723093639180422 -8.498253319541973 37.11650815765765
    vertex 4.332661107865821 -7.312868638529404 34.93978571969484
  endloop
endfacet
facet normal -0.957149 0.285391 0.0491812
  outer loop
    vertex 6.871522292022884 -5.003217104047413 7.339971866847748
    vertex 7.359565332415341 -4.252857641387761 12.48388942889094
    vertex 8.5 2.220446049250305e-15 9.999999999999979
  endloop
endfacet
facet normal -0.960862 0.274615 -0.0364736
  outer loop
    vertex 8.5 1.110223024625155e-14 49.99999999999997
    vertex 7.400082369128036 -4.181958982357478 47.48971240123156
    vertex 7.03886052635325 -4.764917889171443 52.61657005983815
  endloop
endfacet
facet normal -0.717261 0.696804 0.000513514
  outer loop
    vertex 7.400940845426794 -4.180439522645117 22.48678868536197
    vertex 4.39695608441918 -7.274391877792201 24.89504839907244
    vertex 7.395961088620316 -4.189243317785944 27.47737386906476
  endloop
endfacet
facet normal -0.0930459 -0.991524 0.0906749
  outer loop
    vertex 1.313286413277627 8.397933007395354 55.93071604851882
    vertex -1.591618227850822 8.349655766363846 52.42194262398316
    vertex 3.488644627894232 7.751087579189433 51.08974228139908
  endloop
endfacet
facet normal -0.715682 0.698416 -0.00377778
  outer loop
    vertex 7.359565332415341 -4.252857641387761 12.48388942889094
    vertex 4.398630866447244 -7.273379304060635 15.00074800542284
    vertex 7.397058823529193 -4.187304713207401 17.49999999999997
  endloop
endfacet
facet normal -0.950898 0.309504 -6.87237e-17
  outer loop
    vertex 8.5 1.110223024625153e-15 4.999999999999993
    vertex 6.871522292022884 -5.003217104047413 7.339971866847748
    vertex 8.5 2.220446049250305e-15 9.999999999999979
  endloop
endfacet
facet normal 0.220123 0.975468 -0.00294718
  outer loop
    vertex -3.854085391215233 -7.576016486071115 15.00586807933922
    vertex 0.1984608019417812 -8.497682820045275 12.63158108514578
    vertex -3.801303149932731 -7.602637329395076 10.13707825381488
  endloop
endfacet
facet normal -0.95606 0.293171 -6.50971e-17
  outer loop
    vertex 8.5 1.110223024625155e-14 49.99999999999997
    vertex 7.03886052635325 -4.764917889171443 52.61657005983815
    vertex 8.5 1.22124532708767e-14 54.99999999999999
  endloop
endfacet
facet normal -0.711535 0.702556 0.0115486
  outer loop
    vertex 7.420705974278078 -4.145253049370284 32.49999999999996
    vertex 4.332661107865821 -7.312868638529404 34.93978571969484
    vertex 7.30661255316963 -4.343203080430847 37.51267737591729
  endloop
endfacet
facet normal -0.966438 0.25687 0.00386686
  outer loop
    vertex 8.5 3.330669073875459e-15 14.99999999999997
    vertex 7.359565332415341 -4.252857641387761 12.48388942889094
    vertex 7.397058823529193 -4.187304713207401 17.49999999999997
  endloop
endfacet
facet normal 0.687659 0.72585 0.0163535
  outer loop
    vertex -4.02060008073874 -7.488976898800238 44.41798622580793
    vertex -7.182387089512925 -4.545691993129105 46.73227464908922
    vertex -4.295939409286553 -7.334500977690213 49.13948662802684
  endloop
endfacet
facet normal -0.717403 0.696658 -0.000400602
  outer loop
    vertex 4.399171524439281 -7.273052309626444 19.95187136968472
    vertex 7.400940845426794 -4.180439522645117 22.48678868536197
    vertex 7.397058823529193 -4.187304713207401 17.49999999999997
  endloop
endfacet
facet normal 0.941427 0.337215 -0.00133396
  outer loop
    vertex -8.461786710807424 -0.8050873622178499 14.9939914458599
    vertex -8.464245870022001 -0.7788079685105304 19.90170521923373
    vertex -7.041085556738574 -4.761629362170837 17.4533202893695
  endloop
endfacet
facet normal 0.658339 0.752716 0.00302142
  outer loop
    vertex -3.854085391215233 -7.576016486071115 15.00586807933922
    vertex -3.801303149932731 -7.602637329395076 10.13707825381488
    vertex -7.011799748658989 -4.804650277044703 12.62118564957992
  endloop
endfacet
facet normal -0.965943 0.258642 0.00770062
  outer loop
    vertex 7.325470851825186 -4.311319612260219 42.4755212865721
    vertex 7.400082369128036 -4.181958982357478 47.48971240123156
    vertex 8.5 9.992007221626387e-15 44.99999999999996
  endloop
endfacet
facet normal -0.967017 -0.254713 5.65577e-17
  outer loop
    vertex 8.5 3.330669073875459e-15 14.99999999999997
    vertex 7.3970588235267 4.187304713211805 12.49999999999997
    vertex 8.5 2.220446049250305e-15 9.999999999999979
  endloop
endfacet
facet normal 0.660771 0.750583 -0.00267781
  outer loop
    vertex -3.854085391215233 -7.576016486071115 15.00586807933922
    vertex -7.011799748658989 -4.804650277044703 12.62118564957992
    vertex -7.041085556738574 -4.761629362170837 17.4533202893695
  endloop
endfacet
facet normal -0.959165 -0.282847 6.28046e-17
  outer loop
    vertex 8.5 1.110223024625155e-14 49.99999999999997
    vertex 7.139960565586286 4.61204543796706 47.55459837209442
    vertex 8.5 9.992007221626387e-15 44.99999999999996
  endloop
endfacet
facet normal 0.940248 0.34049 0.000647868
  outer loop
    vertex -7.011799748658989 -4.804650277044703 12.62118564957992
    vertex -8.462972354372182 -0.792526926439819 10.11352275179559
    vertex -8.461786710807424 -0.8050873622178499 14.9939914458599
  endloop
endfacet
facet normal 0.216327 0.976321 -0.000631176
  outer loop
    vertex 0.2993946413568288 -8.494725589960327 17.47096452300855
    vertex -3.854085391215233 -7.576016486071115 15.00586807933922
    vertex -3.865119201394821 -7.570393223539255 19.9223984869914
  endloop
endfacet
facet normal 0.663953 0.747774 -0.000839023
  outer loop
    vertex -3.874445243551388 -7.565624498659845 24.84099119541944
    vertex -7.049336552267678 -4.749405665224106 22.35728875446129
    vertex -7.058547502601678 -4.735705560264026 27.27841664282769
  endloop
endfacet
facet normal 0.373587 -0.926869 0.0366879
  outer loop
    vertex -0.9352110633868811 8.448395129663313 48.23236937498948
    vertex -1.591618227850822 8.349655766363846 52.42194262398316
    vertex -5.080048634198691 6.814917891961429 49.17098418796429
  endloop
endfacet
facet normal 0.249587 0.968201 -0.0171222
  outer loop
    vertex -4.02060008073874 -7.488976898800238 44.41798622580793
    vertex -4.295939409286553 -7.334500977690213 49.13948662802684
    vertex 0.07017632851129775 -8.499710305823173 46.89499680578911
  endloop
endfacet
facet normal 0.989628 -0.141231 -0.0262811
  outer loop
    vertex -8.462972354372182 -0.792526926439819 10.11352275179559
    vertex -8.010174055829532 2.843784730832394 7.622816225749645
    vertex -7.804818012195037 3.366721817512685 12.54540379308605
  endloop
endfacet
facet normal -0.962461 -0.271421 6.02676e-17
  outer loop
    vertex 8.5 5.551115123125769e-15 24.99999999999996
    vertex 7.247619827687749 4.440946614552735 22.4332834837773
    vertex 8.5 4.440892098500615e-15 19.99999999999997
  endloop
endfacet
facet normal -0.967017 0.254713 -5.65577e-17
  outer loop
    vertex 8.5 3.330669073875459e-15 14.99999999999997
    vertex 7.397058823529193 -4.187304713207401 17.49999999999997
    vertex 8.5 4.440892098500615e-15 19.99999999999997
  endloop
endfacet
facet normal 0.217012 0.976169 0.000589498
  outer loop
    vertex 0.2993946413568288 -8.494725589960327 17.47096452300855
    vertex -3.865119201394821 -7.570393223539255 19.9223984869914
    vertex 0.2877986248171194 -8.495126364660704 22.40346058707009
  endloop
endfacet
facet normal -0.965876 0.259007 -5.7511e-17
  outer loop
    vertex 8.5 2.220446049250305e-15 9.999999999999979
    vertex 7.359565332415341 -4.252857641387761 12.48388942889094
    vertex 8.5 3.330669073875459e-15 14.99999999999997
  endloop
endfacet
facet normal 0.662201 0.749326 0.00062909
  outer loop
    vertex -3.854085391215233 -7.576016486071115 15.00586807933922
    vertex -7.041085556738574 -4.761629362170837 17.4533202893695
    vertex -3.865119201394821 -7.570393223539255 19.9223984869914
  endloop
endfacet
facet normal 0.948648 0.316311 0.00381009
  outer loop
    vertex -8.470183145904166 -0.7113349948097505 49.04581267725559
    vertex -7.182387089512925 -4.545691993129105 46.73227464908922
    vertex -8.476090514899765 -0.6370946422834072 44.35325550419721
  endloop
endfacet
facet normal 0.217651 0.976026 -0.000533603
  outer loop
    vertex -3.865119201394821 -7.570393223539255 19.9223984869914
    vertex -3.874445243551388 -7.565624498659845 24.84099119541944
    vertex 0.2877986248171194 -8.495126364660704 22.40346058707009
  endloop
endfacet
facet normal -0.967076 0.254489 0.000402483
  outer loop
    vertex 7.397058823529193 -4.187304713207401 17.49999999999997
    vertex 7.400940845426794 -4.180439522645117 22.48678868536197
    vertex 8.5 4.440892098500615e-15 19.99999999999997
  endloop
endfacet
facet normal 0.948235 0.317513 0.00600862
  outer loop
    vertex -8.476090514899765 -0.6370946422834072 44.35325550419721
    vertex -7.182387089512925 -4.545691993129105 46.73227464908922
    vertex -7.119079911128657 -4.644211582062599 41.94767206834213
  endloop
endfacet
facet normal 0.663353 0.748307 0.000532264
  outer loop
    vertex -3.865119201394821 -7.570393223539255 19.9223984869914
    vertex -7.049336552267678 -4.749405665224106 22.35728875446129
    vertex -3.874445243551388 -7.565624498659845 24.84099119541944
  endloop
endfacet
facet normal -0.967109 0.254364 -5.64802e-17
  outer loop
    vertex 8.5 9.992007221626387e-15 44.99999999999996
    vertex 7.400082369128036 -4.181958982357478 47.48971240123156
    vertex 8.5 1.110223024625155e-14 49.99999999999997
  endloop
endfacet
facet normal 0.984886 -0.173158 -0.00397936
  outer loop
    vertex -7.734573906473258 3.525105173651277 46.76401317202919
    vertex -8.470183145904166 -0.7113349948097505 49.04581267725559
    vertex -8.476090514899765 -0.6370946422834072 44.35325550419721
  endloop
endfacet
facet normal -0.282597 0.959224 0.0053079
  outer loop
    vertex 4.398630866447244 -7.273379304060635 15.00074800542284
    vertex 0.1984608019417812 -8.497682820045275 12.63158108514578
    vertex 0.2993946413568288 -8.494725589960327 17.47096452300855
  endloop
endfacet
facet normal -0.285558 0.958361 -3.21118e-05
  outer loop
    vertex 4.398630866447244 -7.273379304060635 15.00074800542284
    vertex 0.2993946413568288 -8.494725589960327 17.47096452300855
    vertex 4.399171524439281 -7.273052309626444 19.95187136968472
  endloop
endfacet
facet normal 0.678941 0.734167 -0.00613384
  outer loop
    vertex -7.119079911128657 -4.644211582062599 41.94767206834213
    vertex -7.182387089512925 -4.545691993129105 46.73227464908922
    vertex -4.02060008073874 -7.488976898800238 44.41798622580793
  endloop
endfacet
facet normal 0.38376 -0.923433 0.000442495
  outer loop
    vertex -5.155012282133707 6.758390960210177 19.81215624067612
    vertex -5.161869948471189 6.753154717246603 14.83217125110223
    vertex -1.148935603620672 8.421991865273487 17.21407419221849
  endloop
endfacet
facet normal 0.94632 0.323229 0.00163379
  outer loop
    vertex -8.473937465669895 -0.6651194087651167 39.48208632721278
    vertex -7.119079911128657 -4.644211582062599 41.94767206834213
    vertex -7.101474501863573 -4.671087657000404 37.06745893341773
  endloop
endfacet
facet normal 0.98759 -0.153442 0.0334956
  outer loop
    vertex -7.734573906473258 3.525105173651277 46.76401317202919
    vertex -8.012259172948653 2.837904675196156 51.80328720357336
    vertex -8.470183145904166 -0.7113349948097505 49.04581267725559
  endloop
endfacet
facet normal 0.791576 -0.60979 -0.0395372
  outer loop
    vertex -7.734573906473258 3.525105173651277 46.76401317202919
    vertex -5.080048634198691 6.814917891961429 49.17098418796429
    vertex -8.012259172948653 2.837904675196156 51.80328720357336
  endloop
endfacet
facet normal 0.945025 0.326991 0.00226166
  outer loop
    vertex -8.471600544314397 -0.6942508318842758 34.59818183681262
    vertex -7.101474501863573 -4.671087657000404 37.06745893341773
    vertex -7.076945189996445 -4.708168091496541 32.17908418215862
  endloop
endfacet
facet normal 0.94063 0.339423 0.0026789
  outer loop
    vertex -7.011799748658989 -4.804650277044703 12.62118564957992
    vertex -8.461786710807424 -0.8050873622178499 14.9939914458599
    vertex -7.041085556738574 -4.761629362170837 17.4533202893695
  endloop
endfacet
facet normal 0.941833 0.336081 0.000746927
  outer loop
    vertex -7.041085556738574 -4.761629362170837 17.4533202893695
    vertex -8.464245870022001 -0.7788079685105304 19.90170521923373
    vertex -7.049336552267678 -4.749405665224106 22.35728875446129
  endloop
endfacet
facet normal -0.717231 0.696835 3.22988e-05
  outer loop
    vertex 4.398630866447244 -7.273379304060635 15.00074800542284
    vertex 4.399171524439281 -7.273052309626444 19.95187136968472
    vertex 7.397058823529193 -4.187304713207401 17.49999999999997
  endloop
endfacet
facet normal 0.945743 0.324911 -0.00148549
  outer loop
    vertex -8.471600544314397 -0.6942508318842758 34.59818183681262
    vertex -8.473937465669895 -0.6651194087651167 39.48208632721278
    vertex -7.101474501863573 -4.671087657000404 37.06745893341773
  endloop
endfacet
facet normal 0.946899 0.321527 -0.00143128
  outer loop
    vertex -8.473937465669895 -0.6651194087651167 39.48208632721278
    vertex -8.476090514899765 -0.6370946422834072 44.35325550419721
    vertex -7.119079911128657 -4.644211582062599 41.94767206834213
  endloop
endfacet
facet normal -0.964837 0.26285 -5.83644e-17
  outer loop
    vertex 8.5 8.881784197001229e-15 39.99999999999994
    vertex 7.325470851825186 -4.311319612260219 42.4755212865721
    vertex 8.5 9.992007221626387e-15 44.99999999999996
  endloop
endfacet
facet normal 0.664941 0.746894 0.0014735
  outer loop
    vertex -3.874445243551388 -7.565624498659845 24.84099119541944
    vertex -7.058547502601678 -4.735705560264026 27.27841664282769
    vertex -3.900234046061266 -7.552362172588426 29.75615386628022
  endloop
endfacet
facet normal -0.717513 0.696545 -0.000132817
  outer loop
    vertex 4.399171524439281 -7.273052309626444 19.95187136968472
    vertex 4.39695608441918 -7.274391877792201 24.89504839907244
    vertex 7.400940845426794 -4.180439522645117 22.48678868536197
  endloop
endfacet
facet normal -0.959193 -0.282753 6.27839e-17
  outer loop
    vertex 8.5 8.881784197001229e-15 39.99999999999994
    vertex 7.140858224260926 4.610655465441448 37.46555398610102
    vertex 8.5 7.771561172376074e-15 34.99999999999994
  endloop
endfacet
facet normal 0.78631 -0.617825 0.00288268
  outer loop
    vertex -7.774449306031692 3.436268032028836 22.30912695083832
    vertex -7.797090461257001 3.38457978765091 17.40696794096065
    vertex -5.155012282133707 6.758390960210177 19.81215624067612
  endloop
endfacet
facet normal 0.987768 -0.155928 -0.000641264
  outer loop
    vertex -8.462972354372182 -0.792526926439819 10.11352275179559
    vertex -7.804818012195037 3.366721817512685 12.54540379308605
    vertex -8.461786710807424 -0.8050873622178499 14.9939914458599
  endloop
endfacet
facet normal 0.218887 0.975737 -0.00516152
  outer loop
    vertex 0.2993946413568288 -8.494725589960327 17.47096452300855
    vertex 0.1984608019417812 -8.497682820045275 12.63158108514578
    vertex -3.854085391215233 -7.576016486071115 15.00586807933922
  endloop
endfacet
facet normal -0.285247 0.958454 -0.000592722
  outer loop
    vertex 0.2993946413568288 -8.494725589960327 17.47096452300855
    vertex 0.2877986248171194 -8.495126364660704 22.40346058707009
    vertex 4.399171524439281 -7.273052309626444 19.95187136968472
  endloop
endfacet
facet normal 0.220248 0.975443 -0.00147639
  outer loop
    vertex -3.874445243551388 -7.565624498659845 24.84099119541944
    vertex -3.900234046061266 -7.552362172588426 29.75615386628022
    vertex 0.2624331492336218 -8.495947789516089 27.32082258563968
  endloop
endfacet
facet normal 0.784695 -0.619881 -0.00154627
  outer loop
    vertex -7.774449306031692 3.436268032028836 22.30912695083832
    vertex -5.155012282133707 6.758390960210177 19.81215624067612
    vertex -5.130754312214619 6.776825229242015 24.73243101539328
  endloop
endfacet
facet normal -0.967058 0.254555 -0.000515905
  outer loop
    vertex 7.400940845426794 -4.180439522645117 22.48678868536197
    vertex 7.395961088620316 -4.189243317785944 27.47737386906476
    vertex 8.5 5.551115123125769e-15 24.99999999999996
  endloop
endfacet
facet normal 0.375226 -0.926933 0.000674128
  outer loop
    vertex -1.088023302112761 8.430077419220991 37.16211573565742
    vertex -5.077322823200706 6.816948947220098 39.57401301067857
    vertex -5.087987223055886 6.808993025258585 34.57043568518214
  endloop
endfacet
facet normal -0.966983 0.25484 -5.65859e-17
  outer loop
    vertex 8.5 5.551115123125769e-15 24.99999999999996
    vertex 7.395961088620316 -4.189243317785944 27.47737386906476
    vertex 8.5 6.66133814775092e-15 29.99999999999995
  endloop
endfacet
facet normal -0.964548 0.263902 0.00196976
  outer loop
    vertex 8.5 8.881784197001229e-15 39.99999999999994
    vertex 7.30661255316963 -4.343203080430847 37.51267737591729
    vertex 7.325470851825186 -4.311319612260219 42.4755212865721
  endloop
endfacet
facet normal 0.666323 0.745662 -0.00168851
  outer loop
    vertex -7.058547502601678 -4.735705560264026 27.27841664282769
    vertex -7.076945189996445 -4.708168091496541 32.17908418215862
    vertex -3.900234046061266 -7.552362172588426 29.75615386628022
  endloop
endfacet
facet normal -0.717178 0.69689 0.000314435
  outer loop
    vertex 4.39695608441918 -7.274391877792201 24.89504839907244
    vertex 4.402229897176887 -7.271201546677274 29.85299812578574
    vertex 7.395961088620316 -4.189243317785944 27.47737386906476
  endloop
endfacet
facet normal -0.967135 0.254265 -5.64581e-17
  outer loop
    vertex 8.5 4.440892098500615e-15 19.99999999999997
    vertex 7.400940845426794 -4.180439522645117 22.48678868536197
    vertex 8.5 5.551115123125769e-15 24.99999999999996
  endloop
endfacet
facet normal 0.944366 0.328894 -0.00127651
  outer loop
    vertex -8.469516043210131 -0.71923431078209 29.70327267818703
    vertex -8.471600544314397 -0.6942508318842758 34.59818183681262
    vertex -7.076945189996445 -4.708168091496541 32.17908418215862
  endloop
endfacet
facet normal -0.967357 0.253405 0.00254643
  outer loop
    vertex 8.5 6.66133814775092e-15 29.99999999999995
    vertex 7.395961088620316 -4.189243317785944 27.47737386906476
    vertex 7.420705974278078 -4.145253049370284 32.49999999999996
  endloop
endfacet
facet normal -0.705478 0.708727 -0.00257495
  outer loop
    vertex 4.332661107865821 -7.312868638529404 34.93978571969484
    vertex 4.289734351597713 -7.338131859862056 39.7473240728838
    vertex 7.30661255316963 -4.343203080430847 37.51267737591729
  endloop
endfacet
facet normal 0.801882 -0.596732 0.02994
  outer loop
    vertex -8.010174055829532 2.843784730832394 7.622816225749645
    vertex -5.23680626788869 6.695211730229428 10.10641192495278
    vertex -7.804818012195037 3.366721817512685 12.54540379308605
  endloop
endfacet
facet normal 0.670267 0.742117 -0.00226595
  outer loop
    vertex -7.101474501863573 -4.671087657000404 37.06745893341773
    vertex -3.945774365752807 -7.528669514234772 34.64153651570813
    vertex -7.076945189996445 -4.708168091496541 32.17908418215862
  endloop
endfacet
facet normal 0.984636 -0.174613 -0.00138943
  outer loop
    vertex -7.745840842701701 3.500278508852432 41.8995958826394
    vertex -7.734573906473258 3.525105173651277 46.76401317202919
    vertex -8.476090514899765 -0.6370946422834072 44.35325550419721
  endloop
endfacet
facet normal 0.662803 0.748794 -0.000751278
  outer loop
    vertex -7.041085556738574 -4.761629362170837 17.4533202893695
    vertex -7.049336552267678 -4.749405665224106 22.35728875446129
    vertex -3.865119201394821 -7.570393223539255 19.9223984869914
  endloop
endfacet
facet normal -0.964262 0.264951 -5.8831e-17
  outer loop
    vertex 8.5 7.771561172376074e-15 34.99999999999994
    vertex 7.30661255316963 -4.343203080430847 37.51267737591729
    vertex 8.5 8.881784197001229e-15 39.99999999999994
  endloop
endfacet
facet normal 0.783802 -0.62101 0.000985199
  outer loop
    vertex -7.766608002129748 3.453954276080411 27.21911078747006
    vertex -7.774449306031692 3.436268032028836 22.30912695083832
    vertex -5.130754312214619 6.776825229242015 24.73243101539328
  endloop
endfacet
facet normal 0.986293 -0.165002 -0.000980768
  outer loop
    vertex -7.766608002129748 3.453954276080411 27.21911078747006
    vertex -8.468722360182229 -0.728520134347397 24.79950579771248
    vertex -7.774449306031692 3.436268032028836 22.30912695083832
  endloop
endfacet
facet normal 0.780226 -0.625498 0.000797298
  outer loop
    vertex -5.087987223055886 6.808993025258585 34.57043568518214
    vertex -7.749444990719052 3.492291845739613 37.01540463521361
    vertex -7.755822515251201 3.478105391146526 32.12678825990103
  endloop
endfacet
facet normal 0.371319 -0.928249 -0.0218256
  outer loop
    vertex -5.155012282133707 6.758390960210177 19.81215624067612
    vertex -1.148935603620672 8.421991865273487 17.21407419221849
    vertex -0.7313370338855484 8.468479565002651 22.34154229005873
  endloop
endfacet
facet normal 0.672197 0.740369 0.00230244
  outer loop
    vertex -3.985787292684571 -7.507562830737696 39.53626622591774
    vertex -3.945774365752807 -7.528669514234772 34.64153651570813
    vertex -7.101474501863573 -4.671087657000404 37.06745893341773
  endloop
endfacet
facet normal 0.943793 0.330533 0.00168581
  outer loop
    vertex -7.058547502601678 -4.735705560264026 27.27841664282769
    vertex -8.469516043210131 -0.71923431078209 29.70327267818703
    vertex -7.076945189996445 -4.708168091496541 32.17908418215862
  endloop
endfacet
facet normal 0.359715 -0.933061 0.00172233
  outer loop
    vertex -5.155012282133707 6.758390960210177 19.81215624067612
    vertex -0.7313370338855484 8.468479565002651 22.34154229005873
    vertex -5.130754312214619 6.776825229242015 24.73243101539328
  endloop
endfacet
facet normal 0.675434 0.737418 0.00200915
  outer loop
    vertex -7.119079911128657 -4.644211582062599 41.94767206834213
    vertex -4.02060008073874 -7.488976898800238 44.41798622580793
    vertex -3.985787292684571 -7.507562830737696 39.53626622591774
  endloop
endfacet
facet normal 0.943132 0.332418 0.000839842
  outer loop
    vertex -7.049336552267678 -4.749405665224106 22.35728875446129
    vertex -8.468722360182229 -0.728520134347397 24.79950579771248
    vertex -7.058547502601678 -4.735705560264026 27.27841664282769
  endloop
endfacet
facet normal 0.780963 -0.624575 -0.00126499
  outer loop
    vertex -5.107875224901266 6.794086449762016 29.65219112599115
    vertex -5.087987223055886 6.808993025258585 34.57043568518214
    vertex -7.755822515251201 3.478105391146526 32.12678825990103
  endloop
endfacet
facet normal 0.239018 0.971014 0.00148079
  outer loop
    vertex -4.02060008073874 -7.488976898800238 44.41798622580793
    vertex 0.07017632851129775 -8.499710305823173 46.89499680578911
    vertex 0.0992864282703375 -8.499420109934638 42.00596191496615
  endloop
endfacet
facet normal 0.226885 0.973918 -0.00260825
  outer loop
    vertex -3.900234046061266 -7.552362172588426 29.75615386628022
    vertex -3.945774365752807 -7.528669514234772 34.64153651570813
    vertex 0.1874273810434644 -8.497933335631387 32.25629874409665
  endloop
endfacet
facet normal 0.218669 0.975798 0.00129097
  outer loop
    vertex -3.874445243551388 -7.565624498659845 24.84099119541944
    vertex 0.2624331492336218 -8.495947789516089 27.32082258563968
    vertex 0.2877986248171194 -8.495126364660704 22.40346058707009
  endloop
endfacet
facet normal 0.984922 -0.172991 0.00143059
  outer loop
    vertex -8.473937465669895 -0.6651194087651167 39.48208632721278
    vertex -7.745840842701701 3.500278508852432 41.8995958826394
    vertex -8.476090514899765 -0.6370946422834072 44.35325550419721
  endloop
endfacet
facet normal 0.986156 -0.165821 0.00047361
  outer loop
    vertex -8.469516043210131 -0.71923431078209 29.70327267818703
    vertex -8.468722360182229 -0.728520134347397 24.79950579771248
    vertex -7.766608002129748 3.453954276080411 27.21911078747006
  endloop
endfacet
facet normal 0.987527 -0.157443 0.00133789
  outer loop
    vertex -8.461786710807424 -0.8050873622178499 14.9939914458599
    vertex -7.797090461257001 3.38457978765091 17.40696794096065
    vertex -8.464245870022001 -0.7788079685105304 19.90170521923373
  endloop
endfacet
facet normal -0.111758 -0.993734 -0.00148858
  outer loop
    vertex -1.148935603620672 8.421991865273487 17.21407419221849
    vertex 2.977339989190003 7.961497760394716 14.83919267974156
    vertex 3.005331806041211 7.95097357155695 19.7633242462799
  endloop
endfacet
facet normal 0.223173 0.974771 0.00378377
  outer loop
    vertex -3.900234046061266 -7.552362172588426 29.75615386628022
    vertex 0.1874273810434644 -8.497933335631387 32.25629874409665
    vertex 0.2624331492336218 -8.495947789516089 27.32082258563968
  endloop
endfacet
facet normal 0.37751 -0.925999 -0.00343567
  outer loop
    vertex -1.156579238734427 8.420945580190416 32.09046746964844
    vertex -1.088023302112761 8.430077419220991 37.16211573565742
    vertex -5.087987223055886 6.808993025258585 34.57043568518214
  endloop
endfacet
facet normal 0.996436 3.32611e-15 -0.0843506
  outer loop
    vertex -8.15569027572322 -2.394726733152181 60
    vertex -8.499816414388903 0.05586520996976071 55.93482942706946
    vertex -8.155690275723236 2.394726733152121 60
  endloop
endfacet
facet normal 0.985727 -0.168346 0.00127901
  outer loop
    vertex -8.469516043210131 -0.71923431078209 29.70327267818703
    vertex -7.755822515251201 3.478105391146526 32.12678825990103
    vertex -8.471600544314397 -0.6942508318842758 34.59818183681262
  endloop
endfacet
facet normal -0.965914 0.258594 -0.0117733
  outer loop
    vertex 7.420705974278078 -4.145253049370284 32.49999999999996
    vertex 7.30661255316963 -4.343203080430847 37.51267737591729
    vertex 8.5 7.771561172376074e-15 34.99999999999994
  endloop
endfacet
facet normal 0.782911 -0.622132 -0.00145811
  outer loop
    vertex -7.766608002129748 3.453954276080411 27.21911078747006
    vertex -5.130754312214619 6.776825229242015 24.73243101539328
    vertex -5.107875224901266 6.794086449762016 29.65219112599115
  endloop
endfacet
facet normal 0.985301 -0.17082 0.00149036
  outer loop
    vertex -8.471600544314397 -0.6942508318842758 34.59818183681262
    vertex -7.749444990719052 3.492291845739613 37.01540463521361
    vertex -8.473937465669895 -0.6651194087651167 39.48208632721278
  endloop
endfacet
facet normal -0.133941 -0.990967 -0.00668013
  outer loop
    vertex 3.224839949592456 7.864502991258414 34.58657353436077
    vertex 3.342233513477146 7.815335894341983 39.52646583571191
    vertex -1.088023302112761 8.430077419220991 37.16211573565742
  endloop
endfacet
facet normal 0.673905 0.738816 -0.00163766
  outer loop
    vertex -7.119079911128657 -4.644211582062599 41.94767206834213
    vertex -3.985787292684571 -7.507562830737696 39.53626622591774
    vertex -7.101474501863573 -4.671087657000404 37.06745893341773
  endloop
endfacet
facet normal 0.943387 0.331695 -0.000475412
  outer loop
    vertex -7.058547502601678 -4.735705560264026 27.27841664282769
    vertex -8.468722360182229 -0.728520134347397 24.79950579771248
    vertex -8.469516043210131 -0.71923431078209 29.70327267818703
  endloop
endfacet
facet normal 0.668145 0.744026 0.00261997
  outer loop
    vertex -7.076945189996445 -4.708168091496541 32.17908418215862
    vertex -3.945774365752807 -7.528669514234772 34.64153651570813
    vertex -3.900234046061266 -7.552362172588426 29.75615386628022
  endloop
endfacet
facet normal -0.142886 -0.989454 -0.0237709
  outer loop
    vertex -1.156579238734427 8.420945580190416 32.09046746964844
    vertex -0.6836312320026972 8.47246412436373 27.10315639836356
    vertex 3.281904680273319 7.840861028586088 29.55670152673948
  endloop
endfacet
facet normal 0.772958 -0.634291 0.0144837
  outer loop
    vertex -4.858910868714635 6.974308938517621 44.34970769202373
    vertex -5.080048634198691 6.814917891961429 49.17098418796429
    vertex -7.734573906473258 3.525105173651277 46.76401317202919
  endloop
endfacet
facet normal 0.380052 -0.924964 0.00126663
  outer loop
    vertex -5.107875224901266 6.794086449762016 29.65219112599115
    vertex -1.156579238734427 8.420945580190416 32.09046746964844
    vertex -5.087987223055886 6.808993025258585 34.57043568518214
  endloop
endfacet
facet normal 0.367252 -0.929779 0.0252221
  outer loop
    vertex -5.107875224901266 6.794086449762016 29.65219112599115
    vertex -0.6836312320026972 8.47246412436373 27.10315639836356
    vertex -1.156579238734427 8.420945580190416 32.09046746964844
  endloop
endfacet
facet normal 0.781915 -0.623384 0.00134933
  outer loop
    vertex -7.766608002129748 3.453954276080411 27.21911078747006
    vertex -5.107875224901266 6.794086449762016 29.65219112599115
    vertex -7.755822515251201 3.478105391146526 32.12678825990103
  endloop
endfacet
facet normal -0.12421 -0.992072 0.0191106
  outer loop
    vertex -1.148935603620672 8.421991865273487 17.21407419221849
    vertex 3.005331806041211 7.95097357155695 19.7633242462799
    vertex -0.7313370338855484 8.468479565002651 22.34154229005873
  endloop
endfacet
facet normal 0.768586 -0.639745 0.00148489
  outer loop
    vertex -7.745840842701701 3.500278508852432 41.8995958826394
    vertex -4.858910868714635 6.974308938517621 44.34970769202373
    vertex -7.734573906473258 3.525105173651277 46.76401317202919
  endloop
endfacet
facet normal -0.284849 0.958572 0.000132102
  outer loop
    vertex 0.2877986248171194 -8.495126364660704 22.40346058707009
    vertex 4.39695608441918 -7.274391877792201 24.89504839907244
    vertex 4.399171524439281 -7.273052309626444 19.95187136968472
  endloop
endfacet
facet normal -0.127789 -0.991796 0.00321197
  outer loop
    vertex -1.156579238734427 8.420945580190416 32.09046746964844
    vertex 3.281904680273319 7.840861028586088 29.55670152673948
    vertex 3.224839949592456 7.864502991258414 34.58657353436077
  endloop
endfacet
facet normal 0.942478 0.334259 -0.00257058
  outer loop
    vertex -7.049336552267678 -4.749405665224106 22.35728875446129
    vertex -8.464245870022001 -0.7788079685105304 19.90170521923373
    vertex -8.468722360182229 -0.728520134347397 24.79950579771248
  endloop
endfacet
facet normal 0.996549 1.84805e-15 0.0830104
  outer loop
    vertex -8.155690275723233 2.394726733152134 0
    vertex -8.5 -1.605651917847839e-14 4.133473018321176
    vertex -8.155690275723224 -2.394726733152168 0
  endloop
endfacet
facet normal 0.985977 -0.166873 -0.00134566
  outer loop
    vertex -8.469516043210131 -0.71923431078209 29.70327267818703
    vertex -7.766608002129748 3.453954276080411 27.21911078747006
    vertex -7.755822515251201 3.478105391146526 32.12678825990103
  endloop
endfacet
facet normal 0.838268 0.538722 0.0841728
  outer loop
    vertex -8.155690275723224 -2.394726733152168 0
    vertex -7.223817941817857 -4.479559614903056 4.062913843469389
    vertex -5.566316238534907 -6.423871382011209 0
  endloop
endfacet
facet normal 0.355513 -0.93467 0.00162604
  outer loop
    vertex -5.130754312214619 6.776825229242015 24.73243101539328
    vertex -0.6836312320026972 8.47246412436373 27.10315639836356
    vertex -5.107875224901266 6.794086449762016 29.65219112599115
  endloop
endfacet
facet normal 0.985523 -0.169539 -0.000793689
  outer loop
    vertex -7.755822515251201 3.478105391146526 32.12678825990103
    vertex -7.749444990719052 3.492291845739613 37.01540463521361
    vertex -8.471600544314397 -0.6942508318842758 34.59818183681262
  endloop
endfacet
facet normal -0.62066 -0.784073 -0.0033561
  outer loop
    vertex 3.281904680273319 7.840861028586088 29.55670152673948
    vertex 6.896362977856686 4.968921178449871 32.07773762154102
    vertex 3.224839949592456 7.864502991258414 34.58657353436077
  endloop
endfacet
facet normal -0.600836 -0.79937 0.00170706
  outer loop
    vertex 2.977339989190003 7.961497760394716 14.83919267974156
    vertex 6.811138048740699 5.085115385219565 17.29387408185704
    vertex 3.005331806041211 7.95097357155695 19.7633242462799
  endloop
endfacet
facet normal 0.838586 0.538927 -0.0795719
  outer loop
    vertex -5.566316238534897 -6.423871382011218 60
    vertex -7.174409575477296 -4.558272396785836 55.68812570044811
    vertex -8.15569027572322 -2.394726733152181 60
  endloop
endfacet
facet normal 0.413981 -0.906493 0.0830104
  outer loop
    vertex -1.209676125322936 8.413482255987926 0
    vertex -3.531027610516046 7.731871960513401 4.133473018321183
    vertex -5.566316238534934 6.423871382011185 0
  endloop
endfacet
facet normal 0.985108 -0.171935 -0.000445783
  outer loop
    vertex -8.473937465669895 -0.6651194087651167 39.48208632721278
    vertex -7.749444990719052 3.492291845739613 37.01540463521361
    vertex -7.745840842701701 3.500278508852432 41.8995958826394
  endloop
endfacet
facet normal 0.787463 -0.616362 -0.000436294
  outer loop
    vertex -7.797090461257001 3.38457978765091 17.40696794096065
    vertex -5.161869948471189 6.753154717246603 14.83217125110223
    vertex -5.155012282133707 6.758390960210177 19.81215624067612
  endloop
endfacet
facet normal 0.414172 0.906911 0.0772886
  outer loop
    vertex -5.566316238534907 -6.423871382011209 0
    vertex -3.635826378256934 -7.683148218482516 4.431397331925389
    vertex -1.209676125322895 -8.413482255987933 0
  endloop
endfacet
facet normal 0.959036 0.271086 0.0822329
  outer loop
    vertex -7.174409575477296 -4.558272396785836 55.68812570044811
    vertex -8.499816414388903 0.05586520996976071 55.93482942706946
    vertex -8.15569027572322 -2.394726733152181 60
  endloop
endfacet
facet normal 0.413873 -0.906256 -0.0860767
  outer loop
    vertex -5.566316238534943 6.423871382011177 60
    vertex -3.419619576078174 7.781786552900493 56.02495695507891
    vertex -1.209676125322949 8.413482255987924 60
  endloop
endfacet
facet normal -0.127958 -0.991773 0.00351543
  outer loop
    vertex -1.156579238734427 8.420945580190416 32.09046746964844
    vertex 3.224839949592456 7.864502991258414 34.58657353436077
    vertex -1.088023302112761 8.430077419220991 37.16211573565742
  endloop
endfacet
facet normal 0.230494 0.973071 -0.00231178
  outer loop
    vertex -3.985787292684571 -7.507562830737696 39.53626622591774
    vertex 0.1723093639180422 -8.498253319541973 37.11650815765765
    vertex -3.945774365752807 -7.528669514234772 34.64153651570813
  endloop
endfacet
facet normal 0.413996 0.906525 -0.0825868
  outer loop
    vertex -1.209676125322882 -8.413482255987935 60
    vertex -3.401928430000489 -7.789536761396945 55.85936887458556
    vertex -5.566316238534897 -6.423871382011218 60
  endloop
endfacet
facet normal 0.987736 -0.156132 -0.000996507
  outer loop
    vertex -7.804818012195037 3.366721817512685 12.54540379308605
    vertex -7.797090461257001 3.38457978765091 17.40696794096065
    vertex -8.461786710807424 -0.8050873622178499 14.9939914458599
  endloop
endfacet
facet normal 0.237091 0.971485 -0.00200793
  outer loop
    vertex -4.02060008073874 -7.488976898800238 44.41798622580793
    vertex 0.0992864282703375 -8.499420109934638 42.00596191496615
    vertex -3.985787292684571 -7.507562830737696 39.53626622591774
  endloop
endfacet
facet normal -0.141813 0.986333 0.0838864
  outer loop
    vertex -1.209676125322895 -8.413482255987933 0
    vertex 1.201873636366726 -8.414600392306614 4.089964734429159
    vertex 3.531027610516052 -7.731871960513399 0
  endloop
endfacet
facet normal -0.269404 0.963026 -0.00154691
  outer loop
    vertex 0.07017632851129775 -8.499710305823173 46.89499680578911
    vertex 4.338746770089859 -7.309259638638842 44.61097310276917
    vertex 0.0992864282703375 -8.499420109934638 42.00596191496615
  endloop
endfacet
facet normal -0.141796 0.986216 -0.0852718
  outer loop
    vertex 3.531027610516064 -7.731871960513393 60
    vertex 1.186988988257164 -8.416712965389532 55.97727541151425
    vertex -1.209676125322882 -8.413482255987935 60
  endloop
endfacet
facet normal -0.284048 0.958809 -0.00130506
  outer loop
    vertex 0.2624331492336218 -8.495947789516089 27.32082258563968
    vertex 4.39695608441918 -7.274391877792201 24.89504839907244
    vertex 0.2877986248171194 -8.495126364660704 22.40346058707009
  endloop
endfacet
facet normal -0.14181 -0.98631 -0.0841536
  outer loop
    vertex -1.209676125322949 8.413482255987924 60
    vertex 1.313286413277627 8.397933007395354 55.93071604851882
    vertex 3.531027610516014 7.731871960513415 60
  endloop
endfacet
facet normal 0.357572 -0.933881 -0.00280097
  outer loop
    vertex -0.7313370338855484 8.468479565002651 22.34154229005873
    vertex -0.6836312320026972 8.47246412436373 27.10315639836356
    vertex -5.130754312214619 6.776825229242015 24.73243101539328
  endloop
endfacet
facet normal 0.986634 -0.162933 0.00257467
  outer loop
    vertex -8.468722360182229 -0.728520134347397 24.79950579771248
    vertex -8.464245870022001 -0.7788079685105304 19.90170521923373
    vertex -7.774449306031692 3.436268032028836 22.30912695083832
  endloop
endfacet
facet normal 0.233817 0.972274 0.00372402
  outer loop
    vertex 0.0992864282703375 -8.499420109934638 42.00596191496615
    vertex 0.1723093639180422 -8.498253319541973 37.11650815765765
    vertex -3.985787292684571 -7.507562830737696 39.53626622591774
  endloop
endfacet
facet normal 0.958393 0.274282 -0.0790731
  outer loop
    vertex -8.155690275723224 -2.394726733152168 0
    vertex -8.5 -1.605651917847839e-14 4.133473018321176
    vertex -7.223817941817857 -4.479559614903056 4.062913843469389
  endloop
endfacet
facet normal -0.652698 -0.753253 0.0812076
  outer loop
    vertex 7.150655029065036 4.595446948372584 0
    vertex 5.198401017806351 6.725074487176324 4.062643486180136
    vertex 3.531027610516026 7.731871960513409 0
  endloop
endfacet
facet normal -0.652601 -0.753141 -0.0830104
  outer loop
    vertex 3.531027610516014 7.731871960513415 60
    vertex 5.566316238534907 6.423871382011209 55.86652698167883
    vertex 7.150655029065029 4.595446948372595 60
  endloop
endfacet
facet normal 0.789957 -0.613141 -0.00500856
  outer loop
    vertex -5.23680626788869 6.695211730229428 10.10641192495278
    vertex -5.161869948471189 6.753154717246603 14.83217125110223
    vertex -7.804818012195037 3.366721817512685 12.54540379308605
  endloop
endfacet
facet normal 0.668446 0.739325 -0.0811062
  outer loop
    vertex -7.223817941817857 -4.479559614903056 4.062913843469389
    vertex -3.635826378256934 -7.683148218482516 4.431397331925389
    vertex -5.566316238534907 -6.423871382011209 0
  endloop
endfacet
facet normal 0.779699 -0.626154 -0.000666202
  outer loop
    vertex -5.087987223055886 6.808993025258585 34.57043568518214
    vertex -5.077322823200706 6.816948947220098 39.57401301067857
    vertex -7.749444990719052 3.492291845739613 37.01540463521361
  endloop
endfacet
facet normal 0.787999 -0.615676 0.00100902
  outer loop
    vertex -7.804818012195037 3.366721817512685 12.54540379308605
    vertex -5.161869948471189 6.753154717246603 14.83217125110223
    vertex -7.797090461257001 3.38457978765091 17.40696794096065
  endloop
endfacet
facet normal 0.645748 0.758536 0.0873639
  outer loop
    vertex -5.566316238534897 -6.423871382011218 60
    vertex -3.401928430000489 -7.789536761396945 55.85936887458556
    vertex -7.174409575477296 -4.558272396785836 55.68812570044811
  endloop
endfacet
facet normal 0.143161 0.986116 -0.0841416
  outer loop
    vertex -1.209676125322895 -8.413482255987933 0
    vertex -3.635826378256934 -7.683148218482516 4.431397331925389
    vertex 1.201873636366726 -8.414600392306614 4.089964734429159
  endloop
endfacet
facet normal 0.987129 -0.159902 -0.00287315
  outer loop
    vertex -8.464245870022001 -0.7788079685105304 19.90170521923373
    vertex -7.797090461257001 3.38457978765091 17.40696794096065
    vertex -7.774449306031692 3.436268032028836 22.30912695083832
  endloop
endfacet
facet normal -0.967736 0.251968 -5.59481e-17
  outer loop
    vertex 8.5 6.66133814775092e-15 29.99999999999995
    vertex 7.420705974278078 -4.145253049370284 32.49999999999996
    vertex 8.5 7.771561172376074e-15 34.99999999999994
  endloop
endfacet
facet normal -0.962996 -0.269515 5.98444e-17
  outer loop
    vertex 8.5 6.66133814775092e-15 29.99999999999995
    vertex 7.265145740888252 4.412216830987941 27.39768984663007
    vertex 8.5 5.551115123125769e-15 24.99999999999996
  endloop
endfacet
facet normal 0.130287 -0.987864 0.0845531
  outer loop
    vertex -3.419619576078174 7.781786552900493 56.02495695507891
    vertex 1.313286413277627 8.397933007395354 55.93071604851882
    vertex -1.209676125322949 8.413482255987924 60
  endloop
endfacet
facet normal 0.228737 0.973488 0.000775595
  outer loop
    vertex -3.945774365752807 -7.528669514234772 34.64153651570813
    vertex 0.1723093639180422 -8.498253319541973 37.11650815765765
    vertex 0.1874273810434644 -8.497933335631387 32.25629874409665
  endloop
endfacet
facet normal 0.133017 0.988004 0.0784553
  outer loop
    vertex 1.186988988257164 -8.416712965389532 55.97727541151425
    vertex -3.401928430000489 -7.789536761396945 55.85936887458556
    vertex -1.209676125322882 -8.413482255987935 60
  endloop
endfacet
facet normal 0.77928 -0.626676 0.000449697
  outer loop
    vertex -7.749444990719052 3.492291845739613 37.01540463521361
    vertex -5.077322823200706 6.816948947220098 39.57401301067857
    vertex -7.745840842701701 3.500278508852432 41.8995958826394
  endloop
endfacet
facet normal -0.2815 0.959553 -0.00389201
  outer loop
    vertex 0.1874273810434644 -8.497933335631387 32.25629874409665
    vertex 4.402229897176887 -7.271201546677274 29.85299812578574
    vertex 0.2624331492336218 -8.495947789516089 27.32082258563968
  endloop
endfacet
facet normal 0.774039 -0.632971 -0.0145434
  outer loop
    vertex -7.745840842701701 3.500278508852432 41.8995958826394
    vertex -5.077322823200706 6.816948947220098 39.57401301067857
    vertex -4.858910868714635 6.974308938517621 44.34970769202373
  endloop
endfacet
facet normal -0.283515 0.958968 -0.000315498
  outer loop
    vertex 0.2624331492336218 -8.495947789516089 27.32082258563968
    vertex 4.402229897176887 -7.271201546677274 29.85299812578574
    vertex 4.39695608441918 -7.274391877792201 24.89504839907244
  endloop
endfacet
facet normal -0.418665 -0.904601 0.0801054
  outer loop
    vertex 3.531027610516014 7.731871960513415 60
    vertex 1.313286413277627 8.397933007395354 55.93071604851882
    vertex 5.566316238534907 6.423871382011209 55.86652698167883
  endloop
endfacet
facet normal -0.969684 -0.244364 5.42597e-17
  outer loop
    vertex 8.5 2.220446049250305e-15 9.999999999999979
    vertex 7.484864562760408 4.02825054795918 7.758757600631036
    vertex 8.5 1.110223024625153e-15 4.999999999999993
  endloop
endfacet
facet normal -0.969269 -0.246003 5.46237e-17
  outer loop
    vertex 8.5 1.22124532708767e-14 54.99999999999999
    vertex 7.471199386363441 4.053539160931166 52.24324407715729
    vertex 8.5 1.110223024625155e-14 49.99999999999997
  endloop
endfacet
facet normal -0.962735 -0.270439 0.00183369
  outer loop
    vertex 8.5 5.551115123125769e-15 24.99999999999996
    vertex 7.265145740888252 4.412216830987941 27.39768984663007
    vertex 7.247619827687749 4.440946614552735 22.4332834837773
  endloop
endfacet
facet normal 0.432798 -0.900637 -0.0392324
  outer loop
    vertex -1.591618227850822 8.349655766363846 52.42194262398316
    vertex -5.582838992133447 6.409517047946311 52.93094489955645
    vertex -5.080048634198691 6.814917891961429 49.17098418796429
  endloop
endfacet
facet normal 0.696521 0.717525 -0.00391808
  outer loop
    vertex -7.182387089512925 -4.545691993129105 46.73227464908922
    vertex -7.221601790598884 -4.483131447773864 51.21786064039576
    vertex -4.295939409286553 -7.334500977690213 49.13948662802684
  endloop
endfacet
facet normal 0.647624 -0.756467 0.0913284
  outer loop
    vertex -5.566316238534943 6.423871382011177 60
    vertex -7.150655029065056 4.595446948372554 56.09007606387327
    vertex -3.419619576078174 7.781786552900493 56.02495695507891
  endloop
endfacet
facet normal 0.954381 -0.286516 0.084054
  outer loop
    vertex -8.499816414388903 0.05586520996976071 55.93482942706946
    vertex -7.150655029065056 4.595446948372554 56.09007606387327
    vertex -8.155690275723236 2.394726733152121 60
  endloop
endfacet
facet normal -0.268955 0.963145 -0.00378695
  outer loop
    vertex 0.0992864282703375 -8.499420109934638 42.00596191496615
    vertex 4.289734351597713 -7.338131859862056 39.7473240728838
    vertex 0.1723093639180422 -8.498253319541973 37.11650815765765
  endloop
endfacet
facet normal -0.272749 0.962082 0.00262027
  outer loop
    vertex 0.1723093639180422 -8.498253319541973 37.11650815765765
    vertex 4.289734351597713 -7.338131859862056 39.7473240728838
    vertex 4.332661107865821 -7.312868638529404 34.93978571969484
  endloop
endfacet
facet normal -0.256257 0.966609 0.00060924
  outer loop
    vertex 4.043106771145987 -7.476850114661486 10.12069516219019
    vertex 0.1870452246003163 -8.497941755740282 8.240822535196429
    vertex 0.1984608019417812 -8.497682820045275 12.63158108514578
  endloop
endfacet
facet normal -0.402285 0.912287 -0.0768074
  outer loop
    vertex 1.201873636366726 -8.414600392306614 4.089964734429159
    vertex 5.349690570184944 -6.605362276459505 3.854823109628036
    vertex 3.531027610516052 -7.731871960513399 0
  endloop
endfacet
facet normal 0.958735 -0.270916 0.0862091
  outer loop
    vertex -8.5 -1.605651917847839e-14 4.133473018321176
    vertex -7.150655029065049 4.595446948372567 3.568745914482584
    vertex -8.010174055829532 2.843784730832394 7.622816225749645
  endloop
endfacet
facet normal -0.41456 0.905819 0.0873546
  outer loop
    vertex 3.531027610516064 -7.731871960513393 60
    vertex 5.566316238534952 -6.42387138201117 56.0956595552671
    vertex 1.186988988257164 -8.416712965389532 55.97727541151425
  endloop
endfacet
facet normal -0.968365 -0.249356 -0.00956857
  outer loop
    vertex 7.3970588235267 4.187304713211805 12.49999999999997
    vertex 7.484864562760408 4.02825054795918 7.758757600631036
    vertex 8.5 2.220446049250305e-15 9.999999999999979
  endloop
endfacet
facet normal -0.963615 -0.264787 0.0365353
  outer loop
    vertex 8.5 1.110223024625155e-14 49.99999999999997
    vertex 7.471199386363441 4.053539160931166 52.24324407715729
    vertex 7.139960565586286 4.61204543796706 47.55459837209442
  endloop
endfacet
facet normal -0.268568 0.963256 -0.00301177
  outer loop
    vertex 4.338746770089859 -7.309259638638842 44.61097310276917
    vertex 4.289734351597713 -7.338131859862056 39.7473240728838
    vertex 0.0992864282703375 -8.499420109934638 42.00596191496615
  endloop
endfacet
facet normal 0.838011 -0.538557 -0.087721
  outer loop
    vertex -8.155690275723236 2.394726733152121 60
    vertex -7.150655029065056 4.595446948372554 56.09007606387327
    vertex -5.566316238534943 6.423871382011177 60
  endloop
endfacet
facet normal 0.937742 0.347102 0.0126777
  outer loop
    vertex -7.011799748658989 -4.804650277044703 12.62118564957992
    vertex -6.88954691339063 -4.978367536471131 8.334596947003988
    vertex -8.462972354372182 -0.792526926439819 10.11352275179559
  endloop
endfacet
facet normal -0.128127 -0.990807 -0.0434256
  outer loop
    vertex 3.488644627894232 7.751087579189433 51.08974228139908
    vertex -1.591618227850822 8.349655766363846 52.42194262398316
    vertex -0.9352110633868811 8.448395129663313 48.23236937498948
  endloop
endfacet
facet normal 0.95267 -0.290672 -0.0890452
  outer loop
    vertex -8.155690275723233 2.394726733152134 0
    vertex -7.150655029065049 4.595446948372567 3.568745914482584
    vertex -8.5 -1.605651917847839e-14 4.133473018321176
  endloop
endfacet
facet normal 0.660158 -0.74583 -0.0890452
  outer loop
    vertex -3.531027610516046 7.731871960513401 4.133473018321183
    vertex -7.150655029065049 4.595446948372567 3.568745914482584
    vertex -5.566316238534934 6.423871382011185 0
  endloop
endfacet
facet normal -0.652334 0.752834 0.0877605
  outer loop
    vertex 3.531027610516052 -7.731871960513399 0
    vertex 5.349690570184944 -6.605362276459505 3.854823109628036
    vertex 7.150655029065057 -4.595446948372554 0
  endloop
endfacet
facet normal -0.652329 0.752828 -0.0878455
  outer loop
    vertex 7.150655029065064 -4.595446948372542 60
    vertex 5.566316238534952 -6.42387138201117 56.0956595552671
    vertex 3.531027610516064 -7.731871960513393 60
  endloop
endfacet
facet normal 0.272249 0.961749 0.0303104
  outer loop
    vertex -4.295939409286553 -7.334500977690213 49.13948662802684
    vertex -0.5148142387538344 -8.484395458698062 51.66345921419924
    vertex 0.07017632851129775 -8.499710305823173 46.89499680578911
  endloop
endfacet
facet normal -0.641625 0.766463 0.0291895
  outer loop
    vertex 6.871522292022884 -5.003217104047413 7.339971866847748
    vertex 3.636219191852425 -7.682962318585463 6.588893688731332
    vertex 4.043106771145987 -7.476850114661486 10.12069516219019
  endloop
endfacet
facet normal -0.656567 0.753058 -0.0426978
  outer loop
    vertex 4.211688210054196 -7.383202721129258 49.91164477506189
    vertex 3.641342356431557 -7.680535517999867 53.43784425649444
    vertex 7.03886052635325 -4.764917889171443 52.61657005983815
  endloop
endfacet
facet normal 0.310497 0.950024 -0.0323302
  outer loop
    vertex -4.295939409286553 -7.334500977690213 49.13948662802684
    vertex -4.690326697301224 -7.088782368826354 52.57226876768973
    vertex -0.5148142387538344 -8.484395458698062 51.66345921419924
  endloop
endfacet
facet normal 0.948661 0.316272 0.0038825
  outer loop
    vertex -8.470183145904166 -0.7113349948097505 49.04581267725559
    vertex -7.221601790598884 -4.483131447773864 51.21786064039576
    vertex -7.182387089512925 -4.545691993129105 46.73227464908922
  endloop
endfacet
facet normal 0.152405 -0.98767 0.0357923
  outer loop
    vertex -3.531027610516046 7.731871960513401 4.133473018321183
    vertex 1.209676125322914 8.41348225598793 2.75610385379337
    vertex 0.7129049858383431 8.470051149855403 6.432362149342957
  endloop
endfacet
facet normal 0.994493 -0.0964403 -0.0410203
  outer loop
    vertex -8.012259172948653 2.837904675196156 51.80328720357336
    vertex -8.386364728732131 -1.385238837413125 52.66227036714909
    vertex -8.470183145904166 -0.7113349948097505 49.04581267725559
  endloop
endfacet
facet normal -0.978956 -0.204069 4.53125e-17
  outer loop
    vertex 8.5 1.110223024625153e-15 4.999999999999993
    vertex 7.792046078679244 3.396176954715318 3.551102781274217
    vertex 8.5 0 0
  endloop
endfacet
facet normal -0.976563 -0.215232 4.7791e-17
  outer loop
    vertex 8.5 1.332267629550186e-14 60
    vertex 7.712480398326954 3.573184308907466 56.39777454328891
    vertex 8.5 1.22124532708767e-14 54.99999999999999
  endloop
endfacet
facet normal -0.956576 -0.280876 0.0779175
  outer loop
    vertex 8.5 0 0
    vertex 7.792046078679244 3.396176954715318 3.551102781274217
    vertex 7.150655029065036 4.595446948372584 0
  endloop
endfacet
facet normal -0.957171 -0.281051 -0.0695279
  outer loop
    vertex 7.150655029065029 4.595446948372595 60
    vertex 7.712480398326954 3.573184308907466 56.39777454328891
    vertex 8.5 1.332267629550186e-14 60
  endloop
endfacet
facet normal 0.113252 -0.98858 -0.0994147
  outer loop
    vertex -1.209676125322936 8.413482255987926 0
    vertex 1.209676125322914 8.41348225598793 2.75610385379337
    vertex -3.531027610516046 7.731871960513401 4.133473018321183
  endloop
endfacet
facet normal -0.366425 -0.927057 -0.0793549
  outer loop
    vertex 5.198401017806351 6.725074487176324 4.062643486180136
    vertex 1.209676125322914 8.41348225598793 2.75610385379337
    vertex 3.531027610516026 7.731871960513409 0
  endloop
endfacet
facet normal -0.969383 0.245555 -5.45242e-17
  outer loop
    vertex 8.5 0 0
    vertex 7.474945048507533 -4.046627796300607 3.5896484651851
    vertex 8.5 1.110223024625153e-15 4.999999999999993
  endloop
endfacet
facet normal -0.973755 0.227598 -5.05369e-17
  outer loop
    vertex 8.5 1.22124532708767e-14 54.99999999999999
    vertex 7.619386036706596 -3.767619463751688 56.42205505718272
    vertex 8.5 1.332267629550186e-14 60
  endloop
endfacet
facet normal -0.958582 0.281465 0.0435656
  outer loop
    vertex 7.150655029065057 -4.595446948372554 0
    vertex 7.474945048507533 -4.046627796300607 3.5896484651851
    vertex 8.5 0 0
  endloop
endfacet
facet normal -0.957741 0.281218 -0.0604042
  outer loop
    vertex 8.5 1.332267629550186e-14 60
    vertex 7.619386036706596 -3.767619463751688 56.42205505718272
    vertex 7.150655029065064 -4.595446948372542 60
  endloop
endfacet
facet normal -0.623848 0.776937 -0.0847522
  outer loop
    vertex 5.349690570184944 -6.605362276459505 3.854823109628036
    vertex 3.636219191852425 -7.682962318585463 6.588893688731332
    vertex 6.871522292022884 -5.003217104047413 7.339971866847748
  endloop
endfacet
facet normal -0.63455 0.766765 0.0970441
  outer loop
    vertex 7.03886052635325 -4.764917889171443 52.61657005983815
    vertex 3.641342356431557 -7.680535517999867 53.43784425649444
    vertex 5.566316238534952 -6.42387138201117 56.0956595552671
  endloop
endfacet
facet normal 0.389704 -0.914302 -0.110375
  outer loop
    vertex -5.23680626788869 6.695211730229428 10.10641192495278
    vertex -2.729847153655584 8.049716424674756 7.737648478643258
    vertex -0.7822659761728821 8.463926981166738 11.1828667167628
  endloop
endfacet
facet normal 0.837365 -0.538142 0.0960333
  outer loop
    vertex -5.566316238534934 6.423871382011185 0
    vertex -7.150655029065049 4.595446948372567 3.568745914482584
    vertex -8.155690275723233 2.394726733152134 0
  endloop
endfacet
facet normal 0.218746 0.975782 -0.000626264
  outer loop
    vertex 0.1984608019417812 -8.497682820045275 12.63158108514578
    vertex 0.1870452246003163 -8.497941755740282 8.240822535196429
    vertex -3.801303149932731 -7.602637329395076 10.13707825381488
  endloop
endfacet
facet normal 0.651605 0.758461 -0.0121536
  outer loop
    vertex -3.801303149932731 -7.602637329395076 10.13707825381488
    vertex -6.88954691339063 -4.978367536471131 8.334596947003988
    vertex -7.011799748658989 -4.804650277044703 12.62118564957992
  endloop
endfacet
facet normal 0.955956 0.279404 -0.0898977
  outer loop
    vertex -7.174409575477296 -4.558272396785836 55.68812570044811
    vertex -8.386364728732131 -1.385238837413125 52.66227036714909
    vertex -8.499816414388903 0.05586520996976071 55.93482942706946
  endloop
endfacet
facet normal 0.126765 -0.987717 -0.0913587
  outer loop
    vertex -3.419619576078174 7.781786552900493 56.02495695507891
    vertex -1.591618227850822 8.349655766363846 52.42194262398316
    vertex 1.313286413277627 8.397933007395354 55.93071604851882
  endloop
endfacet
facet normal -0.209572 0.976592 0.0484501
  outer loop
    vertex -0.5148142387538344 -8.484395458698062 51.66345921419924
    vertex 3.641342356431557 -7.680535517999867 53.43784425649444
    vertex 4.211688210054196 -7.383202721129258 49.91164477506189
  endloop
endfacet
facet normal 0.6501 0.754003 -0.09407
  outer loop
    vertex -3.401928430000489 -7.789536761396945 55.85936887458556
    vertex -4.690326697301224 -7.088782368826354 52.57226876768973
    vertex -7.174409575477296 -4.558272396785836 55.68812570044811
  endloop
endfacet
facet normal -0.974862 -0.219511 -0.0381953
  outer loop
    vertex 7.484864562760408 4.02825054795918 7.758757600631036
    vertex 7.792046078679244 3.396176954715318 3.551102781274217
    vertex 8.5 1.110223024625153e-15 4.999999999999993
  endloop
endfacet
facet normal -0.973551 -0.226444 0.0303587
  outer loop
    vertex 8.5 1.22124532708767e-14 54.99999999999999
    vertex 7.712480398326954 3.573184308907466 56.39777454328891
    vertex 7.471199386363441 4.053539160931166 52.24324407715729
  endloop
endfacet
facet normal 0.136664 -0.989738 0.0417377
  outer loop
    vertex -0.7822659761728821 8.463926981166738 11.1828667167628
    vertex -2.729847153655584 8.049716424674756 7.737648478643258
    vertex 0.7129049858383431 8.470051149855403 6.432362149342957
  endloop
endfacet
facet normal 0.444343 -0.891827 0.0848786
  outer loop
    vertex -3.419619576078174 7.781786552900493 56.02495695507891
    vertex -5.582838992133447 6.409517047946311 52.93094489955645
    vertex -1.591618227850822 8.349655766363846 52.42194262398316
  endloop
endfacet
facet normal -0.242816 0.96965 -0.0286138
  outer loop
    vertex 4.043106771145987 -7.476850114661486 10.12069516219019
    vertex 3.636219191852425 -7.682962318585463 6.588893688731332
    vertex 0.1870452246003163 -8.497941755740282 8.240822535196429
  endloop
endfacet
facet normal 0.935413 0.353535 -0.00393248
  outer loop
    vertex -7.221601790598884 -4.483131447773864 51.21786064039576
    vertex -8.386364728732131 -1.385238837413125 52.66227036714909
    vertex -7.174409575477296 -4.558272396785836 55.68812570044811
  endloop
endfacet
facet normal -0.958464 0.272328 -0.0847535
  outer loop
    vertex 8.5 1.110223024625153e-15 4.999999999999993
    vertex 7.474945048507533 -4.046627796300607 3.5896484651851
    vertex 6.871522292022884 -5.003217104047413 7.339971866847748
  endloop
endfacet
facet normal -0.963512 0.255417 0.0800467
  outer loop
    vertex 7.03886052635325 -4.764917889171443 52.61657005983815
    vertex 7.619386036706596 -3.767619463751688 56.42205505718272
    vertex 8.5 1.22124532708767e-14 54.99999999999999
  endloop
endfacet
facet normal 0.643967 -0.756397 -0.114758
  outer loop
    vertex -7.150655029065056 4.595446948372554 56.09007606387327
    vertex -5.582838992133447 6.409517047946311 52.93094489955645
    vertex -3.419619576078174 7.781786552900493 56.02495695507891
  endloop
endfacet
facet normal 0.818818 -0.572059 0.0478145
  outer loop
    vertex -5.080048634198691 6.814917891961429 49.17098418796429
    vertex -5.582838992133447 6.409517047946311 52.93094489955645
    vertex -8.012259172948653 2.837904675196156 51.80328720357336
  endloop
endfacet
facet normal 0.917305 0.38613 -0.0972322
  outer loop
    vertex -6.88954691339063 -4.978367536471131 8.334596947003988
    vertex -8.208341939545717 -2.207515029053 6.896521011090847
    vertex -8.462972354372182 -0.792526926439819 10.11352275179559
  endloop
endfacet
facet normal -0.785694 -0.6176 0.035416
  outer loop
    vertex 5.198401017806351 6.725074487176324 4.062643486180136
    vertex 7.792046078679244 3.396176954715318 3.551102781274217
    vertex 7.484864562760408 4.02825054795918 7.758757600631036
  endloop
endfacet
facet normal -0.796563 -0.604095 -0.0235849
  outer loop
    vertex 7.471199386363441 4.053539160931166 52.24324407715729
    vertex 7.712480398326954 3.573184308907466 56.39777454328891
    vertex 5.566316238534907 6.423871382011209 55.86652698167883
  endloop
endfacet
facet normal 0.141766 -0.988335 0.0556457
  outer loop
    vertex 0.7129049858383431 8.470051149855403 6.432362149342957
    vertex -2.729847153655584 8.049716424674756 7.737648478643258
    vertex -3.531027610516046 7.731871960513401 4.133473018321183
  endloop
endfacet
facet normal 0.716179 0.697904 0.00417047
  outer loop
    vertex -7.174409575477296 -4.558272396785836 55.68812570044811
    vertex -4.690326697301224 -7.088782368826354 52.57226876768973
    vertex -7.221601790598884 -4.483131447773864 51.21786064039576
  endloop
endfacet
facet normal 0.708825 0.704703 0.0309933
  outer loop
    vertex -7.221601790598884 -4.483131447773864 51.21786064039576
    vertex -4.690326697301224 -7.088782368826354 52.57226876768973
    vertex -4.295939409286553 -7.334500977690213 49.13948662802684
  endloop
endfacet
facet normal -0.791917 -0.607461 -0.0621164
  outer loop
    vertex 7.150655029065036 4.595446948372584 0
    vertex 7.792046078679244 3.396176954715318 3.551102781274217
    vertex 5.198401017806351 6.725074487176324 4.062643486180136
  endloop
endfacet
facet normal -0.802049 -0.59564 0.0439421
  outer loop
    vertex 5.566316238534907 6.423871382011209 55.86652698167883
    vertex 7.712480398326954 3.573184308907466 56.39777454328891
    vertex 7.150655029065029 4.595446948372595 60
  endloop
endfacet
facet normal 0.82664 -0.560082 -0.054543
  outer loop
    vertex -8.010174055829532 2.843784730832394 7.622816225749645
    vertex -5.799947817435511 6.213743261112826 6.515600603340893
    vertex -5.23680626788869 6.695211730229428 10.10641192495278
  endloop
endfacet
facet normal -0.141217 -0.982187 0.123963
  outer loop
    vertex 3.531027610516026 7.731871960513409 0
    vertex 1.209676125322914 8.41348225598793 2.75610385379337
    vertex -1.209676125322936 8.413482255987926 0
  endloop
endfacet
facet normal 0.638632 -0.759404 0.124314
  outer loop
    vertex -3.531027610516046 7.731871960513401 4.133473018321183
    vertex -5.799947817435511 6.213743261112826 6.515600603340893
    vertex -7.150655029065049 4.595446948372567 3.568745914482584
  endloop
endfacet
facet normal 0.955806 0.270485 0.11521
  outer loop
    vertex -8.5 -1.605651917847839e-14 4.133473018321176
    vertex -8.208341939545717 -2.207515029053 6.896521011090847
    vertex -7.223817941817857 -4.479559614903056 4.062913843469389
  endloop
endfacet
facet normal -0.218526 0.973249 0.0709387
  outer loop
    vertex 1.186988988257164 -8.416712965389532 55.97727541151425
    vertex 3.641342356431557 -7.680535517999867 53.43784425649444
    vertex -0.5148142387538344 -8.484395458698062 51.66345921419924
  endloop
endfacet
facet normal 0.813814 -0.576546 0.0728096
  outer loop
    vertex -8.012259172948653 2.837904675196156 51.80328720357336
    vertex -5.582838992133447 6.409517047946311 52.93094489955645
    vertex -7.150655029065056 4.595446948372554 56.09007606387327
  endloop
endfacet
facet normal -0.391738 0.912947 0.11432
  outer loop
    vertex 1.201873636366726 -8.414600392306614 4.089964734429159
    vertex 3.636219191852425 -7.682962318585463 6.588893688731332
    vertex 5.349690570184944 -6.605362276459505 3.854823109628036
  endloop
endfacet
facet normal -0.766592 0.64088 0.0401246
  outer loop
    vertex 6.871522292022884 -5.003217104047413 7.339971866847748
    vertex 7.474945048507533 -4.046627796300607 3.5896484651851
    vertex 5.349690570184944 -6.605362276459505 3.854823109628036
  endloop
endfacet
facet normal -0.788127 0.614163 -0.0407244
  outer loop
    vertex 5.566316238534952 -6.42387138201117 56.0956595552671
    vertex 7.619386036706596 -3.767619463751688 56.42205505718272
    vertex 7.03886052635325 -4.764917889171443 52.61657005983815
  endloop
endfacet
facet normal -0.407605 0.903566 -0.132007
  outer loop
    vertex 5.566316238534952 -6.42387138201117 56.0956595552671
    vertex 3.641342356431557 -7.680535517999867 53.43784425649444
    vertex 1.186988988257164 -8.416712965389532 55.97727541151425
  endloop
endfacet
facet normal -0.770375 0.636984 -0.0277922
  outer loop
    vertex 5.349690570184944 -6.605362276459505 3.854823109628036
    vertex 7.474945048507533 -4.046627796300607 3.5896484651851
    vertex 7.150655029065057 -4.595446948372554 0
  endloop
endfacet
facet normal -0.79286 0.608287 0.0368699
  outer loop
    vertex 7.150655029065064 -4.595446948372542 60
    vertex 7.619386036706596 -3.767619463751688 56.42205505718272
    vertex 5.566316238534952 -6.42387138201117 56.0956595552671
  endloop
endfacet
facet normal -0.248451 0.967763 -0.0413121
  outer loop
    vertex 0.1870452246003163 -8.497941755740282 8.240822535196429
    vertex 3.636219191852425 -7.682962318585463 6.588893688731332
    vertex 1.201873636366726 -8.414600392306614 4.089964734429159
  endloop
endfacet
facet normal 0.941343 0.334998 0.0406073
  outer loop
    vertex -8.470183145904166 -0.7113349948097505 49.04581267725559
    vertex -8.386364728732131 -1.385238837413125 52.66227036714909
    vertex -7.221601790598884 -4.483131447773864 51.21786064039576
  endloop
endfacet
facet normal 0.82376 -0.562784 -0.0685163
  outer loop
    vertex -7.150655029065049 4.595446948372567 3.568745914482584
    vertex -5.799947817435511 6.213743261112826 6.515600603340893
    vertex -8.010174055829532 2.843784730832394 7.622816225749645
  endloop
endfacet
facet normal 0.907089 0.420368 -0.0218956
  outer loop
    vertex -7.223817941817857 -4.479559614903056 4.062913843469389
    vertex -8.208341939545717 -2.207515029053 6.896521011090847
    vertex -6.88954691339063 -4.978367536471131 8.334596947003988
  endloop
endfacet
facet normal 0.50196 -0.864093 0.0371391
  outer loop
    vertex -5.23680626788869 6.695211730229428 10.10641192495278
    vertex -5.799947817435511 6.213743261112826 6.515600603340893
    vertex -2.729847153655584 8.049716424674756 7.737648478643258
  endloop
endfacet
facet normal 0.52498 -0.850091 -0.0417313
  outer loop
    vertex -2.729847153655584 8.049716424674756 7.737648478643258
    vertex -5.799947817435511 6.213743261112826 6.515600603340893
    vertex -3.531027610516046 7.731871960513401 4.133473018321183
  endloop
endfacet
endsolid Created by Gmsh
