solid Created by Gmsh
facet normal -0.64607 -0.763234 0.00824405
  outer loop
    vertex -8.279527813300795 -5.607978172994128 45.31405159644707
    vertex -4.248883653787939 -9.052457550111663 42.29802512390157
    vertex -4.045800659732936 -9.145025807601886 49.64327824925383
  endloop
endfacet
facet normal -0.652663 -0.757467 -0.01661
  outer loop
    vertex -4.304922830387468 -9.025942578169261 17.61994933961716
    vertex -8.3883628147883 -5.443837735226585 14.71711393020107
    vertex -3.916517250443287 -9.201135398796181 10.34753261256741
  endloop
endfacet
facet normal 0.294903 0.953323 0.0648613
  outer loop
    vertex 3.899883101483968 9.208198075343502 48.75198609362539
    vertex 0.03286575172589971 9.99994599197233 54.69703321227593
    vertex 5.64220663494195 8.25624032405895 54.82196594125696
  endloop
endfacet
facet normal 0.147931 0.988364 -0.0354045
  outer loop
    vertex 0.03286575172589971 9.99994599197233 54.69703321227593
    vertex 3.899883101483968 9.208198075343502 48.75198609362539
    vertex -0.8702788269712682 9.962058761286519 49.86572867444679
  endloop
endfacet
facet normal -0.342597 0.936405 -0.0759845
  outer loop
    vertex -4.053512741699614 9.141610058019259 11.12852424553399
    vertex -0.4398220805273078 9.990323144797701 5.294422573108314
    vertex -6.114556531359764 7.912787020058461 5.277752412505379
  endloop
endfacet
facet normal -0.166703 0.985193 0.040063
  outer loop
    vertex -0.4398220805273078 9.990323144797701 5.294422573108314
    vertex -4.053512741699614 9.141610058019259 11.12852424553399
    vertex 0.6518770591647458 9.978730194755979 10.12210388177862
  endloop
endfacet
facet normal -0.630794 -0.775766 -0.0169344
  outer loop
    vertex -8.279527813300795 -5.607978172994128 45.31405159644707
    vertex -4.045800659732936 -9.145025807601886 49.64327824925383
    vertex -8.096411653059151 -5.86925194076792 50.46207098041492
  endloop
endfacet
facet normal -0.626596 -0.778825 0.0284327
  outer loop
    vertex -3.916517250443287 -9.201135398796181 10.34753261256741
    vertex -8.3883628147883 -5.443837735226585 14.71711393020107
    vertex -8.095273936589848 -5.870821057703012 9.480281465077709
  endloop
endfacet
facet normal -0.996672 -0.00187201 0.081499
  outer loop
    vertex -9.526162007336609 3.041749070843377 54.67326423677567
    vertex -9.996625177609086 -0.2597788644060671 48.84401912304542
    vertex -9.51439491645073 -3.078358227012658 54.67658990926226
  endloop
endfacet
facet normal -0.180286 -0.983586 -0.00741103
  outer loop
    vertex -4.248883653787939 -9.052457550111663 42.29802512390157
    vertex 0.6769780038171004 -9.977058724010188 45.18045635801772
    vertex -4.045800659732936 -9.145025807601886 49.64327824925383
  endloop
endfacet
facet normal -0.954662 -0.29761 -0.00700759
  outer loop
    vertex -8.3883628147883 -5.443837735226585 14.71711393020107
    vertex -9.993342317362963 -0.3648415107997872 17.66407803891777
    vertex -9.998383800391894 -0.1797814786371358 10.49144466447206
  endloop
endfacet
facet normal -0.176187 -0.984253 0.0143009
  outer loop
    vertex 0.7470078149856998 -9.972059933852698 14.74372745915591
    vertex -4.304922830387468 -9.025942578169261 17.61994933961716
    vertex -3.916517250443287 -9.201135398796181 10.34753261256741
  endloop
endfacet
facet normal -0.972875 0.231236 0.00664989
  outer loop
    vertex -9.993342317362963 -0.3648415107997872 17.66407803891777
    vertex -8.796196374194427 4.756777201699575 14.71234989109693
    vertex -9.998383800391894 -0.1797814786371358 10.49144466447206
  endloop
endfacet
facet normal 0.298141 0.954522 -0.000200769
  outer loop
    vertex 5.14217496313005 8.576598197919644 12.00672141756117
    vertex 5.14711651871279 8.573633508775258 5.249823631790228
    vertex 0.6518770591647458 9.978730194755979 10.12210388177862
  endloop
endfacet
facet normal -0.964197 0.256468 -0.0674388
  outer loop
    vertex -9.996625177609086 -0.2597788644060671 48.84401912304542
    vertex -9.526162007336609 3.041749070843377 54.67326423677567
    vertex -8.697721527958286 4.934535461630707 50.02697028063224
  endloop
endfacet
facet normal -0.323325 0.945965 0.0247315
  outer loop
    vertex -5.242642902522332 8.515556082642648 48.0318366943967
    vertex -5.766319439205539 8.170040399229389 54.40136409732489
    vertex -0.8702788269712682 9.962058761286519 49.86572867444679
  endloop
endfacet
facet normal 0.712287 0.701889 0.000212956
  outer loop
    vertex 5.14217496313005 8.576598197919644 12.00672141756117
    vertex 8.649999999999972 5.017718605103367 8.999999999999972
    vertex 5.14711651871279 8.573633508775258 5.249823631790228
  endloop
endfacet
facet normal 0.680702 0.728045 -0.0812088
  outer loop
    vertex 8.649999999999128 5.017718605104821 50.99999999999997
    vertex 3.899883101483968 9.208198075343502 48.75198609362539
    vertex 5.64220663494195 8.25624032405895 54.82196594125696
  endloop
endfacet
facet normal -0.949483 -0.312598 -0.0276519
  outer loop
    vertex -8.3883628147883 -5.443837735226585 14.71711393020107
    vertex -9.998383800391894 -0.1797814786371358 10.49144466447206
    vertex -8.095273936589848 -5.870821057703012 9.480281465077709
  endloop
endfacet
facet normal -0.935458 -0.34229 -0.0880687
  outer loop
    vertex -9.51439491645073 -3.078358227012658 54.67658990926226
    vertex -9.996625177609086 -0.2597788644060671 48.84401912304542
    vertex -8.096411653059151 -5.86925194076792 50.46207098041492
  endloop
endfacet
facet normal -0.302834 0.951775 0.0491467
  outer loop
    vertex -5.766319439205539 8.170040399229389 54.40136409732489
    vertex 0.03286575172589971 9.99994599197233 54.69703321227593
    vertex -0.8702788269712682 9.962058761286519 49.86572867444679
  endloop
endfacet
facet normal 0.713535 -0.700461 -0.0149015
  outer loop
    vertex 4.989991653787329 -8.666024653503634 5.23890738346163
    vertex 8.650000000000096 -5.017718605103155 8.999999999999979
    vertex 5.33603432765729 -8.457348145492357 11.99953039370991
  endloop
endfacet
facet normal -0.197026 -0.980397 0.0014904
  outer loop
    vertex 0.644149753436004 -9.97923198924388 26.91936299024527
    vertex 0.6789656184840467 -9.976923658569136 33.04033695884601
    vertex -4.465176722790329 -8.947748143206278 30.002191059655
  endloop
endfacet
facet normal -0.196666 -0.980468 0.00211119
  outer loop
    vertex -4.420407516509077 -8.969949687037829 23.86188376248521
    vertex 0.644149753436004 -9.97923198924388 26.91936299024527
    vertex -4.465176722790329 -8.947748143206278 30.002191059655
  endloop
endfacet
facet normal -0.270665 0.962666 -0.00373748
  outer loop
    vertex -0.1146418344383133 9.999342840896926 26.95881658392753
    vertex -0.02825125924183803 9.999960093237934 20.86147562959684
    vertex -5.150653568765657 8.571509074519001 23.89378819192545
  endloop
endfacet
facet normal -0.268298 0.963336 0.000577231
  outer loop
    vertex -0.02825125924183803 9.999960093237934 20.86147562959684
    vertex -5.139250623549929 8.578350833834069 17.77573807703447
    vertex -5.150653568765657 8.571509074519001 23.89378819192545
  endloop
endfacet
facet normal 0.236945 -0.968736 -0.073539
  outer loop
    vertex 5.0748900205777 -8.616582343309954 54.61831660345725
    vertex 3.090169943749545 -9.510565162951513 60
    vertex -0.4916325976255861 -9.987907558090027 54.74739173488798
  endloop
endfacet
facet normal -0.295785 0.951339 -0.0864009
  outer loop
    vertex -3.090169943749491 9.510565162951531 60
    vertex 0.03286575172589971 9.99994599197233 54.69703321227593
    vertex -5.766319439205539 8.170040399229389 54.40136409732489
  endloop
endfacet
facet normal -0.806127 -0.584586 -0.091753
  outer loop
    vertex -5.894224561378536 -8.078249613625589 54.72617066806286
    vertex -8.090169943749455 -5.877852522924758 60
    vertex -9.51439491645073 -3.078358227012658 54.67658990926226
  endloop
endfacet
facet normal 0.306331 -0.951826 0.0136999
  outer loop
    vertex 4.989991653787329 -8.666024653503634 5.23890738346163
    vertex 5.33603432765729 -8.457348145492357 11.99953039370991
    vertex 0.7200286878166183 -9.974044249386559 9.838541964637216
  endloop
endfacet
facet normal -0.815333 0.572816 0.084343
  outer loop
    vertex -8.090169943749476 5.877852522924728 0
    vertex -9.517257286266586 3.069497311776892 5.277468175003278
    vertex -6.114556531359764 7.912787020058461 5.277752412505379
  endloop
endfacet
facet normal -0.805948 -0.584829 0.0917811
  outer loop
    vertex -8.090169943749462 -5.877852522924748 0
    vertex -5.877852522924707 -8.09016994374949 5.329906601812205
    vertex -9.51371523279624 -3.080458158985574 5.324565173981775
  endloop
endfacet
facet normal -0.319267 -0.943885 0.0845557
  outer loop
    vertex -3.090169943749434 -9.510565162951549 0
    vertex -0.2789760744481067 -9.996107860056609 5.19450629919109
    vertex -5.877852522924707 -8.09016994374949 5.329906601812205
  endloop
endfacet
facet normal 0.721028 -0.692758 0.0143161
  outer loop
    vertex 8.710921203548846 -4.911196573704127 50.79441959879
    vertex 5.0748900205777 -8.616582343309954 54.61831660345725
    vertex 5.39786515878973 -8.418019465855608 47.96023130818372
  endloop
endfacet
facet normal 0.245048 0.968056 -0.0530888
  outer loop
    vertex 5.14711651871279 8.573633508775258 5.249823631790228
    vertex -0.4398220805273078 9.990323144797701 5.294422573108314
    vertex 0.6518770591647458 9.978730194755979 10.12210388177862
  endloop
endfacet
facet normal -0.665767 -0.746157 -0.00215625
  outer loop
    vertex -4.420407516509077 -8.969949687037829 23.86188376248521
    vertex -4.465176722790329 -8.947748143206278 30.002191059655
    vertex -8.396782742741992 -5.430841515933813 26.92656782041833
  endloop
endfacet
facet normal -0.952744 -0.303772 -0.0014665
  outer loop
    vertex -9.991393136707774 -0.4148049996670479 23.87353248662388
    vertex -8.378298410934077 -5.459314584940084 20.81575451224548
    vertex -8.396782742741992 -5.430841515933813 26.92656782041833
  endloop
endfacet
facet normal -0.331953 -0.939999 -0.078797
  outer loop
    vertex -3.090169943749421 -9.510565162951552 60
    vertex -5.894224561378536 -8.078249613625589 54.72617066806286
    vertex -0.4916325976255861 -9.987907558090027 54.74739173488798
  endloop
endfacet
facet normal -0.258256 0.965923 -0.0172466
  outer loop
    vertex 0.3478553973743704 9.993947999790549 14.89283742203895
    vertex -5.139250623549929 8.578350833834069 17.77573807703447
    vertex -0.02825125924183803 9.999960093237934 20.86147562959684
  endloop
endfacet
facet normal -0.805242 0.585354 -0.0945802
  outer loop
    vertex -9.526162007336609 3.041749070843377 54.67326423677567
    vertex -8.090169943749483 5.877852522924718 60
    vertex -5.766319439205539 8.170040399229389 54.40136409732489
  endloop
endfacet
facet normal -0.953047 -0.302821 0.0002548
  outer loop
    vertex -9.99163581348005 -0.4089178044337019 29.96256696440258
    vertex -9.991393136707774 -0.4148049996670479 23.87353248662388
    vertex -8.396782742741992 -5.430841515933813 26.92656782041833
  endloop
endfacet
facet normal -0.995965 -0.00196369 -0.0897171
  outer loop
    vertex -10 -2.542074623718138e-14 60
    vertex -9.526162007336609 3.041749070843377 54.67326423677567
    vertex -9.51439491645073 -3.078358227012658 54.67658990926226
  endloop
endfacet
facet normal 0.585801 -0.806286 0.0821017
  outer loop
    vertex 8.090169943749512 -5.877852522924679 60
    vertex 3.090169943749545 -9.510565162951513 60
    vertex 5.0748900205777 -8.616582343309954 54.61831660345725
  endloop
endfacet
facet normal -1.14482e-15 0.995769 0.0918939
  outer loop
    vertex -3.090169943749491 9.510565162951531 60
    vertex 3.090169943749466 9.510565162951538 60
    vertex 0.03286575172589971 9.99994599197233 54.69703321227593
  endloop
endfacet
facet normal -0.995695 -0.00128321 -0.0926788
  outer loop
    vertex -9.517257286266586 3.069497311776892 5.277468175003278
    vertex -9.51371523279624 -3.080458158985574 5.324565173981775
    vertex -9.998383800391894 -0.1797814786371358 10.49144466447206
  endloop
endfacet
facet normal -0.58527 -0.805556 0.0924035
  outer loop
    vertex -3.090169943749421 -9.510565162951552 60
    vertex -8.090169943749455 -5.877852522924758 60
    vertex -5.894224561378536 -8.078249613625589 54.72617066806286
  endloop
endfacet
facet normal 0 0.99592 -0.090246
  outer loop
    vertex 3.090169943749479 9.510565162951535 0
    vertex -3.090169943749478 9.510565162951535 0
    vertex -0.4398220805273078 9.990323144797701 5.294422573108314
  endloop
endfacet
facet normal -0.723144 0.690697 -0.000575409
  outer loop
    vertex -5.139250623549929 8.578350833834069 17.77573807703447
    vertex -8.80193726077299 4.746145852943848 20.8244793411527
    vertex -5.150653568765657 8.571509074519001 23.89378819192545
  endloop
endfacet
facet normal -0.194534 -0.980895 -0.0015611
  outer loop
    vertex -4.420407516509077 -8.969949687037829 23.86188376248521
    vertex 0.6807259523736685 -9.976803705484285 20.83572467590493
    vertex 0.644149753436004 -9.97923198924388 26.91936299024527
  endloop
endfacet
facet normal 5.15112e-15 -0.99566 -0.0930667
  outer loop
    vertex -3.090169943749434 -9.510565162951549 0
    vertex 3.090169943749532 -9.510565162951517 0
    vertex -0.2789760744481067 -9.996107860056609 5.19450629919109
  endloop
endfacet
facet normal -0.664207 -0.747548 0.00147404
  outer loop
    vertex -8.378298410934077 -5.459314584940084 20.81575451224548
    vertex -4.420407516509077 -8.969949687037829 23.86188376248521
    vertex -8.396782742741992 -5.430841515933813 26.92656782041833
  endloop
endfacet
facet normal -0.342715 0.935421 0.0867968
  outer loop
    vertex -0.4398220805273078 9.990323144797701 5.294422573108314
    vertex -3.090169943749478 9.510565162951535 0
    vertex -6.114556531359764 7.912787020058461 5.277752412505379
  endloop
endfacet
facet normal -0.190625 -0.981649 0.00527899
  outer loop
    vertex -4.420407516509077 -8.969949687037829 23.86188376248521
    vertex -4.304922830387468 -9.025942578169261 17.61994933961716
    vertex 0.6807259523736685 -9.976803705484285 20.83572467590493
  endloop
endfacet
facet normal -0.661189 -0.750199 -0.00550332
  outer loop
    vertex -8.378298410934077 -5.459314584940084 20.81575451224548
    vertex -4.304922830387468 -9.025942578169261 17.61994933961716
    vertex -4.420407516509077 -8.969949687037829 23.86188376248521
  endloop
endfacet
facet normal -0.995849 0.00012349 0.0910209
  outer loop
    vertex -9.517257286266586 3.069497311776892 5.277468175003278
    vertex -10 -1.20980699416795e-14 0
    vertex -9.51371523279624 -3.080458158985574 5.324565173981775
  endloop
endfacet
facet normal -0.947069 0.307721 0.0914733
  outer loop
    vertex -10 -2.542074623718138e-14 60
    vertex -8.090169943749483 5.877852522924718 60
    vertex -9.526162007336609 3.041749070843377 54.67326423677567
  endloop
endfacet
facet normal 0.247124 0.96898 0.00284089
  outer loop
    vertex -0.1133412386005997 9.999357667552076 39.07107773181721
    vertex -0.177933612068783 9.998416856167587 45.01074184765679
    vertex 4.916322761362953 8.708029082754866 42.00042522364048
  endloop
endfacet
facet normal -0.662683 -0.74883 0.0102511
  outer loop
    vertex -4.248883653787939 -9.052457550111663 42.29802512390157
    vertex -8.404735435081612 -5.418525838849855 39.0966044596165
    vertex -4.461002770296091 -8.949829846617789 36.08237417336407
  endloop
endfacet
facet normal -0.227154 0.972803 0.0453288
  outer loop
    vertex -4.053512741699614 9.141610058019259 11.12852424553399
    vertex -5.139250623549929 8.578350833834069 17.77573807703447
    vertex 0.3478553973743704 9.993947999790549 14.89283742203895
  endloop
endfacet
facet normal -0.666727 -0.745301 0.000826081
  outer loop
    vertex -4.461002770296091 -8.949829846617789 36.08237417336407
    vertex -8.404735435081612 -5.418525838849855 39.0966044596165
    vertex -8.394424535211803 -5.434485874729468 33.01914257071205
  endloop
endfacet
facet normal 6.2973e-15 -0.995896 0.0905043
  outer loop
    vertex 3.090169943749545 -9.510565162951513 60
    vertex -3.090169943749421 -9.510565162951552 60
    vertex -0.4916325976255861 -9.987907558090027 54.74739173488798
  endloop
endfacet
facet normal -0.946993 0.307697 -0.0923398
  outer loop
    vertex -8.090169943749476 5.877852522924728 0
    vertex -10 -1.20980699416795e-14 0
    vertex -9.517257286266586 3.069497311776892 5.277468175003278
  endloop
endfacet
facet normal -0.585323 -0.805627 -0.0914433
  outer loop
    vertex -8.090169943749462 -5.877852522924748 0
    vertex -3.090169943749434 -9.510565162951549 0
    vertex -5.877852522924707 -8.09016994374949 5.329906601812205
  endloop
endfacet
facet normal -0.585561 0.805955 0.0869221
  outer loop
    vertex -8.090169943749483 5.877852522924718 60
    vertex -3.090169943749491 9.510565162951531 60
    vertex -5.766319439205539 8.170040399229389 54.40136409732489
  endloop
endfacet
facet normal -0.197048 -0.980392 -0.00192815
  outer loop
    vertex 0.6342801301435463 -9.979864163229133 39.10212636845772
    vertex -4.461002770296091 -8.949829846617789 36.08237417336407
    vertex 0.6789656184840467 -9.976923658569136 33.04033695884601
  endloop
endfacet
facet normal -0.947062 -0.307719 0.0915525
  outer loop
    vertex -8.090169943749455 -5.877852522924758 60
    vertex -10 -2.542074623718138e-14 60
    vertex -9.51439491645073 -3.078358227012658 54.67658990926226
  endloop
endfacet
facet normal -0.192653 -0.98122 -0.00962651
  outer loop
    vertex -4.248883653787939 -9.052457550111663 42.29802512390157
    vertex -4.461002770296091 -8.949829846617789 36.08237417336407
    vertex 0.6342801301435463 -9.979864163229133 39.10212636845772
  endloop
endfacet
facet normal -0.953059 -0.302784 0.000187779
  outer loop
    vertex -8.394424535211803 -5.434485874729468 33.01914257071205
    vertex -9.99163581348005 -0.4089178044337019 29.96256696440258
    vertex -8.396782742741992 -5.430841515933813 26.92656782041833
  endloop
endfacet
facet normal -0.666458 -0.745543 0.000202258
  outer loop
    vertex -4.465176722790329 -8.947748143206278 30.002191059655
    vertex -4.461002770296091 -8.949829846617789 36.08237417336407
    vertex -8.394424535211803 -5.434485874729468 33.01914257071205
  endloop
endfacet
facet normal -0.947064 -0.30772 -0.0915333
  outer loop
    vertex -10 -1.20980699416795e-14 0
    vertex -8.090169943749462 -5.877852522924748 0
    vertex -9.51371523279624 -3.080458158985574 5.324565173981775
  endloop
endfacet
facet normal -0.659122 -0.752035 -0.000820751
  outer loop
    vertex -8.378298410934077 -5.459314584940084 20.81575451224548
    vertex -8.3883628147883 -5.443837735226585 14.71711393020107
    vertex -4.304922830387468 -9.025942578169261 17.61994933961716
  endloop
endfacet
facet normal 0.253896 0.967224 0.00369526
  outer loop
    vertex -0.02825125924183803 9.999960093237934 20.86147562959684
    vertex -0.1146418344383133 9.999342840896926 26.95881658392753
    vertex 4.974604415702358 8.674866621872328 23.96212700644176
  endloop
endfacet
facet normal -0.585318 0.805622 -0.0915209
  outer loop
    vertex -3.090169943749478 9.510565162951535 0
    vertex -8.090169943749476 5.877852522924728 0
    vertex -6.114556531359764 7.912787020058461 5.277752412505379
  endloop
endfacet
facet normal -0.953382 -0.301765 -0.000825021
  outer loop
    vertex -8.404735435081612 -5.418525838849855 39.0966044596165
    vertex -9.992202159578701 -0.3948366777678526 36.04933795411309
    vertex -8.394424535211803 -5.434485874729468 33.01914257071205
  endloop
endfacet
facet normal -0.953133 -0.30255 0.000611235
  outer loop
    vertex -9.992202159578701 -0.3948366777678526 36.04933795411309
    vertex -9.99163581348005 -0.4089178044337019 29.96256696440258
    vertex -8.394424535211803 -5.434485874729468 33.01914257071205
  endloop
endfacet
facet normal -0.653897 -0.756519 -0.00988372
  outer loop
    vertex -8.279527813300795 -5.607978172994128 45.31405159644707
    vertex -8.404735435081612 -5.418525838849855 39.0966044596165
    vertex -4.248883653787939 -9.052457550111663 42.29802512390157
  endloop
endfacet
facet normal -0.952861 -0.3034 -0.00214216
  outer loop
    vertex -9.991393136707774 -0.4148049996670479 23.87353248662388
    vertex -9.993342317362963 -0.3648415107997872 17.66407803891777
    vertex -8.378298410934077 -5.459314584940084 20.81575451224548
  endloop
endfacet
facet normal -0.666624 -0.745394 -0.000187843
  outer loop
    vertex -4.465176722790329 -8.947748143206278 30.002191059655
    vertex -8.394424535211803 -5.434485874729468 33.01914257071205
    vertex -8.396782742741992 -5.430841515933813 26.92656782041833
  endloop
endfacet
facet normal -0.722707 0.691154 0.000523373
  outer loop
    vertex -8.796196374194427 4.756777201699575 14.71234989109693
    vertex -8.80193726077299 4.746145852943848 20.8244793411527
    vertex -5.139250623549929 8.578350833834069 17.77573807703447
  endloop
endfacet
facet normal -0.185609 -0.98262 -0.00278461
  outer loop
    vertex 0.6807259523736685 -9.976803705484285 20.83572467590493
    vertex -4.304922830387468 -9.025942578169261 17.61994933961716
    vertex 0.7470078149856998 -9.972059933852698 14.74372745915591
  endloop
endfacet
facet normal 0.266851 0.963607 0.0158447
  outer loop
    vertex 0.3478553973743704 9.993947999790549 14.89283742203895
    vertex -0.02825125924183803 9.999960093237934 20.86147562959684
    vertex 5.019604497537114 8.64890575092047 18.01250899782813
  endloop
endfacet
facet normal -0.953572 -0.301166 0.000262247
  outer loop
    vertex -9.992439256063562 -0.3887900640189801 42.13119426686475
    vertex -9.992202159578701 -0.3948366777678526 36.04933795411309
    vertex -8.404735435081612 -5.418525838849855 39.0966044596165
  endloop
endfacet
facet normal -0.974326 0.22514 -0.000103349
  outer loop
    vertex -8.806572339227705 4.737539829273154 39.08730980167022
    vertex -8.805442719533211 4.739639069910239 33.0108715036063
    vertex -9.992202159578701 -0.3948366777678526 36.04933795411309
  endloop
endfacet
facet normal -0.196066 -0.980591 -0.000201134
  outer loop
    vertex 0.6789656184840467 -9.976923658569136 33.04033695884601
    vertex -4.461002770296091 -8.949829846617789 36.08237417336407
    vertex -4.465176722790329 -8.947748143206278 30.002191059655
  endloop
endfacet
facet normal -0.974392 0.224855 -0.000610842
  outer loop
    vertex -9.992202159578701 -0.3948366777678526 36.04933795411309
    vertex -8.805442719533211 4.739639069910239 33.0108715036063
    vertex -9.99163581348005 -0.4089178044337019 29.96256696440258
  endloop
endfacet
facet normal -0.724685 0.68908 -0.00013029
  outer loop
    vertex -8.806869034313905 4.736988263912303 26.92450236577979
    vertex -8.805442719533211 4.739639069910239 33.0108715036063
    vertex -5.175580470399891 8.556480981946683 29.98185729647622
  endloop
endfacet
facet normal -0.724861 0.688895 0.000103241
  outer loop
    vertex -8.806572339227705 4.737539829273154 39.08730980167022
    vertex -5.180228676412653 8.553667684687781 36.04530010637713
    vertex -8.805442719533211 4.739639069910239 33.0108715036063
  endloop
endfacet
facet normal -0.724797 0.688962 0.000264329
  outer loop
    vertex -5.175011427693817 8.556825154415533 42.12132228353663
    vertex -5.180228676412653 8.553667684687781 36.04530010637713
    vertex -8.806572339227705 4.737539829273154 39.08730980167022
  endloop
endfacet
facet normal -0.974488 0.224438 0.000130617
  outer loop
    vertex -9.99163581348005 -0.4089178044337019 29.96256696440258
    vertex -8.805442719533211 4.739639069910239 33.0108715036063
    vertex -8.806869034313905 4.736988263912303 26.92450236577979
  endloop
endfacet
facet normal -0.974306 0.225229 -0.000261907
  outer loop
    vertex -8.806572339227705 4.737539829273154 39.08730980167022
    vertex -9.992202159578701 -0.3948366777678526 36.04933795411309
    vertex -9.992439256063562 -0.3887900640189801 42.13119426686475
  endloop
endfacet
facet normal -0.953389 -0.301743 0.000807601
  outer loop
    vertex -8.378298410934077 -5.459314584940084 20.81575451224548
    vertex -9.993342317362963 -0.3648415107997872 17.66407803891777
    vertex -8.3883628147883 -5.443837735226585 14.71711393020107
  endloop
endfacet
facet normal -0.699523 0.712576 -0.0538772
  outer loop
    vertex -8.796196374194427 4.756777201699575 14.71234989109693
    vertex -5.139250623549929 8.578350833834069 17.77573807703447
    vertex -4.053512741699614 9.141610058019259 11.12852424553399
  endloop
endfacet
facet normal -0.27464 0.961547 0.000486105
  outer loop
    vertex -0.1133412386005997 9.999357667552076 39.07107773181721
    vertex -0.1245289481581833 9.99922459699104 33.01345881679
    vertex -5.180228676412653 8.553667684687781 36.04530010637713
  endloop
endfacet
facet normal -0.974538 0.224222 -0.000255629
  outer loop
    vertex -9.99163581348005 -0.4089178044337019 29.96256696440258
    vertex -8.806869034313905 4.736988263912303 26.92450236577979
    vertex -9.991393136707774 -0.4148049996670479 23.87353248662388
  endloop
endfacet
facet normal -0.185474 -0.982648 0.00175642
  outer loop
    vertex -4.248883653787939 -9.052457550111663 42.29802512390157
    vertex 0.6342801301435463 -9.979864163229133 39.10212636845772
    vertex 0.6769780038171004 -9.977058724010188 45.18045635801772
  endloop
endfacet
facet normal 0.965633 0.259908 -5.77111e-17
  outer loop
    vertex 10 7.993605777301099e-15 35.99999999999991
    vertex 10 6.661338147750912e-15 29.99999999999992
    vertex 8.648960685001231 5.019509843530842 33.0043671518456
  endloop
endfacet
facet normal -0.951853 -0.306397 0.00983226
  outer loop
    vertex -9.992439256063562 -0.3887900640189801 42.13119426686475
    vertex -8.404735435081612 -5.418525838849855 39.0966044596165
    vertex -8.279527813300795 -5.607978172994128 45.31405159644707
  endloop
endfacet
facet normal -0.974513 0.224332 -0.000451103
  outer loop
    vertex -9.991393136707774 -0.4148049996670479 23.87353248662388
    vertex -8.806869034313905 4.736988263912303 26.92450236577979
    vertex -8.80193726077299 4.746145852943848 20.8244793411527
  endloop
endfacet
facet normal -0.274779 0.961507 0.000235473
  outer loop
    vertex -5.180228676412653 8.553667684687781 36.04530010637713
    vertex -0.1245289481581833 9.99922459699104 33.01345881679
    vertex -5.175580470399891 8.556480981946683 29.98185729647622
  endloop
endfacet
facet normal 0.704821 0.709384 0.00140995
  outer loop
    vertex 4.946196145693367 8.691095655228292 29.99787339517934
    vertex 8.650899602600237 5.016167467871369 27.00670084071938
    vertex 4.974604415702358 8.674866621872328 23.96212700644176
  endloop
endfacet
facet normal 0.965742 0.259504 -5.76214e-17
  outer loop
    vertex 10 5.329070518200729e-15 23.99999999999993
    vertex 10 3.996802888650548e-15 17.99999999999995
    vertex 8.6531586054111 5.012269560747889 21.00485642412445
  endloop
endfacet
facet normal -0.973819 0.227325 -0.000519265
  outer loop
    vertex -9.993342317362963 -0.3648415107997872 17.66407803891777
    vertex -8.80193726077299 4.746145852943848 20.8244793411527
    vertex -8.796196374194427 4.756777201699575 14.71234989109693
  endloop
endfacet
facet normal -0.273479 0.961877 0.00125461
  outer loop
    vertex -5.175580470399891 8.556480981946683 29.98185729647622
    vertex -0.1146418344383133 9.999342840896926 26.95881658392753
    vertex -5.150653568765657 8.571509074519001 23.89378819192545
  endloop
endfacet
facet normal -0.974177 0.225775 0.00212246
  outer loop
    vertex -9.991393136707774 -0.4148049996670479 23.87353248662388
    vertex -8.80193726077299 4.746145852943848 20.8244793411527
    vertex -9.993342317362963 -0.3648415107997872 17.66407803891777
  endloop
endfacet
facet normal 0.250036 0.968236 0.000427214
  outer loop
    vertex -0.1245289481581833 9.99922459699104 33.01345881679
    vertex 4.946196145693367 8.691095655228292 29.99787339517934
    vertex -0.1146418344383133 9.999342840896926 26.95881658392753
  endloop
endfacet
facet normal 0.96566 -0.259808 5.76889e-17
  outer loop
    vertex 10 6.661338147750912e-15 29.99999999999992
    vertex 10 7.993605777301099e-15 35.99999999999991
    vertex 8.64999999999989 -5.017718605103509 32.99999999999991
  endloop
endfacet
facet normal -0.724727 0.689036 -0.000235875
  outer loop
    vertex -8.805442719533211 4.739639069910239 33.0108715036063
    vertex -5.180228676412653 8.553667684687781 36.04530010637713
    vertex -5.175580470399891 8.556480981946683 29.98185729647622
  endloop
endfacet
facet normal -0.723555 0.690266 0.000451272
  outer loop
    vertex -8.80193726077299 4.746145852943848 20.8244793411527
    vertex -8.806869034313905 4.736988263912303 26.92450236577979
    vertex -5.150653568765657 8.571509074519001 23.89378819192545
  endloop
endfacet
facet normal -0.274226 0.961665 -0.000264273
  outer loop
    vertex -0.1133412386005997 9.999357667552076 39.07107773181721
    vertex -5.180228676412653 8.553667684687781 36.04530010637713
    vertex -5.175011427693817 8.556825154415533 42.12132228353663
  endloop
endfacet
facet normal -0.724231 0.689556 -0.00126315
  outer loop
    vertex -8.806869034313905 4.736988263912303 26.92450236577979
    vertex -5.175580470399891 8.556480981946683 29.98185729647622
    vertex -5.150653568765657 8.571509074519001 23.89378819192545
  endloop
endfacet
facet normal -0.27441 0.961613 -0.000429326
  outer loop
    vertex -0.1245289481581833 9.99922459699104 33.01345881679
    vertex -0.1146418344383133 9.999342840896926 26.95881658392753
    vertex -5.175580470399891 8.556480981946683 29.98185729647622
  endloop
endfacet
facet normal 0.251076 0.967966 -0.00142095
  outer loop
    vertex -0.1146418344383133 9.999342840896926 26.95881658392753
    vertex 4.946196145693367 8.691095655228292 29.99787339517934
    vertex 4.974604415702358 8.674866621872328 23.96212700644176
  endloop
endfacet
facet normal 0.965713 0.259612 0.000194874
  outer loop
    vertex 10 5.329070518200729e-15 23.99999999999993
    vertex 8.6531586054111 5.012269560747889 21.00485642412445
    vertex 8.650899602600237 5.016167467871369 27.00670084071938
  endloop
endfacet
facet normal 0.965684 0.259721 -5.76697e-17
  outer loop
    vertex 10 6.661338147750912e-15 29.99999999999992
    vertex 10 5.329070518200729e-15 23.99999999999993
    vertex 8.650899602600237 5.016167467871369 27.00670084071938
  endloop
endfacet
facet normal 0.965787 0.259335 -5.75839e-17
  outer loop
    vertex 10 3.996802888650548e-15 17.99999999999995
    vertex 10 2.664535259100365e-15 11.99999999999996
    vertex 8.65490981161758 5.009245068148068 14.99969142718089
  endloop
endfacet
facet normal -0.275663 0.96125 -0.00284551
  outer loop
    vertex -0.1133412386005997 9.999357667552076 39.07107773181721
    vertex -5.175011427693817 8.556825154415533 42.12132228353663
    vertex -0.177933612068783 9.998416856167587 45.01074184765679
  endloop
endfacet
facet normal 0.25023 0.968186 -0.000483415
  outer loop
    vertex 4.94913192724085 8.689424213764989 36.02086699601718
    vertex -0.1245289481581833 9.99922459699104 33.01345881679
    vertex -0.1133412386005997 9.999357667552076 39.07107773181721
  endloop
endfacet
facet normal -0.974215 0.225622 0.000434683
  outer loop
    vertex -8.806572339227705 4.737539829273154 39.08730980167022
    vertex -9.992439256063562 -0.3887900640189801 42.13119426686475
    vertex -8.80181347252258 4.746375416559461 45.16680891845871
  endloop
endfacet
facet normal -0.951085 -0.308883 0.00534323
  outer loop
    vertex -9.992439256063562 -0.3887900640189801 42.13119426686475
    vertex -8.279527813300795 -5.607978172994128 45.31405159644707
    vertex -9.996625177609086 -0.2597788644060671 48.84401912304542
  endloop
endfacet
facet normal -0.72452 0.689254 -0.000434586
  outer loop
    vertex -5.175011427693817 8.556825154415533 42.12132228353663
    vertex -8.806572339227705 4.737539829273154 39.08730980167022
    vertex -8.80181347252258 4.746375416559461 45.16680891845871
  endloop
endfacet
facet normal -0.279056 0.960269 0.00351178
  outer loop
    vertex -0.177933612068783 9.998416856167587 45.01074184765679
    vertex -5.175011427693817 8.556825154415533 42.12132228353663
    vertex -5.242642902522332 8.515556082642648 48.0318366943967
  endloop
endfacet
facet normal 0.96566 -0.259808 5.76889e-17
  outer loop
    vertex 10 3.996802888650548e-15 17.99999999999995
    vertex 10 5.329070518200729e-15 23.99999999999993
    vertex 8.650000000002013 -5.017718605099852 20.99999999999994
  endloop
endfacet
facet normal 0.24988 0.968277 0.000146908
  outer loop
    vertex 4.94913192724085 8.689424213764989 36.02086699601718
    vertex 4.946196145693367 8.691095655228292 29.99787339517934
    vertex -0.1245289481581833 9.99922459699104 33.01345881679
  endloop
endfacet
facet normal 0.965677 0.259745 -0.000292539
  outer loop
    vertex 10 7.993605777301099e-15 35.99999999999991
    vertex 8.648960685001231 5.019509843530842 33.0043671518456
    vertex 8.652354156016724 5.013658101512321 39.01054090989051
  endloop
endfacet
facet normal 0.96566 0.259808 -5.76889e-17
  outer loop
    vertex 10 2.664535259100365e-15 11.99999999999996
    vertex 10 1.332267629550183e-15 5.999999999999986
    vertex 8.649999999999972 5.017718605103367 8.999999999999972
  endloop
endfacet
facet normal 0.96566 -0.259808 5.76889e-17
  outer loop
    vertex 10 1.332267629550183e-15 5.999999999999986
    vertex 10 2.664535259100365e-15 11.99999999999996
    vertex 8.650000000000096 -5.017718605103155 8.999999999999979
  endloop
endfacet
facet normal 0.96576 -0.259437 5.76065e-17
  outer loop
    vertex 10 5.329070518200729e-15 23.99999999999993
    vertex 10 6.661338147750912e-15 29.99999999999992
    vertex 8.653852563721973 -5.01107132311671 26.98714828282613
  endloop
endfacet
facet normal 0.965721 0.259581 -5.76386e-17
  outer loop
    vertex 10 9.32587340685129e-15 41.99999999999994
    vertex 10 7.993605777301099e-15 35.99999999999991
    vertex 8.652354156016724 5.013658101512321 39.01054090989051
  endloop
endfacet
facet normal 0.96571 -0.259623 0.000331735
  outer loop
    vertex 10 6.661338147750912e-15 29.99999999999992
    vertex 8.64999999999989 -5.017718605103509 32.99999999999991
    vertex 8.653852563721973 -5.01107132311671 26.98714828282613
  endloop
endfacet
facet normal 0.96576 -0.259437 5.76065e-17
  outer loop
    vertex 10 2.664535259100365e-15 11.99999999999996
    vertex 10 3.996802888650548e-15 17.99999999999995
    vertex 8.653852563721982 -5.011071323116695 14.98714828282614
  endloop
endfacet
facet normal 0.96576 -0.259437 5.76065e-17
  outer loop
    vertex 10 7.993605777301099e-15 35.99999999999991
    vertex 10 9.32587340685129e-15 41.99999999999994
    vertex 8.653852563721955 -5.011071323116741 38.98714828282615
  endloop
endfacet
facet normal 0.965827 0.259187 -5.75511e-17
  outer loop
    vertex 10 1.065814103640148e-14 47.99999999999996
    vertex 10 9.32587340685129e-15 41.99999999999994
    vertex 8.656440345184054 5.006599699423728 45.00527347183387
  endloop
endfacet
facet normal -0.973492 0.228668 -0.00500172
  outer loop
    vertex -9.992439256063562 -0.3887900640189801 42.13119426686475
    vertex -9.996625177609086 -0.2597788644060671 48.84401912304542
    vertex -8.80181347252258 4.746375416559461 45.16680891845871
  endloop
endfacet
facet normal 0.319888 -0.94737 -0.0127359
  outer loop
    vertex 5.39786515878973 -8.418019465855608 47.96023130818372
    vertex 5.0748900205777 -8.616582343309954 54.61831660345725
    vertex 0.9304896412425855 -9.956615339940589 50.20247835159326
  endloop
endfacet
facet normal 0.965765 0.259419 0.000150977
  outer loop
    vertex 8.6531586054111 5.012269560747889 21.00485642412445
    vertex 10 3.996802888650548e-15 17.99999999999995
    vertex 8.65490981161758 5.009245068148068 14.99969142718089
  endloop
endfacet
facet normal 0.96566 -0.259808 5.76889e-17
  outer loop
    vertex 10 9.32587340685129e-15 41.99999999999994
    vertex 10 1.065814103640148e-14 47.99999999999996
    vertex 8.649999999860301 -5.017718605344148 44.99999999999995
  endloop
endfacet
facet normal 0.704171 0.710031 -0.000146193
  outer loop
    vertex 8.648960685001231 5.019509843530842 33.0043671518456
    vertex 4.946196145693367 8.691095655228292 29.99787339517934
    vertex 4.94913192724085 8.689424213764989 36.02086699601718
  endloop
endfacet
facet normal -0.725738 0.687962 -0.00350074
  outer loop
    vertex -5.242642902522332 8.515556082642648 48.0318366943967
    vertex -5.175011427693817 8.556825154415533 42.12132228353663
    vertex -8.80181347252258 4.746375416559461 45.16680891845871
  endloop
endfacet
facet normal 0.965659 0.259814 0.000167388
  outer loop
    vertex 8.648960685001231 5.019509843530842 33.0043671518456
    vertex 10 6.661338147750912e-15 29.99999999999992
    vertex 8.650899602600237 5.016167467871369 27.00670084071938
  endloop
endfacet
facet normal 0.704351 0.709851 0.000293643
  outer loop
    vertex 8.648960685001231 5.019509843530842 33.0043671518456
    vertex 4.94913192724085 8.689424213764989 36.02086699601718
    vertex 8.652354156016724 5.013658101512321 39.01054090989051
  endloop
endfacet
facet normal 0.705489 0.70872 -0.000194744
  outer loop
    vertex 8.650899602600237 5.016167467871369 27.00670084071938
    vertex 8.6531586054111 5.012269560747889 21.00485642412445
    vertex 4.974604415702358 8.674866621872328 23.96212700644176
  endloop
endfacet
facet normal 0.96571 -0.259623 0.000331735
  outer loop
    vertex 10 3.996802888650548e-15 17.99999999999995
    vertex 8.650000000002013 -5.017718605099852 20.99999999999994
    vertex 8.653852563721982 -5.011071323116695 14.98714828282614
  endloop
endfacet
facet normal 0.70418 0.710022 -0.000168034
  outer loop
    vertex 8.648960685001231 5.019509843530842 33.0043671518456
    vertex 8.650899602600237 5.016167467871369 27.00670084071938
    vertex 4.946196145693367 8.691095655228292 29.99787339517934
  endloop
endfacet
facet normal 0.965724 0.259571 -0.000423694
  outer loop
    vertex 10 2.664535259100365e-15 11.99999999999996
    vertex 8.649999999999972 5.017718605103367 8.999999999999972
    vertex 8.65490981161758 5.009245068148068 14.99969142718089
  endloop
endfacet
facet normal 0.96571 -0.259623 0.000331735
  outer loop
    vertex 10 9.32587340685129e-15 41.99999999999994
    vertex 8.649999999860301 -5.017718605344148 44.99999999999995
    vertex 8.653852563721955 -5.011071323116741 38.98714828282615
  endloop
endfacet
facet normal 0.96566 0.259808 -5.76889e-17
  outer loop
    vertex 10 1.199040866595167e-14 53.99999999999998
    vertex 10 1.065814103640148e-14 47.99999999999996
    vertex 8.649999999999128 5.017718605104821 50.99999999999997
  endloop
endfacet
facet normal 0.96571 -0.259622 -0.00033316
  outer loop
    vertex 8.64999999999989 -5.017718605103509 32.99999999999991
    vertex 10 7.993605777301099e-15 35.99999999999991
    vertex 8.653852563721955 -5.011071323116741 38.98714828282615
  endloop
endfacet
facet normal 0.96571 -0.259622 -0.00033316
  outer loop
    vertex 8.650000000002013 -5.017718605099852 20.99999999999994
    vertex 10 5.329070518200729e-15 23.99999999999993
    vertex 8.653852563721973 -5.01107132311671 26.98714828282613
  endloop
endfacet
facet normal 0.96571 -0.259622 -0.00033316
  outer loop
    vertex 8.650000000000096 -5.017718605103155 8.999999999999979
    vertex 10 2.664535259100365e-15 11.99999999999996
    vertex 8.653852563721982 -5.011071323116695 14.98714828282614
  endloop
endfacet
facet normal 0.965774 0.259385 -0.000352892
  outer loop
    vertex 8.656440345184054 5.006599699423728 45.00527347183387
    vertex 10 9.32587340685129e-15 41.99999999999994
    vertex 8.652354156016724 5.013658101512321 39.01054090989051
  endloop
endfacet
facet normal 0.249575 0.968354 -0.00164356
  outer loop
    vertex 4.94913192724085 8.689424213764989 36.02086699601718
    vertex -0.1133412386005997 9.999357667552076 39.07107773181721
    vertex 4.916322761362953 8.708029082754866 42.00042522364048
  endloop
endfacet
facet normal 0.280264 0.959905 -0.00583709
  outer loop
    vertex 0.3478553973743704 9.993947999790549 14.89283742203895
    vertex 5.019604497537114 8.64890575092047 18.01250899782813
    vertex 5.14217496313005 8.576598197919644 12.00672141756117
  endloop
endfacet
facet normal 0.223969 0.973838 -0.0384256
  outer loop
    vertex 4.916322761362953 8.708029082754866 42.00042522364048
    vertex -0.177933612068783 9.998416856167587 45.01074184765679
    vertex 3.899883101483968 9.208198075343502 48.75198609362539
  endloop
endfacet
facet normal 0.965744 0.259497 0.000556221
  outer loop
    vertex 10 1.065814103640148e-14 47.99999999999996
    vertex 8.656440345184054 5.006599699423728 45.00527347183387
    vertex 8.649999999999128 5.017718605104821 50.99999999999997
  endloop
endfacet
facet normal 0.585628 0.806047 -0.0856017
  outer loop
    vertex 8.090169943749476 5.877852522924729 0
    vertex 3.090169943749479 9.510565162951535 0
    vertex 5.14711651871279 8.573633508775258 5.249823631790228
  endloop
endfacet
facet normal 0.585784 -0.806262 -0.082453
  outer loop
    vertex 3.090169943749532 -9.510565162951517 0
    vertex 8.090169943749505 -5.87785252292469 0
    vertex 4.989991653787329 -8.666024653503634 5.23890738346163
  endloop
endfacet
facet normal 0.585221 0.805487 0.09331
  outer loop
    vertex 3.090169943749466 9.510565162951538 60
    vertex 8.090169943749469 5.87785252292474 60
    vertex 5.64220663494195 8.25624032405895 54.82196594125696
  endloop
endfacet
facet normal 0.712369 0.701805 0.000408216
  outer loop
    vertex 8.65490981161758 5.009245068148068 14.99969142718089
    vertex 8.649999999999972 5.017718605103367 8.999999999999972
    vertex 5.14217496313005 8.576598197919644 12.00672141756117
  endloop
endfacet
facet normal 0.710001 0.704175 0.0060122
  outer loop
    vertex 5.019604497537114 8.64890575092047 18.01250899782813
    vertex 8.65490981161758 5.009245068148068 14.99969142718089
    vertex 5.14217496313005 8.576598197919644 12.00672141756117
  endloop
endfacet
facet normal 0.707468 0.706745 -0.000149642
  outer loop
    vertex 8.6531586054111 5.012269560747889 21.00485642412445
    vertex 8.65490981161758 5.009245068148068 14.99969142718089
    vertex 5.019604497537114 8.64890575092047 18.01250899782813
  endloop
endfacet
facet normal 0.682533 0.729228 0.0487319
  outer loop
    vertex 8.656440345184054 5.006599699423728 45.00527347183387
    vertex 4.916322761362953 8.708029082754866 42.00042522364048
    vertex 3.899883101483968 9.208198075343502 48.75198609362539
  endloop
endfacet
facet normal 0.661731 0.749741 -0.000679684
  outer loop
    vertex 8.649999999999128 5.017718605104821 50.99999999999997
    vertex 8.656440345184054 5.006599699423728 45.00527347183387
    vertex 3.899883101483968 9.208198075343502 48.75198609362539
  endloop
endfacet
facet normal 0.703798 0.710398 0.00165132
  outer loop
    vertex 8.652354156016724 5.013658101512321 39.01054090989051
    vertex 4.94913192724085 8.689424213764989 36.02086699601718
    vertex 4.916322761362953 8.708029082754866 42.00042522364048
  endloop
endfacet
facet normal 0.703276 0.710917 0.000357684
  outer loop
    vertex 8.656440345184054 5.006599699423728 45.00527347183387
    vertex 8.652354156016724 5.013658101512321 39.01054090989051
    vertex 4.916322761362953 8.708029082754866 42.00042522364048
  endloop
endfacet
facet normal 0.257352 0.966315 -0.00226998
  outer loop
    vertex -0.02825125924183803 9.999960093237934 20.86147562959684
    vertex 4.974604415702358 8.674866621872328 23.96212700644176
    vertex 5.019604497537114 8.64890575092047 18.01250899782813
  endloop
endfacet
facet normal 0.967236 -0.253878 5.63722e-17
  outer loop
    vertex 10 1.065814103640148e-14 47.99999999999996
    vertex 10 1.199040866595167e-14 53.99999999999998
    vertex 8.710921203548846 -4.911196573704127 50.79441959879
  endloop
endfacet
facet normal 0.706476 0.707733 0.00225529
  outer loop
    vertex 4.974604415702358 8.674866621872328 23.96212700644176
    vertex 8.6531586054111 5.012269560747889 21.00485642412445
    vertex 5.019604497537114 8.64890575092047 18.01250899782813
  endloop
endfacet
facet normal 0.245649 0.966358 0.0762166
  outer loop
    vertex 3.090169943749479 9.510565162951535 0
    vertex -0.4398220805273078 9.990323144797701 5.294422573108314
    vertex 5.14711651871279 8.573633508775258 5.249823631790228
  endloop
endfacet
facet normal 0.243663 -0.967501 0.067605
  outer loop
    vertex -0.2789760744481067 -9.996107860056609 5.19450629919109
    vertex 3.090169943749532 -9.510565162951517 0
    vertex 4.989991653787329 -8.666024653503634 5.23890738346163
  endloop
endfacet
facet normal 0.297503 0.95104 -0.0837526
  outer loop
    vertex 0.03286575172589971 9.99994599197233 54.69703321227593
    vertex 3.090169943749466 9.510565162951538 60
    vertex 5.64220663494195 8.25624032405895 54.82196594125696
  endloop
endfacet
facet normal -0.332558 -0.939988 0.076344
  outer loop
    vertex -0.4916325976255861 -9.987907558090027 54.74739173488798
    vertex -5.894224561378536 -8.078249613625589 54.72617066806286
    vertex -4.045800659732936 -9.145025807601886 49.64327824925383
  endloop
endfacet
facet normal -0.322943 -0.942814 -0.082516
  outer loop
    vertex -5.877852522924707 -8.09016994374949 5.329906601812205
    vertex -0.2789760744481067 -9.996107860056609 5.19450629919109
    vertex -3.916517250443287 -9.201135398796181 10.34753261256741
  endloop
endfacet
facet normal 0.966457 -0.256769 -0.00544078
  outer loop
    vertex 8.649999999860301 -5.017718605344148 44.99999999999995
    vertex 10 1.065814103640148e-14 47.99999999999996
    vertex 8.710921203548846 -4.911196573704127 50.79441959879
  endloop
endfacet
facet normal -0.948524 -0.31621 0.0176908
  outer loop
    vertex -9.996625177609086 -0.2597788644060671 48.84401912304542
    vertex -8.279527813300795 -5.607978172994128 45.31405159644707
    vertex -8.096411653059151 -5.86925194076792 50.46207098041492
  endloop
endfacet
facet normal 0.717961 -0.696083 -0.000309515
  outer loop
    vertex 8.653852563721973 -5.01107132311671 26.98714828282613
    vertex 8.64999999999989 -5.017718605103509 32.99999999999991
    vertex 5.279643344724597 -8.49266543274285 29.98686046094534
  endloop
endfacet
facet normal -0.725664 0.687686 -0.0223575
  outer loop
    vertex -5.766319439205539 8.170040399229389 54.40136409732489
    vertex -5.242642902522332 8.515556082642648 48.0318366943967
    vertex -8.697721527958286 4.934535461630707 50.02697028063224
  endloop
endfacet
facet normal -0.938458 -0.331222 0.0979175
  outer loop
    vertex -9.998383800391894 -0.1797814786371358 10.49144466447206
    vertex -9.51371523279624 -3.080458158985574 5.324565173981775
    vertex -8.095273936589848 -5.870821057703012 9.480281465077709
  endloop
endfacet
facet normal 0.718288 -0.695745 -0.00106477
  outer loop
    vertex 5.279643344724597 -8.49266543274285 29.98686046094534
    vertex 8.64999999999989 -5.017718605103509 32.99999999999991
    vertex 5.302184373182445 -8.478610786725612 36.0093055353277
  endloop
endfacet
facet normal 0.94747 -0.307852 0.0867656
  outer loop
    vertex 10 1.332267629550186e-14 60
    vertex 8.090169943749512 -5.877852522924679 60
    vertex 8.978489540382164 -4.403035949574801 55.53242817512942
  endloop
endfacet
facet normal 0.306203 -0.951965 -0.00138267
  outer loop
    vertex 0.6789656184840467 -9.976923658569136 33.04033695884601
    vertex 0.644149753436004 -9.97923198924388 26.91936299024527
    vertex 5.279643344724597 -8.49266543274285 29.98686046094534
  endloop
endfacet
facet normal 0.974128 -0.225999 5.01818e-17
  outer loop
    vertex 10 1.199040866595167e-14 53.99999999999998
    vertex 10 1.332267629550186e-14 60
    vertex 8.978489540382164 -4.403035949574801 55.53242817512942
  endloop
endfacet
facet normal 0.718885 -0.695129 0.00030919
  outer loop
    vertex 8.64999999999989 -5.017718605103509 32.99999999999991
    vertex 8.653852563721955 -5.011071323116741 38.98714828282615
    vertex 5.302184373182445 -8.478610786725612 36.0093055353277
  endloop
endfacet
facet normal 0.240136 -0.968321 0.0684725
  outer loop
    vertex 5.0748900205777 -8.616582343309954 54.61831660345725
    vertex -0.4916325976255861 -9.987907558090027 54.74739173488798
    vertex 0.9304896412425855 -9.956615339940589 50.20247835159326
  endloop
endfacet
facet normal 0.306283 -0.951939 -0.00171215
  outer loop
    vertex 0.6769780038171004 -9.977058724010188 45.18045635801772
    vertex 0.6342801301435463 -9.979864163229133 39.10212636845772
    vertex 5.286986707903744 -8.488095873071247 42.00565119765209
  endloop
endfacet
facet normal 0.718369 -0.695662 0.000637878
  outer loop
    vertex 8.653852563721973 -5.01107132311671 26.98714828282613
    vertex 5.279643344724597 -8.49266543274285 29.98686046094534
    vertex 5.293069130005036 -8.484304284087631 23.9855055538416
  endloop
endfacet
facet normal 0.307249 -0.951627 0.00180332
  outer loop
    vertex 0.6342801301435463 -9.979864163229133 39.10212636845772
    vertex 0.6789656184840467 -9.976923658569136 33.04033695884601
    vertex 5.302184373182445 -8.478610786725612 36.0093055353277
  endloop
endfacet
facet normal 0.309984 -0.950738 0.00263234
  outer loop
    vertex 0.6807259523736685 -9.976803705484285 20.83572467590493
    vertex 0.7470078149856998 -9.972059933852698 14.74372745915591
    vertex 5.304448884037876 -8.477194231385131 17.97062174123889
  endloop
endfacet
facet normal 0.718261 -0.695774 -0.000308981
  outer loop
    vertex 8.653852563721955 -5.011071323116741 38.98714828282615
    vertex 8.649999999860301 -5.017718605344148 44.99999999999995
    vertex 5.286986707903744 -8.488095873071247 42.00565119765209
  endloop
endfacet
facet normal 0.718708 -0.695312 0.000721705
  outer loop
    vertex 5.302184373182445 -8.478610786725612 36.0093055353277
    vertex 8.653852563721955 -5.011071323116741 38.98714828282615
    vertex 5.286986707903744 -8.488095873071247 42.00565119765209
  endloop
endfacet
facet normal 0.306964 -0.95172 0.00146566
  outer loop
    vertex 0.644149753436004 -9.97923198924388 26.91936299024527
    vertex 0.6807259523736685 -9.976803705484285 20.83572467590493
    vertex 5.293069130005036 -8.484304284087631 23.9855055538416
  endloop
endfacet
facet normal -0.178141 0.983898 -0.0144908
  outer loop
    vertex -4.053512741699614 9.141610058019259 11.12852424553399
    vertex 0.3478553973743704 9.993947999790549 14.89283742203895
    vertex 0.6518770591647458 9.978730194755979 10.12210388177862
  endloop
endfacet
facet normal 0.718511 -0.695516 0.000309861
  outer loop
    vertex 8.650000000002013 -5.017718605099852 20.99999999999994
    vertex 8.653852563721973 -5.01107132311671 26.98714828282613
    vertex 5.293069130005036 -8.484304284087631 23.9855055538416
  endloop
endfacet
facet normal 0.718609 -0.695415 0.000537526
  outer loop
    vertex 8.650000000002013 -5.017718605099852 20.99999999999994
    vertex 5.293069130005036 -8.484304284087631 23.9855055538416
    vertex 5.304448884037876 -8.477194231385131 17.97062174123889
  endloop
endfacet
facet normal 0.718978 -0.695032 -0.000307702
  outer loop
    vertex 8.653852563721982 -5.011071323116695 14.98714828282614
    vertex 8.650000000002013 -5.017718605099852 20.99999999999994
    vertex 5.304448884037876 -8.477194231385131 17.97062174123889
  endloop
endfacet
facet normal 0.720379 -0.693561 -0.0052518
  outer loop
    vertex 5.286986707903744 -8.488095873071247 42.00565119765209
    vertex 8.649999999860301 -5.017718605344148 44.99999999999995
    vertex 5.39786515878973 -8.418019465855608 47.96023130818372
  endloop
endfacet
facet normal 0.307677 -0.95149 0.00106892
  outer loop
    vertex 0.6789656184840467 -9.976923658569136 33.04033695884601
    vertex 5.279643344724597 -8.49266543274285 29.98686046094534
    vertex 5.302184373182445 -8.478610786725612 36.0093055353277
  endloop
endfacet
facet normal 0.310712 -0.950489 0.00540013
  outer loop
    vertex 0.6769780038171004 -9.977058724010188 45.18045635801772
    vertex 5.286986707903744 -8.488095873071247 42.00565119765209
    vertex 5.39786515878973 -8.418019465855608 47.96023130818372
  endloop
endfacet
facet normal 0.308205 -0.95132 -0.000541429
  outer loop
    vertex 5.293069130005036 -8.484304284087631 23.9855055538416
    vertex 0.6807259523736685 -9.976803705484285 20.83572467590493
    vertex 5.304448884037876 -8.477194231385131 17.97062174123889
  endloop
endfacet
facet normal 0.305728 -0.952119 -0.000731207
  outer loop
    vertex 0.6342801301435463 -9.979864163229133 39.10212636845772
    vertex 5.302184373182445 -8.478610786725612 36.0093055353277
    vertex 5.286986707903744 -8.488095873071247 42.00565119765209
  endloop
endfacet
facet normal 0.719755 -0.694227 0.00149991
  outer loop
    vertex 8.653852563721982 -5.011071323116695 14.98714828282614
    vertex 5.304448884037876 -8.477194231385131 17.97062174123889
    vertex 5.33603432765729 -8.457348145492357 11.99953039370991
  endloop
endfacet
facet normal 0.947004 0.3077 -0.0922224
  outer loop
    vertex 10 0 0
    vertex 8.090169943749476 5.877852522924729 0
    vertex 9.025511484779665 4.305826568512762 4.359671473762504
  endloop
endfacet
facet normal 0.947004 -0.3077 -0.0922224
  outer loop
    vertex 8.090169943749505 -5.87785252292469 0
    vertex 10 0 0
    vertex 9.025511484783047 -4.305826568505669 4.35967147377233
  endloop
endfacet
facet normal -0.970677 0.240112 0.0114935
  outer loop
    vertex -8.80181347252258 4.746375416559461 45.16680891845871
    vertex -9.996625177609086 -0.2597788644060671 48.84401912304542
    vertex -8.697721527958286 4.934535461630707 50.02697028063224
  endloop
endfacet
facet normal 0.312628 -0.949874 -0.00150337
  outer loop
    vertex 5.304448884037876 -8.477194231385131 17.97062174123889
    vertex 0.7470078149856998 -9.972059933852698 14.74372745915591
    vertex 5.33603432765729 -8.457348145492357 11.99953039370991
  endloop
endfacet
facet normal 0.720273 -0.693691 0.000306701
  outer loop
    vertex 8.650000000000096 -5.017718605103155 8.999999999999979
    vertex 8.653852563721982 -5.011071323116695 14.98714828282614
    vertex 5.33603432765729 -8.457348145492357 11.99953039370991
  endloop
endfacet
facet normal 0.947004 0.3077 0.0922224
  outer loop
    vertex 8.090169943749469 5.87785252292474 60
    vertex 10 1.332267629550186e-14 60
    vertex 9.025511484779589 4.30582656851292 55.64032852623725
  endloop
endfacet
facet normal -0.635781 -0.7687 -0.0698738
  outer loop
    vertex -4.045800659732936 -9.145025807601886 49.64327824925383
    vertex -5.894224561378536 -8.078249613625589 54.72617066806286
    vertex -8.096411653059151 -5.86925194076792 50.46207098041492
  endloop
endfacet
facet normal 0.305759 -0.952109 -0.000642466
  outer loop
    vertex 5.279643344724597 -8.49266543274285 29.98686046094534
    vertex 0.644149753436004 -9.97923198924388 26.91936299024527
    vertex 5.293069130005036 -8.484304284087631 23.9855055538416
  endloop
endfacet
facet normal 0.975334 0.220736 -4.90133e-17
  outer loop
    vertex 10 1.332267629550183e-15 5.999999999999986
    vertex 10 0 0
    vertex 9.025511484779665 4.305826568512762 4.359671473762504
  endloop
endfacet
facet normal 0.975334 -0.220736 4.90133e-17
  outer loop
    vertex 10 0 0
    vertex 10 1.332267629550183e-15 5.999999999999986
    vertex 9.025511484783047 -4.305826568505669 4.35967147377233
  endloop
endfacet
facet normal 0.975334 0.220736 -4.90133e-17
  outer loop
    vertex 10 1.332267629550186e-14 60
    vertex 10 1.199040866595167e-14 53.99999999999998
    vertex 9.025511484779589 4.30582656851292 55.64032852623725
  endloop
endfacet
facet normal -0.666033 0.741744 0.0788361
  outer loop
    vertex -4.053512741699614 9.141610058019259 11.12852424553399
    vertex -6.114556531359764 7.912787020058461 5.277752412505379
    vertex -8.456325600196816 5.337654666935277 9.72232488943758
  endloop
endfacet
facet normal -0.631019 -0.772063 0.0757141
  outer loop
    vertex -5.877852522924707 -8.09016994374949 5.329906601812205
    vertex -3.916517250443287 -9.201135398796181 10.34753261256741
    vertex -8.095273936589848 -5.870821057703012 9.480281465077709
  endloop
endfacet
facet normal 0.162999 0.986151 0.0306296
  outer loop
    vertex 3.899883101483968 9.208198075343502 48.75198609362539
    vertex -0.177933612068783 9.998416856167587 45.01074184765679
    vertex -0.8702788269712682 9.962058761286519 49.86572867444679
  endloop
endfacet
facet normal 0.724857 -0.688881 0.00504311
  outer loop
    vertex 8.649999999860301 -5.017718605344148 44.99999999999995
    vertex 8.710921203548846 -4.911196573704127 50.79441959879
    vertex 5.39786515878973 -8.418019465855608 47.96023130818372
  endloop
endfacet
facet normal 0.244857 -0.968367 -0.0480719
  outer loop
    vertex -0.2789760744481067 -9.996107860056609 5.19450629919109
    vertex 4.989991653787329 -8.666024653503634 5.23890738346163
    vertex 0.7200286878166183 -9.974044249386559 9.838541964637216
  endloop
endfacet
facet normal -0.963756 0.2645 -0.0348516
  outer loop
    vertex -9.998383800391894 -0.1797814786371358 10.49144466447206
    vertex -8.796196374194427 4.756777201699575 14.71234989109693
    vertex -8.456325600196816 5.337654666935277 9.72232488943758
  endloop
endfacet
facet normal -0.800061 0.591789 0.0984284
  outer loop
    vertex -9.526162007336609 3.041749070843377 54.67326423677567
    vertex -5.766319439205539 8.170040399229389 54.40136409732489
    vertex -8.697721527958286 4.934535461630707 50.02697028063224
  endloop
endfacet
facet normal -0.814339 0.572128 -0.0975774
  outer loop
    vertex -6.114556531359764 7.912787020058461 5.277752412505379
    vertex -9.517257286266586 3.069497311776892 5.277468175003278
    vertex -8.456325600196816 5.337654666935277 9.72232488943758
  endloop
endfacet
facet normal -0.956379 0.279253 0.0857759
  outer loop
    vertex -9.517257286266586 3.069497311776892 5.277468175003278
    vertex -9.998383800391894 -0.1797814786371358 10.49144466447206
    vertex -8.456325600196816 5.337654666935277 9.72232488943758
  endloop
endfacet
facet normal -0.805196 -0.581868 0.114408
  outer loop
    vertex -5.894224561378536 -8.078249613625589 54.72617066806286
    vertex -9.51439491645073 -3.078358227012658 54.67658990926226
    vertex -8.096411653059151 -5.86925194076792 50.46207098041492
  endloop
endfacet
facet normal -0.80366 -0.583392 -0.117412
  outer loop
    vertex -9.51371523279624 -3.080458158985574 5.324565173981775
    vertex -5.877852522924707 -8.09016994374949 5.329906601812205
    vertex -8.095273936589848 -5.870821057703012 9.480281465077709
  endloop
endfacet
facet normal 0.745874 0.661447 0.0784843
  outer loop
    vertex 8.090169943749476 5.877852522924729 0
    vertex 5.14711651871279 8.573633508775258 5.249823631790228
    vertex 9.025511484779665 4.305826568512762 4.359671473762504
  endloop
endfacet
facet normal 0.739628 -0.66798 0.08218
  outer loop
    vertex 4.989991653787329 -8.666024653503634 5.23890738346163
    vertex 8.090169943749505 -5.87785252292469 0
    vertex 9.025511484783047 -4.305826568505669 4.35967147377233
  endloop
endfacet
facet normal 0.764631 0.640968 -0.0670754
  outer loop
    vertex 5.64220663494195 8.25624032405895 54.82196594125696
    vertex 8.090169943749469 5.87785252292474 60
    vertex 9.025511484779589 4.30582656851292 55.64032852623725
  endloop
endfacet
facet normal -0.722734 0.691034 -0.0112742
  outer loop
    vertex -5.242642902522332 8.515556082642648 48.0318366943967
    vertex -8.80181347252258 4.746375416559461 45.16680891845871
    vertex -8.697721527958286 4.934535461630707 50.02697028063224
  endloop
endfacet
facet normal -0.660873 0.74931 0.0422133
  outer loop
    vertex -8.796196374194427 4.756777201699575 14.71234989109693
    vertex -4.053512741699614 9.141610058019259 11.12852424553399
    vertex -8.456325600196816 5.337654666935277 9.72232488943758
  endloop
endfacet
facet normal 0.739505 -0.669089 -0.0738358
  outer loop
    vertex 8.090169943749512 -5.877852522924679 60
    vertex 5.0748900205777 -8.616582343309954 54.61831660345725
    vertex 8.978489540382164 -4.403035949574801 55.53242817512942
  endloop
endfacet
facet normal -0.30036 0.953158 -0.0356949
  outer loop
    vertex -0.177933612068783 9.998416856167587 45.01074184765679
    vertex -5.242642902522332 8.515556082642648 48.0318366943967
    vertex -0.8702788269712682 9.962058761286519 49.86572867444679
  endloop
endfacet
facet normal 0.971386 -0.235658 -0.029582
  outer loop
    vertex 8.710921203548846 -4.911196573704127 50.79441959879
    vertex 10 1.199040866595167e-14 53.99999999999998
    vertex 8.978489540382164 -4.403035949574801 55.53242817512942
  endloop
endfacet
facet normal 0.734708 0.67693 -0.0443955
  outer loop
    vertex 5.14711651871279 8.573633508775258 5.249823631790228
    vertex 8.649999999999972 5.017718605103367 8.999999999999972
    vertex 9.025511484779665 4.305826568512762 4.359671473762504
  endloop
endfacet
facet normal 0.728498 -0.683508 -0.0459072
  outer loop
    vertex 8.650000000000096 -5.017718605103155 8.999999999999979
    vertex 4.989991653787329 -8.666024653503634 5.23890738346163
    vertex 9.025511484783047 -4.305826568505669 4.35967147377233
  endloop
endfacet
facet normal 0.97086 0.235869 0.0423798
  outer loop
    vertex 8.649999999999972 5.017718605103367 8.999999999999972
    vertex 10 1.332267629550183e-15 5.999999999999986
    vertex 9.025511484779665 4.305826568512762 4.359671473762504
  endloop
endfacet
facet normal 0.97086 -0.235869 0.0423798
  outer loop
    vertex 10 1.332267629550183e-15 5.999999999999986
    vertex 8.650000000000096 -5.017718605103155 8.999999999999979
    vertex 9.025511484783047 -4.305826568505669 4.35967147377233
  endloop
endfacet
facet normal 0.754889 0.654671 0.0393475
  outer loop
    vertex 8.649999999999128 5.017718605104821 50.99999999999997
    vertex 5.64220663494195 8.25624032405895 54.82196594125696
    vertex 9.025511484779589 4.30582656851292 55.64032852623725
  endloop
endfacet
facet normal -0.162289 -0.986668 0.0122088
  outer loop
    vertex -4.045800659732936 -9.145025807601886 49.64327824925383
    vertex 0.6769780038171004 -9.977058724010188 45.18045635801772
    vertex 0.9304896412425855 -9.956615339940589 50.20247835159326
  endloop
endfacet
facet normal 0.97086 0.235869 -0.0423798
  outer loop
    vertex 10 1.199040866595167e-14 53.99999999999998
    vertex 8.649999999999128 5.017718605104821 50.99999999999997
    vertex 9.025511484779589 4.30582656851292 55.64032852623725
  endloop
endfacet
facet normal -0.164291 -0.986411 0.00130266
  outer loop
    vertex 0.7470078149856998 -9.972059933852698 14.74372745915591
    vertex -3.916517250443287 -9.201135398796181 10.34753261256741
    vertex 0.7200286878166183 -9.974044249386559 9.838541964637216
  endloop
endfacet
facet normal 0.292071 0.95627 0.0155623
  outer loop
    vertex 0.3478553973743704 9.993947999790549 14.89283742203895
    vertex 5.14217496313005 8.576598197919644 12.00672141756117
    vertex 0.6518770591647458 9.978730194755979 10.12210388177862
  endloop
endfacet
facet normal 0.729721 -0.682994 0.0320431
  outer loop
    vertex 5.0748900205777 -8.616582343309954 54.61831660345725
    vertex 8.710921203548846 -4.911196573704127 50.79441959879
    vertex 8.978489540382164 -4.403035949574801 55.53242817512942
  endloop
endfacet
facet normal -0.154675 -0.986423 -0.0551901
  outer loop
    vertex -0.4916325976255861 -9.987907558090027 54.74739173488798
    vertex -4.045800659732936 -9.145025807601886 49.64327824925383
    vertex 0.9304896412425855 -9.956615339940589 50.20247835159326
  endloop
endfacet
facet normal 0.320085 -0.947309 -0.0123017
  outer loop
    vertex 0.6769780038171004 -9.977058724010188 45.18045635801772
    vertex 5.39786515878973 -8.418019465855608 47.96023130818372
    vertex 0.9304896412425855 -9.956615339940589 50.20247835159326
  endloop
endfacet
facet normal -0.160123 -0.986321 0.039131
  outer loop
    vertex -3.916517250443287 -9.201135398796181 10.34753261256741
    vertex -0.2789760744481067 -9.996107860056609 5.19450629919109
    vertex 0.7200286878166183 -9.974044249386559 9.838541964637216
  endloop
endfacet
facet normal 0.312719 -0.949845 -0.00133575
  outer loop
    vertex 5.33603432765729 -8.457348145492357 11.99953039370991
    vertex 0.7470078149856998 -9.972059933852698 14.74372745915591
    vertex 0.7200286878166183 -9.974044249386559 9.838541964637216
  endloop
endfacet
endsolid Created by Gmsh
