solid middleArm_Long_p1
   facet normal -0.000000e+00 1.000000e+00 0.000000e+00
      outer loop
         vertex 5.498218e-01 4.500000e+00 -1.922939e+00
         vertex 1.482061e+00 4.500000e+00 -2.779567e+00
         vertex 1.068140e+00 4.500000e+00 -2.963373e+00
      endloop
   endfacet
   facet normal 0.000000e+00 1.000000e+00 0.000000e+00
      outer loop
         vertex 6.321322e-01 4.500000e+00 -3.085921e+00
         vertex 5.498218e-01 4.500000e+00 -1.922939e+00
         vertex 1.068140e+00 4.500000e+00 -2.963373e+00
      endloop
   endfacet
   facet normal -0.000000e+00 1.000000e+00 0.000000e+00
      outer loop
         vertex 2.075565e-01 4.500000e+00 -1.989202e+00
         vertex 5.498218e-01 4.500000e+00 -1.922939e+00
         vertex 6.321322e-01 4.500000e+00 -3.085921e+00
      endloop
   endfacet
   facet normal 0.000000e+00 1.000000e+00 0.000000e+00
      outer loop
         vertex 1.830675e-01 4.500000e+00 -3.144674e+00
         vertex 2.075565e-01 4.500000e+00 -1.989202e+00
         vertex 6.321322e-01 4.500000e+00 -3.085921e+00
      endloop
   endfacet
   facet normal -0.000000e+00 1.000000e+00 0.000000e+00
      outer loop
         vertex 8.753885e-01 4.500000e+00 -1.798249e+00
         vertex 1.865342e+00 4.500000e+00 -2.538306e+00
         vertex 1.482061e+00 4.500000e+00 -2.779567e+00
      endloop
   endfacet
   facet normal 0.000000e+00 1.000000e+00 0.000000e+00
      outer loop
         vertex 5.498218e-01 4.500000e+00 -1.922939e+00
         vertex 8.753885e-01 4.500000e+00 -1.798249e+00
         vertex 1.482061e+00 4.500000e+00 -2.779567e+00
      endloop
   endfacet
   facet normal 0.000000e+00 1.000000e+00 -0.000000e+00
      outer loop
         vertex -1.410178e-01 4.500000e+00 -1.995023e+00
         vertex 2.075565e-01 4.500000e+00 -1.989202e+00
         vertex 1.830675e-01 4.500000e+00 -3.144674e+00
      endloop
   endfacet
   facet normal 0.000000e+00 1.000000e+00 0.000000e+00
      outer loop
         vertex -2.697902e-01 4.500000e+00 -3.138425e+00
         vertex -1.410178e-01 4.500000e+00 -1.995023e+00
         vertex 1.830675e-01 4.500000e+00 -3.144674e+00
      endloop
   endfacet
   facet normal -0.000000e+00 1.000000e+00 0.000000e+00
      outer loop
         vertex 1.174352e+00 4.500000e+00 -1.618920e+00
         vertex 2.210069e+00 4.500000e+00 -2.244570e+00
         vertex 1.865342e+00 4.500000e+00 -2.538306e+00
      endloop
   endfacet
   facet normal 0.000000e+00 1.000000e+00 0.000000e+00
      outer loop
         vertex 8.753885e-01 4.500000e+00 -1.798249e+00
         vertex 1.174352e+00 4.500000e+00 -1.618920e+00
         vertex 1.865342e+00 4.500000e+00 -2.538306e+00
      endloop
   endfacet
   facet normal 0.000000e+00 1.000000e+00 -0.000000e+00
      outer loop
         vertex -4.853048e-01 4.500000e+00 -1.940226e+00
         vertex -1.410178e-01 4.500000e+00 -1.995023e+00
         vertex -2.697902e-01 4.500000e+00 -3.138425e+00
      endloop
   endfacet
   facet normal 0.000000e+00 1.000000e+00 0.000000e+00
      outer loop
         vertex -7.170679e-01 4.500000e+00 -3.067298e+00
         vertex -4.853048e-01 4.500000e+00 -1.940226e+00
         vertex -2.697902e-01 4.500000e+00 -3.138425e+00
      endloop
   endfacet
   facet normal -0.000000e+00 1.000000e+00 0.000000e+00
      outer loop
         vertex 1.437630e+00 4.500000e+00 -1.390401e+00
         vertex 2.509106e+00 4.500000e+00 -1.904435e+00
         vertex 2.210069e+00 4.500000e+00 -2.244570e+00
      endloop
   endfacet
   facet normal 0.000000e+00 1.000000e+00 0.000000e+00
      outer loop
         vertex 1.174352e+00 4.500000e+00 -1.618920e+00
         vertex 1.437630e+00 4.500000e+00 -1.390401e+00
         vertex 2.210069e+00 4.500000e+00 -2.244570e+00
      endloop
   endfacet
   facet normal 0.000000e+00 1.000000e+00 -0.000000e+00
      outer loop
         vertex -8.148541e-01 4.500000e+00 -1.826478e+00
         vertex -4.853048e-01 4.500000e+00 -1.940226e+00
         vertex -7.170679e-01 4.500000e+00 -3.067298e+00
      endloop
   endfacet
   facet normal 0.000000e+00 1.000000e+00 0.000000e+00
      outer loop
         vertex -1.149518e+00 4.500000e+00 -2.932763e+00
         vertex -8.148541e-01 4.500000e+00 -1.826478e+00
         vertex -7.170679e-01 4.500000e+00 -3.067298e+00
      endloop
   endfacet
   facet normal -0.000000e+00 1.000000e+00 0.000000e+00
      outer loop
         vertex 1.657228e+00 4.500000e+00 -1.119636e+00
         vertex 2.756281e+00 4.500000e+00 -1.524931e+00
         vertex 2.509106e+00 4.500000e+00 -1.904435e+00
      endloop
   endfacet
   facet normal 0.000000e+00 1.000000e+00 0.000000e+00
      outer loop
         vertex 1.437630e+00 4.500000e+00 -1.390401e+00
         vertex 1.657228e+00 4.500000e+00 -1.119636e+00
         vertex 2.509106e+00 4.500000e+00 -1.904435e+00
      endloop
   endfacet
   facet normal 0.000000e+00 1.000000e+00 0.000000e+00
      outer loop
         vertex -1.558209e+00 4.500000e+00 -2.737602e+00
         vertex -8.148541e-01 4.500000e+00 -1.826478e+00
         vertex -1.149518e+00 4.500000e+00 -2.932763e+00
      endloop
   endfacet
   facet normal -0.000000e+00 1.000000e+00 0.000000e+00
      outer loop
         vertex 1.826477e+00 4.500000e+00 -8.148501e-01
         vertex 2.946476e+00 4.500000e+00 -1.113905e+00
         vertex 2.756281e+00 4.500000e+00 -1.524931e+00
      endloop
   endfacet
   facet normal 0.000000e+00 1.000000e+00 0.000000e+00
      outer loop
         vertex 1.657228e+00 4.500000e+00 -1.119636e+00
         vertex 1.826477e+00 4.500000e+00 -8.148501e-01
         vertex 2.756281e+00 4.500000e+00 -1.524931e+00
      endloop
   endfacet
   facet normal 0.000000e+00 1.000000e+00 -0.000000e+00
      outer loop
         vertex -1.119635e+00 4.500000e+00 -1.657231e+00
         vertex -8.148541e-01 4.500000e+00 -1.826478e+00
         vertex -1.558209e+00 4.500000e+00 -2.737602e+00
      endloop
   endfacet
   facet normal 0.000000e+00 1.000000e+00 0.000000e+00
      outer loop
         vertex -1.934695e+00 4.500000e+00 -2.485854e+00
         vertex -1.119635e+00 4.500000e+00 -1.657231e+00
         vertex -1.558209e+00 4.500000e+00 -2.737602e+00
      endloop
   endfacet
   facet normal -0.000000e+00 1.000000e+00 0.000000e+00
      outer loop
         vertex 1.826477e+00 4.500000e+00 -8.148501e-01
         vertex 3.075758e+00 4.500000e+00 -6.798549e-01
         vertex 2.946476e+00 4.500000e+00 -1.113905e+00
      endloop
   endfacet
   facet normal 0.000000e+00 1.000000e+00 -0.000000e+00
      outer loop
         vertex -1.390398e+00 4.500000e+00 -1.437630e+00
         vertex -1.119635e+00 4.500000e+00 -1.657231e+00
         vertex -1.934695e+00 4.500000e+00 -2.485854e+00
      endloop
   endfacet
   facet normal 0.000000e+00 1.000000e+00 0.000000e+00
      outer loop
         vertex -2.271181e+00 4.500000e+00 -2.182716e+00
         vertex -1.390398e+00 4.500000e+00 -1.437630e+00
         vertex -1.934695e+00 4.500000e+00 -2.485854e+00
      endloop
   endfacet
   facet normal -0.000000e+00 1.000000e+00 0.000000e+00
      outer loop
         vertex 1.940223e+00 4.500000e+00 -4.853072e-01
         vertex 3.141461e+00 4.500000e+00 -2.317484e-01
         vertex 3.075758e+00 4.500000e+00 -6.798549e-01
      endloop
   endfacet
   facet normal 0.000000e+00 1.000000e+00 0.000000e+00
      outer loop
         vertex 1.826477e+00 4.500000e+00 -8.148501e-01
         vertex 1.940223e+00 4.500000e+00 -4.853072e-01
         vertex 3.075758e+00 4.500000e+00 -6.798549e-01
      endloop
   endfacet
   facet normal 0.000000e+00 1.000000e+00 -0.000000e+00
      outer loop
         vertex -1.618917e+00 4.500000e+00 -1.174349e+00
         vertex -1.390398e+00 4.500000e+00 -1.437630e+00
         vertex -2.271181e+00 4.500000e+00 -2.182716e+00
      endloop
   endfacet
   facet normal 0.000000e+00 1.000000e+00 0.000000e+00
      outer loop
         vertex -2.560714e+00 4.500000e+00 -1.834455e+00
         vertex -1.618917e+00 4.500000e+00 -1.174349e+00
         vertex -2.271181e+00 4.500000e+00 -2.182716e+00
      endloop
   endfacet
   facet normal 0.000000e+00 1.000000e+00 0.000000e+00
      outer loop
         vertex 2.753059e+00 4.500000e+00 5.377094e+00
         vertex 3.587672e+00 4.500000e+00 5.816882e+00
         vertex 3.141461e+00 4.500000e+00 -2.317484e-01
      endloop
   endfacet
   facet normal 0.000000e+00 1.000000e+00 0.000000e+00
      outer loop
         vertex 1.940223e+00 4.500000e+00 -4.853072e-01
         vertex 1.995020e+00 4.500000e+00 -1.410175e-01
         vertex 3.141461e+00 4.500000e+00 -2.317484e-01
      endloop
   endfacet
   facet normal 0.000000e+00 1.000000e+00 0.000000e+00
      outer loop
         vertex 1.995020e+00 4.500000e+00 -1.410175e-01
         vertex 1.989202e+00 4.500000e+00 2.075579e-01
         vertex 3.141461e+00 4.500000e+00 -2.317484e-01
      endloop
   endfacet
   facet normal 0.000000e+00 1.000000e+00 0.000000e+00
      outer loop
         vertex 1.989202e+00 4.500000e+00 2.075579e-01
         vertex 1.922939e+00 4.500000e+00 5.498249e-01
         vertex 3.141461e+00 4.500000e+00 -2.317484e-01
      endloop
   endfacet
   facet normal 0.000000e+00 1.000000e+00 0.000000e+00
      outer loop
         vertex 1.922939e+00 4.500000e+00 5.498249e-01
         vertex 2.753059e+00 4.500000e+00 5.377094e+00
         vertex 3.141461e+00 4.500000e+00 -2.317484e-01
      endloop
   endfacet
   facet normal 8.684086e-02 9.962016e-01 -6.406300e-03
      outer loop
         vertex 3.587672e+00 4.500000e+00 5.816882e+00
         vertex 3.604992e+00 4.498482e+00 5.815605e+00
         vertex 3.141461e+00 4.500000e+00 -2.317484e-01
      endloop
   endfacet
   facet normal 8.684246e-02 9.962015e-01 -6.406422e-03
      outer loop
         vertex 3.604992e+00 4.498482e+00 5.815605e+00
         vertex 3.158781e+00 4.498482e+00 -2.330245e-01
         vertex 3.141461e+00 4.500000e+00 -2.317484e-01
      endloop
   endfacet
   facet normal 0.000000e+00 1.000000e+00 -0.000000e+00
      outer loop
         vertex -1.798250e+00 4.500000e+00 -8.753868e-01
         vertex -1.618917e+00 4.500000e+00 -1.174349e+00
         vertex -2.560714e+00 4.500000e+00 -1.834455e+00
      endloop
   endfacet
   facet normal 0.000000e+00 1.000000e+00 0.000000e+00
      outer loop
         vertex -2.797321e+00 4.500000e+00 -1.448277e+00
         vertex -1.798250e+00 4.500000e+00 -8.753868e-01
         vertex -2.560714e+00 4.500000e+00 -1.834455e+00
      endloop
   endfacet
   facet normal 0.000000e+00 1.000000e+00 -0.000000e+00
      outer loop
         vertex -1.922938e+00 4.500000e+00 -5.498254e-01
         vertex -1.798250e+00 4.500000e+00 -8.753868e-01
         vertex -2.797321e+00 4.500000e+00 -1.448277e+00
      endloop
   endfacet
   facet normal 0.000000e+00 1.000000e+00 0.000000e+00
      outer loop
         vertex -2.976095e+00 4.500000e+00 -1.032157e+00
         vertex -1.922938e+00 4.500000e+00 -5.498254e-01
         vertex -2.797321e+00 4.500000e+00 -1.448277e+00
      endloop
   endfacet
   facet normal 0.000000e+00 1.000000e+00 -0.000000e+00
      outer loop
         vertex -3.093350e+00 4.500000e+00 -5.947008e-01
         vertex -1.922938e+00 4.500000e+00 -5.498254e-01
         vertex -2.976095e+00 4.500000e+00 -1.032157e+00
      endloop
   endfacet
   facet normal 0.000000e+00 1.000000e+00 0.000000e+00
      outer loop
         vertex 1.798250e+00 4.500000e+00 8.753872e-01
         vertex 2.753059e+00 4.500000e+00 5.377094e+00
         vertex 1.922939e+00 4.500000e+00 5.498249e-01
      endloop
   endfacet
   facet normal 0.000000e+00 1.000000e+00 0.000000e+00
      outer loop
         vertex -3.093350e+00 4.500000e+00 -5.947008e-01
         vertex -1.989202e+00 4.500000e+00 -2.075575e-01
         vertex -1.922938e+00 4.500000e+00 -5.498254e-01
      endloop
   endfacet
   facet normal 0.000000e+00 1.000000e+00 -0.000000e+00
      outer loop
         vertex -3.146663e+00 4.500000e+00 -1.449533e-01
         vertex -1.989202e+00 4.500000e+00 -2.075575e-01
         vertex -3.093350e+00 4.500000e+00 -5.947008e-01
      endloop
   endfacet
   facet normal 0.000000e+00 1.000000e+00 0.000000e+00
      outer loop
         vertex 1.618918e+00 4.500000e+00 1.174350e+00
         vertex 2.753059e+00 4.500000e+00 5.377094e+00
         vertex 1.798250e+00 4.500000e+00 8.753872e-01
      endloop
   endfacet
   facet normal -0.000000e+00 1.000000e+00 0.000000e+00
      outer loop
         vertex -3.146663e+00 4.500000e+00 -1.449533e-01
         vertex -1.995020e+00 4.500000e+00 1.410178e-01
         vertex -1.989202e+00 4.500000e+00 -2.075575e-01
      endloop
   endfacet
   facet normal 0.000000e+00 1.000000e+00 0.000000e+00
      outer loop
         vertex 1.390398e+00 4.500000e+00 1.437631e+00
         vertex 2.753059e+00 4.500000e+00 5.377094e+00
         vertex 1.618918e+00 4.500000e+00 1.174350e+00
      endloop
   endfacet
   facet normal 0.000000e+00 1.000000e+00 0.000000e+00
      outer loop
         vertex -3.146663e+00 4.500000e+00 -1.449533e-01
         vertex -3.189736e+00 4.500000e+00 1.922288e-01
         vertex -1.995020e+00 4.500000e+00 1.410178e-01
      endloop
   endfacet
   facet normal -0.000000e+00 1.000000e+00 0.000000e+00
      outer loop
         vertex -3.189736e+00 4.500000e+00 1.922288e-01
         vertex -1.940223e+00 4.500000e+00 4.853075e-01
         vertex -1.995020e+00 4.500000e+00 1.410178e-01
      endloop
   endfacet
   facet normal 0.000000e+00 1.000000e+00 0.000000e+00
      outer loop
         vertex 1.119636e+00 4.500000e+00 1.657231e+00
         vertex 2.753059e+00 4.500000e+00 5.377094e+00
         vertex 1.390398e+00 4.500000e+00 1.437631e+00
      endloop
   endfacet
   facet normal 0.000000e+00 1.000000e+00 0.000000e+00
      outer loop
         vertex -3.189736e+00 4.500000e+00 1.922288e-01
         vertex -3.286646e+00 4.500000e+00 5.180436e-01
         vertex -1.940223e+00 4.500000e+00 4.853075e-01
      endloop
   endfacet
   facet normal 0.000000e+00 1.000000e+00 0.000000e+00
      outer loop
         vertex -3.286646e+00 4.500000e+00 5.180436e-01
         vertex -3.434846e+00 4.500000e+00 8.239569e-01
         vertex -1.940223e+00 4.500000e+00 4.853075e-01
      endloop
   endfacet
   facet normal -0.000000e+00 1.000000e+00 0.000000e+00
      outer loop
         vertex -3.434846e+00 4.500000e+00 8.239569e-01
         vertex -1.826477e+00 4.500000e+00 8.148504e-01
         vertex -1.940223e+00 4.500000e+00 4.853075e-01
      endloop
   endfacet
   facet normal 0.000000e+00 1.000000e+00 0.000000e+00
      outer loop
         vertex 8.148476e-01 4.500000e+00 1.826476e+00
         vertex 2.753059e+00 4.500000e+00 5.377094e+00
         vertex 1.119636e+00 4.500000e+00 1.657231e+00
      endloop
   endfacet
   facet normal 0.000000e+00 1.000000e+00 0.000000e+00
      outer loop
         vertex -3.868373e+00 4.500000e+00 1.344742e+00
         vertex -4.142336e+00 4.500000e+00 1.545968e+00
         vertex -1.826477e+00 4.500000e+00 8.148504e-01
      endloop
   endfacet
   facet normal 0.000000e+00 1.000000e+00 0.000000e+00
      outer loop
         vertex -4.142336e+00 4.500000e+00 1.545968e+00
         vertex -4.445171e+00 4.500000e+00 1.700360e+00
         vertex -1.826477e+00 4.500000e+00 8.148504e-01
      endloop
   endfacet
   facet normal -0.000000e+00 1.000000e+00 0.000000e+00
      outer loop
         vertex -4.445171e+00 4.500000e+00 1.700360e+00
         vertex -1.657235e+00 4.500000e+00 1.119634e+00
         vertex -1.826477e+00 4.500000e+00 8.148504e-01
      endloop
   endfacet
   facet normal 0.000000e+00 1.000000e+00 0.000000e+00
      outer loop
         vertex -3.434846e+00 4.500000e+00 8.239569e-01
         vertex -3.630469e+00 4.500000e+00 1.101949e+00
         vertex -1.826477e+00 4.500000e+00 8.148504e-01
      endloop
   endfacet
   facet normal 0.000000e+00 1.000000e+00 0.000000e+00
      outer loop
         vertex -3.630469e+00 4.500000e+00 1.101949e+00
         vertex -3.868373e+00 4.500000e+00 1.344742e+00
         vertex -1.826477e+00 4.500000e+00 8.148504e-01
      endloop
   endfacet
   facet normal 0.000000e+00 1.000000e+00 0.000000e+00
      outer loop
         vertex 4.853054e-01 4.500000e+00 1.940226e+00
         vertex 2.753059e+00 4.500000e+00 5.377094e+00
         vertex 8.148476e-01 4.500000e+00 1.826476e+00
      endloop
   endfacet
   facet normal 0.000000e+00 1.000000e+00 0.000000e+00
      outer loop
         vertex -4.445171e+00 4.500000e+00 1.700360e+00
         vertex -4.072421e+00 4.500000e+00 3.826566e+00
         vertex -1.657235e+00 4.500000e+00 1.119634e+00
      endloop
   endfacet
   facet normal -0.000000e+00 1.000000e+00 0.000000e+00
      outer loop
         vertex -4.072421e+00 4.500000e+00 3.826566e+00
         vertex -1.437630e+00 4.500000e+00 1.390402e+00
         vertex -1.657235e+00 4.500000e+00 1.119634e+00
      endloop
   endfacet
   facet normal 0.000000e+00 1.000000e+00 -0.000000e+00
      outer loop
         vertex -3.181493e-01 4.500000e+00 5.603658e+00
         vertex 2.753059e+00 4.500000e+00 5.377094e+00
         vertex 4.853054e-01 4.500000e+00 1.940226e+00
      endloop
   endfacet
   facet normal 0.000000e+00 1.000000e+00 0.000000e+00
      outer loop
         vertex 1.410187e-01 4.500000e+00 1.995023e+00
         vertex -3.181493e-01 4.500000e+00 5.603658e+00
         vertex 4.853054e-01 4.500000e+00 1.940226e+00
      endloop
   endfacet
   facet normal -0.000000e+00 1.000000e+00 0.000000e+00
      outer loop
         vertex -4.072421e+00 4.500000e+00 3.826566e+00
         vertex -4.055218e+00 4.500000e+00 3.823772e+00
         vertex -1.437630e+00 4.500000e+00 1.390402e+00
      endloop
   endfacet
   facet normal -0.000000e+00 1.000000e+00 0.000000e+00
      outer loop
         vertex -4.055218e+00 4.500000e+00 3.823772e+00
         vertex -1.174351e+00 4.500000e+00 1.618920e+00
         vertex -1.437630e+00 4.500000e+00 1.390402e+00
      endloop
   endfacet
   facet normal 0.000000e+00 1.000000e+00 0.000000e+00
      outer loop
         vertex -2.075556e-01 4.500000e+00 1.989201e+00
         vertex -3.181493e-01 4.500000e+00 5.603658e+00
         vertex 1.410187e-01 4.500000e+00 1.995023e+00
      endloop
   endfacet
   facet normal -0.000000e+00 1.000000e+00 0.000000e+00
      outer loop
         vertex -4.055218e+00 4.500000e+00 3.823772e+00
         vertex -2.091469e+00 4.500000e+00 3.678906e+00
         vertex -1.174351e+00 4.500000e+00 1.618920e+00
      endloop
   endfacet
   facet normal -0.000000e+00 1.000000e+00 0.000000e+00
      outer loop
         vertex -2.091469e+00 4.500000e+00 3.678906e+00
         vertex -2.076238e+00 4.500000e+00 3.678946e+00
         vertex -1.174351e+00 4.500000e+00 1.618920e+00
      endloop
   endfacet
   facet normal -0.000000e+00 1.000000e+00 0.000000e+00
      outer loop
         vertex -2.076238e+00 4.500000e+00 3.678946e+00
         vertex -2.061188e+00 4.500000e+00 3.681298e+00
         vertex -1.174351e+00 4.500000e+00 1.618920e+00
      endloop
   endfacet
   facet normal 0.000000e+00 1.000000e+00 0.000000e+00
      outer loop
         vertex -2.061188e+00 4.500000e+00 3.681298e+00
         vertex -2.046667e+00 4.500000e+00 3.685910e+00
         vertex -1.174351e+00 4.500000e+00 1.618920e+00
      endloop
   endfacet
   facet normal -0.000000e+00 1.000000e+00 0.000000e+00
      outer loop
         vertex -2.046667e+00 4.500000e+00 3.685910e+00
         vertex -8.753876e-01 4.500000e+00 1.798248e+00
         vertex -1.174351e+00 4.500000e+00 1.618920e+00
      endloop
   endfacet
   facet normal 0.000000e+00 1.000000e+00 0.000000e+00
      outer loop
         vertex -5.498283e-01 4.500000e+00 1.922937e+00
         vertex -3.181493e-01 4.500000e+00 5.603658e+00
         vertex -2.075556e-01 4.500000e+00 1.989201e+00
      endloop
   endfacet
   facet normal -0.000000e+00 1.000000e+00 0.000000e+00
      outer loop
         vertex -2.009564e+00 4.500000e+00 3.711981e+00
         vertex -5.498283e-01 4.500000e+00 1.922937e+00
         vertex -8.753876e-01 4.500000e+00 1.798248e+00
      endloop
   endfacet
   facet normal 0.000000e+00 1.000000e+00 0.000000e+00
      outer loop
         vertex -2.020551e+00 4.500000e+00 3.701433e+00
         vertex -2.009564e+00 4.500000e+00 3.711981e+00
         vertex -8.753876e-01 4.500000e+00 1.798248e+00
      endloop
   endfacet
   facet normal 0.000000e+00 1.000000e+00 0.000000e+00
      outer loop
         vertex -2.046667e+00 4.500000e+00 3.685910e+00
         vertex -2.033017e+00 4.500000e+00 3.692673e+00
         vertex -8.753876e-01 4.500000e+00 1.798248e+00
      endloop
   endfacet
   facet normal 0.000000e+00 1.000000e+00 0.000000e+00
      outer loop
         vertex -2.033017e+00 4.500000e+00 3.692673e+00
         vertex -2.020551e+00 4.500000e+00 3.701433e+00
         vertex -8.753876e-01 4.500000e+00 1.798248e+00
      endloop
   endfacet
   facet normal 0.000000e+00 1.000000e+00 0.000000e+00
      outer loop
         vertex -2.009564e+00 4.500000e+00 3.711981e+00
         vertex -3.181493e-01 4.500000e+00 5.603658e+00
         vertex -5.498283e-01 4.500000e+00 1.922937e+00
      endloop
   endfacet
   facet normal 0.000000e+00 1.000000e+00 -0.000000e+00
      outer loop
         vertex -4.088879e+00 4.500000e+00 3.832305e+00
         vertex -4.072421e+00 4.500000e+00 3.826566e+00
         vertex -4.445171e+00 4.500000e+00 1.700360e+00
      endloop
   endfacet
   facet normal 0.000000e+00 1.000000e+00 0.000000e+00
      outer loop
         vertex -4.768950e+00 4.500000e+00 1.803871e+00
         vertex -4.088879e+00 4.500000e+00 3.832305e+00
         vertex -4.445171e+00 4.500000e+00 1.700360e+00
      endloop
   endfacet
   facet normal 0.000000e+00 1.000000e+00 0.000000e+00
      outer loop
         vertex -4.903790e+00 4.500000e+00 1.846629e+00
         vertex -4.088879e+00 4.500000e+00 3.832305e+00
         vertex -4.768950e+00 4.500000e+00 1.803871e+00
      endloop
   endfacet
   facet normal 0.000000e+00 1.000000e+00 0.000000e+00
      outer loop
         vertex -5.030263e+00 4.500000e+00 1.909987e+00
         vertex -4.088879e+00 4.500000e+00 3.832305e+00
         vertex -4.903790e+00 4.500000e+00 1.846629e+00
      endloop
   endfacet
   facet normal 0.000000e+00 1.000000e+00 0.000000e+00
      outer loop
         vertex -5.145246e+00 4.500000e+00 1.992381e+00
         vertex -4.088879e+00 4.500000e+00 3.832305e+00
         vertex -5.030263e+00 4.500000e+00 1.909987e+00
      endloop
   endfacet
   facet normal 0.000000e+00 1.000000e+00 -0.000000e+00
      outer loop
         vertex -4.104097e+00 4.500000e+00 3.840812e+00
         vertex -4.088879e+00 4.500000e+00 3.832305e+00
         vertex -5.145246e+00 4.500000e+00 1.992381e+00
      endloop
   endfacet
   facet normal 0.000000e+00 1.000000e+00 0.000000e+00
      outer loop
         vertex -5.245903e+00 4.500000e+00 2.091771e+00
         vertex -4.104097e+00 4.500000e+00 3.840812e+00
         vertex -5.145246e+00 4.500000e+00 1.992381e+00
      endloop
   endfacet
   facet normal 0.000000e+00 1.000000e+00 0.000000e+00
      outer loop
         vertex -5.329741e+00 4.500000e+00 2.205706e+00
         vertex -4.104097e+00 4.500000e+00 3.840812e+00
         vertex -5.245903e+00 4.500000e+00 2.091771e+00
      endloop
   endfacet
   facet normal 0.000000e+00 1.000000e+00 0.000000e+00
      outer loop
         vertex -5.394692e+00 4.500000e+00 2.331370e+00
         vertex -4.104097e+00 4.500000e+00 3.840812e+00
         vertex -5.329741e+00 4.500000e+00 2.205706e+00
      endloop
   endfacet
   facet normal 0.000000e+00 1.000000e+00 0.000000e+00
      outer loop
         vertex -5.439150e+00 4.500000e+00 2.465659e+00
         vertex -4.117602e+00 4.500000e+00 3.851833e+00
         vertex -5.394692e+00 4.500000e+00 2.331370e+00
      endloop
   endfacet
   facet normal 0.000000e+00 1.000000e+00 -0.000000e+00
      outer loop
         vertex -4.117602e+00 4.500000e+00 3.851833e+00
         vertex -4.104097e+00 4.500000e+00 3.840812e+00
         vertex -5.394692e+00 4.500000e+00 2.331370e+00
      endloop
   endfacet
   facet normal 0.000000e+00 1.000000e+00 0.000000e+00
      outer loop
         vertex -5.462016e+00 4.500000e+00 2.605256e+00
         vertex -4.117602e+00 4.500000e+00 3.851833e+00
         vertex -5.439150e+00 4.500000e+00 2.465659e+00
      endloop
   endfacet
   facet normal 0.000000e+00 1.000000e+00 0.000000e+00
      outer loop
         vertex -5.462725e+00 4.500000e+00 2.746711e+00
         vertex -4.128986e+00 4.500000e+00 3.865034e+00
         vertex -5.462016e+00 4.500000e+00 2.605256e+00
      endloop
   endfacet
   facet normal 0.000000e+00 1.000000e+00 -0.000000e+00
      outer loop
         vertex -4.128986e+00 4.500000e+00 3.865034e+00
         vertex -4.117602e+00 4.500000e+00 3.851833e+00
         vertex -5.462016e+00 4.500000e+00 2.605256e+00
      endloop
   endfacet
   facet normal -0.000000e+00 1.000000e+00 0.000000e+00
      outer loop
         vertex -4.147349e+00 4.500000e+00 3.913430e+00
         vertex -4.144088e+00 4.500000e+00 3.896306e+00
         vertex -5.462725e+00 4.500000e+00 2.746711e+00
      endloop
   endfacet
   facet normal 0.000000e+00 1.000000e+00 -0.000000e+00
      outer loop
         vertex -4.144088e+00 4.500000e+00 3.896306e+00
         vertex -4.137902e+00 4.500000e+00 3.880010e+00
         vertex -5.462725e+00 4.500000e+00 2.746711e+00
      endloop
   endfacet
   facet normal 0.000000e+00 1.000000e+00 -0.000000e+00
      outer loop
         vertex -4.137902e+00 4.500000e+00 3.880010e+00
         vertex -4.128986e+00 4.500000e+00 3.865034e+00
         vertex -5.462725e+00 4.500000e+00 2.746711e+00
      endloop
   endfacet
   facet normal 0.000000e+00 1.000000e+00 -0.000000e+00
      outer loop
         vertex -5.225261e+00 4.500000e+00 5.965659e+00
         vertex -4.050756e+00 4.500000e+00 5.243497e+00
         vertex -5.462725e+00 4.500000e+00 2.746711e+00
      endloop
   endfacet
   facet normal -0.000000e+00 1.000000e+00 0.000000e+00
      outer loop
         vertex -4.050756e+00 4.500000e+00 5.243497e+00
         vertex -4.147590e+00 4.500000e+00 3.930858e+00
         vertex -5.462725e+00 4.500000e+00 2.746711e+00
      endloop
   endfacet
   facet normal -0.000000e+00 1.000000e+00 0.000000e+00
      outer loop
         vertex -4.147590e+00 4.500000e+00 3.930858e+00
         vertex -4.147349e+00 4.500000e+00 3.913430e+00
         vertex -5.462725e+00 4.500000e+00 2.746711e+00
      endloop
   endfacet
   facet normal 0.000000e+00 1.000000e+00 -0.000000e+00
      outer loop
         vertex 2.789843e+00 4.500000e+00 5.875740e+00
         vertex 3.587672e+00 4.500000e+00 5.816882e+00
         vertex 2.753059e+00 4.500000e+00 5.377094e+00
      endloop
   endfacet
   facet normal -0.000000e+00 1.000000e+00 0.000000e+00
      outer loop
         vertex -5.225261e+00 4.500000e+00 5.965659e+00
         vertex -4.048075e+00 4.500000e+00 5.260247e+00
         vertex -4.050756e+00 4.500000e+00 5.243497e+00
      endloop
   endfacet
   facet normal -0.000000e+00 1.000000e+00 0.000000e+00
      outer loop
         vertex -5.225261e+00 4.500000e+00 5.965659e+00
         vertex -4.042607e+00 4.500000e+00 5.276301e+00
         vertex -4.048075e+00 4.500000e+00 5.260247e+00
      endloop
   endfacet
   facet normal -0.000000e+00 1.000000e+00 0.000000e+00
      outer loop
         vertex -5.225261e+00 4.500000e+00 5.965659e+00
         vertex -4.034500e+00 4.500000e+00 5.291202e+00
         vertex -4.042607e+00 4.500000e+00 5.276301e+00
      endloop
   endfacet
   facet normal -0.000000e+00 1.000000e+00 0.000000e+00
      outer loop
         vertex -5.225261e+00 4.500000e+00 5.965659e+00
         vertex -4.023994e+00 4.500000e+00 5.304518e+00
         vertex -4.034500e+00 4.500000e+00 5.291202e+00
      endloop
   endfacet
   facet normal -0.000000e+00 1.000000e+00 0.000000e+00
      outer loop
         vertex -5.225261e+00 4.500000e+00 5.965659e+00
         vertex -4.011392e+00 4.500000e+00 5.315865e+00
         vertex -4.023994e+00 4.500000e+00 5.304518e+00
      endloop
   endfacet
   facet normal -0.000000e+00 1.000000e+00 0.000000e+00
      outer loop
         vertex -5.225261e+00 4.500000e+00 5.965659e+00
         vertex -3.997049e+00 4.500000e+00 5.324920e+00
         vertex -4.011392e+00 4.500000e+00 5.315865e+00
      endloop
   endfacet
   facet normal -0.000000e+00 1.000000e+00 0.000000e+00
      outer loop
         vertex -5.225261e+00 4.500000e+00 5.965659e+00
         vertex -3.981380e+00 4.500000e+00 5.331422e+00
         vertex -3.997049e+00 4.500000e+00 5.324920e+00
      endloop
   endfacet
   facet normal -0.000000e+00 1.000000e+00 0.000000e+00
      outer loop
         vertex -5.225261e+00 4.500000e+00 5.965659e+00
         vertex -2.598860e+00 4.500000e+00 5.771909e+00
         vertex -3.981380e+00 4.500000e+00 5.331422e+00
      endloop
   endfacet
   facet normal 2.582273e-01 9.658964e-01 -1.904959e-02
      outer loop
         vertex 3.604992e+00 4.498482e+00 5.815605e+00
         vertex 3.621782e+00 4.493968e+00 5.814366e+00
         vertex 3.158781e+00 4.498482e+00 -2.330245e-01
      endloop
   endfacet
   facet normal 2.582227e-01 9.658976e-01 -1.904924e-02
      outer loop
         vertex 3.621782e+00 4.493968e+00 5.814366e+00
         vertex 3.175571e+00 4.493968e+00 -2.342641e-01
         vertex 3.158781e+00 4.498482e+00 -2.330245e-01
      endloop
   endfacet
   facet normal 4.215117e-01 9.062897e-01 -3.109516e-02
      outer loop
         vertex 3.621782e+00 4.493968e+00 5.814366e+00
         vertex 3.637536e+00 4.486602e+00 5.813203e+00
         vertex 3.175571e+00 4.493968e+00 -2.342641e-01
      endloop
   endfacet
   facet normal 4.215188e-01 9.062864e-01 -3.109570e-02
      outer loop
         vertex 3.637536e+00 4.486602e+00 5.813203e+00
         vertex 3.191324e+00 4.486602e+00 -2.354264e-01
         vertex 3.175571e+00 4.493968e+00 -2.342641e-01
      endloop
   endfacet
   facet normal 5.719472e-01 8.192046e-01 -4.219290e-02
      outer loop
         vertex 3.637536e+00 4.486602e+00 5.813203e+00
         vertex 3.651777e+00 4.476605e+00 5.812153e+00
         vertex 3.191324e+00 4.486602e+00 -2.354264e-01
      endloop
   endfacet
   facet normal 5.719472e-01 8.192046e-01 -4.219290e-02
      outer loop
         vertex 3.651777e+00 4.476605e+00 5.812153e+00
         vertex 3.205565e+00 4.476605e+00 -2.364767e-01
         vertex 3.191324e+00 4.486602e+00 -2.354264e-01
      endloop
   endfacet
   facet normal 7.051964e-01 7.071009e-01 -5.202278e-02
      outer loop
         vertex 3.651777e+00 4.476605e+00 5.812153e+00
         vertex 3.664070e+00 4.464278e+00 5.811247e+00
         vertex 3.205565e+00 4.476605e+00 -2.364767e-01
      endloop
   endfacet
   facet normal 7.051872e-01 7.071101e-01 -5.202206e-02
      outer loop
         vertex 3.664070e+00 4.464278e+00 5.811247e+00
         vertex 3.217859e+00 4.464278e+00 -2.373834e-01
         vertex 3.205565e+00 4.476605e+00 -2.364767e-01
      endloop
   endfacet
   facet normal 8.168203e-01 5.737366e-01 -6.025730e-02
      outer loop
         vertex 3.664070e+00 4.464278e+00 5.811247e+00
         vertex 3.674044e+00 4.450001e+00 5.810512e+00
         vertex 3.217859e+00 4.464278e+00 -2.373834e-01
      endloop
   endfacet
   facet normal 8.168203e-01 5.737366e-01 -6.025730e-02
      outer loop
         vertex 3.674044e+00 4.450001e+00 5.810512e+00
         vertex 3.227833e+00 4.450001e+00 -2.381184e-01
         vertex 3.217859e+00 4.464278e+00 -2.373834e-01
      endloop
   endfacet
   facet normal 9.038741e-01 4.225701e-01 -6.667931e-02
      outer loop
         vertex 3.674044e+00 4.450001e+00 5.810512e+00
         vertex 3.681390e+00 4.434202e+00 5.809970e+00
         vertex 3.227833e+00 4.450001e+00 -2.381184e-01
      endloop
   endfacet
   facet normal 9.038741e-01 4.225701e-01 -6.667931e-02
      outer loop
         vertex 3.681390e+00 4.434202e+00 5.809970e+00
         vertex 3.235179e+00 4.434202e+00 -2.386604e-01
         vertex 3.227833e+00 4.450001e+00 -2.381184e-01
      endloop
   endfacet
   facet normal 9.633412e-01 2.586954e-01 -7.106623e-02
      outer loop
         vertex 3.681390e+00 4.434202e+00 5.809970e+00
         vertex 3.685887e+00 4.417365e+00 5.809637e+00
         vertex 3.235179e+00 4.434202e+00 -2.386604e-01
      endloop
   endfacet
   facet normal 9.633412e-01 2.586954e-01 -7.106623e-02
      outer loop
         vertex 3.685887e+00 4.417365e+00 5.809637e+00
         vertex 3.239676e+00 4.417365e+00 -2.389932e-01
         vertex 3.235179e+00 4.434202e+00 -2.386604e-01
      endloop
   endfacet
   facet normal 9.934736e-01 8.740044e-02 -7.328912e-02
      outer loop
         vertex 3.685887e+00 4.417365e+00 5.809637e+00
         vertex 3.687407e+00 4.400000e+00 5.809526e+00
         vertex 3.239676e+00 4.417365e+00 -2.389932e-01
      endloop
   endfacet
   facet normal 9.934752e-01 8.738215e-02 -7.328929e-02
      outer loop
         vertex 3.687407e+00 4.400000e+00 5.809526e+00
         vertex 3.241195e+00 4.400000e+00 -2.391032e-01
         vertex 3.239676e+00 4.417365e+00 -2.389932e-01
      endloop
   endfacet
   facet normal 9.972901e-01 0.000000e+00 -7.356948e-02
      outer loop
         vertex 3.503475e+00 4.069505e+00 3.316300e+00
         vertex 3.241195e+00 2.850000e+00 -2.391032e-01
         vertex 3.241195e+00 4.400000e+00 -2.391032e-01
      endloop
   endfacet
   facet normal 9.972891e-01 -1.453173e-04 -7.358292e-02
      outer loop
         vertex 3.505803e+00 4.084239e+00 3.347811e+00
         vertex 3.503475e+00 4.069505e+00 3.316300e+00
         vertex 3.241195e+00 4.400000e+00 -2.391032e-01
      endloop
   endfacet
   facet normal 9.972900e-01 -1.880294e-05 -7.357070e-02
      outer loop
         vertex 3.687407e+00 4.400000e+00 5.809526e+00
         vertex 3.510831e+00 4.096299e+00 3.416029e+00
         vertex 3.241195e+00 4.400000e+00 -2.391032e-01
      endloop
   endfacet
   facet normal 9.972947e-01 8.062980e-04 -7.350249e-02
      outer loop
         vertex 3.510831e+00 4.096299e+00 3.416029e+00
         vertex 3.508281e+00 4.093261e+00 3.381395e+00
         vertex 3.241195e+00 4.400000e+00 -2.391032e-01
      endloop
   endfacet
   facet normal 9.972895e-01 -8.040440e-05 -7.357724e-02
      outer loop
         vertex 3.508281e+00 4.093261e+00 3.381395e+00
         vertex 3.505803e+00 4.084239e+00 3.347811e+00
         vertex 3.241195e+00 4.400000e+00 -2.391032e-01
      endloop
   endfacet
   facet normal 9.972898e-01 -3.294477e-06 -7.357382e-02
      outer loop
         vertex 3.608575e+00 4.049510e+00 4.740987e+00
         vertex 3.606474e+00 4.069505e+00 4.712506e+00
         vertex 3.687407e+00 4.400000e+00 5.809526e+00
      endloop
   endfacet
   facet normal 9.972939e-01 -1.896873e-04 -7.351797e-02
      outer loop
         vertex 3.606474e+00 4.069505e+00 4.712506e+00
         vertex 3.604154e+00 4.084239e+00 4.680997e+00
         vertex 3.687407e+00 4.400000e+00 5.809526e+00
      endloop
   endfacet
   facet normal 9.972889e-01 5.126137e-05 -7.358502e-02
      outer loop
         vertex 3.604154e+00 4.084239e+00 4.680997e+00
         vertex 3.601676e+00 4.093261e+00 4.647414e+00
         vertex 3.687407e+00 4.400000e+00 5.809526e+00
      endloop
   endfacet
   facet normal 9.972899e-01 -6.807513e-06 -7.357267e-02
      outer loop
         vertex 3.680044e+00 3.599999e+00 5.709796e+00
         vertex 3.608575e+00 4.049510e+00 4.740987e+00
         vertex 3.687407e+00 4.400000e+00 5.809526e+00
      endloop
   endfacet
   facet normal 9.972859e-01 0.000000e+00 -7.362699e-02
      outer loop
         vertex 3.687407e+00 3.699999e+00 5.809526e+00
         vertex 3.680044e+00 3.599999e+00 5.709796e+00
         vertex 3.687407e+00 4.400000e+00 5.809526e+00
      endloop
   endfacet
   facet normal 9.972870e-01 1.492829e-04 -7.361076e-02
      outer loop
         vertex 3.601676e+00 4.093261e+00 4.647414e+00
         vertex 3.599119e+00 4.096299e+00 4.612777e+00
         vertex 3.687407e+00 4.400000e+00 5.809526e+00
      endloop
   endfacet
   facet normal 9.972898e-01 0.000000e+00 -7.357308e-02
      outer loop
         vertex 3.599119e+00 4.096299e+00 4.612777e+00
         vertex 3.510831e+00 4.096299e+00 3.416029e+00
         vertex 3.687407e+00 4.400000e+00 5.809526e+00
      endloop
   endfacet
   facet normal 9.972902e-01 -5.700482e-06 -7.356754e-02
      outer loop
         vertex 3.501374e+00 4.049510e+00 3.287820e+00
         vertex 3.241195e+00 2.850000e+00 -2.391032e-01
         vertex 3.503475e+00 4.069505e+00 3.316300e+00
      endloop
   endfacet
   facet normal 9.972884e-01 6.889501e-05 -7.359277e-02
      outer loop
         vertex 3.499562e+00 4.024858e+00 3.263236e+00
         vertex 3.241195e+00 2.850000e+00 -2.391032e-01
         vertex 3.501374e+00 4.049510e+00 3.287820e+00
      endloop
   endfacet
   facet normal 9.972786e-01 -2.019867e-04 -7.372551e-02
      outer loop
         vertex 3.650615e+00 3.599999e+00 5.310880e+00
         vertex 3.610388e+00 4.024858e+00 4.765571e+00
         vertex 3.608575e+00 4.049510e+00 4.740987e+00
      endloop
   endfacet
   facet normal 9.972898e-01 -7.679722e-06 -7.357308e-02
      outer loop
         vertex 3.680044e+00 3.599999e+00 5.709796e+00
         vertex 3.650615e+00 3.599999e+00 5.310880e+00
         vertex 3.608575e+00 4.049510e+00 4.740987e+00
      endloop
   endfacet
   facet normal 9.972928e-01 -1.112102e-04 -7.353268e-02
      outer loop
         vertex 3.498088e+00 3.996300e+00 3.243293e+00
         vertex 3.241195e+00 2.850000e+00 -2.391032e-01
         vertex 3.499562e+00 4.024858e+00 3.263236e+00
      endloop
   endfacet
   facet normal 9.973008e-01 1.880072e-04 -7.342330e-02
      outer loop
         vertex 3.650615e+00 3.599999e+00 5.310880e+00
         vertex 3.611861e+00 3.996300e+00 4.785513e+00
         vertex 3.610388e+00 4.024858e+00 4.765571e+00
      endloop
   endfacet
   facet normal 9.972900e-01 5.122196e-06 -7.357077e-02
      outer loop
         vertex 3.446667e+00 2.850000e+00 2.546176e+00
         vertex 3.241195e+00 2.850000e+00 -2.391032e-01
         vertex 3.498088e+00 3.996300e+00 3.243293e+00
      endloop
   endfacet
   facet normal 9.972834e-01 5.951882e-05 -7.365973e-02
      outer loop
         vertex 3.497005e+00 3.964703e+00 3.228599e+00
         vertex 3.446667e+00 2.850000e+00 2.546176e+00
         vertex 3.498088e+00 3.996300e+00 3.243293e+00
      endloop
   endfacet
   facet normal 9.972901e-01 -7.325566e-06 -7.356985e-02
      outer loop
         vertex 3.650615e+00 3.599999e+00 5.310880e+00
         vertex 3.612945e+00 3.964703e+00 4.800207e+00
         vertex 3.611861e+00 3.996300e+00 4.785513e+00
      endloop
   endfacet
   facet normal 9.972620e-01 2.373171e-04 -7.394858e-02
      outer loop
         vertex 3.496346e+00 3.931031e+00 3.219603e+00
         vertex 3.446667e+00 2.850000e+00 2.546176e+00
         vertex 3.497005e+00 3.964703e+00 3.228599e+00
      endloop
   endfacet
   facet normal 9.972946e-01 7.904806e-05 -7.350850e-02
      outer loop
         vertex 3.650615e+00 3.599999e+00 5.310880e+00
         vertex 3.613611e+00 3.931031e+00 4.809206e+00
         vertex 3.612945e+00 3.964703e+00 4.800207e+00
      endloop
   endfacet
   facet normal 9.972987e-01 -7.321659e-05 -7.345279e-02
      outer loop
         vertex 3.496120e+00 3.896300e+00 3.216571e+00
         vertex 3.446667e+00 2.850000e+00 2.546176e+00
         vertex 3.496346e+00 3.931031e+00 3.219603e+00
      endloop
   endfacet
   facet normal 9.972842e-01 -1.361724e-04 -7.364975e-02
      outer loop
         vertex 3.650615e+00 3.599999e+00 5.310880e+00
         vertex 3.613830e+00 3.896300e+00 4.812234e+00
         vertex 3.613611e+00 3.931031e+00 4.809206e+00
      endloop
   endfacet
   facet normal 9.972903e-01 0.000000e+00 -7.356645e-02
      outer loop
         vertex 3.496120e+00 -5.572849e-01 3.216571e+00
         vertex 3.446667e+00 2.850000e+00 2.546176e+00
         vertex 3.496120e+00 3.896300e+00 3.216571e+00
      endloop
   endfacet
   facet normal 9.972901e-01 0.000000e+00 -7.356927e-02
      outer loop
         vertex 3.650615e+00 3.599999e+00 5.310880e+00
         vertex 3.613830e+00 9.305346e-01 4.812234e+00
         vertex 3.613830e+00 3.896300e+00 4.812234e+00
      endloop
   endfacet
   facet normal 9.972871e-01 -1.706764e-05 -7.360997e-02
      outer loop
         vertex 3.687316e+00 3.684357e+00 5.808299e+00
         vertex 3.680044e+00 3.599999e+00 5.709796e+00
         vertex 3.687407e+00 3.699999e+00 5.809526e+00
      endloop
   endfacet
   facet normal 9.973002e-01 -2.266636e-04 -7.343144e-02
      outer loop
         vertex 3.687043e+00 3.669098e+00 5.804645e+00
         vertex 3.680044e+00 3.599999e+00 5.709796e+00
         vertex 3.687316e+00 3.684357e+00 5.808299e+00
      endloop
   endfacet
   facet normal 9.972865e-01 3.041888e-05 -7.361771e-02
      outer loop
         vertex 3.686602e+00 3.654601e+00 5.798655e+00
         vertex 3.680044e+00 3.599999e+00 5.709796e+00
         vertex 3.687043e+00 3.669098e+00 5.804645e+00
      endloop
   endfacet
   facet normal 9.973043e-01 -3.647048e-04 -7.337623e-02
      outer loop
         vertex 3.685995e+00 3.641222e+00 5.790478e+00
         vertex 3.680044e+00 3.599999e+00 5.709796e+00
         vertex 3.686602e+00 3.654601e+00 5.798655e+00
      endloop
   endfacet
   facet normal 9.972959e-01 -1.384925e-04 -7.349119e-02
      outer loop
         vertex 3.681194e+00 3.601231e+00 5.725396e+00
         vertex 3.680044e+00 3.599999e+00 5.709796e+00
         vertex 3.685995e+00 3.641222e+00 5.790478e+00
      endloop
   endfacet
   facet normal 9.972528e-01 8.068609e-04 -7.406891e-02
      outer loop
         vertex 3.682321e+00 3.604894e+00 5.740615e+00
         vertex 3.681194e+00 3.601231e+00 5.725396e+00
         vertex 3.685995e+00 3.641222e+00 5.790478e+00
      endloop
   endfacet
   facet normal 9.972433e-01 9.802612e-04 -7.419453e-02
      outer loop
         vertex 3.685251e+00 3.629289e+00 5.780316e+00
         vertex 3.682321e+00 3.604894e+00 5.740615e+00
         vertex 3.685995e+00 3.641222e+00 5.790478e+00
      endloop
   endfacet
   facet normal 9.973511e-01 -1.426379e-03 -7.272371e-02
      outer loop
         vertex 3.684368e+00 3.619099e+00 5.768415e+00
         vertex 3.682321e+00 3.604894e+00 5.740615e+00
         vertex 3.685251e+00 3.629289e+00 5.780316e+00
      endloop
   endfacet
   facet normal 9.972790e-01 5.286799e-04 -7.371733e-02
      outer loop
         vertex 3.683386e+00 3.610900e+00 5.755073e+00
         vertex 3.682321e+00 3.604894e+00 5.740615e+00
         vertex 3.684368e+00 3.619099e+00 5.768415e+00
      endloop
   endfacet
   facet normal 9.972901e-01 0.000000e+00 -7.356927e-02
      outer loop
         vertex 3.650615e+00 9.305346e-01 5.310880e+00
         vertex 3.613830e+00 9.305346e-01 4.812234e+00
         vertex 3.650615e+00 3.599999e+00 5.310880e+00
      endloop
   endfacet
   facet normal 9.972903e-01 0.000000e+00 -7.356645e-02
      outer loop
         vertex 3.496120e+00 -5.572849e-01 3.216571e+00
         vertex 3.446667e+00 -2.850000e+00 2.546176e+00
         vertex 3.446667e+00 2.850000e+00 2.546176e+00
      endloop
   endfacet
   facet normal 9.972901e-01 7.183617e-05 -7.356927e-02
      outer loop
         vertex 3.650615e+00 9.305346e-01 5.310880e+00
         vertex 3.614101e+00 8.839461e-01 4.815866e+00
         vertex 3.613830e+00 9.305346e-01 4.812234e+00
      endloop
   endfacet
   facet normal 9.972904e-01 -1.063776e-05 -7.356525e-02
      outer loop
         vertex 3.616201e+00 7.952637e-01 4.844376e+00
         vertex 3.614895e+00 8.384883e-01 4.826666e+00
         vertex 3.650615e+00 9.305346e-01 5.310880e+00
      endloop
   endfacet
   facet normal 9.972898e-01 1.848595e-05 -7.357365e-02
      outer loop
         vertex 3.617987e+00 7.553193e-01 4.868567e+00
         vertex 3.616201e+00 7.952637e-01 4.844376e+00
         vertex 3.650615e+00 9.305346e-01 5.310880e+00
      endloop
   endfacet
   facet normal 9.972882e-01 7.341675e-05 -7.359529e-02
      outer loop
         vertex 3.650350e+00 8.839461e-01 5.307251e+00
         vertex 3.617987e+00 7.553193e-01 4.868567e+00
         vertex 3.650615e+00 9.305346e-01 5.310880e+00
      endloop
   endfacet
   facet normal 9.972909e-01 -4.939064e-05 -7.355792e-02
      outer loop
         vertex 3.614895e+00 8.384883e-01 4.826666e+00
         vertex 3.614101e+00 8.839461e-01 4.815866e+00
         vertex 3.650615e+00 9.305346e-01 5.310880e+00
      endloop
   endfacet
   facet normal 9.972884e-01 6.478194e-05 -7.359277e-02
      outer loop
         vertex 3.649556e+00 8.384883e-01 5.296450e+00
         vertex 3.617987e+00 7.553193e-01 4.868567e+00
         vertex 3.650350e+00 8.839461e-01 5.307251e+00
      endloop
   endfacet
   facet normal 9.972915e-01 -1.575216e-04 -7.354980e-02
      outer loop
         vertex 3.648243e+00 7.952637e-01 5.278738e+00
         vertex 3.617987e+00 7.553193e-01 4.868567e+00
         vertex 3.649556e+00 8.384883e-01 5.296450e+00
      endloop
   endfacet
   facet normal 9.972896e-01 1.120838e-04 -7.357591e-02
      outer loop
         vertex 3.620210e+00 7.196291e-01 4.898652e+00
         vertex 3.617987e+00 7.553193e-01 4.868567e+00
         vertex 3.648243e+00 7.952637e-01 5.278738e+00
      endloop
   endfacet
   facet normal 9.972911e-01 1.053151e-05 -7.355581e-02
      outer loop
         vertex 3.622810e+00 6.890557e-01 4.933897e+00
         vertex 3.620210e+00 7.196291e-01 4.898652e+00
         vertex 3.648243e+00 7.952637e-01 5.278738e+00
      endloop
   endfacet
   facet normal 9.972873e-01 1.767285e-04 -7.360672e-02
      outer loop
         vertex 3.646465e+00 7.553193e-01 5.254549e+00
         vertex 3.622810e+00 6.890557e-01 4.933897e+00
         vertex 3.648243e+00 7.952637e-01 5.278738e+00
      endloop
   endfacet
   facet normal 9.972923e-01 -1.522821e-04 -7.353910e-02
      outer loop
         vertex 3.644241e+00 7.196291e-01 5.224466e+00
         vertex 3.622810e+00 6.890557e-01 4.933897e+00
         vertex 3.646465e+00 7.553193e-01 5.254549e+00
      endloop
   endfacet
   facet normal 9.972913e-01 -1.300936e-05 -7.355367e-02
      outer loop
         vertex 3.641641e+00 6.890557e-01 5.189220e+00
         vertex 3.622810e+00 6.890557e-01 4.933897e+00
         vertex 3.644241e+00 7.196291e-01 5.224466e+00
      endloop
   endfacet
   facet normal 9.972915e-01 4.224851e-05 -7.354996e-02
      outer loop
         vertex 3.635561e+00 6.460845e-01 5.106766e+00
         vertex 3.625728e+00 6.643403e-01 4.973450e+00
         vertex 3.622810e+00 6.890557e-01 4.933897e+00
      endloop
   endfacet
   facet normal 9.972920e-01 7.035798e-05 -7.354301e-02
      outer loop
         vertex 3.638723e+00 6.643403e-01 5.149666e+00
         vertex 3.635561e+00 6.460845e-01 5.106766e+00
         vertex 3.622810e+00 6.890557e-01 4.933897e+00
      endloop
   endfacet
   facet normal 9.972913e-01 -2.327127e-05 -7.355367e-02
      outer loop
         vertex 3.641641e+00 6.890557e-01 5.189220e+00
         vertex 3.638723e+00 6.643403e-01 5.149666e+00
         vertex 3.622810e+00 6.890557e-01 4.933897e+00
      endloop
   endfacet
   facet normal 9.972896e-01 -1.479965e-04 -7.357587e-02
      outer loop
         vertex 3.635561e+00 6.460845e-01 5.106766e+00
         vertex 3.628891e+00 6.460845e-01 5.016350e+00
         vertex 3.625728e+00 6.643403e-01 4.973450e+00
      endloop
   endfacet
   facet normal 9.972896e-01 -3.080021e-04 -7.357586e-02
      outer loop
         vertex 3.635561e+00 6.460845e-01 5.106766e+00
         vertex 3.632222e+00 6.347316e-01 5.061557e+00
         vertex 3.628891e+00 6.460845e-01 5.016350e+00
      endloop
   endfacet
   facet normal 9.972876e-01 1.094513e-05 -7.360367e-02
      outer loop
         vertex 3.497352e+00 -7.482991e-01 3.233239e+00
         vertex 3.446667e+00 -2.850000e+00 2.546176e+00
         vertex 3.496120e+00 -5.572849e-01 3.216571e+00
      endloop
   endfacet
   facet normal 9.972914e-01 -6.253714e-06 -7.355135e-02
      outer loop
         vertex 3.501001e+00 -9.335075e-01 3.282730e+00
         vertex 3.446667e+00 -2.850000e+00 2.546176e+00
         vertex 3.497352e+00 -7.482991e-01 3.233239e+00
      endloop
   endfacet
   facet normal 9.972910e-01 -4.078330e-06 -7.355698e-02
      outer loop
         vertex 3.506961e+00 -1.107285e+00 3.363544e+00
         vertex 3.446667e+00 -2.850000e+00 2.546176e+00
         vertex 3.501001e+00 -9.335075e-01 3.282730e+00
      endloop
   endfacet
   facet normal 9.972906e-01 -1.621540e-06 -7.356219e-02
      outer loop
         vertex 3.515051e+00 -1.264352e+00 3.473225e+00
         vertex 3.446667e+00 -2.850000e+00 2.546176e+00
         vertex 3.506961e+00 -1.107285e+00 3.363544e+00
      endloop
   endfacet
   facet normal 9.972887e-01 1.388124e-05 -7.358856e-02
      outer loop
         vertex 3.525030e+00 -1.399934e+00 3.608441e+00
         vertex 3.446667e+00 -2.850000e+00 2.546176e+00
         vertex 3.515051e+00 -1.264352e+00 3.473225e+00
      endloop
   endfacet
   facet normal 9.972899e-01 1.870586e-06 -7.357225e-02
      outer loop
         vertex 3.536586e+00 -1.509912e+00 3.765081e+00
         vertex 3.446667e+00 -2.850000e+00 2.546176e+00
         vertex 3.525030e+00 -1.399934e+00 3.608441e+00
      endloop
   endfacet
   facet normal 9.972912e-01 -1.404441e-05 -7.355485e-02
      outer loop
         vertex 3.549367e+00 -1.590947e+00 3.938387e+00
         vertex 3.446667e+00 -2.850000e+00 2.546176e+00
         vertex 3.536586e+00 -1.509912e+00 3.765081e+00
      endloop
   endfacet
   facet normal 9.972902e-01 5.373124e-07 -7.356797e-02
      outer loop
         vertex 3.650615e+00 -4.400000e+00 5.310880e+00
         vertex 3.446667e+00 -2.850000e+00 2.546176e+00
         vertex 3.549367e+00 -1.590947e+00 3.938387e+00
      endloop
   endfacet
   facet normal 9.972891e-01 -6.614380e-06 -7.358253e-02
      outer loop
         vertex 3.562995e+00 -1.640573e+00 4.123095e+00
         vertex 3.650615e+00 -4.400000e+00 5.310880e+00
         vertex 3.549367e+00 -1.590947e+00 3.938387e+00
      endloop
   endfacet
   facet normal 9.972912e-01 5.529678e-06 -7.355447e-02
      outer loop
         vertex 3.577045e+00 -1.657285e+00 4.313590e+00
         vertex 3.650615e+00 -4.400000e+00 5.310880e+00
         vertex 3.562995e+00 -1.640573e+00 4.123095e+00
      endloop
   endfacet
   facet normal 9.972901e-01 0.000000e+00 -7.356959e-02
      outer loop
         vertex 3.650615e+00 -2.557285e+00 5.310880e+00
         vertex 3.650615e+00 -4.400000e+00 5.310880e+00
         vertex 3.577045e+00 -1.657285e+00 4.313590e+00
      endloop
   endfacet
   facet normal 9.972858e-01 -6.394705e-05 -7.362699e-02
      outer loop
         vertex 3.584408e+00 -1.657285e+00 4.413320e+00
         vertex 3.650615e+00 -2.557285e+00 5.310880e+00
         vertex 3.577045e+00 -1.657285e+00 4.313590e+00
      endloop
   endfacet
   facet normal 9.972921e-01 4.636911e-05 -7.354219e-02
      outer loop
         vertex 3.635125e+00 -1.978776e+00 5.100891e+00
         vertex 3.641749e+00 -2.107285e+00 5.190631e+00
         vertex 3.584408e+00 -1.657285e+00 4.413320e+00
      endloop
   endfacet
   facet normal 9.972897e-01 -1.095244e-05 -7.357519e-02
      outer loop
         vertex 3.641749e+00 -2.107285e+00 5.190631e+00
         vertex 3.646626e+00 -2.249466e+00 5.256751e+00
         vertex 3.584408e+00 -1.657285e+00 4.413320e+00
      endloop
   endfacet
   facet normal 9.972936e-01 2.062305e-04 -7.352165e-02
      outer loop
         vertex 3.595901e+00 -1.670959e+00 4.569179e+00
         vertex 3.607050e+00 -1.711562e+00 4.720303e+00
         vertex 3.584408e+00 -1.657285e+00 4.413320e+00
      endloop
   endfacet
   facet normal 9.972907e-01 1.691521e-06 -7.356153e-02
      outer loop
         vertex 3.649608e+00 -2.401002e+00 5.297243e+00
         vertex 3.650615e+00 -2.557285e+00 5.310880e+00
         vertex 3.584408e+00 -1.657285e+00 4.413320e+00
      endloop
   endfacet
   facet normal 9.972885e-01 -3.323750e-05 -7.359076e-02
      outer loop
         vertex 3.646626e+00 -2.249466e+00 5.256751e+00
         vertex 3.649608e+00 -2.401002e+00 5.297243e+00
         vertex 3.584408e+00 -1.657285e+00 4.413320e+00
      endloop
   endfacet
   facet normal 9.972917e-01 5.790118e-05 -7.354774e-02
      outer loop
         vertex 3.607050e+00 -1.711562e+00 4.720303e+00
         vertex 3.617511e+00 -1.777863e+00 4.862100e+00
         vertex 3.584408e+00 -1.657285e+00 4.413320e+00
      endloop
   endfacet
   facet normal 9.972910e-01 2.505468e-05 -7.355652e-02
      outer loop
         vertex 3.617511e+00 -1.777863e+00 4.862100e+00
         vertex 3.626966e+00 -1.867846e+00 4.990260e+00
         vertex 3.584408e+00 -1.657285e+00 4.413320e+00
      endloop
   endfacet
   facet normal 9.972899e-01 -1.822189e-05 -7.357223e-02
      outer loop
         vertex 3.626966e+00 -1.867846e+00 4.990260e+00
         vertex 3.635125e+00 -1.978776e+00 5.100891e+00
         vertex 3.584408e+00 -1.657285e+00 4.413320e+00
      endloop
   endfacet
   facet normal 9.972900e-01 -4.488349e-06 -7.357077e-02
      outer loop
         vertex 3.446667e+00 -2.850000e+00 2.546176e+00
         vertex 3.650615e+00 -4.400000e+00 5.310880e+00
         vertex 3.241195e+00 -2.850000e+00 -2.391032e-01
      endloop
   endfacet
   facet normal 9.972901e-01 0.000000e+00 -7.356952e-02
      outer loop
         vertex 3.650615e+00 -4.400000e+00 5.310880e+00
         vertex 3.241195e+00 -4.400000e+00 -2.391032e-01
         vertex 3.241195e+00 -2.850000e+00 -2.391032e-01
      endloop
   endfacet
endsolid