solid middleArm_Short_p1
   facet normal 5.421691e-16 1.000000e+00 0.000000e+00
      outer loop
         vertex 1.773865e+00 4.500000e+00 2.079845e+01
         vertex 1.805155e+00 4.500000e+00 2.109682e+01
         vertex 2.370588e+00 4.500000e+00 2.073586e+01
      endloop
   endfacet
   facet normal 5.421691e-16 1.000000e+00 0.000000e+00
      outer loop
         vertex 1.805155e+00 4.500000e+00 2.109682e+01
         vertex 1.805972e+00 4.500000e+00 2.112819e+01
         vertex 2.370588e+00 4.500000e+00 2.073586e+01
      endloop
   endfacet
   facet normal 5.421691e-16 1.000000e+00 0.000000e+00
      outer loop
         vertex 1.805972e+00 4.500000e+00 2.112819e+01
         vertex 1.801870e+00 4.500000e+00 2.115930e+01
         vertex 2.370588e+00 4.500000e+00 2.073586e+01
      endloop
   endfacet
   facet normal 5.421691e-16 1.000000e+00 0.000000e+00
      outer loop
         vertex 1.801870e+00 4.500000e+00 2.115930e+01
         vertex 2.572539e+00 4.500000e+00 2.266120e+01
         vertex 2.370588e+00 4.500000e+00 2.073586e+01
      endloop
   endfacet
   facet normal 7.803349e-02 9.969171e-01 -8.185037e-03
      outer loop
         vertex 2.572539e+00 4.500000e+00 2.266120e+01
         vertex 2.619213e+00 4.496306e+00 2.265630e+01
         vertex 2.370588e+00 4.500000e+00 2.073586e+01
      endloop
   endfacet
   facet normal 7.803302e-02 9.969172e-01 -8.184975e-03
      outer loop
         vertex 2.619213e+00 4.496306e+00 2.265630e+01
         vertex 2.417262e+00 4.496306e+00 2.073097e+01
         vertex 2.370588e+00 4.500000e+00 2.073586e+01
      endloop
   endfacet
   facet normal 5.421691e-16 1.000000e+00 0.000000e+00
      outer loop
         vertex 1.792951e+00 4.500000e+00 2.118939e+01
         vertex 2.572539e+00 4.500000e+00 2.266120e+01
         vertex 1.801870e+00 4.500000e+00 2.115930e+01
      endloop
   endfacet
   facet normal 5.421691e-16 1.000000e+00 0.000000e+00
      outer loop
         vertex 1.779430e+00 4.500000e+00 2.121772e+01
         vertex 2.572539e+00 4.500000e+00 2.266120e+01
         vertex 1.792951e+00 4.500000e+00 2.118939e+01
      endloop
   endfacet
   facet normal 5.421691e-16 1.000000e+00 0.000000e+00
      outer loop
         vertex 1.761651e+00 4.500000e+00 2.124358e+01
         vertex 2.572539e+00 4.500000e+00 2.266120e+01
         vertex 1.779430e+00 4.500000e+00 2.121772e+01
      endloop
   endfacet
   facet normal 5.421691e-16 1.000000e+00 0.000000e+00
      outer loop
         vertex 1.740041e+00 4.500000e+00 2.126634e+01
         vertex 2.572539e+00 4.500000e+00 2.266120e+01
         vertex 1.761651e+00 4.500000e+00 2.124358e+01
      endloop
   endfacet
   facet normal 5.421691e-16 1.000000e+00 0.000000e+00
      outer loop
         vertex 1.715145e+00 4.500000e+00 2.128544e+01
         vertex 2.572539e+00 4.500000e+00 2.266120e+01
         vertex 1.740041e+00 4.500000e+00 2.126634e+01
      endloop
   endfacet
   facet normal 5.421691e-16 1.000000e+00 0.000000e+00
      outer loop
         vertex 2.143583e+00 4.500000e+00 2.240072e+01
         vertex 2.572539e+00 4.500000e+00 2.266120e+01
         vertex 1.715145e+00 4.500000e+00 2.128544e+01
      endloop
   endfacet
   facet normal 5.421691e-16 1.000000e+00 0.000000e+00
      outer loop
         vertex 1.687561e+00 4.500000e+00 2.130041e+01
         vertex 2.143583e+00 4.500000e+00 2.240072e+01
         vertex 1.715145e+00 4.500000e+00 2.128544e+01
      endloop
   endfacet
   facet normal 5.421691e-16 1.000000e+00 0.000000e+00
      outer loop
         vertex 1.657973e+00 4.500000e+00 2.131088e+01
         vertex 2.143583e+00 4.500000e+00 2.240072e+01
         vertex 1.687561e+00 4.500000e+00 2.130041e+01
      endloop
   endfacet
   facet normal 5.421691e-16 1.000000e+00 0.000000e+00
      outer loop
         vertex 1.627110e+00 4.500000e+00 2.131659e+01
         vertex 1.212983e+00 4.500000e+00 2.202880e+01
         vertex 1.657973e+00 4.500000e+00 2.131088e+01
      endloop
   endfacet
   facet normal 5.421691e-16 1.000000e+00 0.000000e+00
      outer loop
         vertex 1.212983e+00 4.500000e+00 2.202880e+01
         vertex 1.688560e+00 4.500000e+00 2.218906e+01
         vertex 1.657973e+00 4.500000e+00 2.131088e+01
      endloop
   endfacet
   facet normal 5.421691e-16 1.000000e+00 0.000000e+00
      outer loop
         vertex 1.688560e+00 4.500000e+00 2.218906e+01
         vertex 2.143583e+00 4.500000e+00 2.240072e+01
         vertex 1.657973e+00 4.500000e+00 2.131088e+01
      endloop
   endfacet
   facet normal 5.421691e-16 1.000000e+00 0.000000e+00
      outer loop
         vertex 2.235432e-01 4.500000e+00 2.186963e+01
         vertex 7.226596e-01 4.500000e+00 2.192189e+01
         vertex 1.627110e+00 4.500000e+00 2.131659e+01
      endloop
   endfacet
   facet normal 5.421691e-16 1.000000e+00 0.000000e+00
      outer loop
         vertex 7.226596e-01 4.500000e+00 2.192189e+01
         vertex 1.212983e+00 4.500000e+00 2.202880e+01
         vertex 1.627110e+00 4.500000e+00 2.131659e+01
      endloop
   endfacet
   facet normal 5.421691e-16 1.000000e+00 0.000000e+00
      outer loop
         vertex -5.931421e+00 4.500000e+00 2.210940e+01
         vertex -7.767478e-01 4.500000e+00 2.193093e+01
         vertex 1.627110e+00 4.500000e+00 2.131659e+01
      endloop
   endfacet
   facet normal 5.421691e-16 1.000000e+00 0.000000e+00
      outer loop
         vertex -7.767478e-01 4.500000e+00 2.193093e+01
         vertex -2.782967e-01 4.500000e+00 2.187266e+01
         vertex 1.627110e+00 4.500000e+00 2.131659e+01
      endloop
   endfacet
   facet normal 5.421691e-16 1.000000e+00 0.000000e+00
      outer loop
         vertex -2.782967e-01 4.500000e+00 2.187266e+01
         vertex 2.235432e-01 4.500000e+00 2.186963e+01
         vertex 1.627110e+00 4.500000e+00 2.131659e+01
      endloop
   endfacet
   facet normal 5.421691e-16 1.000000e+00 0.000000e+00
      outer loop
         vertex -5.931421e+00 4.500000e+00 2.210940e+01
         vertex -1.265753e+00 4.500000e+00 2.204374e+01
         vertex -7.767478e-01 4.500000e+00 2.193093e+01
      endloop
   endfacet
   facet normal 5.421691e-16 1.000000e+00 0.000000e+00
      outer loop
         vertex -5.931421e+00 4.500000e+00 2.210940e+01
         vertex -1.739361e+00 4.500000e+00 2.220972e+01
         vertex -1.265753e+00 4.500000e+00 2.204374e+01
      endloop
   endfacet
   facet normal 5.421691e-16 1.000000e+00 0.000000e+00
      outer loop
         vertex -5.931421e+00 4.500000e+00 2.210940e+01
         vertex -2.191805e+00 4.500000e+00 2.242685e+01
         vertex -1.739361e+00 4.500000e+00 2.220972e+01
      endloop
   endfacet
   facet normal 5.421691e-16 1.000000e+00 -0.000000e+00
      outer loop
         vertex -3.368821e+00 4.500000e+00 2.335579e+01
         vertex -3.011522e+00 4.500000e+00 2.300338e+01
         vertex -5.931421e+00 4.500000e+00 2.210940e+01
      endloop
   endfacet
   facet normal 5.421691e-16 1.000000e+00 0.000000e+00
      outer loop
         vertex -5.914585e+00 4.500000e+00 2.226991e+01
         vertex -3.368821e+00 4.500000e+00 2.335579e+01
         vertex -5.931421e+00 4.500000e+00 2.210940e+01
      endloop
   endfacet
   facet normal 5.421691e-16 1.000000e+00 -0.000000e+00
      outer loop
         vertex -3.011522e+00 4.500000e+00 2.300338e+01
         vertex -2.617583e+00 4.500000e+00 2.269248e+01
         vertex -5.931421e+00 4.500000e+00 2.210940e+01
      endloop
   endfacet
   facet normal 5.421691e-16 1.000000e+00 -0.000000e+00
      outer loop
         vertex -2.617583e+00 4.500000e+00 2.269248e+01
         vertex -2.191805e+00 4.500000e+00 2.242685e+01
         vertex -5.931421e+00 4.500000e+00 2.210940e+01
      endloop
   endfacet
   facet normal 5.421691e-16 1.000000e+00 0.000000e+00
      outer loop
         vertex -4.915644e+00 4.500000e+00 2.364545e+01
         vertex -4.635478e+00 4.500000e+00 2.374199e+01
         vertex -5.914585e+00 4.500000e+00 2.226991e+01
      endloop
   endfacet
   facet normal 5.421691e-16 1.000000e+00 -0.000000e+00
      outer loop
         vertex -4.046518e+00 4.500000e+00 2.378330e+01
         vertex -3.368821e+00 4.500000e+00 2.335579e+01
         vertex -5.914585e+00 4.500000e+00 2.226991e+01
      endloop
   endfacet
   facet normal 5.421691e-16 1.000000e+00 -0.000000e+00
      outer loop
         vertex -4.342807e+00 4.500000e+00 2.378840e+01
         vertex -4.046518e+00 4.500000e+00 2.378330e+01
         vertex -5.914585e+00 4.500000e+00 2.226991e+01
      endloop
   endfacet
   facet normal 5.421691e-16 1.000000e+00 0.000000e+00
      outer loop
         vertex -4.635478e+00 4.500000e+00 2.374199e+01
         vertex -4.342807e+00 4.500000e+00 2.378840e+01
         vertex -5.914585e+00 4.500000e+00 2.226991e+01
      endloop
   endfacet
   facet normal 5.421691e-16 1.000000e+00 0.000000e+00
      outer loop
         vertex -5.858104e+00 4.500000e+00 2.256081e+01
         vertex -5.405039e+00 4.500000e+00 2.331520e+01
         vertex -5.914585e+00 4.500000e+00 2.226991e+01
      endloop
   endfacet
   facet normal 5.421691e-16 1.000000e+00 0.000000e+00
      outer loop
         vertex -5.405039e+00 4.500000e+00 2.331520e+01
         vertex -5.174790e+00 4.500000e+00 2.350173e+01
         vertex -5.914585e+00 4.500000e+00 2.226991e+01
      endloop
   endfacet
   facet normal 5.421691e-16 1.000000e+00 0.000000e+00
      outer loop
         vertex -5.174790e+00 4.500000e+00 2.350173e+01
         vertex -4.915644e+00 4.500000e+00 2.364545e+01
         vertex -5.914585e+00 4.500000e+00 2.226991e+01
      endloop
   endfacet
   facet normal 5.421691e-16 1.000000e+00 0.000000e+00
      outer loop
         vertex -5.751968e+00 4.500000e+00 2.283748e+01
         vertex -5.599400e+00 4.500000e+00 2.309151e+01
         vertex -5.858104e+00 4.500000e+00 2.256081e+01
      endloop
   endfacet
   facet normal 5.421691e-16 1.000000e+00 0.000000e+00
      outer loop
         vertex -5.599400e+00 4.500000e+00 2.309151e+01
         vertex -5.405039e+00 4.500000e+00 2.331520e+01
         vertex -5.858104e+00 4.500000e+00 2.256081e+01
      endloop
   endfacet
   facet normal 5.421691e-16 1.000000e+00 0.000000e+00
      outer loop
         vertex -4.046518e+00 4.500000e+00 2.378330e+01
         vertex -3.685148e+00 4.500000e+00 2.374539e+01
         vertex -3.368821e+00 4.500000e+00 2.335579e+01
      endloop
   endfacet
   facet normal 2.321655e-01 9.723714e-01 -2.435211e-02
      outer loop
         vertex 2.619213e+00 4.496306e+00 2.265630e+01
         vertex 2.664740e+00 4.485316e+00 2.265153e+01
         vertex 2.417262e+00 4.496306e+00 2.073097e+01
      endloop
   endfacet
   facet normal 2.321655e-01 9.723714e-01 -2.435211e-02
      outer loop
         vertex 2.664740e+00 4.485316e+00 2.265153e+01
         vertex 2.462789e+00 4.485316e+00 2.072619e+01
         vertex 2.417262e+00 4.496306e+00 2.073097e+01
      endloop
   endfacet
   facet normal 3.805774e-01 9.238871e-01 -3.991921e-02
      outer loop
         vertex 2.664740e+00 4.485316e+00 2.265153e+01
         vertex 2.707993e+00 4.467303e+00 2.264699e+01
         vertex 2.462789e+00 4.485316e+00 2.072619e+01
      endloop
   endfacet
   facet normal 3.805796e-01 9.238861e-01 -3.991950e-02
      outer loop
         vertex 2.707993e+00 4.467303e+00 2.264699e+01
         vertex 2.506042e+00 4.467303e+00 2.072166e+01
         vertex 2.462789e+00 4.485316e+00 2.072619e+01
      endloop
   endfacet
   facet normal 5.197024e-01 8.526065e-01 -5.451228e-02
      outer loop
         vertex 2.707993e+00 4.467303e+00 2.264699e+01
         vertex 2.747909e+00 4.442705e+00 2.264280e+01
         vertex 2.506042e+00 4.467303e+00 2.072166e+01
      endloop
   endfacet
   facet normal 5.196334e-01 8.526491e-01 -5.450304e-02
      outer loop
         vertex 2.747909e+00 4.442705e+00 2.264280e+01
         vertex 2.545965e+00 4.442705e+00 2.071747e+01
         vertex 2.506042e+00 4.467303e+00 2.072166e+01
      endloop
   endfacet
   facet normal 6.458986e-01 7.604113e-01 -6.774668e-02
      outer loop
         vertex 2.747909e+00 4.442705e+00 2.264280e+01
         vertex 2.783511e+00 4.412131e+00 2.263907e+01
         vertex 2.545965e+00 4.442705e+00 2.071747e+01
      endloop
   endfacet
   facet normal 6.459752e-01 7.603454e-01 -6.775719e-02
      outer loop
         vertex 2.783511e+00 4.412131e+00 2.263907e+01
         vertex 2.581560e+00 4.412131e+00 2.071373e+01
         vertex 2.545965e+00 4.442705e+00 2.071747e+01
      endloop
   endfacet
   facet normal 7.562058e-01 6.495084e-01 -7.931944e-02
      outer loop
         vertex 2.783511e+00 4.412131e+00 2.263907e+01
         vertex 2.813922e+00 4.376335e+00 2.263588e+01
         vertex 2.581560e+00 4.412131e+00 2.071373e+01
      endloop
   endfacet
   facet normal 7.562058e-01 6.495084e-01 -7.931944e-02
      outer loop
         vertex 2.813922e+00 4.376335e+00 2.263588e+01
         vertex 2.611971e+00 4.376335e+00 2.071055e+01
         vertex 2.581560e+00 4.412131e+00 2.071373e+01
      endloop
   endfacet
   facet normal 8.479889e-01 5.224972e-01 -8.894669e-02
      outer loop
         vertex 2.813922e+00 4.376335e+00 2.263588e+01
         vertex 2.838385e+00 4.336197e+00 2.263332e+01
         vertex 2.611971e+00 4.376335e+00 2.071055e+01
      endloop
   endfacet
   facet normal 8.479862e-01 5.225016e-01 -8.894627e-02
      outer loop
         vertex 2.838385e+00 4.336197e+00 2.263332e+01
         vertex 2.636434e+00 4.336197e+00 2.070798e+01
         vertex 2.611971e+00 4.376335e+00 2.071055e+01
      endloop
   endfacet
   facet normal 9.188572e-01 3.826387e-01 -9.638001e-02
      outer loop
         vertex 2.838385e+00 4.336197e+00 2.263332e+01
         vertex 2.856298e+00 4.292706e+00 2.263144e+01
         vertex 2.636434e+00 4.336197e+00 2.070798e+01
      endloop
   endfacet
   facet normal 9.188593e-01 3.826334e-01 -9.638038e-02
      outer loop
         vertex 2.856298e+00 4.292706e+00 2.263144e+01
         vertex 2.654347e+00 4.292706e+00 2.070610e+01
         vertex 2.636434e+00 4.336197e+00 2.070798e+01
      endloop
   endfacet
   facet normal 9.670660e-01 2.334393e-01 -1.014368e-01
      outer loop
         vertex 2.856298e+00 4.292706e+00 2.263144e+01
         vertex 2.867228e+00 4.246930e+00 2.263029e+01
         vertex 2.654347e+00 4.292706e+00 2.070610e+01
      endloop
   endfacet
   facet normal 9.670660e-01 2.334393e-01 -1.014368e-01
      outer loop
         vertex 2.867228e+00 4.246930e+00 2.263029e+01
         vertex 2.665277e+00 4.246930e+00 2.070495e+01
         vertex 2.654347e+00 4.292706e+00 2.070610e+01
      endloop
   endfacet
   facet normal 9.914740e-01 7.851094e-02 -1.039970e-01
      outer loop
         vertex 2.867228e+00 4.246930e+00 2.263029e+01
         vertex 2.870904e+00 4.200000e+00 2.262990e+01
         vertex 2.665277e+00 4.246930e+00 2.070495e+01
      endloop
   endfacet
   facet normal 9.914740e-01 7.851094e-02 -1.039970e-01
      outer loop
         vertex 2.870904e+00 4.200000e+00 2.262990e+01
         vertex 2.668953e+00 4.200000e+00 2.070457e+01
         vertex 2.665277e+00 4.246930e+00 2.070495e+01
      endloop
   endfacet
   facet normal 9.945432e-01 -5.392106e-16 -1.043255e-01
      outer loop
         vertex 2.710683e+00 3.599999e+00 2.110239e+01
         vertex 2.668953e+00 3.599999e+00 2.070457e+01
         vertex 2.668953e+00 4.200000e+00 2.070457e+01
      endloop
   endfacet
   facet normal 9.945439e-01 4.349027e-06 -1.043190e-01
      outer loop
         vertex 2.870904e+00 4.200000e+00 2.262990e+01
         vertex 2.710683e+00 3.599999e+00 2.110239e+01
         vertex 2.668953e+00 4.200000e+00 2.070457e+01
      endloop
   endfacet
   facet normal 9.945441e-01 -5.392110e-16 -1.043173e-01
      outer loop
         vertex 2.870904e+00 2.950000e+00 2.262990e+01
         vertex 2.710683e+00 3.599999e+00 2.110239e+01
         vertex 2.870904e+00 4.200000e+00 2.262990e+01
      endloop
   endfacet
   facet normal 9.945403e-01 -8.458934e-05 -1.043529e-01
      outer loop
         vertex 2.870904e+00 2.950000e+00 2.262990e+01
         vertex 2.871501e+00 2.877498e+00 2.263565e+01
         vertex 2.710683e+00 3.599999e+00 2.110239e+01
      endloop
   endfacet
   facet normal 9.945442e-01 -5.224492e-06 -1.043160e-01
      outer loop
         vertex 2.871501e+00 2.877498e+00 2.263565e+01
         vertex 2.873282e+00 2.806654e+00 2.265263e+01
         vertex 2.710683e+00 3.599999e+00 2.110239e+01
      endloop
   endfacet
   facet normal 9.945521e-01 1.442561e-04 -1.042403e-01
      outer loop
         vertex 2.873282e+00 2.806654e+00 2.265263e+01
         vertex 2.873996e+00 2.787039e+00 2.265942e+01
         vertex 2.710683e+00 3.599999e+00 2.110239e+01
      endloop
   endfacet
   facet normal 9.945441e-01 -3.748572e-06 -1.043167e-01
      outer loop
         vertex 2.873996e+00 2.787039e+00 2.265942e+01
         vertex 2.877348e+00 2.717478e+00 2.269139e+01
         vertex 2.710683e+00 3.599999e+00 2.110239e+01
      endloop
   endfacet
   facet normal 9.945481e-01 6.601094e-05 -1.042784e-01
      outer loop
         vertex 2.877348e+00 2.717478e+00 2.269139e+01
         vertex 2.881829e+00 2.651999e+00 2.273408e+01
         vertex 2.710683e+00 3.599999e+00 2.110239e+01
      endloop
   endfacet
   facet normal 9.945441e-01 -5.392111e-16 -1.043166e-01
      outer loop
         vertex 2.967263e+00 8.000004e-01 2.354860e+01
         vertex 2.710683e+00 -4.200000e+00 2.110239e+01
         vertex 2.710683e+00 3.599999e+00 2.110239e+01
      endloop
   endfacet
   facet normal 9.945446e-01 3.722260e-06 -1.043124e-01
      outer loop
         vertex 2.882512e+00 2.643537e+00 2.274062e+01
         vertex 2.967263e+00 8.000004e-01 2.354860e+01
         vertex 2.710683e+00 3.599999e+00 2.110239e+01
      endloop
   endfacet
   facet normal 9.945056e-01 -6.360849e-04 -1.046818e-01
      outer loop
         vertex 2.881829e+00 2.651999e+00 2.273408e+01
         vertex 2.882512e+00 2.643537e+00 2.274062e+01
         vertex 2.710683e+00 3.599999e+00 2.110239e+01
      endloop
   endfacet
   facet normal 9.945473e-01 1.526960e-05 -1.042863e-01
      outer loop
         vertex 2.888504e+00 2.580678e+00 2.279775e+01
         vertex 2.967263e+00 8.000004e-01 2.354860e+01
         vertex 2.882512e+00 2.643537e+00 2.274062e+01
      endloop
   endfacet
   facet normal 9.945458e-01 9.000644e-06 -1.043010e-01
      outer loop
         vertex 2.895523e+00 2.524432e+00 2.286468e+01
         vertex 2.967263e+00 8.000004e-01 2.354860e+01
         vertex 2.888504e+00 2.580678e+00 2.279775e+01
      endloop
   endfacet
   facet normal 9.945269e-01 -6.305194e-05 -1.044807e-01
      outer loop
         vertex 2.899391e+00 2.498966e+00 2.290151e+01
         vertex 2.967263e+00 8.000004e-01 2.354860e+01
         vertex 2.895523e+00 2.524432e+00 2.286468e+01
      endloop
   endfacet
   facet normal 9.945514e-01 2.688736e-05 -1.042472e-01
      outer loop
         vertex 2.908395e+00 2.450675e+00 2.298740e+01
         vertex 2.967263e+00 8.000004e-01 2.354860e+01
         vertex 2.899391e+00 2.498966e+00 2.290151e+01
      endloop
   endfacet
   facet normal 9.945349e-01 -2.720456e-05 -1.044045e-01
      outer loop
         vertex 2.918246e+00 2.411580e+00 2.308125e+01
         vertex 2.967263e+00 8.000004e-01 2.354860e+01
         vertex 2.908395e+00 2.450675e+00 2.298740e+01
      endloop
   endfacet
   facet normal 9.945495e-01 1.362445e-05 -1.042653e-01
      outer loop
         vertex 2.927360e+00 2.385311e+00 2.316818e+01
         vertex 2.967263e+00 8.000004e-01 2.354860e+01
         vertex 2.918246e+00 2.411580e+00 2.308125e+01
      endloop
   endfacet
   facet normal 9.945454e-01 4.110976e-06 -1.043045e-01
      outer loop
         vertex 2.939124e+00 2.362996e+00 2.328034e+01
         vertex 2.967263e+00 8.000004e-01 2.354860e+01
         vertex 2.927360e+00 2.385311e+00 2.316818e+01
      endloop
   endfacet
   facet normal 9.945438e-01 1.416210e-06 -1.043200e-01
      outer loop
         vertex 2.951422e+00 2.351601e+00 2.339759e+01
         vertex 2.967263e+00 8.000004e-01 2.354860e+01
         vertex 2.939124e+00 2.362996e+00 2.328034e+01
      endloop
   endfacet
   facet normal 9.945418e-01 -3.963543e-07 -1.043384e-01
      outer loop
         vertex 2.958247e+00 2.350001e+00 2.346265e+01
         vertex 2.967263e+00 8.000004e-01 2.354860e+01
         vertex 2.951422e+00 2.351601e+00 2.339759e+01
      endloop
   endfacet
   facet normal 9.945441e-01 -5.392111e-16 -1.043166e-01
      outer loop
         vertex 3.232265e+00 2.350001e+00 2.607511e+01
         vertex 3.232265e+00 8.000004e-01 2.607511e+01
         vertex 2.958247e+00 2.350001e+00 2.346265e+01
      endloop
   endfacet
   facet normal 9.945442e-01 8.580912e-07 -1.043161e-01
      outer loop
         vertex 3.232265e+00 8.000004e-01 2.607511e+01
         vertex 2.967263e+00 8.000004e-01 2.354860e+01
         vertex 2.958247e+00 2.350001e+00 2.346265e+01
      endloop
   endfacet
   facet normal 9.945441e-01 -5.392111e-16 -1.043166e-01
      outer loop
         vertex 2.967263e+00 -8.000006e-01 2.354860e+01
         vertex 2.710683e+00 -4.200000e+00 2.110239e+01
         vertex 2.967263e+00 8.000004e-01 2.354860e+01
      endloop
   endfacet
   facet normal 9.945449e-01 -1.777299e-06 -1.043098e-01
      outer loop
         vertex 2.946623e+00 -2.354702e+00 2.335182e+01
         vertex 2.935368e+00 -2.368830e+00 2.324451e+01
         vertex 2.967263e+00 -8.000006e-01 2.354860e+01
      endloop
   endfacet
   facet normal 9.945407e-01 1.114342e-05 -1.043495e-01
      outer loop
         vertex 2.907578e+00 -2.454527e+00 2.297957e+01
         vertex 2.899236e+00 -2.499914e+00 2.290005e+01
         vertex 2.967263e+00 -8.000006e-01 2.354860e+01
      endloop
   endfacet
   facet normal 9.945554e-01 -4.297696e-05 -1.042092e-01
      outer loop
         vertex 2.899236e+00 -2.499914e+00 2.290005e+01
         vertex 2.893824e+00 -2.536791e+00 2.284842e+01
         vertex 2.967263e+00 -8.000006e-01 2.354860e+01
      endloop
   endfacet
   facet normal 9.945448e-01 -1.805901e-06 -1.043102e-01
      outer loop
         vertex 2.893824e+00 -2.536791e+00 2.284842e+01
         vertex 2.887383e+00 -2.591226e+00 2.278701e+01
         vertex 2.967263e+00 -8.000006e-01 2.354860e+01
      endloop
   endfacet
   facet normal 9.945407e-01 1.489190e-05 -1.043491e-01
      outer loop
         vertex 2.887383e+00 -2.591226e+00 2.278701e+01
         vertex 2.881850e+00 -2.651759e+00 2.273426e+01
         vertex 2.967263e+00 -8.000006e-01 2.354860e+01
      endloop
   endfacet
   facet normal 9.945440e-01 1.169143e-06 -1.043182e-01
      outer loop
         vertex 2.881850e+00 -2.651759e+00 2.273426e+01
         vertex 2.710683e+00 -4.200000e+00 2.110239e+01
         vertex 2.967263e+00 -8.000006e-01 2.354860e+01
      endloop
   endfacet
   facet normal 9.945435e-01 7.401577e-07 -1.043226e-01
      outer loop
         vertex 2.935368e+00 -2.368830e+00 2.324451e+01
         vertex 2.924516e+00 -2.392592e+00 2.314106e+01
         vertex 2.967263e+00 -8.000006e-01 2.354860e+01
      endloop
   endfacet
   facet normal 9.945432e-01 1.411199e-06 -1.043252e-01
      outer loop
         vertex 2.924516e+00 -2.392592e+00 2.314106e+01
         vertex 2.916603e+00 -2.417252e+00 2.306563e+01
         vertex 2.967263e+00 -8.000006e-01 2.354860e+01
      endloop
   endfacet
   facet normal 9.945462e-01 -6.972219e-06 -1.042974e-01
      outer loop
         vertex 2.916603e+00 -2.417252e+00 2.306563e+01
         vertex 2.907578e+00 -2.454527e+00 2.297957e+01
         vertex 2.967263e+00 -8.000006e-01 2.354860e+01
      endloop
   endfacet
   facet normal 9.945442e-01 -5.392111e-16 -1.043161e-01
      outer loop
         vertex 3.232265e+00 -8.000006e-01 2.607511e+01
         vertex 3.232265e+00 -2.350001e+00 2.607511e+01
         vertex 2.967263e+00 -8.000006e-01 2.354860e+01
      endloop
   endfacet
   facet normal 9.945441e-01 -8.298621e-07 -1.043166e-01
      outer loop
         vertex 3.232265e+00 -2.350001e+00 2.607511e+01
         vertex 2.958247e+00 -2.350001e+00 2.346265e+01
         vertex 2.967263e+00 -8.000006e-01 2.354860e+01
      endloop
   endfacet
   facet normal 9.945440e-01 -7.700818e-07 -1.043176e-01
      outer loop
         vertex 2.958247e+00 -2.350001e+00 2.346265e+01
         vertex 2.946623e+00 -2.354702e+00 2.335182e+01
         vertex 2.967263e+00 -8.000006e-01 2.354860e+01
      endloop
   endfacet
   facet normal 9.945559e-01 -1.203033e-04 -1.042042e-01
      outer loop
         vertex 2.879510e+00 -2.683364e+00 2.271196e+01
         vertex 2.710683e+00 -4.200000e+00 2.110239e+01
         vertex 2.881850e+00 -2.651759e+00 2.273426e+01
      endloop
   endfacet
   facet normal 9.945433e-01 9.172189e-06 -1.043249e-01
      outer loop
         vertex 2.875678e+00 -2.748758e+00 2.267543e+01
         vertex 2.710683e+00 -4.200000e+00 2.110239e+01
         vertex 2.879510e+00 -2.683364e+00 2.271196e+01
      endloop
   endfacet
   facet normal 9.945399e-01 4.428316e-05 -1.043569e-01
      outer loop
         vertex 2.872930e+00 -2.817724e+00 2.264921e+01
         vertex 2.710683e+00 -4.200000e+00 2.110239e+01
         vertex 2.875678e+00 -2.748758e+00 2.267543e+01
      endloop
   endfacet
   facet normal 9.945742e-01 -3.261414e-04 -1.040295e-01
      outer loop
         vertex 2.872399e+00 -2.835982e+00 2.264420e+01
         vertex 2.710683e+00 -4.200000e+00 2.110239e+01
         vertex 2.872930e+00 -2.817724e+00 2.264921e+01
      endloop
   endfacet
   facet normal 9.945398e-01 4.912021e-05 -1.043579e-01
      outer loop
         vertex 2.871113e+00 -2.907138e+00 2.263191e+01
         vertex 2.710683e+00 -4.200000e+00 2.110239e+01
         vertex 2.872399e+00 -2.835982e+00 2.264420e+01
      endloop
   endfacet
   facet normal 9.945424e-01 1.934237e-05 -1.043330e-01
      outer loop
         vertex 2.870904e+00 -2.950002e+00 2.262990e+01
         vertex 2.710683e+00 -4.200000e+00 2.110239e+01
         vertex 2.871113e+00 -2.907138e+00 2.263191e+01
      endloop
   endfacet
   facet normal 9.945441e-01 -5.392110e-16 -1.043173e-01
      outer loop
         vertex 2.870904e+00 -4.200000e+00 2.262990e+01
         vertex 2.710683e+00 -4.200000e+00 2.110239e+01
         vertex 2.870904e+00 -2.950002e+00 2.262990e+01
      endloop
   endfacet
endsolid