solid Created by Gmsh
facet normal 0 -0 1
  outer loop
    vertex 12.0739590122961 -6.64953855649228 0
    vertex 12.99100753375602 -5.469524877298763 0
    vertex 11.33065791490196 -5.360001931911874 0
  endloop
endfacet
facet normal 0 0 1
  outer loop
    vertex 3.168720221284834 -5.362632766178474 0
    vertex 1.508888174148001 -5.470190448267619 0
    vertex 2.425633637812528 -6.650096952555078 0
  endloop
endfacet
facet normal 0 0 1
  outer loop
    vertex 12.99100753375602 -5.469524877298763 0
    vertex 12.01775752005572 -4.333212368982313 0
    vertex 11.33065791490196 -5.360001931911874 0
  endloop
endfacet
facet normal 0 0 1
  outer loop
    vertex 3.168720221284834 -5.362632766178474 0
    vertex 2.482751658907686 -4.334411164137665 0
    vertex 1.508888174148001 -5.470190448267619 0
  endloop
endfacet
facet normal 0 0 1
  outer loop
    vertex 11.96352937042528 -1.528502776678444 0
    vertex 11.9724100868096 -3.099800046993574 0
    vertex 13.20224593955469 -2.449055562938962 0
  endloop
endfacet
facet normal -0 0 1
  outer loop
    vertex 1.297353505706514 -2.449160139490641 0
    vertex 2.526736101997883 -3.100353781347784 0
    vertex 2.535772247777607 -1.528508050207086 0
  endloop
endfacet
facet normal 0 0 1
  outer loop
    vertex 11.96352937042528 -1.528502776678444 0
    vertex 10.90818427110447 -2.474241421304346 0
    vertex 11.9724100868096 -3.099800046993574 0
  endloop
endfacet
facet normal 0 0 1
  outer loop
    vertex 2.526736101997883 -3.100353781347784 0
    vertex 3.590457301455247 -2.475193244600708 0
    vertex 2.535772247777607 -1.528508050207086 0
  endloop
endfacet
facet normal 0 0 1
  outer loop
    vertex 11.33065791490196 -5.360001931911874 0
    vertex 10.47899972192733 -6.63688572153041 0
    vertex 12.0739590122961 -6.64953855649228 0
  endloop
endfacet
facet normal 0 0 1
  outer loop
    vertex 9.664492304130901 -5.207773607019158 0
    vertex 10.47899972192733 -6.63688572153041 0
    vertex 11.33065791490196 -5.360001931911874 0
  endloop
endfacet
facet normal -0 0 1
  outer loop
    vertex 8.86044465579058 -6.60400023375915 0
    vertex 10.47899972192733 -6.63688572153041 0
    vertex 9.664492304130901 -5.207773607019158 0
  endloop
endfacet
facet normal 0 0 1
  outer loop
    vertex 3.900434930226839 -3.843280099446296 0
    vertex 3.168720221284834 -5.362632766178474 0
    vertex 4.832781724667466 -5.211468681469797 0
  endloop
endfacet
facet normal 0 0 1
  outer loop
    vertex 3.222222222222222 0 0
    vertex 2.535772247777607 -1.528508050207086 0
    vertex 4.096957422539923 -1.320052281314088 0
  endloop
endfacet
facet normal 0 -0 1
  outer loop
    vertex 8.86044465579058 -6.60400023375915 0
    vertex 9.664492304130901 -5.207773607019158 0
    vertex 8.05395028608387 -5.208553213358585 0
  endloop
endfacet
facet normal 0 0 1
  outer loop
    vertex 12.0739590122961 -6.64953855649228 0
    vertex 10.47899972192733 -6.63688572153041 0
    vertex 11.27777777777778 -8 0
  endloop
endfacet
facet normal -0 0 1
  outer loop
    vertex 10.40223187353286 -1.319452412290655 0
    vertex 11.96352937042528 -1.528502776678444 0
    vertex 11.27777777777777 0 0
  endloop
endfacet
facet normal 0 0 1
  outer loop
    vertex 5.63702571730883 -3.814957027226951 0
    vertex 3.900434930226839 -3.843280099446296 0
    vertex 4.832781724667466 -5.211468681469797 0
  endloop
endfacet
facet normal 0 -0 1
  outer loop
    vertex 9.664492304130901 -5.207773607019158 0
    vertex 10.59718019776826 -3.840920398294452 0
    vertex 8.858128858572547 -3.812630289139194 0
  endloop
endfacet
facet normal 0 0 1
  outer loop
    vertex 8.05395028608387 -5.208553213358585 0
    vertex 7.24934492612922 -6.604495725526471 0
    vertex 8.86044465579058 -6.60400023375915 0
  endloop
endfacet
facet normal 0 0 1
  outer loop
    vertex 5.638417162700075 -6.604823473899277 0
    vertex 4.832781724667466 -5.211468681469797 0
    vertex 4.029055609033051 -6.612709888237362 0
  endloop
endfacet
facet normal -0 0 1
  outer loop
    vertex 9.664492304130901 -5.207773607019158 0
    vertex 11.33065791490196 -5.360001931911874 0
    vertex 10.59718019776826 -3.840920398294452 0
  endloop
endfacet
facet normal 0 0 1
  outer loop
    vertex 12.88888888888889 -8 0
    vertex 12.0739590122961 -6.64953855649228 0
    vertex 11.27777777777778 -8 0
  endloop
endfacet
facet normal 0 0 1
  outer loop
    vertex 3.222222222222229 -8 0
    vertex 2.425633637812528 -6.650096952555078 0
    vertex 1.611111111111123 -8 0
  endloop
endfacet
facet normal 0 0 1
  outer loop
    vertex 4.029055609033051 -6.612709888237362 0
    vertex 3.168720221284834 -5.362632766178474 0
    vertex 2.425633637812528 -6.650096952555078 0
  endloop
endfacet
facet normal -0 0 1
  outer loop
    vertex 1.611111111111111 0 0
    vertex 2.535772247777607 -1.528508050207086 0
    vertex 3.222222222222222 0 0
  endloop
endfacet
facet normal 0 0 1
  outer loop
    vertex 4.832781724667466 -5.211468681469797 0
    vertex 3.168720221284834 -5.362632766178474 0
    vertex 4.029055609033051 -6.612709888237362 0
  endloop
endfacet
facet normal -0 0 1
  outer loop
    vertex 3.222222222222222 0 0
    vertex 4.096957422539923 -1.320052281314088 0
    vertex 4.833333333333337 0 0
  endloop
endfacet
facet normal -0 0 1
  outer loop
    vertex 9.666666666666664 0 0
    vertex 10.40223187353286 -1.319452412290655 0
    vertex 11.27777777777777 0 0
  endloop
endfacet
facet normal 0 0 1
  outer loop
    vertex 5.638417162700075 -6.604823473899277 0
    vertex 4.029055609033051 -6.612709888237362 0
    vertex 4.833333333333336 -8 0
  endloop
endfacet
facet normal 0 0 1
  outer loop
    vertex 6.444444444444454 0 0
    vertex 5.638151369613948 -1.394837343589676 0
    vertex 7.250000000000007 -1.395263150541591 0
  endloop
endfacet
facet normal 0 0 1
  outer loop
    vertex 7.250000000000007 -1.395263150541591 0
    vertex 8.861848630386058 -1.394837343589669 0
    vertex 8.055555555555561 0 0
  endloop
endfacet
facet normal 0 -0 1
  outer loop
    vertex 3.222222222222229 -8 0
    vertex 4.029055609033051 -6.612709888237362 0
    vertex 2.425633637812528 -6.650096952555078 0
  endloop
endfacet
facet normal -0 0 1
  outer loop
    vertex 4.096957422539923 -1.320052281314088 0
    vertex 5.638151369613948 -1.394837343589676 0
    vertex 4.833333333333337 0 0
  endloop
endfacet
facet normal 0 0 1
  outer loop
    vertex 9.666666666666664 0 0
    vertex 8.861848630386058 -1.394837343589669 0
    vertex 10.40223187353286 -1.319452412290655 0
  endloop
endfacet
facet normal -0 0 1
  outer loop
    vertex 11.27777777777777 0 0
    vertex 11.96352937042528 -1.528502776678444 0
    vertex 12.88888888888888 0 0
  endloop
endfacet
facet normal 0 0 1
  outer loop
    vertex 11.27777777777778 -8 0
    vertex 10.47899972192733 -6.63688572153041 0
    vertex 9.666666666666663 -8 0
  endloop
endfacet
facet normal 0 -0 1
  outer loop
    vertex 9.666666666666663 -8 0
    vertex 10.47899972192733 -6.63688572153041 0
    vertex 8.86044465579058 -6.60400023375915 0
  endloop
endfacet
facet normal 0 0 1
  outer loop
    vertex 6.443257452200811 -5.209597432141812 0
    vertex 5.63702571730883 -3.814957027226951 0
    vertex 4.832781724667466 -5.211468681469797 0
  endloop
endfacet
facet normal 0 0 1
  outer loop
    vertex 8.055555555555546 -8 0
    vertex 7.24934492612922 -6.604495725526471 0
    vertex 6.444444444444439 -8 0
  endloop
endfacet
facet normal -0 0 1
  outer loop
    vertex 6.443257452200811 -5.209597432141812 0
    vertex 7.24934492612922 -6.604495725526471 0
    vertex 8.05395028608387 -5.208553213358585 0
  endloop
endfacet
facet normal 0 0 1
  outer loop
    vertex 8.05395028608387 -5.208553213358585 0
    vertex 9.664492304130901 -5.207773607019158 0
    vertex 8.858128858572547 -3.812630289139194 0
  endloop
endfacet
facet normal 0 0 1
  outer loop
    vertex 5.638417162700075 -6.604823473899277 0
    vertex 7.24934492612922 -6.604495725526471 0
    vertex 6.443257452200811 -5.209597432141812 0
  endloop
endfacet
facet normal 0 -0 1
  outer loop
    vertex 6.444444444444439 -8 0
    vertex 7.24934492612922 -6.604495725526471 0
    vertex 5.638417162700075 -6.604823473899277 0
  endloop
endfacet
facet normal 0 0 1
  outer loop
    vertex 8.86044465579058 -6.60400023375915 0
    vertex 7.24934492612922 -6.604495725526471 0
    vertex 8.055555555555546 -8 0
  endloop
endfacet
facet normal 0 -0 1
  outer loop
    vertex 5.638417162700075 -6.604823473899277 0
    vertex 6.443257452200811 -5.209597432141812 0
    vertex 4.832781724667466 -5.211468681469797 0
  endloop
endfacet
facet normal 0 -0 1
  outer loop
    vertex 8.05395028608387 -5.208553213358585 0
    vertex 8.858128858572547 -3.812630289139194 0
    vertex 7.247483684084361 -3.813911539131541 0
  endloop
endfacet
facet normal 0 0 1
  outer loop
    vertex 4.833333333333336 -8 0
    vertex 4.029055609033051 -6.612709888237362 0
    vertex 3.222222222222229 -8 0
  endloop
endfacet
facet normal -0 0 1
  outer loop
    vertex 4.833333333333337 0 0
    vertex 5.638151369613948 -1.394837343589676 0
    vertex 6.444444444444454 0 0
  endloop
endfacet
facet normal -0 0 1
  outer loop
    vertex 8.055555555555561 0 0
    vertex 8.861848630386058 -1.394837343589669 0
    vertex 9.666666666666664 0 0
  endloop
endfacet
facet normal 0 -0 1
  outer loop
    vertex 6.443257452200811 -5.209597432141812 0
    vertex 7.247483684084361 -3.813911539131541 0
    vertex 5.63702571730883 -3.814957027226951 0
  endloop
endfacet
facet normal -0 0 1
  outer loop
    vertex 6.444444444444454 0 0
    vertex 7.250000000000007 -1.395263150541591 0
    vertex 8.055555555555561 0 0
  endloop
endfacet
facet normal 0 0 1
  outer loop
    vertex 9.666666666666663 -8 0
    vertex 8.86044465579058 -6.60400023375915 0
    vertex 8.055555555555546 -8 0
  endloop
endfacet
facet normal 0 0 1
  outer loop
    vertex 6.444444444444439 -8 0
    vertex 5.638417162700075 -6.604823473899277 0
    vertex 4.833333333333336 -8 0
  endloop
endfacet
facet normal 0 0 1
  outer loop
    vertex 6.443257452200811 -5.209597432141812 0
    vertex 8.05395028608387 -5.208553213358585 0
    vertex 7.247483684084361 -3.813911539131541 0
  endloop
endfacet
facet normal 0 0 1
  outer loop
    vertex 14.5 -3.199999999999996 0
    vertex 13.19596138153441 -3.9222580396519 0
    vertex 14.5 -4.800000000000003 0
  endloop
endfacet
facet normal 0 0 1
  outer loop
    vertex 0 -4.800000000000004 0
    vertex 1.303828608534881 -3.922529010949155 0
    vertex 0 -3.199999999999997 0
  endloop
endfacet
facet normal 0 0 1
  outer loop
    vertex 14.5 -1.599999999999999 0
    vertex 13.20224593955469 -2.449055562938962 0
    vertex 14.5 -3.199999999999996 0
  endloop
endfacet
facet normal 0 0 1
  outer loop
    vertex 14.5 -4.800000000000003 0
    vertex 12.99100753375602 -5.469524877298763 0
    vertex 14.5 -6.400000000000009 0
  endloop
endfacet
facet normal 0 0 1
  outer loop
    vertex 0 -6.400000000000001 0
    vertex 1.508888174148001 -5.470190448267619 0
    vertex 0 -4.800000000000004 0
  endloop
endfacet
facet normal 0 0 1
  outer loop
    vertex 0 -3.199999999999997 0
    vertex 1.297353505706514 -2.449160139490641 0
    vertex 0 -1.599999999999991 0
  endloop
endfacet
facet normal 0 0 1
  outer loop
    vertex 14.5 -3.199999999999996 0
    vertex 13.20224593955469 -2.449055562938962 0
    vertex 13.19596138153441 -3.9222580396519 0
  endloop
endfacet
facet normal -0 0 1
  outer loop
    vertex 0 -4.800000000000004 0
    vertex 1.508888174148001 -5.470190448267619 0
    vertex 1.303828608534881 -3.922529010949155 0
  endloop
endfacet
facet normal 0 0 1
  outer loop
    vertex 13.19596138153441 -3.9222580396519 0
    vertex 12.99100753375602 -5.469524877298763 0
    vertex 14.5 -4.800000000000003 0
  endloop
endfacet
facet normal 0 0 1
  outer loop
    vertex 1.303828608534881 -3.922529010949155 0
    vertex 1.297353505706514 -2.449160139490641 0
    vertex 0 -3.199999999999997 0
  endloop
endfacet
facet normal -0 0 1
  outer loop
    vertex 12.88888888888888 0 0
    vertex 13.31834640504607 -1.178709831338635 0
    vertex 14.5 0 0
  endloop
endfacet
facet normal 0 0 1
  outer loop
    vertex 1.611111111111123 -8 0
    vertex 1.181283092496067 -6.82166324405296 0
    vertex 0 -8 0
  endloop
endfacet
facet normal 0 0 1
  outer loop
    vertex 14.5 -8 0
    vertex 13.31871690750394 -6.821663244052962 0
    vertex 12.88888888888889 -8 0
  endloop
endfacet
facet normal -0 0 1
  outer loop
    vertex 0 0 0
    vertex 1.181283092496064 -1.178336755947038 0
    vertex 1.611111111111111 0 0
  endloop
endfacet
facet normal 0 0 1
  outer loop
    vertex 14.5 0 0
    vertex 13.31834640504607 -1.178709831338635 0
    vertex 14.5 -1.599999999999999 0
  endloop
endfacet
facet normal 0 0 1
  outer loop
    vertex 0 -8 0
    vertex 1.181283092496067 -6.82166324405296 0
    vertex 0 -6.400000000000001 0
  endloop
endfacet
facet normal 0 0 1
  outer loop
    vertex 14.5 -6.400000000000009 0
    vertex 13.31871690750394 -6.821663244052962 0
    vertex 14.5 -8 0
  endloop
endfacet
facet normal 0 0 1
  outer loop
    vertex 0 -1.599999999999991 0
    vertex 1.181283092496064 -1.178336755947038 0
    vertex 0 0 0
  endloop
endfacet
facet normal 0 0 1
  outer loop
    vertex 10.40223187353286 -1.319452412290655 0
    vertex 10.90818427110447 -2.474241421304346 0
    vertex 11.96352937042528 -1.528502776678444 0
  endloop
endfacet
facet normal -0 0 1
  outer loop
    vertex 2.535772247777607 -1.528508050207086 0
    vertex 3.590457301455247 -2.475193244600708 0
    vertex 4.096957422539923 -1.320052281314088 0
  endloop
endfacet
facet normal 0 0 1
  outer loop
    vertex 13.20224593955469 -2.449055562938962 0
    vertex 11.9724100868096 -3.099800046993574 0
    vertex 13.19596138153441 -3.9222580396519 0
  endloop
endfacet
facet normal 0 -0 1
  outer loop
    vertex 7.247483684084361 -3.813911539131541 0
    vertex 8.056243290139131 -2.602497254858287 0
    vertex 6.441469727880589 -2.605271088696816 0
  endloop
endfacet
facet normal 0 -0 1
  outer loop
    vertex 1.303828608534881 -3.922529010949155 0
    vertex 2.526736101997883 -3.100353781347784 0
    vertex 1.297353505706514 -2.449160139490641 0
  endloop
endfacet
facet normal 0 0 1
  outer loop
    vertex 6.441469727880589 -2.605271088696816 0
    vertex 8.056243290139131 -2.602497254858287 0
    vertex 7.250000000000007 -1.395263150541591 0
  endloop
endfacet
facet normal 0 0 1
  outer loop
    vertex 4.096957422539923 -1.320052281314088 0
    vertex 4.892385804733983 -2.583772010688282 0
    vertex 5.638151369613948 -1.394837343589676 0
  endloop
endfacet
facet normal 0 0 1
  outer loop
    vertex 10.59718019776826 -3.840920398294452 0
    vertex 9.605569826986345 -2.582531472264606 0
    vertex 8.858128858572547 -3.812630289139194 0
  endloop
endfacet
facet normal 0 0 1
  outer loop
    vertex 5.638151369613948 -1.394837343589676 0
    vertex 6.441469727880589 -2.605271088696816 0
    vertex 7.250000000000007 -1.395263150541591 0
  endloop
endfacet
facet normal 0 0 1
  outer loop
    vertex 5.63702571730883 -3.814957027226951 0
    vertex 4.892385804733983 -2.583772010688282 0
    vertex 3.900434930226839 -3.843280099446296 0
  endloop
endfacet
facet normal -0 0 1
  outer loop
    vertex 4.892385804733983 -2.583772010688282 0
    vertex 6.441469727880589 -2.605271088696816 0
    vertex 5.638151369613948 -1.394837343589676 0
  endloop
endfacet
facet normal 0 0 1
  outer loop
    vertex 9.605569826986345 -2.582531472264606 0
    vertex 8.056243290139131 -2.602497254858287 0
    vertex 8.858128858572547 -3.812630289139194 0
  endloop
endfacet
facet normal 0 0 1
  outer loop
    vertex 8.858128858572547 -3.812630289139194 0
    vertex 8.056243290139131 -2.602497254858287 0
    vertex 7.247483684084361 -3.813911539131541 0
  endloop
endfacet
facet normal 0 -0 1
  outer loop
    vertex 5.63702571730883 -3.814957027226951 0
    vertex 6.441469727880589 -2.605271088696816 0
    vertex 4.892385804733983 -2.583772010688282 0
  endloop
endfacet
facet normal 0 0 1
  outer loop
    vertex 7.247483684084361 -3.813911539131541 0
    vertex 6.441469727880589 -2.605271088696816 0
    vertex 5.63702571730883 -3.814957027226951 0
  endloop
endfacet
facet normal -0 0 1
  outer loop
    vertex 8.861848630386058 -1.394837343589669 0
    vertex 9.605569826986345 -2.582531472264606 0
    vertex 10.40223187353286 -1.319452412290655 0
  endloop
endfacet
facet normal -0 0 1
  outer loop
    vertex 7.250000000000007 -1.395263150541591 0
    vertex 8.056243290139131 -2.602497254858287 0
    vertex 8.861848630386058 -1.394837343589669 0
  endloop
endfacet
facet normal 0 0 1
  outer loop
    vertex 8.861848630386058 -1.394837343589669 0
    vertex 8.056243290139131 -2.602497254858287 0
    vertex 9.605569826986345 -2.582531472264606 0
  endloop
endfacet
facet normal 0 -0 1
  outer loop
    vertex 11.33065791490196 -5.360001931911874 0
    vertex 12.01775752005572 -4.333212368982313 0
    vertex 10.59718019776826 -3.840920398294452 0
  endloop
endfacet
facet normal 0 0 1
  outer loop
    vertex 3.900434930226839 -3.843280099446296 0
    vertex 2.482751658907686 -4.334411164137665 0
    vertex 3.168720221284834 -5.362632766178474 0
  endloop
endfacet
facet normal 0 0 1
  outer loop
    vertex 13.19596138153441 -3.9222580396519 0
    vertex 12.01775752005572 -4.333212368982313 0
    vertex 12.99100753375602 -5.469524877298763 0
  endloop
endfacet
facet normal 0 -0 1
  outer loop
    vertex 1.508888174148001 -5.470190448267619 0
    vertex 2.482751658907686 -4.334411164137665 0
    vertex 1.303828608534881 -3.922529010949155 0
  endloop
endfacet
facet normal -0 0 1
  outer loop
    vertex 10.59718019776826 -3.840920398294452 0
    vertex 12.01775752005572 -4.333212368982313 0
    vertex 11.9724100868096 -3.099800046993574 0
  endloop
endfacet
facet normal 0 0 1
  outer loop
    vertex 2.526736101997883 -3.100353781347784 0
    vertex 2.482751658907686 -4.334411164137665 0
    vertex 3.900434930226839 -3.843280099446296 0
  endloop
endfacet
facet normal 0 0 1
  outer loop
    vertex 12.99100753375602 -5.469524877298763 0
    vertex 13.31871690750394 -6.821663244052962 0
    vertex 14.5 -6.400000000000009 0
  endloop
endfacet
facet normal -0 0 1
  outer loop
    vertex 0 -6.400000000000001 0
    vertex 1.181283092496067 -6.82166324405296 0
    vertex 1.508888174148001 -5.470190448267619 0
  endloop
endfacet
facet normal 0 0 1
  outer loop
    vertex 1.297353505706514 -2.449160139490641 0
    vertex 1.181283092496064 -1.178336755947038 0
    vertex 0 -1.599999999999991 0
  endloop
endfacet
facet normal 0 0 1
  outer loop
    vertex 14.5 -1.599999999999999 0
    vertex 13.31834640504607 -1.178709831338635 0
    vertex 13.20224593955469 -2.449055562938962 0
  endloop
endfacet
facet normal 0 0 1
  outer loop
    vertex 11.96352937042528 -1.528502776678444 0
    vertex 13.31834640504607 -1.178709831338635 0
    vertex 12.88888888888888 0 0
  endloop
endfacet
facet normal 0 0 1
  outer loop
    vertex 2.425633637812528 -6.650096952555078 0
    vertex 1.181283092496067 -6.82166324405296 0
    vertex 1.611111111111123 -8 0
  endloop
endfacet
facet normal 0 -0 1
  outer loop
    vertex 12.88888888888889 -8 0
    vertex 13.31871690750394 -6.821663244052962 0
    vertex 12.0739590122961 -6.64953855649228 0
  endloop
endfacet
facet normal 0 0 1
  outer loop
    vertex 1.611111111111111 0 0
    vertex 1.181283092496064 -1.178336755947038 0
    vertex 2.535772247777607 -1.528508050207086 0
  endloop
endfacet
facet normal 0 -0 1
  outer loop
    vertex 13.20224593955469 -2.449055562938962 0
    vertex 13.31834640504607 -1.178709831338635 0
    vertex 11.96352937042528 -1.528502776678444 0
  endloop
endfacet
facet normal 0 0 1
  outer loop
    vertex 1.508888174148001 -5.470190448267619 0
    vertex 1.181283092496067 -6.82166324405296 0
    vertex 2.425633637812528 -6.650096952555078 0
  endloop
endfacet
facet normal -0 0 1
  outer loop
    vertex 12.0739590122961 -6.64953855649228 0
    vertex 13.31871690750394 -6.821663244052962 0
    vertex 12.99100753375602 -5.469524877298763 0
  endloop
endfacet
facet normal 0 0 1
  outer loop
    vertex 2.535772247777607 -1.528508050207086 0
    vertex 1.181283092496064 -1.178336755947038 0
    vertex 1.297353505706514 -2.449160139490641 0
  endloop
endfacet
facet normal 0 0 1
  outer loop
    vertex 3.900434930226839 -3.843280099446296 0
    vertex 3.590457301455247 -2.475193244600708 0
    vertex 2.526736101997883 -3.100353781347784 0
  endloop
endfacet
facet normal 0 0 1
  outer loop
    vertex 11.9724100868096 -3.099800046993574 0
    vertex 10.90818427110447 -2.474241421304346 0
    vertex 10.59718019776826 -3.840920398294452 0
  endloop
endfacet
facet normal 0 0 1
  outer loop
    vertex 4.892385804733983 -2.583772010688282 0
    vertex 3.590457301455247 -2.475193244600708 0
    vertex 3.900434930226839 -3.843280099446296 0
  endloop
endfacet
facet normal 0 -0 1
  outer loop
    vertex 10.59718019776826 -3.840920398294452 0
    vertex 10.90818427110447 -2.474241421304346 0
    vertex 9.605569826986345 -2.582531472264606 0
  endloop
endfacet
facet normal 0 0 1
  outer loop
    vertex 11.9724100868096 -3.099800046993574 0
    vertex 12.01775752005572 -4.333212368982313 0
    vertex 13.19596138153441 -3.9222580396519 0
  endloop
endfacet
facet normal -0 0 1
  outer loop
    vertex 1.303828608534881 -3.922529010949155 0
    vertex 2.482751658907686 -4.334411164137665 0
    vertex 2.526736101997883 -3.100353781347784 0
  endloop
endfacet
facet normal 0 0 1
  outer loop
    vertex 4.096957422539923 -1.320052281314088 0
    vertex 3.590457301455247 -2.475193244600708 0
    vertex 4.892385804733983 -2.583772010688282 0
  endloop
endfacet
facet normal 0 0 1
  outer loop
    vertex 9.605569826986345 -2.582531472264606 0
    vertex 10.90818427110447 -2.474241421304346 0
    vertex 10.40223187353286 -1.319452412290655 0
  endloop
endfacet
endsolid Created by Gmsh
