solid Created by Gmsh
facet normal 0 0 1
  outer loop
    vertex 14.5 0 0
    vertex 10.87499999999999 -3.460069444444447 0
    vertex 14.5 -4.000000000000001 0
  endloop
endfacet
facet normal 0 0 1
  outer loop
    vertex 0 -8 0
    vertex 3.62499999999999 -4.539930555555576 0
    vertex 0 -3.999999999999999 0
  endloop
endfacet
facet normal -0 0 1
  outer loop
    vertex 9.666666666666638 0 0
    vertex 10.87499999999999 -3.460069444444447 0
    vertex 14.5 0 0
  endloop
endfacet
facet normal 0 0 1
  outer loop
    vertex 4.833333333333362 -8 0
    vertex 3.62499999999999 -4.539930555555576 0
    vertex 0 -8 0
  endloop
endfacet
facet normal 0 0 1
  outer loop
    vertex 9.66666666666668 -8 0
    vertex 7.249999999999992 -3.999999999999999 0
    vertex 4.833333333333362 -8 0
  endloop
endfacet
facet normal -0 0 1
  outer loop
    vertex 4.83333333333332 0 0
    vertex 7.249999999999992 -3.999999999999999 0
    vertex 9.666666666666638 0 0
  endloop
endfacet
facet normal -0 0 1
  outer loop
    vertex 0 0 0
    vertex 2.132225651275838 -2.06886869331066 0
    vertex 4.83333333333332 0 0
  endloop
endfacet
facet normal 0 0 1
  outer loop
    vertex 14.5 -8 0
    vertex 12.36777434872416 -5.931131306689343 0
    vertex 9.66666666666668 -8 0
  endloop
endfacet
facet normal 0 -0 1
  outer loop
    vertex 9.66666666666668 -8 0
    vertex 10.87499999999999 -3.460069444444447 0
    vertex 7.249999999999992 -3.999999999999999 0
  endloop
endfacet
facet normal 0 0 1
  outer loop
    vertex 4.83333333333332 0 0
    vertex 3.62499999999999 -4.539930555555576 0
    vertex 7.249999999999992 -3.999999999999999 0
  endloop
endfacet
facet normal 0 0 1
  outer loop
    vertex 4.83333333333332 0 0
    vertex 2.132225651275838 -2.06886869331066 0
    vertex 3.62499999999999 -4.539930555555576 0
  endloop
endfacet
facet normal 0 0 1
  outer loop
    vertex 9.66666666666668 -8 0
    vertex 12.36777434872416 -5.931131306689343 0
    vertex 10.87499999999999 -3.460069444444447 0
  endloop
endfacet
facet normal 0 0 1
  outer loop
    vertex 7.249999999999992 -3.999999999999999 0
    vertex 10.87499999999999 -3.460069444444447 0
    vertex 9.666666666666638 0 0
  endloop
endfacet
facet normal 0 0 1
  outer loop
    vertex 7.249999999999992 -3.999999999999999 0
    vertex 3.62499999999999 -4.539930555555576 0
    vertex 4.833333333333362 -8 0
  endloop
endfacet
facet normal 0 0 1
  outer loop
    vertex 0 -3.999999999999999 0
    vertex 2.132225651275838 -2.06886869331066 0
    vertex 0 0 0
  endloop
endfacet
facet normal 0 0 1
  outer loop
    vertex 14.5 -4.000000000000001 0
    vertex 12.36777434872416 -5.931131306689343 0
    vertex 14.5 -8 0
  endloop
endfacet
facet normal 0 0 1
  outer loop
    vertex 10.87499999999999 -3.460069444444447 0
    vertex 12.36777434872416 -5.931131306689343 0
    vertex 14.5 -4.000000000000001 0
  endloop
endfacet
facet normal 0 0 1
  outer loop
    vertex 3.62499999999999 -4.539930555555576 0
    vertex 2.132225651275838 -2.06886869331066 0
    vertex 0 -3.999999999999999 0
  endloop
endfacet
endsolid Created by Gmsh
