solid Created by Gmsh
facet normal -0 0 1
  outer loop
    vertex 9.666666666666668 0 0
    vertex 11.00654085965019 -2.063263491291535 0
    vertex 12.08333333333334 0 0
  endloop
endfacet
facet normal 0 0 1
  outer loop
    vertex 6.04166666666667 -2.092894725812392 0
    vertex 8.486635346639373 -2.022081634675368 0
    vertex 7.250000000000003 0 0
  endloop
endfacet
facet normal 0 0 1
  outer loop
    vertex 9.666666666666668 0 0
    vertex 8.486635346639373 -2.022081634675368 0
    vertex 11.00654085965019 -2.063263491291535 0
  endloop
endfacet
facet normal -0 0 1
  outer loop
    vertex 7.250000000000003 0 0
    vertex 8.486635346639373 -2.022081634675368 0
    vertex 9.666666666666668 0 0
  endloop
endfacet
facet normal 0 0 1
  outer loop
    vertex 8.444936862602729 -5.958888110345645 0
    vertex 6.024565807647327 -5.978253841519746 0
    vertex 7.249999999999997 -8 0
  endloop
endfacet
facet normal 0 0 1
  outer loop
    vertex 4.833333333333332 -8 0
    vertex 3.498963949763075 -5.933722456831671 0
    vertex 2.416666666666664 -8 0
  endloop
endfacet
facet normal 0 -0 1
  outer loop
    vertex 4.833333333333332 -8 0
    vertex 6.024565807647327 -5.978253841519746 0
    vertex 3.498963949763075 -5.933722456831671 0
  endloop
endfacet
facet normal 0 0 1
  outer loop
    vertex 9.666666666666664 -8 0
    vertex 8.444936862602729 -5.958888110345645 0
    vertex 7.249999999999997 -8 0
  endloop
endfacet
facet normal 0 0 1
  outer loop
    vertex 7.249999999999997 -8 0
    vertex 6.024565807647327 -5.978253841519746 0
    vertex 4.833333333333332 -8 0
  endloop
endfacet
facet normal -0 0 1
  outer loop
    vertex 4.833333333333336 0 0
    vertex 6.04166666666667 -2.092894725812392 0
    vertex 7.250000000000003 0 0
  endloop
endfacet
facet normal 0 0 1
  outer loop
    vertex 12.08333333333333 -8 0
    vertex 11.00498309729943 -5.931788163581939 0
    vertex 9.666666666666664 -8 0
  endloop
endfacet
facet normal -0 0 1
  outer loop
    vertex 2.41666666666667 0 0
    vertex 3.493392027878215 -2.075616069863234 0
    vertex 4.833333333333336 0 0
  endloop
endfacet
facet normal 0 0 1
  outer loop
    vertex 8.486635346639373 -2.022081634675368 0
    vertex 9.601549994324008 -3.992103339560022 0
    vertex 11.00654085965019 -2.063263491291535 0
  endloop
endfacet
facet normal 0 -0 1
  outer loop
    vertex 6.024565807647327 -5.978253841519746 0
    vertex 7.28693423054825 -3.976598637465632 0
    vertex 4.911155359983206 -4.00951428858211 0
  endloop
endfacet
facet normal 0 -0 1
  outer loop
    vertex 9.666666666666664 -8 0
    vertex 11.00498309729943 -5.931788163581939 0
    vertex 8.444936862602729 -5.958888110345645 0
  endloop
endfacet
facet normal 0 0 1
  outer loop
    vertex 14.5 -2.000000000000004 0
    vertex 12.86308033697317 -3.062116430301437 0
    vertex 14.5 -4.000000000000012 0
  endloop
endfacet
facet normal 0 0 1
  outer loop
    vertex 4.833333333333336 0 0
    vertex 3.493392027878215 -2.075616069863234 0
    vertex 6.04166666666667 -2.092894725812392 0
  endloop
endfacet
facet normal -0 0 1
  outer loop
    vertex 6.04166666666667 -2.092894725812392 0
    vertex 7.28693423054825 -3.976598637465632 0
    vertex 8.486635346639373 -2.022081634675368 0
  endloop
endfacet
facet normal 0 0 1
  outer loop
    vertex 4.911155359983206 -4.00951428858211 0
    vertex 7.28693423054825 -3.976598637465632 0
    vertex 6.04166666666667 -2.092894725812392 0
  endloop
endfacet
facet normal 0 0 1
  outer loop
    vertex 8.486635346639373 -2.022081634675368 0
    vertex 7.28693423054825 -3.976598637465632 0
    vertex 9.601549994324008 -3.992103339560022 0
  endloop
endfacet
facet normal 0 0 1
  outer loop
    vertex 14.5 -4.000000000000012 0
    vertex 12.8095038267064 -4.936665585881158 0
    vertex 14.5 -6.000000000000012 0
  endloop
endfacet
facet normal 0 0 1
  outer loop
    vertex 0 -5.999999999999996 0
    vertex 1.637969168101222 -4.937381227719097 0
    vertex 0 -3.999999999999988 0
  endloop
endfacet
facet normal 0 0 1
  outer loop
    vertex 6.024565807647327 -5.978253841519746 0
    vertex 4.911155359983206 -4.00951428858211 0
    vertex 3.498963949763075 -5.933722456831671 0
  endloop
endfacet
facet normal 0 0 1
  outer loop
    vertex 8.444936862602729 -5.958888110345645 0
    vertex 7.28693423054825 -3.976598637465632 0
    vertex 6.024565807647327 -5.978253841519746 0
  endloop
endfacet
facet normal 0 0 1
  outer loop
    vertex 0 -3.999999999999988 0
    vertex 1.690609347726898 -3.063334414118842 0
    vertex 0 -1.999999999999988 0
  endloop
endfacet
facet normal 0 0 1
  outer loop
    vertex 9.601549994324008 -3.992103339560022 0
    vertex 7.28693423054825 -3.976598637465632 0
    vertex 8.444936862602729 -5.958888110345645 0
  endloop
endfacet
facet normal 0 0 1
  outer loop
    vertex 11.00498309729943 -5.931788163581939 0
    vertex 9.601549994324008 -3.992103339560022 0
    vertex 8.444936862602729 -5.958888110345645 0
  endloop
endfacet
facet normal -0 0 1
  outer loop
    vertex 12.08333333333334 0 0
    vertex 12.99059090599134 -1.425075984318595 0
    vertex 14.5 0 0
  endloop
endfacet
facet normal 0 0 1
  outer loop
    vertex 14.5 -8 0
    vertex 12.97956405146783 -6.573690749892622 0
    vertex 12.08333333333333 -8 0
  endloop
endfacet
facet normal 0 0 1
  outer loop
    vertex 2.416666666666664 -8 0
    vertex 1.510719956906192 -6.574220736910153 0
    vertex 0 -8 0
  endloop
endfacet
facet normal -0 0 1
  outer loop
    vertex 0 0 0
    vertex 1.520133608454357 -1.427790096796413 0
    vertex 2.41666666666667 0 0
  endloop
endfacet
facet normal 0 0 1
  outer loop
    vertex 3.493392027878215 -2.075616069863234 0
    vertex 4.911155359983206 -4.00951428858211 0
    vertex 6.04166666666667 -2.092894725812392 0
  endloop
endfacet
facet normal -0 0 1
  outer loop
    vertex 11.00498309729943 -5.931788163581939 0
    vertex 12.97956405146783 -6.573690749892622 0
    vertex 12.8095038267064 -4.936665585881158 0
  endloop
endfacet
facet normal 0 -0 1
  outer loop
    vertex 12.08333333333333 -8 0
    vertex 12.97956405146783 -6.573690749892622 0
    vertex 11.00498309729943 -5.931788163581939 0
  endloop
endfacet
facet normal 0 0 1
  outer loop
    vertex 2.41666666666667 0 0
    vertex 1.520133608454357 -1.427790096796413 0
    vertex 3.493392027878215 -2.075616069863234 0
  endloop
endfacet
facet normal 0 0 1
  outer loop
    vertex 3.493392027878215 -2.075616069863234 0
    vertex 1.520133608454357 -1.427790096796413 0
    vertex 1.690609347726898 -3.063334414118842 0
  endloop
endfacet
facet normal 0 0 1
  outer loop
    vertex 14.5 -4.000000000000012 0
    vertex 12.86308033697317 -3.062116430301437 0
    vertex 12.8095038267064 -4.936665585881158 0
  endloop
endfacet
facet normal -0 0 1
  outer loop
    vertex 0 -3.999999999999988 0
    vertex 1.637969168101222 -4.937381227719097 0
    vertex 1.690609347726898 -3.063334414118842 0
  endloop
endfacet
facet normal 0 0 1
  outer loop
    vertex 11.00654085965019 -2.063263491291535 0
    vertex 12.99059090599134 -1.425075984318595 0
    vertex 12.08333333333334 0 0
  endloop
endfacet
facet normal 0 0 1
  outer loop
    vertex 14.5 0 0
    vertex 12.99059090599134 -1.425075984318595 0
    vertex 14.5 -2.000000000000004 0
  endloop
endfacet
facet normal 0 0 1
  outer loop
    vertex 14.5 -6.000000000000012 0
    vertex 12.97956405146783 -6.573690749892622 0
    vertex 14.5 -8 0
  endloop
endfacet
facet normal 0 0 1
  outer loop
    vertex 0 -8 0
    vertex 1.510719956906192 -6.574220736910153 0
    vertex 0 -5.999999999999996 0
  endloop
endfacet
facet normal 0 0 1
  outer loop
    vertex 0 -1.999999999999988 0
    vertex 1.520133608454357 -1.427790096796413 0
    vertex 0 0 0
  endloop
endfacet
facet normal 0 0 1
  outer loop
    vertex 3.498963949763075 -5.933722456831671 0
    vertex 1.510719956906192 -6.574220736910153 0
    vertex 2.416666666666664 -8 0
  endloop
endfacet
facet normal 0 0 1
  outer loop
    vertex 12.8095038267064 -4.936665585881158 0
    vertex 11.43488532190876 -3.997991001516588 0
    vertex 11.00498309729943 -5.931788163581939 0
  endloop
endfacet
facet normal 0 -0 1
  outer loop
    vertex 12.86308033697317 -3.062116430301437 0
    vertex 12.99059090599134 -1.425075984318595 0
    vertex 11.00654085965019 -2.063263491291535 0
  endloop
endfacet
facet normal -0 0 1
  outer loop
    vertex 1.690609347726898 -3.063334414118842 0
    vertex 3.06784411546343 -4.002795493873561 0
    vertex 3.493392027878215 -2.075616069863234 0
  endloop
endfacet
facet normal 0 -0 1
  outer loop
    vertex 11.00498309729943 -5.931788163581939 0
    vertex 11.43488532190876 -3.997991001516588 0
    vertex 9.601549994324008 -3.992103339560022 0
  endloop
endfacet
facet normal 0 0 1
  outer loop
    vertex 1.637969168101222 -4.937381227719097 0
    vertex 1.510719956906192 -6.574220736910153 0
    vertex 3.498963949763075 -5.933722456831671 0
  endloop
endfacet
facet normal 0 0 1
  outer loop
    vertex 3.493392027878215 -2.075616069863234 0
    vertex 3.06784411546343 -4.002795493873561 0
    vertex 4.911155359983206 -4.00951428858211 0
  endloop
endfacet
facet normal -0 0 1
  outer loop
    vertex 9.601549994324008 -3.992103339560022 0
    vertex 11.43488532190876 -3.997991001516588 0
    vertex 11.00654085965019 -2.063263491291535 0
  endloop
endfacet
facet normal 0 0 1
  outer loop
    vertex 11.00654085965019 -2.063263491291535 0
    vertex 11.43488532190876 -3.997991001516588 0
    vertex 12.86308033697317 -3.062116430301437 0
  endloop
endfacet
facet normal 0 0 1
  outer loop
    vertex 4.911155359983206 -4.00951428858211 0
    vertex 3.06784411546343 -4.002795493873561 0
    vertex 3.498963949763075 -5.933722456831671 0
  endloop
endfacet
facet normal 0 0 1
  outer loop
    vertex 3.498963949763075 -5.933722456831671 0
    vertex 3.06784411546343 -4.002795493873561 0
    vertex 1.637969168101222 -4.937381227719097 0
  endloop
endfacet
facet normal 0 0 1
  outer loop
    vertex 14.5 -2.000000000000004 0
    vertex 12.99059090599134 -1.425075984318595 0
    vertex 12.86308033697317 -3.062116430301437 0
  endloop
endfacet
facet normal 0 0 1
  outer loop
    vertex 12.8095038267064 -4.936665585881158 0
    vertex 12.97956405146783 -6.573690749892622 0
    vertex 14.5 -6.000000000000012 0
  endloop
endfacet
facet normal -0 0 1
  outer loop
    vertex 0 -5.999999999999996 0
    vertex 1.510719956906192 -6.574220736910153 0
    vertex 1.637969168101222 -4.937381227719097 0
  endloop
endfacet
facet normal 0 0 1
  outer loop
    vertex 1.690609347726898 -3.063334414118842 0
    vertex 1.520133608454357 -1.427790096796413 0
    vertex 0 -1.999999999999988 0
  endloop
endfacet
facet normal 0 0 1
  outer loop
    vertex 12.86308033697317 -3.062116430301437 0
    vertex 11.43488532190876 -3.997991001516588 0
    vertex 12.8095038267064 -4.936665585881158 0
  endloop
endfacet
facet normal 0 0 1
  outer loop
    vertex 1.637969168101222 -4.937381227719097 0
    vertex 3.06784411546343 -4.002795493873561 0
    vertex 1.690609347726898 -3.063334414118842 0
  endloop
endfacet
endsolid Created by Gmsh
