solid Created by Gmsh
facet normal -0.0663645 0.0425051 0.99689
  outer loop
    vertex 6.037841902407981 -3.056276976940095 1.204027889710919
    vertex 4.275895796549126 -2.985233037634248 1.083703149935396
    vertex 4.647179793970408 -4.59251637766502 1.176951080709497
  endloop
endfacet
facet normal 0.0680229 -0.0403927 0.996866
  outer loop
    vertex 8.474302826815599 -4.958545660627386 1.201250899697878
    vertex 10.22836816282568 -5.019653990492397 1.079083019804583
    vertex 9.86412201757177 -3.41265110193498 1.169053305631503
  endloop
endfacet
facet normal -0.0312542 0.0106767 0.999454
  outer loop
    vertex 6.552348475080047 -4.827428681405117 1.239037525688551
    vertex 6.037841902407981 -3.056276976940095 1.204027889710919
    vertex 4.647179793970408 -4.59251637766502 1.176951080709497
  endloop
endfacet
facet normal 0.0359289 -0.0114885 0.999288
  outer loop
    vertex 8.00091517867105 -3.204802381887623 1.23843345631119
    vertex 8.474302826815599 -4.958545660627386 1.201250899697878
    vertex 9.86412201757177 -3.41265110193498 1.169053305631503
  endloop
endfacet
facet normal -0.0163871 0.0150014 0.999753
  outer loop
    vertex 8.00091517867105 -3.204802381887623 1.23843345631119
    vertex 6.037841902407981 -3.056276976940095 1.204027889710919
    vertex 6.552348475080047 -4.827428681405117 1.239037525688551
  endloop
endfacet
facet normal 0.0185502 -0.0161881 0.999697
  outer loop
    vertex 6.552348475080047 -4.827428681405117 1.239037525688551
    vertex 8.474302826815599 -4.958545660627386 1.201250899697878
    vertex 8.00091517867105 -3.204802381887623 1.23843345631119
  endloop
endfacet
facet normal 0.177317 -0.154976 0.971875
  outer loop
    vertex 13.04064834416345 -4.97362636325354 0.5628519771756346
    vertex 11.59645340153494 -4.056277193412815 0.9726243509132005
    vertex 11.46494637884448 -6.164457668746024 0.6604449463067921
  endloop
endfacet
facet normal -0.166095 -0.15885 0.973231
  outer loop
    vertex 4.647179793970408 -4.59251637766502 1.176951080709497
    vertex 2.86461218483918 -3.976950485468134 0.973204657156972
    vertex 3.119121829023679 -6.274029463724024 0.6417121712044822
  endloop
endfacet
facet normal -0.166235 -0.158862 0.973205
  outer loop
    vertex 3.119121829023679 -6.274029463724024 0.6417121712044822
    vertex 2.86461218483918 -3.976950485468134 0.973204657156972
    vertex 1.468490229979289 -4.992826014077942 0.5689030801475278
  endloop
endfacet
facet normal 0.184826 -0.155231 0.970434
  outer loop
    vertex 11.46494637884448 -6.164457668746024 0.6604449463067921
    vertex 11.59645340153494 -4.056277193412815 0.9726243509132005
    vertex 10.22836816282568 -5.019653990492397 1.079083019804583
  endloop
endfacet
facet normal -0.178949 0.156182 0.971383
  outer loop
    vertex 1.42536971891493 -3.049824819156288 0.5590000525117506
    vertex 2.86461218483918 -3.976950485468134 0.973204657156972
    vertex 3.053947339532823 -1.833370524603758 0.6634322141966889
  endloop
endfacet
facet normal 0.164727 0.145645 0.975527
  outer loop
    vertex 9.86412201757177 -3.41265110193498 1.169053305631503
    vertex 11.59645340153494 -4.056277193412815 0.9726243509132005
    vertex 11.38139448849736 -1.89663582081401 0.6865076231181921
  endloop
endfacet
facet normal 0.175592 0.146459 0.973508
  outer loop
    vertex 11.38139448849736 -1.89663582081401 0.6865076231181921
    vertex 11.59645340153494 -4.056277193412815 0.9726243509132005
    vertex 13.06750485548848 -3.054839184128109 0.5566295740032019
  endloop
endfacet
facet normal -0.0741173 -0.240695 0.967767
  outer loop
    vertex 4.647179793970408 -4.59251637766502 1.176951080709497
    vertex 3.119121829023679 -6.274029463724024 0.6417121712044822
    vertex 5.178571428571412 -6.381087845785092 0.7728102495557545
  endloop
endfacet
facet normal 0.0695586 0.238688 0.968602
  outer loop
    vertex 9.86412201757177 -3.41265110193498 1.169053305631503
    vertex 11.38139448849736 -1.89663582081401 0.6865076231181921
    vertex 9.321428571428598 -1.621807287633325 0.7667159622049184
  endloop
endfacet
facet normal -0.0608385 -0.237156 0.969565
  outer loop
    vertex 6.552348475080047 -4.827428681405117 1.239037525688551
    vertex 4.647179793970408 -4.59251637766502 1.176951080709497
    vertex 5.178571428571412 -6.381087845785092 0.7728102495557545
  endloop
endfacet
facet normal 0.0625157 0.236768 0.969553
  outer loop
    vertex 8.00091517867105 -3.204802381887623 1.23843345631119
    vertex 9.86412201757177 -3.41265110193498 1.169053305631503
    vertex 9.321428571428598 -1.621807287633325 0.7667159622049184
  endloop
endfacet
facet normal 0.0865642 0.380076 0.920896
  outer loop
    vertex 9.321428571428598 -1.621807287633325 0.7667159622049184
    vertex 11.38139448849736 -1.89663582081401 0.6865076231181921
    vertex 10.35714285714288 0 0
  endloop
endfacet
facet normal -0.0839118 0.382764 0.920027
  outer loop
    vertex 4.142857142857154 0 0
    vertex 3.053947339532823 -1.833370524603758 0.6634322141966889
    vertex 5.17857142857144 -1.620827610512785 0.7687848215844396
  endloop
endfacet
facet normal -0 0.340351 0.940298
  outer loop
    vertex 10.35714285714288 0 0
    vertex 11.38139448849736 -1.89663582081401 0.6865076231181921
    vertex 12.42857142857144 0 0
  endloop
endfacet
facet normal -0 0.340271 0.940327
  outer loop
    vertex 2.071428571428575 0 0
    vertex 3.053947339532823 -1.833370524603758 0.6634322141966889
    vertex 4.142857142857154 0 0
  endloop
endfacet
facet normal 0 -0.348491 0.937312
  outer loop
    vertex 4.142857142857121 -8 0
    vertex 3.119121829023679 -6.274029463724024 0.6417121712044822
    vertex 2.071428571428562 -8 0
  endloop
endfacet
facet normal -0.0239845 0.4409 0.897236
  outer loop
    vertex 5.17857142857144 -1.620827610512785 0.7687848215844396
    vertex 7.248745700545459 -1.531077472211054 0.7800207622205347
    vertex 6.214285714285732 0 0
  endloop
endfacet
facet normal 0.0237872 -0.443828 0.895796
  outer loop
    vertex 9.316918625991118 -6.416579758579688 0.7571338322093082
    vertex 7.250375530361895 -6.477347004139932 0.781901868613242
    vertex 8.285714285714267 -8 0
  endloop
endfacet
facet normal -0 0.453943 0.891031
  outer loop
    vertex 6.214285714285732 0 0
    vertex 7.248745700545459 -1.531077472211054 0.7800207622205347
    vertex 8.285714285714311 0 0
  endloop
endfacet
facet normal 0 -0.456804 0.889567
  outer loop
    vertex 8.285714285714267 -8 0
    vertex 7.250375530361895 -6.477347004139932 0.781901868613242
    vertex 6.214285714285689 -8 0
  endloop
endfacet
facet normal -0 0.427399 0.904063
  outer loop
    vertex 8.285714285714311 0 0
    vertex 9.321428571428598 -1.621807287633325 0.7667159622049184
    vertex 10.35714285714288 0 0
  endloop
endfacet
facet normal 0.0250344 0.440288 0.897508
  outer loop
    vertex 8.285714285714311 0 0
    vertex 7.248745700545459 -1.531077472211054 0.7800207622205347
    vertex 9.321428571428598 -1.621807287633325 0.7667159622049184
  endloop
endfacet
facet normal 0.0180683 0.271661 0.962223
  outer loop
    vertex 7.248745700545459 -1.531077472211054 0.7800207622205347
    vertex 8.00091517867105 -3.204802381887623 1.23843345631119
    vertex 9.321428571428598 -1.621807287633325 0.7667159622049184
  endloop
endfacet
facet normal -0 0.428553 0.903517
  outer loop
    vertex 4.142857142857154 0 0
    vertex 5.17857142857144 -1.620827610512785 0.7687848215844396
    vertex 6.214285714285732 0 0
  endloop
endfacet
facet normal 0 -0.431384 0.902168
  outer loop
    vertex 10.35714285714285 -8 0
    vertex 9.316918625991118 -6.416579758579688 0.7571338322093082
    vertex 8.285714285714267 -8 0
  endloop
endfacet
facet normal -0.0169327 -0.273615 0.96169
  outer loop
    vertex 7.250375530361895 -6.477347004139932 0.781901868613242
    vertex 6.552348475080047 -4.827428681405117 1.239037525688551
    vertex 5.178571428571412 -6.381087845785092 0.7728102495557545
  endloop
endfacet
facet normal -0.0245331 -0.443406 0.895985
  outer loop
    vertex 6.214285714285689 -8 0
    vertex 7.250375530361895 -6.477347004139932 0.781901868613242
    vertex 5.178571428571412 -6.381087845785092 0.7728102495557545
  endloop
endfacet
facet normal 0 -0.430797 0.902449
  outer loop
    vertex 6.214285714285689 -8 0
    vertex 5.178571428571412 -6.381087845785092 0.7728102495557545
    vertex 4.142857142857121 -8 0
  endloop
endfacet
facet normal 0 -0.33856 0.940945
  outer loop
    vertex 12.42857142857143 -8 0
    vertex 11.46494637884448 -6.164457668746024 0.6604449463067921
    vertex 10.35714285714285 -8 0
  endloop
endfacet
facet normal -0.0786271 -0.38805 0.918278
  outer loop
    vertex 5.178571428571412 -6.381087845785092 0.7728102495557545
    vertex 3.119121829023679 -6.274029463724024 0.6417121712044822
    vertex 4.142857142857121 -8 0
  endloop
endfacet
facet normal -0.185993 0.156603 0.969991
  outer loop
    vertex 3.053947339532823 -1.833370524603758 0.6634322141966889
    vertex 2.86461218483918 -3.976950485468134 0.973204657156972
    vertex 4.275895796549126 -2.985233037634248 1.083703149935396
  endloop
endfacet
facet normal -0.361245 0 0.932471
  outer loop
    vertex 0 -6.000000000000004 0
    vertex 1.468490229979289 -4.992826014077942 0.5689030801475278
    vertex 0 -4.000000000000004 0
  endloop
endfacet
facet normal 0.359849 0 0.93301
  outer loop
    vertex 14.5 -3.999999999999996 0
    vertex 13.04064834416345 -4.97362636325354 0.5628519771756346
    vertex 14.5 -5.999999999999998 0
  endloop
endfacet
facet normal 0.0863557 -0.383031 0.91969
  outer loop
    vertex 10.35714285714285 -8 0
    vertex 11.46494637884448 -6.164457668746024 0.6604449463067921
    vertex 9.316918625991118 -6.416579758579688 0.7571338322093082
  endloop
endfacet
facet normal 0.361027 -0.00202899 0.932553
  outer loop
    vertex 14.5 -3.999999999999996 0
    vertex 13.06750485548848 -3.054839184128109 0.5566295740032019
    vertex 13.04064834416345 -4.97362636325354 0.5628519771756346
  endloop
endfacet
facet normal -0.363189 -0.00331146 0.931709
  outer loop
    vertex 1.468490229979289 -4.992826014077942 0.5689030801475278
    vertex 1.42536971891493 -3.049824819156288 0.5590000525117506
    vertex 0 -4.000000000000004 0
  endloop
endfacet
facet normal -0.365105 0 0.930966
  outer loop
    vertex 0 -4.000000000000004 0
    vertex 1.42536971891493 -3.049824819156288 0.5590000525117506
    vertex 0 -2.000000000000002 0
  endloop
endfacet
facet normal 0.362191 0 0.932104
  outer loop
    vertex 14.5 -1.999999999999996 0
    vertex 13.06750485548848 -3.054839184128109 0.5566295740032019
    vertex 14.5 -3.999999999999996 0
  endloop
endfacet
facet normal -0.198516 0 0.980098
  outer loop
    vertex 0 -8 0
    vertex 1.330343471642315 -6.653160313873594 0.2694575191645935
    vertex 0 -6.000000000000004 0
  endloop
endfacet
facet normal 0.00318961 0.265491 0.964108
  outer loop
    vertex 7.248745700545459 -1.531077472211054 0.7800207622205347
    vertex 6.037841902407981 -3.056276976940095 1.204027889710919
    vertex 8.00091517867105 -3.204802381887623 1.23843345631119
  endloop
endfacet
facet normal 0.000753171 -0.266711 0.963776
  outer loop
    vertex 7.250375530361895 -6.477347004139932 0.781901868613242
    vertex 8.474302826815599 -4.958545660627386 1.201250899697878
    vertex 6.552348475080047 -4.827428681405117 1.239037525688551
  endloop
endfacet
facet normal 0 -0.20948 0.977813
  outer loop
    vertex 14.5 -8 0
    vertex 13.04293985116216 -6.551692660756574 0.3102747910472731
    vertex 12.42857142857143 -8 0
  endloop
endfacet
facet normal -0 0.209896 0.977724
  outer loop
    vertex 0 0 0
    vertex 1.454716779105951 -1.446301525487375 0.3104892845591144
    vertex 2.071428571428575 0 0
  endloop
endfacet
facet normal -0 0.208582 0.978005
  outer loop
    vertex 12.42857142857144 0 0
    vertex 13.0452556537574 -1.446207984426784 0.3084377049710746
    vertex 14.5 0 0
  endloop
endfacet
facet normal 0.208276 0 0.97807
  outer loop
    vertex 14.5 -5.999999999999998 0
    vertex 13.04293985116216 -6.551692660756574 0.3102747910472731
    vertex 14.5 -8 0
  endloop
endfacet
facet normal -0.208735 0 0.977972
  outer loop
    vertex 0 -2.000000000000002 0
    vertex 1.454716779105951 -1.446301525487375 0.3104892845591144
    vertex 0 0 0
  endloop
endfacet
facet normal 0.207411 0 0.978254
  outer loop
    vertex 14.5 0 0
    vertex 13.0452556537574 -1.446207984426784 0.3084377049710746
    vertex 14.5 -1.999999999999996 0
  endloop
endfacet
facet normal 0 -0.196179 0.980568
  outer loop
    vertex 2.071428571428562 -8 0
    vertex 1.330343471642315 -6.653160313873594 0.2694575191645935
    vertex 0 -8 0
  endloop
endfacet
facet normal -0.017373 0.280583 0.959673
  outer loop
    vertex 5.17857142857144 -1.620827610512785 0.7687848215844396
    vertex 6.037841902407981 -3.056276976940095 1.204027889710919
    vertex 7.248745700545459 -1.531077472211054 0.7800207622205347
  endloop
endfacet
facet normal 0.0197591 -0.280859 0.959546
  outer loop
    vertex 9.316918625991118 -6.416579758579688 0.7571338322093082
    vertex 8.474302826815599 -4.958545660627386 1.201250899697878
    vertex 7.250375530361895 -6.477347004139932 0.781901868613242
  endloop
endfacet
facet normal -0.0553968 0.259204 0.964232
  outer loop
    vertex 5.17857142857144 -1.620827610512785 0.7687848215844396
    vertex 4.275895796549126 -2.985233037634248 1.083703149935396
    vertex 6.037841902407981 -3.056276976940095 1.204027889710919
  endloop
endfacet
facet normal -0.0746906 0.270923 0.959699
  outer loop
    vertex 3.053947339532823 -1.833370524603758 0.6634322141966889
    vertex 4.275895796549126 -2.985233037634248 1.083703149935396
    vertex 5.17857142857144 -1.620827610512785 0.7687848215844396
  endloop
endfacet
facet normal 0.146132 -0.26611 0.952802
  outer loop
    vertex 12.42857142857143 -8 0
    vertex 13.04293985116216 -6.551692660756574 0.3102747910472731
    vertex 11.46494637884448 -6.164457668746024 0.6604449463067921
  endloop
endfacet
facet normal -0.266306 -0.149576 0.952212
  outer loop
    vertex 0 -6.000000000000004 0
    vertex 1.330343471642315 -6.653160313873594 0.2694575191645935
    vertex 1.468490229979289 -4.992826014077942 0.5689030801475278
  endloop
endfacet
facet normal 0.0580719 -0.260029 0.963853
  outer loop
    vertex 9.316918625991118 -6.416579758579688 0.7571338322093082
    vertex 10.22836816282568 -5.019653990492397 1.079083019804583
    vertex 8.474302826815599 -4.958545660627386 1.201250899697878
  endloop
endfacet
facet normal 0.074912 -0.270108 0.959911
  outer loop
    vertex 11.46494637884448 -6.164457668746024 0.6604449463067921
    vertex 10.22836816282568 -5.019653990492397 1.079083019804583
    vertex 9.316918625991118 -6.416579758579688 0.7571338322093082
  endloop
endfacet
facet normal 0.14485 0.265077 0.953285
  outer loop
    vertex 11.38139448849736 -1.89663582081401 0.6865076231181921
    vertex 13.0452556537574 -1.446207984426784 0.3084377049710746
    vertex 12.42857142857144 0 0
  endloop
endfacet
facet normal -0.145718 0.266661 0.952711
  outer loop
    vertex 2.071428571428575 0 0
    vertex 1.454716779105951 -1.446301525487375 0.3104892845591144
    vertex 3.053947339532823 -1.833370524603758 0.6634322141966889
  endloop
endfacet
facet normal 0.177542 -0.155281 0.971785
  outer loop
    vertex 11.46494637884448 -6.164457668746024 0.6604449463067921
    vertex 13.04293985116216 -6.551692660756574 0.3102747910472731
    vertex 13.04064834416345 -4.97362636325354 0.5628519771756346
  endloop
endfacet
facet normal -0.168166 -0.161393 0.972457
  outer loop
    vertex 1.468490229979289 -4.992826014077942 0.5689030801475278
    vertex 1.330343471642315 -6.653160313873594 0.2694575191645935
    vertex 3.119121829023679 -6.274029463724024 0.6417121712044822
  endloop
endfacet
facet normal -0.1414 -0.26844 0.952862
  outer loop
    vertex 3.119121829023679 -6.274029463724024 0.6417121712044822
    vertex 1.330343471642315 -6.653160313873594 0.2694575191645935
    vertex 2.071428571428562 -8 0
  endloop
endfacet
facet normal 0.179567 0.15243 0.971865
  outer loop
    vertex 13.06750485548848 -3.054839184128109 0.5566295740032019
    vertex 13.0452556537574 -1.446207984426784 0.3084377049710746
    vertex 11.38139448849736 -1.89663582081401 0.6865076231181921
  endloop
endfacet
facet normal -0.177281 0.153891 0.972054
  outer loop
    vertex 3.053947339532823 -1.833370524603758 0.6634322141966889
    vertex 1.454716779105951 -1.446301525487375 0.3104892845591144
    vertex 1.42536971891493 -3.049824819156288 0.5590000525117506
  endloop
endfacet
facet normal 0.260646 -0.152211 0.95336
  outer loop
    vertex 13.04064834416345 -4.97362636325354 0.5628519771756346
    vertex 13.04293985116216 -6.551692660756574 0.3102747910472731
    vertex 14.5 -5.999999999999998 0
  endloop
endfacet
facet normal -0.261466 0.152493 0.95309
  outer loop
    vertex 1.42536971891493 -3.049824819156288 0.5590000525117506
    vertex 1.454716779105951 -1.446301525487375 0.3104892845591144
    vertex 0 -2.000000000000002 0
  endloop
endfacet
facet normal 0.259632 0.150761 0.953867
  outer loop
    vertex 14.5 -1.999999999999996 0
    vertex 13.0452556537574 -1.446207984426784 0.3084377049710746
    vertex 13.06750485548848 -3.054839184128109 0.5566295740032019
  endloop
endfacet
facet normal -0.277316 -0.00125753 0.960778
  outer loop
    vertex 1.468490229979289 -4.992826014077942 0.5689030801475278
    vertex 2.86461218483918 -3.976950485468134 0.973204657156972
    vertex 1.42536971891493 -3.049824819156288 0.5590000525117506
  endloop
endfacet
facet normal 0.272554 -0.000694723 0.96214
  outer loop
    vertex 13.06750485548848 -3.054839184128109 0.5566295740032019
    vertex 11.59645340153494 -4.056277193412815 0.9726243509132005
    vertex 13.04064834416345 -4.97362636325354 0.5628519771756346
  endloop
endfacet
facet normal 0.100536 -0.0328846 0.99439
  outer loop
    vertex 10.22836816282568 -5.019653990492397 1.079083019804583
    vertex 11.59645340153494 -4.056277193412815 0.9726243509132005
    vertex 9.86412201757177 -3.41265110193498 1.169053305631503
  endloop
endfacet
facet normal -0.101844 0.0341542 0.994214
  outer loop
    vertex 4.275895796549126 -2.985233037634248 1.083703149935396
    vertex 2.86461218483918 -3.976950485468134 0.973204657156972
    vertex 4.647179793970408 -4.59251637766502 1.176951080709497
  endloop
endfacet
endsolid Created by Gmsh
