DBRep_DrawableShape

CASCADE Topology V1, (c) Matra-Datavision
Locations 1
1
              1               0               0               0 
              0               1               0               0 
              0               0               1               0 
Curve2ds 14
1 0 100 1 0 
2 0 0 1 0 -0 1 10
1 6.2831853071795862 -0 0 1 
1 0 -0 0 1 
1 0 0 1 0 
2 0 0 1 0 -0 1 10
1 0 100 1 0 
2 0 0 1 0 -0 1 8.5
2 0 0 1 0 -0 1 8.5
1 0 0 1 0 
2 0 0 1 0 -0 1 8.5
2 0 0 1 0 -0 1 8.5
1 6.2831853071795862 -0 0 1 
1 0 -0 0 1 
Curves 6
2 0 0 100 0 0 1 1 0 -0 -0 1 0 10
1 10 -2.4492935982947065e-15 0 0 0 1 
2 0 0 0 0 0 1 1 0 -0 -0 1 0 10
2 0 0 100 0 0 1 1 0 -0 -0 1 0 8.5
2 0 0 0 0 0 1 1 0 -0 -0 1 0 8.5
1 8.5 -2.0818995585505003e-15 0 0 0 1 
Polygon3D 0
PolygonOnTriangulations 0
Surfaces 6
2 0 0 0 0 0 1 1 0 -0 -0 1 0 10
1 0 0 100 0 0 1 1 0 -0 -0 1 0 
1 0 0 0 0 0 1 1 0 -0 -0 1 0 
2 0 0 0 0 0 1 1 0 -0 -0 1 0 8.5
1 0 0 100 0 0 1 1 0 -0 -0 1 0 
1 0 0 0 0 0 1 1 0 -0 -0 1 0 
Triangulations 0

TShapes 24
Ve
1e-07
10 -2.44929359829471e-15 100
0 0

0101101
*
Ed
 1e-07 1 1 0
1  1 0 0 6.28318530717959
2  1 1 0 0 6.28318530717959
2  2 2 0 0 6.28318530717959
0

0101000
+24 0 -24 0 *
Ve
1e-07
10 -2.44929359829471e-15 0
0 0

0101101
*
Ed
 1e-07 1 1 0
1  2 0 0 100
3  3 4CN 1 0 0 100
0

0101000
-24 0 +22 0 *
Ed
 1e-07 1 1 0
1  3 0 0 6.28318530717959
2  5 1 0 0 6.28318530717959
2  6 3 0 0 6.28318530717959
0

0101000
+22 0 -22 0 *
Wi

0101100
-23 0 +21 0 +20 0 -21 0 *
Fa
0  1e-07 1 0

0101000
+19 0 *
Wi

0101100
+23 0 *
Ve
1e-07
8.5 -2.0818995585505e-15 100
0 0

0101101
*
Ed
 1e-07 1 1 0
1  4 0 0 6.28318530717959
2  7 4 0 0 6.28318530717959
2  8 5 0 0 6.28318530717959
2  9 2 0 0 6.28318530717959
0

0101000
+16 0 -16 0 *
Wi

0101100
-15 0 *
Fa
0  1e-07 2 0

0101000
+17 0 +14 0 *
Wi

0101100
+20 0 *
Ve
1e-07
8.5 -2.0818995585505e-15 0
0 0

0101101
*
Ed
 1e-07 1 1 0
1  5 0 0 6.28318530717959
2  10 4 0 0 6.28318530717959
2  11 6 0 0 6.28318530717959
2  12 3 0 0 6.28318530717959
0

0101000
+11 0 -11 0 *
Wi

0101100
-10 0 *
Fa
0  1e-07 3 0

0101000
+12 0 +9 0 *
Ed
 1e-07 1 1 0
1  6 0 0 100
3  13 14CN 4 0 0 100
0

0101000
-16 0 +11 0 *
Wi

0101100
-15 0 +7 0 +10 0 -7 0 *
Fa
0  1e-07 4 0

0101000
+6 0 *
Sh

0101100
+18 0 +13 0 -8 0 -5 0 *
So

0100000
+4 0 *
Co

0100000
+3 0 *
Co

1100000
+2 1 *

+1 0 