DBRep_DrawableShape

CASCADE Topology V1, (c) Matra-Datavision
Locations 5
1
              1               0               0               0 
              0               1               0               0 
              0               0               1               0 
1
              1               0               0               0 
              0               1               0               0 
              0               0               1               0 
1
              1               0               0               0 
              0 2.22044604925031e-16              -1               0 
              0               1 2.22044604925031e-16               0 
2  2 1 3 1 0
2  3 -1 2 -1 0
Curve2ds 4
1 0 0 1 0 
1 0 60 1 0 
1 6.2831853071795862 0 0 1 
1 0 0 0 1 
Curves 3
2 0 0 60 0 0 1 1 1.0248212535001444e-15 -0 -1.0248212535001444e-15 1 0 13
2 0 0 0 0 0 1 1 0 -0 -0 1 0 13
1 13 60 0 0 -1 0 
Polygon3D 0
PolygonOnTriangulations 4
43 1 2 3 4 5 6 7 8 9 10 11 12 13 14 15 16 17 18 19 20 21 22 23 24 25 26 27 28 29 30 31 32 33 34 35 36 37 38 39 40 41 42 43 
p 0.0746666677792867 1 0 0.149599650170943 0.299199300341885 0.448798950512828 0.59839860068377 0.747998250854713 0.897597901025655 1.0471975511966 1.19679720136754 1.34639685153848 1.49599650170943 1.64559615188037 1.79519580205131 1.94479545222225 2.0943951023932 2.24399475256414 2.39359440273508 2.54319405290602 2.69279370307697 2.84239335324791 2.99199300341885 3.14159265358979 3.29119230376074 3.44079195393168 3.59039160410262 3.73999125427356 3.88959090444451 4.03919055461545 4.18879020478639 4.33838985495733 4.48798950512828 4.63758915529922 4.78718880547016 4.9367884556411 5.08638810581205 5.23598775598299 5.38558740615393 5.53518705632487 5.68478670649581 5.83438635666676 5.9839860068377 6.13358565700864 6.28318530717959 
43 45 46 47 48 49 50 51 52 53 54 55 56 57 58 59 60 61 62 63 64 65 66 67 68 69 70 71 72 73 74 75 76 77 78 79 80 81 82 83 84 85 86 44 
p 0.0746666677792867 1 0 0.149599650170943 0.299199300341885 0.448798950512828 0.59839860068377 0.747998250854713 0.897597901025655 1.0471975511966 1.19679720136754 1.34639685153848 1.49599650170943 1.64559615188037 1.79519580205131 1.94479545222225 2.0943951023932 2.24399475256414 2.39359440273508 2.54319405290602 2.69279370307697 2.84239335324791 2.99199300341885 3.14159265358979 3.29119230376074 3.44079195393168 3.59039160410262 3.73999125427356 3.88959090444451 4.03919055461545 4.18879020478639 4.33838985495733 4.48798950512828 4.63758915529922 4.78718880547016 4.9367884556411 5.08638810581205 5.23598775598299 5.38558740615393 5.53518705632487 5.68478670649581 5.83438635666676 5.9839860068377 6.13358565700864 6.28318530717959 
2 43 44 
p 0.0746666677792867 1 0 60 
2 1 45 
p 0.0746666677792867 1 0 60 
Surfaces 1
2 0 0 60 -0 -0 -1 1 1.0248212535001444e-15 -0 -1.0248212535001444e-15 1 -0 13
Triangulations 1
86 84 1 0.0746666677792867
13 1.33226762955019e-14 60 12.8548007409267 1.93754946029028 60 12.4224464752198 3.83181726734177 60 11.7125952827314 5.64048860852827 60 10.7411040661079 7.3231607548271 60 9.52967433378773 8.84224559102196 60 8.10536742416352 10.1638092720844 60 6.49999999999999 11.2583302491977 60 4.74943331676312 12.1013587323747 60 2.89277214143207 12.6740628583637 60 0.971491216623504 12.9636493633553 60 -0.971491216623526 12.9636493633553 60 -2.8927721414321 12.6740628583637 60 -4.74943331676314 12.1013587323747 60 -6.50000000000001 11.2583302491977 60 -8.10536742416355 10.1638092720844 60 -9.52967433378775 8.84224559102194 60 -10.7411040661079 7.32316075482707 60 -11.7125952827315 5.64048860852824 60 -12.4224464752198 3.83181726734174 60 -12.8548007409267 1.93754946029025 60 -13 -2.32769549127119e-14 60 -12.8548007409267 -1.93754946029029 60 -12.4224464752198 -3.83181726734178 60 -11.7125952827314 -5.64048860852828 60 -10.7411040661079 -7.32316075482711 60 -9.52967433378772 -8.84224559102197 60 -8.10536742416351 -10.1638092720844 60 -6.49999999999997 -11.2583302491977 60 -4.74943331676311 -12.1013587323747 60 -2.89277214143207 -12.6740628583637 60 -0.971491216623497 -12.9636493633553 60 0.97149121662353 -12.9636493633553 60 2.8927721414321 -12.6740628583637 60 4.74943331676314 -12.1013587323747 60 6.5 -11.2583302491977 60 8.10536742416354 -10.1638092720844 60 9.52967433378774 -8.84224559102196 60 10.7411040661079 -7.32316075482709 60 11.7125952827314 -5.64048860852827 60 12.4224464752198 -3.83181726734177 60 12.8548007409267 -1.93754946029029 60 13 1.33226762955019e-14 60 13 0 0 13 0 0 12.8548007409267 1.93754946029027 0 12.4224464752198 3.83181726734175 0 11.7125952827314 5.64048860852826 0 10.7411040661079 7.32316075482709 0 9.52967433378774 8.84224559102195 0 8.10536742416354 10.1638092720844 0 6.5 11.2583302491977 0 4.74943331676313 12.1013587323747 0 2.89277214143209 12.6740628583637 0 0.971491216623517 12.9636493633553 0 -0.971491216623513 12.9636493633553 0 -2.89277214143208 12.6740628583637 0 -4.74943331676313 12.1013587323747 0 -6.5 11.2583302491977 0 -8.10536742416354 10.1638092720844 0 -9.52967433378774 8.84224559102195 0 -10.7411040661079 7.32316075482708 0 -11.7125952827315 5.64048860852825 0 -12.4224464752198 3.83181726734175 0 -12.8548007409267 1.93754946029026 0 -13 -9.95427861721007e-15 0 -12.8548007409267 -1.93754946029028 0 -12.4224464752198 -3.83181726734177 0 -11.7125952827314 -5.64048860852827 0 -10.7411040661079 -7.3231607548271 0 -9.52967433378773 -8.84224559102197 0 -8.10536742416352 -10.1638092720844 0 -6.49999999999998 -11.2583302491977 0 -4.74943331676312 -12.1013587323747 0 -2.89277214143208 -12.6740628583637 0 -0.97149121662351 -12.9636493633553 0 0.971491216623517 -12.9636493633553 0 2.89277214143209 -12.6740628583637 0 4.74943331676313 -12.1013587323747 0 6.49999999999999 -11.2583302491977 0 8.10536742416352 -10.1638092720844 0 9.52967433378773 -8.84224559102196 0 10.7411040661079 -7.3231607548271 0 11.7125952827314 -5.64048860852828 0 12.4224464752198 -3.83181726734178 0 12.8548007409267 -1.9375494602903 0 0 0 0.149599650170943 0 0.299199300341885 0 0.448798950512828 0 0.59839860068377 0 0.747998250854713 0 0.897597901025655 0 1.0471975511966 0 1.19679720136754 0 1.34639685153848 0 1.49599650170943 0 1.64559615188037 0 1.79519580205131 0 1.94479545222225 0 2.0943951023932 0 2.24399475256414 0 2.39359440273508 0 2.54319405290602 0 2.69279370307697 0 2.84239335324791 0 2.99199300341885 0 3.14159265358979 0 3.29119230376074 0 3.44079195393168 0 3.59039160410262 0 3.73999125427356 0 3.88959090444451 0 4.03919055461545 0 4.18879020478639 0 4.33838985495733 0 4.48798950512828 0 4.63758915529922 0 4.78718880547016 0 4.9367884556411 0 5.08638810581205 0 5.23598775598299 0 5.38558740615393 0 5.53518705632487 0 5.68478670649581 0 5.83438635666676 0 5.9839860068377 0 6.13358565700864 0 6.28318530717959 0 6.28318530717959 60 0 60 0.149599650170943 60 0.299199300341885 60 0.448798950512828 60 0.59839860068377 60 0.747998250854713 60 0.897597901025655 60 1.0471975511966 60 1.19679720136754 60 1.34639685153848 60 1.49599650170943 60 1.64559615188037 60 1.79519580205131 60 1.94479545222225 60 2.0943951023932 60 2.24399475256414 60 2.39359440273508 60 2.54319405290602 60 2.69279370307697 60 2.84239335324791 60 2.99199300341885 60 3.14159265358979 60 3.29119230376074 60 3.44079195393168 60 3.59039160410262 60 3.73999125427356 60 3.88959090444451 60 4.03919055461545 60 4.18879020478639 60 4.33838985495733 60 4.48798950512828 60 4.63758915529922 60 4.78718880547016 60 4.9367884556411 60 5.08638810581205 60 5.23598775598299 60 5.38558740615393 60 5.53518705632487 60 5.68478670649581 60 5.83438635666676 60 5.9839860068377 60 6.13358565700864 60 46 1 2 46 2 3 46 45 1 47 46 3 48 3 4 48 47 3 48 4 5 49 5 6 49 48 5 50 49 6 51 6 7 51 50 6 52 7 8 52 51 7 53 8 9 53 52 8 54 9 10 54 53 9 55 10 11 55 54 10 56 11 12 56 55 11 57 12 13 57 13 14 57 56 12 58 57 14 59 14 15 59 58 14 60 15 16 60 16 17 60 59 15 61 60 17 62 17 18 62 61 17 63 18 19 63 62 18 64 19 20 64 63 19 65 20 21 65 21 22 65 64 20 66 65 22 67 22 23 67 66 22 68 23 24 68 67 23 69 24 25 69 25 26 69 68 24 70 69 26 71 26 27 71 27 28 71 70 26 72 71 28 73 72 28 73 28 29 73 29 30 74 73 30 75 74 30 75 30 31 76 75 31 76 31 32 77 76 32 77 32 33 77 33 34 78 77 34 79 78 34 79 34 35 79 35 36 80 79 36 81 80 36 81 36 37 81 37 38 82 81 38 83 38 39 83 82 38 84 39 40 84 40 41 84 83 39 85 84 41 86 41 42 86 42 43 86 85 41 44 86 43 

TShapes 9
Ve
1e-07
13 60 0
0 0

0101101
*
Ed
 1e-07 1 1 0
1  1 0 0 6.28318530717959
2  1 1 0 0 6.28318530717959
6  1 1 0
0

0101000
+9 4 -9 4 *
Ve
1e-07
13 0 0
0 0

0101101
*
Ed
 1e-07 1 1 0
1  2 0 0 6.28318530717959
2  2 1 0 0 6.28318530717959
6  2 1 0
0

0101000
+7 4 -7 4 *
Ed
 1e-07 1 1 0
1  3 0 0 60
3  3 4CN 1 5 0 60
7  3 4 1 5
0

0101000
+9 0 -7 0 *
Wi

0101100
+8 0 -6 0 -5 4 +5 4 *
Fa
0  1e-07 1 0
2  1
0111000
+4 0 *
Sh

0101000
+3 0 *
Co

1100000
-2 1 *

+1 0 