DBRep_DrawableShape

CASCADE Topology V1, (c) Matra-Datavision
Locations 5
1
              1               0               0               0 
              0               1               0               0 
              0               0               1               0 
1
              1               0               0               0 
              0               1               0               0 
              0               0               1               0 
1
              1               0               0               0 
              0 2.22044604925031e-16              -1               0 
              0               1 2.22044604925031e-16               0 
2  2 1 3 1 0
2  3 -1 2 -1 0
Curve2ds 4
1 0 0 1 0 
1 0 60 1 0 
1 6.2831853071795862 0 0 1 
1 0 0 0 1 
Curves 3
2 0 0 60 0 0 1 1 1.1584935909132068e-15 -0 -1.1584935909132068e-15 1 0 11.5
2 0 0 0 0 0 1 1 0 -0 -0 1 0 11.5
1 11.5 60 0 0 -1 0 
Polygon3D 0
PolygonOnTriangulations 4
42 1 2 3 4 5 6 7 8 9 10 11 12 13 14 15 16 17 18 19 20 21 22 23 24 25 26 27 28 29 30 31 32 33 34 35 36 37 38 39 40 41 42 
p 0.0706666677196821 1 0 0.153248422126331 0.306496844252663 0.459745266378994 0.612993688505326 0.766242110631657 0.919490532757988 1.07273895488432 1.22598737701065 1.37923579913698 1.53248422126331 1.68573264338964 1.83898106551598 1.99222948764231 2.14547790976864 2.29872633189497 2.4519747540213 2.60522317614763 2.75847159827396 2.9117200204003 3.06496844252663 3.21821686465296 3.37146528677929 3.52471370890562 3.67796213103195 3.83121055315828 3.98445897528461 4.13770739741095 4.29095581953728 4.44420424166361 4.59745266378994 4.75070108591627 4.9039495080426 5.05719793016894 5.21044635229527 5.3636947744216 5.51694319654793 5.67019161867426 5.82344004080059 5.97668846292693 6.12993688505326 6.28318530717959 
42 44 45 46 47 48 49 50 51 52 53 54 55 56 57 58 59 60 61 62 63 64 65 66 67 68 69 70 71 72 73 74 75 76 77 78 79 80 81 82 83 84 43 
p 0.0706666677196821 1 0 0.153248422126331 0.306496844252663 0.459745266378994 0.612993688505326 0.766242110631657 0.919490532757988 1.07273895488432 1.22598737701065 1.37923579913698 1.53248422126331 1.68573264338964 1.83898106551598 1.99222948764231 2.14547790976864 2.29872633189497 2.4519747540213 2.60522317614763 2.75847159827396 2.9117200204003 3.06496844252663 3.21821686465296 3.37146528677929 3.52471370890562 3.67796213103195 3.83121055315828 3.98445897528461 4.13770739741095 4.29095581953728 4.44420424166361 4.59745266378994 4.75070108591627 4.9039495080426 5.05719793016894 5.21044635229527 5.3636947744216 5.51694319654793 5.67019161867426 5.82344004080059 5.97668846292693 6.12993688505326 6.28318530717959 
2 42 43 
p 0.0706666677196821 1 0 60 
2 1 44 
p 0.0706666677196821 1 0 60 
Surfaces 1
2 0 0 60 -0 -0 -1 1 1.1584935909132068e-15 -0 -1.1584935909132068e-15 1 -0 11.5
Triangulations 1
84 82 1 0.0706666677196821
11.5 1.33226762955019e-14 60 11.365224873474 1.75546676851707 60 10.9640585086317 3.46978688384473 60 10.3059039050521 5.10277813547005 60 9.40618764881725 6.61616459251415 60 8.28599832640904 7.97447375911079 60 6.97159222611633 9.14586801964441 60 5.49377791289101 10.1028908854758 60 3.88719410169777 10.823110551765 60 2.18949775539367 11.2896456799638 60 0.440481437435395 11.4915610820843 60 -1.31885939208162 11.4241240322363 60 -3.04728727526162 11.0889151977111 60 -4.70428932747042 10.4937915894803 60 -6.25102682501405 9.65270240051742 60 -7.65124555190401 8.58536204853757 60 -8.87212556795235 7.31678808675543 60 -9.88505048035281 5.87671481364177 60 -10.6662781876741 4.29889632616884 60 -11.1974973745945 2.62031535238608 60 -11.466256713613 0.8803164076197 60 -11.466256713613 -0.880316407619699 60 -11.1974973745945 -2.62031535238608 60 -10.6662781876741 -4.29889632616884 60 -9.88505048035281 -5.87671481364177 60 -8.87212556795235 -7.31678808675543 60 -7.65124555190401 -8.58536204853757 60 -6.25102682501405 -9.65270240051742 60 -4.70428932747041 -10.4937915894803 60 -3.04728727526161 -11.0889151977111 60 -1.3188593920816 -11.4241240322363 60 0.440481437435419 -11.4915610820843 60 2.1894977553937 -11.2896456799638 60 3.8871941016978 -10.823110551765 60 5.49377791289105 -10.1028908854758 60 6.97159222611636 -9.14586801964439 60 8.28599832640907 -7.97447375911076 60 9.40618764881727 -6.61616459251411 60 10.3059039050522 -5.10277813547 60 10.9640585086317 -3.46978688384467 60 11.365224873474 -1.75546676851701 60 11.5 1.33226762955019e-14 60 11.5 0 0 11.5 0 0 11.365224873474 1.75546676851706 0 10.9640585086317 3.46978688384471 0 10.3059039050521 5.10277813547004 0 9.40618764881725 6.61616459251414 0 8.28599832640905 7.97447375911078 0 6.97159222611634 9.14586801964441 0 5.49377791289102 10.1028908854758 0 3.88719410169778 10.823110551765 0 2.18949775539369 11.2896456799638 0 0.440481437435408 11.4915610820843 0 -1.3188593920816 11.4241240322363 0 -3.04728727526161 11.0889151977111 0 -4.7042893274704 10.4937915894803 0 -6.25102682501404 9.65270240051743 0 -7.651245551904 8.58536204853758 0 -8.87212556795234 7.31678808675545 0 -9.88505048035281 5.87671481364178 0 -10.6662781876741 4.29889632616885 0 -11.1974973745945 2.62031535238609 0 -11.466256713613 0.880316407619714 0 -11.466256713613 -0.880316407619685 0 -11.1974973745945 -2.62031535238607 0 -10.6662781876741 -4.29889632616883 0 -9.88505048035282 -5.87671481364175 0 -8.87212556795236 -7.31678808675542 0 -7.65124555190402 -8.58536204853756 0 -6.25102682501406 -9.65270240051742 0 -4.70428932747042 -10.4937915894803 0 -3.04728727526162 -11.0889151977111 0 -1.31885939208161 -11.4241240322363 0 0.440481437435405 -11.4915610820843 0 2.18949775539369 -11.2896456799638 0 3.88719410169779 -10.823110551765 0 5.49377791289103 -10.1028908854758 0 6.97159222611635 -9.14586801964439 0 8.28599832640906 -7.97447375911077 0 9.40618764881727 -6.61616459251412 0 10.3059039050522 -5.10277813547001 0 10.9640585086317 -3.46978688384468 0 11.365224873474 -1.75546676851702 0 0 0 0.153248422126331 0 0.306496844252663 0 0.459745266378994 0 0.612993688505326 0 0.766242110631657 0 0.919490532757988 0 1.07273895488432 0 1.22598737701065 0 1.37923579913698 0 1.53248422126331 0 1.68573264338964 0 1.83898106551598 0 1.99222948764231 0 2.14547790976864 0 2.29872633189497 0 2.4519747540213 0 2.60522317614763 0 2.75847159827396 0 2.9117200204003 0 3.06496844252663 0 3.21821686465296 0 3.37146528677929 0 3.52471370890562 0 3.67796213103195 0 3.83121055315828 0 3.98445897528461 0 4.13770739741095 0 4.29095581953728 0 4.44420424166361 0 4.59745266378994 0 4.75070108591627 0 4.9039495080426 0 5.05719793016894 0 5.21044635229527 0 5.3636947744216 0 5.51694319654793 0 5.67019161867426 0 5.82344004080059 0 5.97668846292693 0 6.12993688505326 0 6.28318530717959 0 6.28318530717959 60 0 60 0.153248422126331 60 0.306496844252663 60 0.459745266378994 60 0.612993688505326 60 0.766242110631657 60 0.919490532757988 60 1.07273895488432 60 1.22598737701065 60 1.37923579913698 60 1.53248422126331 60 1.68573264338964 60 1.83898106551598 60 1.99222948764231 60 2.14547790976864 60 2.29872633189497 60 2.4519747540213 60 2.60522317614763 60 2.75847159827396 60 2.9117200204003 60 3.06496844252663 60 3.21821686465296 60 3.37146528677929 60 3.52471370890562 60 3.67796213103195 60 3.83121055315828 60 3.98445897528461 60 4.13770739741095 60 4.29095581953728 60 4.44420424166361 60 4.59745266378994 60 4.75070108591627 60 4.9039495080426 60 5.05719793016894 60 5.21044635229527 60 5.3636947744216 60 5.51694319654793 60 5.67019161867426 60 5.82344004080059 60 5.97668846292693 60 6.12993688505326 60 45 1 2 45 44 1 46 2 3 46 45 2 47 3 4 47 46 3 48 4 5 48 47 4 48 5 6 49 48 6 50 6 7 50 49 6 51 7 8 51 8 9 51 50 7 52 51 9 53 9 10 53 52 9 54 10 11 54 53 10 55 11 12 55 54 11 56 12 13 56 13 14 56 55 12 57 56 14 58 14 15 58 57 14 59 15 16 59 16 17 59 58 15 60 59 17 61 17 18 61 60 17 62 18 19 62 61 18 63 19 20 63 20 21 63 62 19 64 63 21 65 21 22 65 64 21 66 22 23 66 65 22 67 23 24 67 66 23 68 24 25 68 25 26 68 67 24 69 68 26 70 26 27 70 27 28 70 69 26 71 70 28 72 28 29 72 71 28 73 72 29 73 29 30 73 30 31 74 73 31 75 74 31 75 31 32 75 32 33 76 75 33 76 33 34 77 76 34 78 77 34 78 34 35 78 35 36 79 78 36 80 79 36 80 36 37 81 80 37 81 37 38 81 38 39 82 81 39 83 39 40 83 82 39 84 40 41 84 83 40 43 41 42 43 84 41 

TShapes 9
Ve
1e-07
11.5 60 0
0 0

0101101
*
Ed
 1e-07 1 1 0
1  1 0 0 6.28318530717959
2  1 1 0 0 6.28318530717959
6  1 1 0
0

0101000
+9 4 -9 4 *
Ve
1e-07
11.5 0 0
0 0

0101101
*
Ed
 1e-07 1 1 0
1  2 0 0 6.28318530717959
2  2 1 0 0 6.28318530717959
6  2 1 0
0

0101000
+7 4 -7 4 *
Ed
 1e-07 1 1 0
1  3 0 0 60
3  3 4CN 1 5 0 60
7  3 4 1 5
0

0101000
+9 0 -7 0 *
Wi

0101100
+8 0 -6 0 -5 4 +5 4 *
Fa
0  1e-07 1 0
2  1
0101000
+4 0 *
Sh

0101000
+3 0 *
Co

1100000
+2 1 *

+1 0 