DBRep_DrawableShape

CASCADE Topology V1, (c) Matra-Datavision
Locations 5
1
              1               0               0               0 
              0               1               0               0 
              0               0               1               0 
1
              1               0               0               0 
              0               1               0               0 
              0               0               1               0 
1
              1               0               0               0 
              0 2.22044604925031e-16              -1               0 
              0               1 2.22044604925031e-16               0 
2  2 1 3 1 0
2  3 -1 2 -1 0
Curve2ds 28
1 0 5.3233833357216254 1 0 
1 0 7.6851398213735775 1 0 
1 0 6.2831853071795871 1 0 
1 6.2831853071795862 0 0 1 
1 0 0 0 1 
1 0 0 1 0 
1 1.7701922077211229e-16 2.1817906821318327 1 0 
1 6.2831853071795862 0 0 1 
1 0 0 0 1 
1 1.7701922077211229e-16 3.1415926535897931 1 0 
1 0 0 1 0 
1 6.2831853071795862 4.4408920985006262e-16 0 1 
1 1.7701922077211229e-16 4.4408920985006262e-16 0 1 
1 0 26.434494926826083 1 0 
1 2.4042990804334936e-16 3.1415926535897931 1 0 
1 6.2831853071795862 0 0 1 
1 0 0 0 1 
1 2.4042990804334936e-16 4.1262123535550081 1 0 
1 0 0 1 0 
1 6.2831853071795862 -4.4408920985006262e-16 0 1 
1 2.4042990804334936e-16 -4.4408920985006262e-16 0 1 
1 0 6.921335251819178 1 0 
1 0 0.98461969996521503 1 0 
1 6.2831853071795862 0 0 1 
1 0 0 0 1 
1 0 5.4022456450016185e-16 1 0 
1 6.2831853071795862 -8.5977543549983822e-16 0 1 
1 0 -8.5977543549983822e-16 0 1 
Curves 15
2 0 0 79.402814042193555 0 0 1 1 1.0282027060534008e-15 -0 -1.0282027060534008e-15 1 0 17.147364396275876
2 0 0 81.040970000018845 0 0 1 1 9.9970612035530545e-16 -0 -9.9970612035530545e-16 1 0 18
2 16 81.040970000018845 0 0 0 1 1 0 0 0 1 0 2
2 0 0 74.993986136470554 0 0 1 1 1.5343747483525272e-15 -0 -1.5343747483525272e-15 1 0 10.852635603724124
1 10.852635603724124 74.993986136470554 0 0.81907797891264456 0.57368219813793897 0 
2 0 0 73.355830178645263 0 0 1 1 1.6288266330964977e-15 -0 -1.6288266330964977e-15 1 0 10
2 12 73.355830178645263 0 0 0 1 1 0 0 0 1 0 2
2 0 0 46.92133525181918 0 0 1 1 1.0418629348545133e-15 -0 -1.0418629348545133e-15 1 0 10
1 10 73.355830178645263 0 0 -1 0 
2 0 0 44.422149922883776 0 0 1 1 8.6977941333056622e-16 -0 -8.6977941333056622e-16 1 0 11.340460096402012
2 13 46.92133525181918 0 0 0 1 1 0 0 0 1 0 3
2 0 0 40.593405910692653 0 0 1 1 5.2691202639630919e-16 -0 -5.2691202639630919e-16 1 0 17.106359935731991
1 11.340460096402012 44.422149922883776 0 0.833061776311802 -0.55317996786599655 0 
2 0 0 38.92728235806905 0 0 1 1 4.8019961288903244e-16 -0 -4.8019961288903244e-16 1 0 18
2 16 38.92728235806905 0 0 0 1 1 0 0 0 1 0 2
Polygon3D 0
PolygonOnTriangulations 0
Surfaces 7
5 0 0 81.040970000018845 0 0 1 1 1.1246693853997187e-15 -0 -1.1246693853997187e-15 1 0 16 2
3 0 0 74.993986136470554 0 0 1 1 1.5343747483525272e-15 -0 -1.5343747483525272e-15 1 0 10.852635603724124
0.95980197145795931
5 0 0 73.355830178645263 0 0 1 1 1.3573555275804148e-15 -0 -1.3573555275804148e-15 1 0 12 2
2 0 0 73.355830178645263 -0 -0 -1 1 1.6288266330964977e-15 -0 -1.6288266330964977e-15 1 -0 10
5 0 0 46.92133525181918 0 0 1 1 8.0143302681116413e-16 -0 -8.0143302681116413e-16 1 0 13 3
3 0 0 44.422149922883776 -0 -0 -1 1 8.6977941333056622e-16 -0 -8.6977941333056622e-16 1 -0 11.340460096402012
0.98461969996521448
5 0 0 38.92728235806905 0 0 1 1 5.4022456450016146e-16 -0 -5.4022456450016146e-16 1 0 16 2
Triangulations 0

TShapes 39
Ve
1e-07
17.1473643962759 79.4028140421936 0
0 0

0101101
*
Ed
 1e-07 1 1 0
1  1 0 0 6.28318530717959
2  1 1 0 0 6.28318530717959
2  2 2 0 0 6.28318530717959
4 G1 1 0 2 0
0

0101000
+39 4 -39 4 *
Ve
1e-07
18 81.0409700000188 0
0 0

0101101
*
Ed
 1e-07 1 1 0
1  2 0 0 6.28318530717959
2  3 1 0 0 6.28318530717959
0

0101000
+37 4 -37 4 *
Ed
 1e-07 1 1 0
1  3 0 5.32338333572163 6.28318530717959
3  4 5CN 1 5 5.32338333572163 6.28318530717959
0

0101000
+39 0 -37 0 *
Wi

0101100
+38 0 -36 0 -35 4 +35 4 *
Fa
0  1e-07 1 0

0111000
+34 0 *
Ve
1e-07
10.8526356037241 74.9939861364706 0
0 0

0101101
*
Ed
 1e-07 1 1 0
1  4 0 0 6.28318530717959
2  6 2 0 0 6.28318530717959
2  7 3 0 0 6.28318530717959
4 G1 2 0 3 0
0

0101000
+32 4 -32 4 *
Ed
 1e-07 1 1 0
1  5 0 0 7.68513982137358
3  8 9CN 2 5 0 7.68513982137358
0

0101000
+32 0 -39 0 *
Wi

0101100
+31 0 -38 0 -30 4 +30 4 *
Fa
0  1e-07 2 0

0111000
+29 0 *
Ve
1e-07
10 73.3558301786453 0
0 0

0101101
*
Ed
 1e-07 1 1 0
1  6 0 0 6.28318530717959
2  10 3 0 0 6.28318530717959
2  11 4 0 0 6.28318530717959
4 G1 3 0 4 0
0

0101000
+27 4 -27 4 *
Ed
 1e-07 1 1 0
1  7 0 2.18179068213183 3.14159265358979
3  12 13CN 3 5 2.18179068213183 3.14159265358979
0

0101000
+32 0 -27 0 *
Wi

0101100
+31 0 -26 0 -25 4 +25 4 *
Fa
0  1e-07 3 0

0111000
+24 0 *
Ve
1e-07
10 46.9213352518192 0
0 0

0101101
*
Ed
 1e-07 1 1 0
1  8 0 0 6.28318530717959
2  14 4 0 0 6.28318530717959
2  15 5 0 0 6.28318530717959
4 G1 4 0 5 0
0

0101000
+22 4 -22 4 *
Ed
 1e-07 1 1 0
1  9 0 0 26.4344949268261
3  16 17CN 4 5 0 26.4344949268261
0

0101000
+27 0 -22 0 *
Wi

0101100
+26 0 -21 0 -20 4 +20 4 *
Fa
0  1e-07 4 0

0111000
+19 0 *
Ve
1e-07
11.340460096402 44.4221499228838 0
0 0

0101101
*
Ed
 1e-07 1 1 0
1  10 0 0 6.28318530717959
2  18 5 0 0 6.28318530717959
2  19 6 0 0 6.28318530717959
4 G1 5 0 6 0
0

0101000
+17 4 -17 4 *
Ed
 1e-07 1 1 0
1  11 0 3.14159265358979 4.12621235355501
3  20 21CN 5 5 3.14159265358979 4.12621235355501
0

0101000
+22 0 -17 0 *
Wi

0101100
+21 0 -16 0 -15 4 +15 4 *
Fa
0  1e-07 5 0

0111000
+14 0 *
Ve
1e-07
17.106359935732 40.5934059106927 0
0 0

0101101
*
Ed
 1e-07 1 1 0
1  12 0 0 6.28318530717959
2  22 6 0 0 6.28318530717959
2  23 7 0 0 6.28318530717959
4 G1 6 0 7 0
0

0101000
+12 4 -12 4 *
Ed
 1e-07 1 1 0
1  13 0 0 6.92133525181918
3  24 25CN 6 5 0 6.92133525181918
0

0101000
+17 0 -12 0 *
Wi

0101100
+16 0 -11 0 -10 4 +10 4 *
Fa
0  1e-07 6 0

0111000
+9 0 *
Ve
1e-07
18 38.927282358069 0
0 0

0101101
*
Ed
 1e-07 1 1 0
1  14 0 0 6.28318530717959
2  26 7 0 0 6.28318530717959
0

0101000
+7 4 -7 4 *
Ed
 1e-07 1 1 0
1  15 0 1.4e-15 0.984619699965215
3  27 28CN 7 5 1.4e-15 0.984619699965215
0

0101000
+7 0 -12 0 *
Wi

0101100
+6 0 -11 0 -5 4 +5 4 *
Fa
0  1e-07 7 0

0111000
+4 0 *
Sh

0101000
-33 0 -28 0 +23 0 +18 0 +13 0 +8 0 -3 0 *
Co

1100000
-2 1 *

+1 0 