DBRep_DrawableShape

CASCADE Topology V1, (c) Matra-Datavision
Locations 1
1
              1               0               0               0 
              0               1               0               0 
              0               0               1               0 
Curve2ds 14
1 0 100 1 0 
2 0 0 1 0 -0 1 13
1 6.2831853071795862 -0 0 1 
1 0 -0 0 1 
1 0 0 1 0 
2 0 0 1 0 -0 1 13
1 0 100 1 0 
2 0 0 1 0 -0 1 11.5
2 0 0 1 0 -0 1 11.5
1 0 0 1 0 
2 0 0 1 0 -0 1 11.5
2 0 0 1 0 -0 1 11.5
1 6.2831853071795862 -0 0 1 
1 0 -0 0 1 
Curves 6
2 0 0 100 0 0 1 1 0 -0 -0 1 0 13
1 13 -3.1840816777831182e-15 0 0 0 1 
2 0 0 0 0 0 1 1 0 -0 -0 1 0 13
2 0 0 100 0 0 1 1 0 -0 -0 1 0 11.5
2 0 0 0 0 0 1 1 0 -0 -0 1 0 11.5
1 11.5 -2.8166876380389124e-15 0 0 0 1 
Polygon3D 0
PolygonOnTriangulations 12
37 1 2 3 4 5 6 7 8 9 10 11 12 13 14 15 16 17 18 19 20 21 22 23 24 25 26 27 28 29 30 31 32 33 34 35 36 37 
p 0.101333334843318 1 0 0.174532925199433 0.349065850398866 0.523598775598299 0.698131700797732 0.872664625997165 1.0471975511966 1.22173047639603 1.39626340159546 1.5707963267949 1.74532925199433 1.91986217719376 2.0943951023932 2.26892802759263 2.44346095279206 2.61799387799149 2.79252680319093 2.96705972839036 3.14159265358979 3.31612557878922 3.49065850398866 3.66519142918809 3.83972435438752 4.01425727958696 4.18879020478639 4.36332312998582 4.53785605518525 4.71238898038469 4.88692190558412 5.06145483078355 5.23598775598299 5.41052068118242 5.58505360638185 5.75958653158128 5.93411945678072 6.10865238198015 6.28318530717959 
37 1 2 3 4 5 6 7 8 9 10 11 12 13 14 15 16 17 18 19 20 21 22 23 24 25 26 27 28 29 30 31 32 33 34 35 36 1 
p 0.101333334843318 1 0 0.174532925199433 0.349065850398866 0.523598775598299 0.698131700797732 0.872664625997165 1.0471975511966 1.22173047639603 1.39626340159546 1.5707963267949 1.74532925199433 1.91986217719376 2.0943951023932 2.26892802759263 2.44346095279206 2.61799387799149 2.79252680319093 2.96705972839036 3.14159265358979 3.31612557878922 3.49065850398866 3.66519142918809 3.83972435438752 4.01425727958696 4.18879020478639 4.36332312998582 4.53785605518525 4.71238898038469 4.88692190558412 5.06145483078355 5.23598775598299 5.41052068118242 5.58505360638185 5.75958653158128 5.93411945678072 6.10865238198015 6.28318530717959 
2 38 1 
p 0.101333334843318 1 0 100 
2 74 37 
p 0.101333334843318 1 0 100 
37 38 39 40 41 42 43 44 45 46 47 48 49 50 51 52 53 54 55 56 57 58 59 60 61 62 63 64 65 66 67 68 69 70 71 72 73 74 
p 0.101333334843318 1 0 0.174532925199433 0.349065850398866 0.523598775598299 0.698131700797732 0.872664625997165 1.0471975511966 1.22173047639603 1.39626340159546 1.5707963267949 1.74532925199433 1.91986217719376 2.0943951023932 2.26892802759263 2.44346095279206 2.61799387799149 2.79252680319093 2.96705972839036 3.14159265358979 3.31612557878922 3.49065850398866 3.66519142918809 3.83972435438752 4.01425727958696 4.18879020478639 4.36332312998582 4.53785605518525 4.71238898038469 4.88692190558412 5.06145483078355 5.23598775598299 5.41052068118242 5.58505360638185 5.75958653158128 5.93411945678072 6.10865238198015 6.28318530717959 
37 1 2 3 4 5 6 7 8 9 10 11 12 13 14 15 16 17 18 19 20 21 22 23 24 25 26 27 28 29 30 31 32 33 34 35 36 1 
p 0.101333334843318 1 0 0.174532925199433 0.349065850398866 0.523598775598299 0.698131700797732 0.872664625997165 1.0471975511966 1.22173047639603 1.39626340159546 1.5707963267949 1.74532925199433 1.91986217719376 2.0943951023932 2.26892802759263 2.44346095279206 2.61799387799149 2.79252680319093 2.96705972839036 3.14159265358979 3.31612557878922 3.49065850398866 3.66519142918809 3.83972435438752 4.01425727958696 4.18879020478639 4.36332312998582 4.53785605518525 4.71238898038469 4.88692190558412 5.06145483078355 5.23598775598299 5.41052068118242 5.58505360638185 5.75958653158128 5.93411945678072 6.10865238198015 6.28318530717959 
35 1 2 3 4 5 6 7 8 9 10 11 12 13 14 15 16 17 18 19 20 21 22 23 24 25 26 27 28 29 30 31 32 33 34 35 
p 0.101333334843318 1 0 0.184799567858223 0.369599135716446 0.554398703574669 0.739198271432893 0.923997839291116 1.10879740714934 1.29359697500756 1.47839654286578 1.66319611072401 1.84799567858223 2.03279524644045 2.21759481429868 2.4023943821569 2.58719395001512 2.77199351787335 2.95679308573157 3.14159265358979 3.32639222144802 3.51119178930624 3.69599135716446 3.88079092502268 4.06559049288091 4.25039006073913 4.43518962859735 4.61998919645558 4.8047887643138 4.98958833217203 5.17438790003025 5.35918746788847 5.5439870357467 5.72878660360492 5.91358617146314 6.09838573932137 6.28318530717959 
35 37 38 39 40 41 42 43 44 45 46 47 48 49 50 51 52 53 54 55 56 57 58 59 60 61 62 63 64 65 66 67 68 69 70 37 
p 0.101333334843318 1 0 0.184799567858223 0.369599135716446 0.554398703574669 0.739198271432893 0.923997839291116 1.10879740714934 1.29359697500756 1.47839654286578 1.66319611072401 1.84799567858223 2.03279524644045 2.21759481429868 2.4023943821569 2.58719395001512 2.77199351787335 2.95679308573157 3.14159265358979 3.32639222144802 3.51119178930624 3.69599135716446 3.88079092502268 4.06559049288091 4.25039006073913 4.43518962859735 4.61998919645558 4.8047887643138 4.98958833217203 5.17438790003025 5.35918746788847 5.5439870357467 5.72878660360492 5.91358617146314 6.09838573932137 6.28318530717959 
35 36 37 38 39 40 41 42 43 44 45 46 47 48 49 50 51 52 53 54 55 56 57 58 59 60 61 62 63 64 65 66 67 68 69 70 
p 0.101333334843318 1 0 0.184799567858223 0.369599135716446 0.554398703574669 0.739198271432893 0.923997839291116 1.10879740714934 1.29359697500756 1.47839654286578 1.66319611072401 1.84799567858223 2.03279524644045 2.21759481429868 2.4023943821569 2.58719395001512 2.77199351787335 2.95679308573157 3.14159265358979 3.32639222144802 3.51119178930624 3.69599135716446 3.88079092502268 4.06559049288091 4.25039006073913 4.43518962859735 4.61998919645558 4.8047887643138 4.98958833217203 5.17438790003025 5.35918746788847 5.5439870357467 5.72878660360492 5.91358617146314 6.09838573932137 6.28318530717959 
35 37 38 39 40 41 42 43 44 45 46 47 48 49 50 51 52 53 54 55 56 57 58 59 60 61 62 63 64 65 66 67 68 69 70 37 
p 0.101333334843318 1 0 0.184799567858223 0.369599135716446 0.554398703574669 0.739198271432893 0.923997839291116 1.10879740714934 1.29359697500756 1.47839654286578 1.66319611072401 1.84799567858223 2.03279524644045 2.21759481429868 2.4023943821569 2.58719395001512 2.77199351787335 2.95679308573157 3.14159265358979 3.32639222144802 3.51119178930624 3.69599135716446 3.88079092502268 4.06559049288091 4.25039006073913 4.43518962859735 4.61998919645558 4.8047887643138 4.98958833217203 5.17438790003025 5.35918746788847 5.5439870357467 5.72878660360492 5.91358617146314 6.09838573932137 6.28318530717959 
2 36 1 
p 0.101333334843318 1 0 100 
2 70 35 
p 0.101333334843318 1 0 100 
Surfaces 6
2 0 0 0 0 0 1 1 0 -0 -0 1 0 13
1 0 0 100 0 0 1 1 0 -0 -0 1 0 
1 0 0 0 0 0 1 1 0 -0 -0 1 0 
2 0 0 0 0 0 1 1 0 -0 -0 1 0 11.5
1 0 0 100 0 0 1 1 0 -0 -0 1 0 
1 0 0 0 0 0 1 1 0 -0 -0 1 0 
Triangulations 4
74 72 1 0.101333334843318
13 -3.18408167778312e-15 100 12.8025007891587 2.25742630967009 100 12.2160040702168 4.44626186323369 100 11.2583302491977 6.5 100 9.95857776054671 8.35623892592501 100 8.35623892592501 9.95857776054671 100 6.5 11.2583302491977 100 4.44626186323369 12.2160040702168 100 2.2574263096701 12.8025007891587 100 7.9602041944578e-16 13 100 -2.25742630967009 12.8025007891587 100 -4.44626186323369 12.2160040702168 100 -6.5 11.2583302491977 100 -8.35623892592501 9.95857776054672 100 -9.95857776054671 8.35623892592502 100 -11.2583302491977 6.50000000000001 100 -12.2160040702168 4.44626186323371 100 -12.8025007891587 2.25742630967011 100 -13 1.8911520023044e-14 100 -12.8025007891587 -2.25742630967007 100 -12.2160040702168 -4.44626186323367 100 -11.2583302491977 -6.49999999999998 100 -9.95857776054673 -8.35623892592499 100 -8.35623892592503 -9.9585777605467 100 -6.50000000000002 -11.2583302491977 100 -4.44626186323372 -12.2160040702168 100 -2.25742630967013 -12.8025007891587 100 -3.70270196266422e-14 -13 100 2.25742630967006 -12.8025007891587 100 4.44626186323365 -12.2160040702168 100 6.49999999999996 -11.2583302491977 100 8.35623892592497 -9.95857776054674 100 9.95857776054668 -8.35623892592505 100 11.2583302491977 -6.50000000000005 100 12.2160040702168 -4.44626186323375 100 12.8025007891587 -2.25742630967015 100 13 -3.18408167778312e-15 100 13 -3.18408167778312e-15 0 12.8025007891587 2.25742630967009 0 12.2160040702168 4.44626186323369 0 11.2583302491977 6.5 0 9.95857776054671 8.35623892592501 0 8.35623892592501 9.95857776054671 0 6.5 11.2583302491977 0 4.44626186323369 12.2160040702168 0 2.2574263096701 12.8025007891587 0 7.9602041944578e-16 13 0 -2.25742630967009 12.8025007891587 0 -4.44626186323369 12.2160040702168 0 -6.5 11.2583302491977 0 -8.35623892592501 9.95857776054672 0 -9.95857776054671 8.35623892592502 0 -11.2583302491977 6.50000000000001 0 -12.2160040702168 4.44626186323371 0 -12.8025007891587 2.25742630967011 0 -13 1.8911520023044e-14 0 -12.8025007891587 -2.25742630967007 0 -12.2160040702168 -4.44626186323367 0 -11.2583302491977 -6.49999999999998 0 -9.95857776054673 -8.35623892592499 0 -8.35623892592503 -9.9585777605467 0 -6.50000000000002 -11.2583302491977 0 -4.44626186323372 -12.2160040702168 0 -2.25742630967013 -12.8025007891587 0 -3.70270196266422e-14 -13 0 2.25742630967006 -12.8025007891587 0 4.44626186323365 -12.2160040702168 0 6.49999999999996 -11.2583302491977 0 8.35623892592497 -9.95857776054674 0 9.95857776054668 -8.35623892592505 0 11.2583302491977 -6.50000000000005 0 12.2160040702168 -4.44626186323375 0 12.8025007891587 -2.25742630967015 0 13 -3.18408167778312e-15 0 0 100 0.174532925199433 100 0.349065850398866 100 0.523598775598299 100 0.698131700797732 100 0.872664625997165 100 1.0471975511966 100 1.22173047639603 100 1.39626340159546 100 1.5707963267949 100 1.74532925199433 100 1.91986217719376 100 2.0943951023932 100 2.26892802759263 100 2.44346095279206 100 2.61799387799149 100 2.79252680319093 100 2.96705972839036 100 3.14159265358979 100 3.31612557878922 100 3.49065850398866 100 3.66519142918809 100 3.83972435438752 100 4.01425727958696 100 4.18879020478639 100 4.36332312998582 100 4.53785605518525 100 4.71238898038469 100 4.88692190558412 100 5.06145483078355 100 5.23598775598299 100 5.41052068118242 100 5.58505360638185 100 5.75958653158128 100 5.93411945678072 100 6.10865238198015 100 6.28318530717959 100 0 0 0.174532925199433 0 0.349065850398866 0 0.523598775598299 0 0.698131700797732 0 0.872664625997165 0 1.0471975511966 0 1.22173047639603 0 1.39626340159546 0 1.5707963267949 0 1.74532925199433 0 1.91986217719376 0 2.0943951023932 0 2.26892802759263 0 2.44346095279206 0 2.61799387799149 0 2.79252680319093 0 2.96705972839036 0 3.14159265358979 0 3.31612557878922 0 3.49065850398866 0 3.66519142918809 0 3.83972435438752 0 4.01425727958696 0 4.18879020478639 0 4.36332312998582 0 4.53785605518525 0 4.71238898038469 0 4.88692190558412 0 5.06145483078355 0 5.23598775598299 0 5.41052068118242 0 5.58505360638185 0 5.75958653158128 0 5.93411945678072 0 6.10865238198015 0 6.28318530717959 0 2 1 38 2 38 39 3 39 40 3 40 41 3 2 39 4 3 41 5 41 42 5 42 43 5 4 41 6 43 44 6 5 43 7 6 44 8 7 44 8 44 45 9 8 45 9 45 46 9 46 47 10 9 47 11 10 47 11 47 48 11 48 49 12 11 49 13 12 49 13 49 50 14 13 50 14 50 51 15 14 51 15 51 52 15 52 53 16 15 53 17 16 53 17 53 54 17 54 55 18 17 55 19 18 55 19 55 56 19 56 57 20 19 57 20 57 58 21 20 58 21 58 59 22 21 59 23 59 60 23 22 59 24 60 61 24 61 62 24 23 60 25 24 62 26 62 63 26 63 64 26 25 62 27 64 65 27 26 64 28 65 66 28 27 65 29 28 66 30 66 67 30 67 68 30 29 66 31 68 69 31 30 68 32 31 69 33 32 69 33 69 70 34 33 70 34 70 71 35 34 71 35 71 72 36 35 72 36 72 73 37 36 73 37 73 74 
70 70 1 0.101333334843318
13 -3.18408167778312e-15 100 12.8025007891587 2.25742630967009 100 12.2160040702168 4.44626186323369 100 11.2583302491977 6.5 100 9.95857776054671 8.35623892592501 100 8.35623892592501 9.95857776054671 100 6.5 11.2583302491977 100 4.44626186323369 12.2160040702168 100 2.2574263096701 12.8025007891587 100 7.9602041944578e-16 13 100 -2.25742630967009 12.8025007891587 100 -4.44626186323369 12.2160040702168 100 -6.5 11.2583302491977 100 -8.35623892592501 9.95857776054672 100 -9.95857776054671 8.35623892592502 100 -11.2583302491977 6.50000000000001 100 -12.2160040702168 4.44626186323371 100 -12.8025007891587 2.25742630967011 100 -13 1.8911520023044e-14 100 -12.8025007891587 -2.25742630967007 100 -12.2160040702168 -4.44626186323367 100 -11.2583302491977 -6.49999999999998 100 -9.95857776054673 -8.35623892592499 100 -8.35623892592503 -9.9585777605467 100 -6.50000000000002 -11.2583302491977 100 -4.44626186323372 -12.2160040702168 100 -2.25742630967013 -12.8025007891587 100 -3.70270196266422e-14 -13 100 2.25742630967006 -12.8025007891587 100 4.44626186323365 -12.2160040702168 100 6.49999999999996 -11.2583302491977 100 8.35623892592497 -9.95857776054674 100 9.95857776054668 -8.35623892592505 100 11.2583302491977 -6.50000000000005 100 12.2160040702168 -4.44626186323375 100 12.8025007891587 -2.25742630967015 100 11.5 -2.81668763803891e-15 100 11.3041906463649 2.11311945489056 100 10.7234306381501 4.15427916115226 100 9.77749706089056 6.05396987308959 100 8.49860254803758 7.74749990193541 100 6.93029831836145 9.17719811372275 100 5.12599109143019 10.2943778505832 100 3.14712438582895 11.0609948964874 100 1.06108613382798 11.4509430273929 100 -1.06108613382797 11.4509430273929 100 -3.14712438582895 11.0609948964874 100 -5.12599109143019 10.2943778505832 100 -6.93029831836144 9.17719811372276 100 -8.49860254803757 7.74749990193541 100 -9.77749706089056 6.0539698730896 100 -10.7234306381501 4.15427916115227 100 -11.3041906463649 2.11311945489057 100 -11.5 1.16223956455709e-14 100 -11.3041906463649 -2.11311945489055 100 -10.7234306381501 -4.15427916115225 100 -9.77749706089057 -6.05396987308958 100 -8.49860254803759 -7.7474999019354 100 -6.93029831836146 -9.17719811372275 100 -5.1259910914302 -10.2943778505832 100 -3.14712438582896 -11.0609948964874 100 -1.06108613382797 -11.4509430273929 100 1.06108613382798 -11.4509430273929 100 3.14712438582896 -11.0609948964874 100 5.1259910914302 -10.2943778505832 100 6.93029831836146 -9.17719811372274 100 8.4986025480376 -7.74749990193539 100 9.77749706089058 -6.05396987308957 100 10.7234306381501 -4.15427916115223 100 11.3041906463649 -2.11311945489053 100 13 -3.5527136788005e-15 12.8025007891587 2.25742630967009 12.2160040702168 4.44626186323369 11.2583302491977 6.5 9.95857776054671 8.35623892592501 8.35623892592501 9.95857776054671 6.5 11.2583302491977 4.44626186323369 12.2160040702168 2.25742630967009 12.8025007891587 0 13 -2.25742630967009 12.8025007891587 -4.44626186323369 12.2160040702168 -6.5 11.2583302491977 -8.35623892592501 9.95857776054672 -9.95857776054671 8.35623892592502 -11.2583302491977 6.50000000000001 -12.2160040702168 4.44626186323371 -12.8025007891587 2.25742630967011 -13 1.95399252334028e-14 -12.8025007891587 -2.25742630967007 -12.2160040702168 -4.44626186323367 -11.2583302491977 -6.49999999999998 -9.95857776054673 -8.35623892592499 -8.35623892592503 -9.9585777605467 -6.50000000000002 -11.2583302491977 -4.44626186323372 -12.2160040702168 -2.25742630967013 -12.8025007891587 -3.73034936274053e-14 -13 2.25742630967006 -12.8025007891587 4.44626186323365 -12.2160040702168 6.49999999999996 -11.2583302491977 8.35623892592497 -9.95857776054674 9.95857776054668 -8.35623892592505 11.2583302491977 -6.50000000000005 12.2160040702168 -4.44626186323375 12.8025007891587 -2.25742630967015 11.5 -3.5527136788005e-15 11.3041906463649 2.11311945489056 10.7234306381501 4.15427916115226 9.77749706089056 6.05396987308959 8.49860254803758 7.74749990193541 6.93029831836145 9.17719811372275 5.12599109143019 10.2943778505832 3.14712438582895 11.0609948964874 1.06108613382798 11.4509430273929 -1.06108613382797 11.4509430273929 -3.14712438582895 11.0609948964874 -5.12599109143019 10.2943778505832 -6.93029831836144 9.17719811372276 -8.49860254803757 7.74749990193541 -9.77749706089056 6.0539698730896 -10.7234306381501 4.15427916115227 -11.3041906463649 2.11311945489057 -11.5 1.24344978758018e-14 -11.3041906463649 -2.11311945489055 -10.7234306381501 -4.15427916115225 -9.77749706089057 -6.05396987308958 -8.49860254803759 -7.7474999019354 -6.93029831836146 -9.17719811372275 -5.1259910914302 -10.2943778505832 -3.14712438582896 -11.0609948964874 -1.06108613382797 -11.4509430273929 1.06108613382798 -11.4509430273929 3.14712438582896 -11.0609948964874 5.1259910914302 -10.2943778505832 6.93029831836146 -9.17719811372274 8.4986025480376 -7.74749990193539 9.77749706089057 -6.05396987308957 10.7234306381501 -4.15427916115223 11.3041906463649 -2.11311945489053 58 23 24 59 24 25 59 58 24 57 22 23 57 23 58 60 25 26 60 59 25 56 21 22 56 22 57 61 26 27 61 60 26 55 20 21 55 21 56 62 61 27 62 27 28 54 19 20 54 20 55 18 19 54 63 28 29 63 62 28 53 18 54 64 63 29 30 64 29 17 18 53 52 17 53 65 64 30 31 65 30 16 17 52 51 16 52 66 65 31 32 66 31 15 16 51 50 15 51 67 66 32 33 67 32 14 15 50 49 14 50 68 67 33 34 68 33 13 14 49 48 13 49 69 68 34 35 69 34 12 13 48 47 12 48 70 69 35 36 70 35 11 47 46 11 12 47 37 70 36 1 37 36 10 46 45 10 11 46 9 45 44 9 10 45 2 38 37 2 37 1 8 44 43 8 9 44 3 39 38 3 38 2 4 40 39 4 39 3 7 8 43 7 43 42 5 41 40 5 40 4 6 7 42 6 41 5 6 42 41 
70 70 1 0.101333334843318
13 -3.18408167778312e-15 0 12.8025007891587 2.25742630967009 0 12.2160040702168 4.44626186323369 0 11.2583302491977 6.5 0 9.95857776054671 8.35623892592501 0 8.35623892592501 9.95857776054671 0 6.5 11.2583302491977 0 4.44626186323369 12.2160040702168 0 2.2574263096701 12.8025007891587 0 7.9602041944578e-16 13 0 -2.25742630967009 12.8025007891587 0 -4.44626186323369 12.2160040702168 0 -6.5 11.2583302491977 0 -8.35623892592501 9.95857776054672 0 -9.95857776054671 8.35623892592502 0 -11.2583302491977 6.50000000000001 0 -12.2160040702168 4.44626186323371 0 -12.8025007891587 2.25742630967011 0 -13 1.8911520023044e-14 0 -12.8025007891587 -2.25742630967007 0 -12.2160040702168 -4.44626186323367 0 -11.2583302491977 -6.49999999999998 0 -9.95857776054673 -8.35623892592499 0 -8.35623892592503 -9.9585777605467 0 -6.50000000000002 -11.2583302491977 0 -4.44626186323372 -12.2160040702168 0 -2.25742630967013 -12.8025007891587 0 -3.70270196266422e-14 -13 0 2.25742630967006 -12.8025007891587 0 4.44626186323365 -12.2160040702168 0 6.49999999999996 -11.2583302491977 0 8.35623892592497 -9.95857776054674 0 9.95857776054668 -8.35623892592505 0 11.2583302491977 -6.50000000000005 0 12.2160040702168 -4.44626186323375 0 12.8025007891587 -2.25742630967015 0 11.5 -2.81668763803891e-15 0 11.3041906463649 2.11311945489056 0 10.7234306381501 4.15427916115226 0 9.77749706089056 6.05396987308959 0 8.49860254803758 7.74749990193541 0 6.93029831836145 9.17719811372275 0 5.12599109143019 10.2943778505832 0 3.14712438582895 11.0609948964874 0 1.06108613382798 11.4509430273929 0 -1.06108613382797 11.4509430273929 0 -3.14712438582895 11.0609948964874 0 -5.12599109143019 10.2943778505832 0 -6.93029831836144 9.17719811372276 0 -8.49860254803757 7.74749990193541 0 -9.77749706089056 6.0539698730896 0 -10.7234306381501 4.15427916115227 0 -11.3041906463649 2.11311945489057 0 -11.5 1.16223956455709e-14 0 -11.3041906463649 -2.11311945489055 0 -10.7234306381501 -4.15427916115225 0 -9.77749706089057 -6.05396987308958 0 -8.49860254803759 -7.7474999019354 0 -6.93029831836146 -9.17719811372275 0 -5.1259910914302 -10.2943778505832 0 -3.14712438582896 -11.0609948964874 0 -1.06108613382797 -11.4509430273929 0 1.06108613382798 -11.4509430273929 0 3.14712438582896 -11.0609948964874 0 5.1259910914302 -10.2943778505832 0 6.93029831836146 -9.17719811372274 0 8.4986025480376 -7.74749990193539 0 9.77749706089058 -6.05396987308957 0 10.7234306381501 -4.15427916115223 0 11.3041906463649 -2.11311945489053 0 13 -3.5527136788005e-15 12.8025007891587 2.25742630967009 12.2160040702168 4.44626186323369 11.2583302491977 6.5 9.95857776054671 8.35623892592501 8.35623892592501 9.95857776054671 6.5 11.2583302491977 4.44626186323369 12.2160040702168 2.25742630967009 12.8025007891587 0 13 -2.25742630967009 12.8025007891587 -4.44626186323369 12.2160040702168 -6.5 11.2583302491977 -8.35623892592501 9.95857776054672 -9.95857776054671 8.35623892592502 -11.2583302491977 6.50000000000001 -12.2160040702168 4.44626186323371 -12.8025007891587 2.25742630967011 -13 1.95399252334028e-14 -12.8025007891587 -2.25742630967007 -12.2160040702168 -4.44626186323367 -11.2583302491977 -6.49999999999998 -9.95857776054673 -8.35623892592499 -8.35623892592503 -9.9585777605467 -6.50000000000002 -11.2583302491977 -4.44626186323372 -12.2160040702168 -2.25742630967013 -12.8025007891587 -3.73034936274053e-14 -13 2.25742630967006 -12.8025007891587 4.44626186323365 -12.2160040702168 6.49999999999996 -11.2583302491977 8.35623892592497 -9.95857776054674 9.95857776054668 -8.35623892592505 11.2583302491977 -6.50000000000005 12.2160040702168 -4.44626186323375 12.8025007891587 -2.25742630967015 11.5 -3.5527136788005e-15 11.3041906463649 2.11311945489056 10.7234306381501 4.15427916115226 9.77749706089056 6.05396987308959 8.49860254803758 7.74749990193541 6.93029831836145 9.17719811372275 5.12599109143019 10.2943778505832 3.14712438582895 11.0609948964874 1.06108613382798 11.4509430273929 -1.06108613382797 11.4509430273929 -3.14712438582895 11.0609948964874 -5.12599109143019 10.2943778505832 -6.93029831836144 9.17719811372276 -8.49860254803757 7.74749990193541 -9.77749706089056 6.0539698730896 -10.7234306381501 4.15427916115227 -11.3041906463649 2.11311945489057 -11.5 1.24344978758018e-14 -11.3041906463649 -2.11311945489055 -10.7234306381501 -4.15427916115225 -9.77749706089057 -6.05396987308958 -8.49860254803759 -7.7474999019354 -6.93029831836146 -9.17719811372275 -5.1259910914302 -10.2943778505832 -3.14712438582896 -11.0609948964874 -1.06108613382797 -11.4509430273929 1.06108613382798 -11.4509430273929 3.14712438582896 -11.0609948964874 5.1259910914302 -10.2943778505832 6.93029831836146 -9.17719811372274 8.4986025480376 -7.74749990193539 9.77749706089057 -6.05396987308957 10.7234306381501 -4.15427916115223 11.3041906463649 -2.11311945489053 58 23 24 59 24 25 59 58 24 57 22 23 57 23 58 60 25 26 60 59 25 56 21 22 56 22 57 61 26 27 61 60 26 55 20 21 55 21 56 62 61 27 62 27 28 54 19 20 54 20 55 18 19 54 63 28 29 63 62 28 53 18 54 64 63 29 30 64 29 17 18 53 52 17 53 65 64 30 31 65 30 16 17 52 51 16 52 66 65 31 32 66 31 15 16 51 50 15 51 67 66 32 33 67 32 14 15 50 49 14 50 68 67 33 34 68 33 13 14 49 48 13 49 69 68 34 35 69 34 12 13 48 47 12 48 70 69 35 36 70 35 11 47 46 11 12 47 37 70 36 1 37 36 10 46 45 10 11 46 9 45 44 9 10 45 2 38 37 2 37 1 8 44 43 8 9 44 3 39 38 3 38 2 4 40 39 4 39 3 7 8 43 7 43 42 5 41 40 5 40 4 6 7 42 6 41 5 6 42 41 
70 68 1 0.101333334843318
11.5 -2.81668763803891e-15 100 11.3041906463649 2.11311945489056 100 10.7234306381501 4.15427916115226 100 9.77749706089056 6.05396987308959 100 8.49860254803758 7.74749990193541 100 6.93029831836145 9.17719811372275 100 5.12599109143019 10.2943778505832 100 3.14712438582895 11.0609948964874 100 1.06108613382798 11.4509430273929 100 -1.06108613382797 11.4509430273929 100 -3.14712438582895 11.0609948964874 100 -5.12599109143019 10.2943778505832 100 -6.93029831836144 9.17719811372276 100 -8.49860254803757 7.74749990193541 100 -9.77749706089056 6.0539698730896 100 -10.7234306381501 4.15427916115227 100 -11.3041906463649 2.11311945489057 100 -11.5 1.16223956455709e-14 100 -11.3041906463649 -2.11311945489055 100 -10.7234306381501 -4.15427916115225 100 -9.77749706089057 -6.05396987308958 100 -8.49860254803759 -7.7474999019354 100 -6.93029831836146 -9.17719811372275 100 -5.1259910914302 -10.2943778505832 100 -3.14712438582896 -11.0609948964874 100 -1.06108613382797 -11.4509430273929 100 1.06108613382798 -11.4509430273929 100 3.14712438582896 -11.0609948964874 100 5.1259910914302 -10.2943778505832 100 6.93029831836146 -9.17719811372274 100 8.4986025480376 -7.74749990193539 100 9.77749706089058 -6.05396987308957 100 10.7234306381501 -4.15427916115223 100 11.3041906463649 -2.11311945489053 100 11.5 -2.81668763803891e-15 100 11.5 -2.81668763803891e-15 0 11.3041906463649 2.11311945489056 0 10.7234306381501 4.15427916115226 0 9.77749706089056 6.05396987308959 0 8.49860254803758 7.74749990193541 0 6.93029831836145 9.17719811372275 0 5.12599109143019 10.2943778505832 0 3.14712438582895 11.0609948964874 0 1.06108613382798 11.4509430273929 0 -1.06108613382797 11.4509430273929 0 -3.14712438582895 11.0609948964874 0 -5.12599109143019 10.2943778505832 0 -6.93029831836144 9.17719811372276 0 -8.49860254803757 7.74749990193541 0 -9.77749706089056 6.0539698730896 0 -10.7234306381501 4.15427916115227 0 -11.3041906463649 2.11311945489057 0 -11.5 1.16223956455709e-14 0 -11.3041906463649 -2.11311945489055 0 -10.7234306381501 -4.15427916115225 0 -9.77749706089057 -6.05396987308958 0 -8.49860254803759 -7.7474999019354 0 -6.93029831836146 -9.17719811372275 0 -5.1259910914302 -10.2943778505832 0 -3.14712438582896 -11.0609948964874 0 -1.06108613382797 -11.4509430273929 0 1.06108613382798 -11.4509430273929 0 3.14712438582896 -11.0609948964874 0 5.1259910914302 -10.2943778505832 0 6.93029831836146 -9.17719811372274 0 8.4986025480376 -7.74749990193539 0 9.77749706089058 -6.05396987308957 0 10.7234306381501 -4.15427916115223 0 11.3041906463649 -2.11311945489053 0 11.5 -2.81668763803891e-15 0 0 100 0.184799567858223 100 0.369599135716446 100 0.554398703574669 100 0.739198271432892 100 0.923997839291116 100 1.10879740714934 100 1.29359697500756 100 1.47839654286578 100 1.66319611072401 100 1.84799567858223 100 2.03279524644045 100 2.21759481429868 100 2.4023943821569 100 2.58719395001512 100 2.77199351787335 100 2.95679308573157 100 3.14159265358979 100 3.32639222144802 100 3.51119178930624 100 3.69599135716446 100 3.88079092502268 100 4.06559049288091 100 4.25039006073913 100 4.43518962859735 100 4.61998919645558 100 4.8047887643138 100 4.98958833217203 100 5.17438790003025 100 5.35918746788847 100 5.5439870357467 100 5.72878660360492 100 5.91358617146314 100 6.09838573932137 100 6.28318530717959 100 0 0 0.184799567858223 0 0.369599135716446 0 0.554398703574669 0 0.739198271432892 0 0.923997839291116 0 1.10879740714934 0 1.29359697500756 0 1.47839654286578 0 1.66319611072401 0 1.84799567858223 0 2.03279524644045 0 2.21759481429868 0 2.4023943821569 0 2.58719395001512 0 2.77199351787335 0 2.95679308573157 0 3.14159265358979 0 3.32639222144802 0 3.51119178930624 0 3.69599135716446 0 3.88079092502268 0 4.06559049288091 0 4.25039006073913 0 4.43518962859735 0 4.61998919645558 0 4.8047887643138 0 4.98958833217203 0 5.17438790003025 0 5.35918746788847 0 5.5439870357467 0 5.72878660360492 0 5.91358617146314 0 6.09838573932137 0 6.28318530717959 0 1 36 37 2 37 38 2 1 37 3 2 38 4 38 39 4 39 40 4 3 38 5 4 40 6 40 41 6 41 42 6 5 40 7 42 43 7 6 42 8 7 43 9 8 43 9 43 44 10 9 44 10 44 45 11 10 45 11 45 46 12 11 46 12 46 47 12 47 48 13 12 48 14 13 48 14 48 49 14 49 50 15 14 50 16 15 50 16 50 51 16 51 52 17 16 52 18 17 52 18 52 53 18 53 54 19 18 54 20 19 54 20 54 55 20 55 56 21 20 56 21 56 57 22 21 57 23 57 58 23 22 57 24 58 59 24 59 60 24 23 58 25 24 60 26 60 61 26 25 60 27 61 62 27 26 61 28 62 63 28 27 62 29 63 64 29 28 63 30 64 65 30 29 64 31 65 66 31 66 67 31 30 65 32 31 67 33 32 67 33 67 68 34 33 68 34 68 69 35 34 69 35 69 70 

TShapes 24
Ve
1e-07
13 -3.18408167778312e-15 100
0 0

0101101
*
Ed
 1e-07 1 1 0
1  1 0 0 6.28318530717959
2  1 1 0 0 6.28318530717959
2  2 2 0 0 6.28318530717959
6  1 1 0
6  2 2 0
0

0101000
+24 0 -24 0 *
Ve
1e-07
13 -3.18408167778312e-15 0
0 0

0101101
*
Ed
 1e-07 1 1 0
1  2 0 0 100
3  3 4CN 1 0 0 100
7  3 4 1 0
0

0101000
-24 0 +22 0 *
Ed
 1e-07 1 1 0
1  3 0 0 6.28318530717959
2  5 1 0 0 6.28318530717959
2  6 3 0 0 6.28318530717959
6  5 1 0
6  6 3 0
0

0101000
+22 0 -22 0 *
Wi

0101100
-23 0 +21 0 +20 0 -21 0 *
Fa
0  1e-07 1 0
2  1
0101000
+19 0 *
Wi

0101100
+23 0 *
Ve
1e-07
11.5 -2.81668763803891e-15 100
0 0

0101101
*
Ed
 1e-07 1 1 0
1  4 0 0 6.28318530717959
2  7 4 0 0 6.28318530717959
2  8 5 0 0 6.28318530717959
2  9 2 0 0 6.28318530717959
6  7 4 0
6  8 2 0
0

0101000
+16 0 -16 0 *
Wi

0101100
-15 0 *
Fa
0  1e-07 2 0
2  2
0101000
+17 0 +14 0 *
Wi

0101100
+20 0 *
Ve
1e-07
11.5 -2.81668763803891e-15 0
0 0

0101101
*
Ed
 1e-07 1 1 0
1  5 0 0 6.28318530717959
2  10 4 0 0 6.28318530717959
2  11 6 0 0 6.28318530717959
2  12 3 0 0 6.28318530717959
6  9 4 0
6  10 3 0
0

0101000
+11 0 -11 0 *
Wi

0101100
-10 0 *
Fa
0  1e-07 3 0
2  3
0101000
+12 0 +9 0 *
Ed
 1e-07 1 1 0
1  6 0 0 100
3  13 14CN 4 0 0 100
7  11 12 4 0
0

0101000
-16 0 +11 0 *
Wi

0101100
-15 0 +7 0 +10 0 -7 0 *
Fa
0  1e-07 4 0
2  4
0101000
+6 0 *
Sh

0101100
+18 0 +13 0 -8 0 -5 0 *
So

0100000
+4 0 *
Co

0100000
+3 0 *
Co

1100000
+2 1 *

+1 0 