DBRep_DrawableShape

CASCADE Topology V1, (c) Matra-Datavision
Locations 5
1
              1               0               0               0 
              0               1               0               0 
              0               0               1               0 
1
              1               0               0               0 
              0               1               0               0 
              0               0               1               0 
1
              1               0               0               0 
              0               0              -1               0 
              0               1               0               0 
2  2 1 3 1 0
2  3 -1 2 -1 0
Curve2ds 9
1 0 -0.0012560340481730899 1 0 
1 0 0 1 0 
1 0 1.5706317387281004 1 0 
1 6.2831853071795862 -6.2831853071795862 0 1 
1 0 -6.2831853071795862 0 1 
1 0 50 1 0 
2 0 0 1 0 -0 1 8.5
1 6.2831853071795862 0 0 1 
1 0 0 0 1 
Curves 5
2 0 0 50 0 0 1 1 1.31e-15 -0 -1.31e-15 1 0 8.5
2 0 0 58.510682884790441 0 0 1 1 9.2866199999999999e-12 -0 -9.2866199999999999e-12 1 0 0.00139899966499797
2 0 50.010676295023856 0 0 0 1 1 0 -0 -0 1 0 8.5000067048959096
2 0 0 0 0 0 1 1 0 -0 -0 1 0 8.5
1 8.5 50 0 0 -1 0 
Polygon3D 0
PolygonOnTriangulations 0
Surfaces 3
4 0 1.11e-14 50.010676295023856 0 0 1 1 9.2866199999999999e-12 -0 -9.2866199999999999e-12 1 0 8.5000067048959096
2 0 0 50 -0 -0 -1 1 1.31e-15 -0 -1.31e-15 1 -0 8.5
1 0 0 0 0 0 1 1 0 -0 -0 1 0 
Triangulations 0

TShapes 16
Ve
1e-07
8.5 50 0
0 0

0101101
*
Ed
 1e-07 1 1 0
1  1 0 0 6.28318530717959
2  1 1 0 0 6.28318530717959
2  2 2 0 0 6.28318530717959
4 G1 1 0 2 0
0

0101000
+16 4 -16 4 *
Ve
1e-07
0.001398999664998 58.5106828847904 0
0 0

0101101
*
Ed
 1e-07 1 1 0
1  2 0 0 6.28318530717959
2  3 1 0 0 6.28318530717959
0

0101000
+14 4 -14 4 *
Ed
 1e-07 1 1 0
1  3 0 6.28192927313141 7.85381704590769
3  4 5CN 1 5 6.28192927313141 7.85381704590769
0

0101000
+16 0 -14 0 *
Wi

0101100
+15 0 -13 0 -12 4 +12 4 *
Fa
0  1e-07 1 0

0111000
+11 0 *
Ve
1e-07
8.5 0 0
0 0

0101101
*
Ed
 1e-07 1 1 0
1  4 0 0 6.28318530717959
2  6 2 0 0 6.28318530717959
2  7 3 0 0 6.28318530717959
0

0101000
+9 4 -9 4 *
Ed
 1e-07 1 1 0
1  5 0 0 50
3  8 9CN 2 5 0 50
0

0101000
+16 0 -9 0 *
Wi

0101100
+15 0 -8 0 -7 4 +7 4 *
Fa
0  1e-07 2 0

0111000
+6 0 *
Wi

0101100
+8 0 *
Fa
0  1e-07 3 0

0111000
+4 0 *
Sh

0101000
-10 0 +5 0 +3 0 *
Co

1100000
-2 1 *

+1 0 