DBRep_DrawableShape

CASCADE Topology V1, (c) Matra-Datavision
Locations 5
1
              1               0               0               0 
              0               1               0               0 
              0               0               1               0 
1
              1               0               0               0 
              0               1               0               0 
              0               0               1               0 
1
              1               0               0               0 
              0 2.22044604925031e-16              -1               0 
              0               1 2.22044604925031e-16               0 
2  2 1 3 1 0
2  3 -1 2 -1 0
Curve2ds 20
1 0 0 1 0 
1 0 38.92728235806905 1 0 
1 0 5.9610986427604042e-16 1 0 
1 6.2831853071795862 0 0 1 
1 0 0 0 1 
1 0 0.98461969996521503 1 0 
1 0 0 1 0 
1 6.2831853071795862 5.9610986427604042e-16 0 1 
1 0 5.9610986427604042e-16 0 1 
1 0 6.9213352518191744 1 0 
1 3.1975333039013196e-16 4.1262123535550081 1 0 
1 6.2831853071795862 0 0 1 
1 0 0 0 1 
1 3.1975333039013196e-16 3.1415926535897931 1 0 
1 0 6.617284748180829 1 0 
1 6.2831853071795862 4.4408920985006262e-16 0 1 
1 3.1975333039013196e-16 4.4408920985006262e-16 0 1 
1 0 0 1 0 
1 6.2831853071795862 0 0 1 
1 0 0 0 1 
Curves 11
2 0 0 0 0 0 1 1 0 -0 -0 1 0 16.5
2 0 0 38.92728235806905 0 0 1 1 5.2385412315167175e-16 -0 -5.2385412315167175e-16 1 0 16.5
1 16.5 0 0 0 1 0 
2 0 0 40.593405910692653 0 0 1 1 5.7755599737027438e-16 -0 -5.7755599737027438e-16 1 0 15.606359935731991
2 14.5 38.92728235806905 0 0 0 1 1 0 0 0 1 0 2
2 0 0 44.422149922883769 0 0 1 1 1.0023615392895827e-15 -0 -1.0023615392895827e-15 1 0 9.8404600964020119
1 15.606359935731991 40.593405910692653 0 -0.83306177631180245 0.55317996786599588 0 
2 0 0 46.921335251819173 0 0 1 1 1.2257210998288392e-15 -0 -1.2257210998288392e-15 1 0 8.5
2 11.5 46.921335251819173 0 0 0 1 1 0 0 0 1 0 3
2 0 0 53.538620000000002 0 0 1 1 1.3985837324860447e-15 -0 -1.3985837324860447e-15 1 0 8.5
1 8.5 53.538620000000002 0 0 -1 0 
Polygon3D 0
PolygonOnTriangulations 0
Surfaces 5
2 0 0 0 0 0 1 1 0 -0 -0 1 0 16.5
5 0 0 38.92728235806905 0 0 1 1 5.9610986427604022e-16 -0 -5.9610986427604022e-16 1 0 14.5 2
3 0 0 40.593405910692653 0 0 1 1 5.7755599737027438e-16 -0 -5.7755599737027438e-16 1 0 15.606359935731991
-0.98461969996521526
5 0 0 46.921335251819173 0 0 1 1 9.0596776943870714e-16 -0 -9.0596776943870714e-16 1 0 11.5 3
2 0 0 53.538620000000002 -0 -0 -1 1 1.3985837324860447e-15 -0 -1.3985837324860447e-15 1 -0 8.5
Triangulations 0

TShapes 29
Ve
1e-07
16.5 0 0
0 0

0101101
*
Ed
 1e-07 1 1 0
1  1 0 0 6.28318530717959
2  1 1 0 0 6.28318530717959
0

0101000
+29 4 -29 4 *
Ve
1e-07
16.5 38.927282358069 0
0 0

0101101
*
Ed
 1e-07 1 1 0
1  2 0 0 6.28318530717959
2  2 1 0 0 6.28318530717959
2  3 2 0 0 6.28318530717959
4 G1 1 0 2 0
0

0101000
+27 4 -27 4 *
Ed
 1e-07 1 1 0
1  3 0 0 38.927282358069
3  4 5CN 1 5 0 38.927282358069
0

0101000
+29 0 -27 0 *
Wi

0101100
+28 0 -26 0 -25 4 +25 4 *
Fa
0  1e-07 1 0

0101000
+24 0 *
Ve
1e-07
15.606359935732 40.5934059106927 0
0 0

0101101
*
Ed
 1e-07 1 1 0
1  4 0 0 6.28318530717959
2  6 2 0 0 6.28318530717959
2  7 3 0 0 6.28318530717959
4 G1 2 0 3 0
0

0101000
+22 4 -22 4 *
Ed
 1e-07 1 1 0
1  5 0 2.68343844431718e-32 0.984619699965216
3  8 9CN 2 5 2.68343844431718e-32 0.984619699965216
0

0101000
+27 0 -22 0 *
Wi

0101100
+26 0 -21 0 -20 4 +20 4 *
Fa
0  1e-07 2 0

0101000
+19 0 *
Ve
1e-07
9.84046009640201 44.4221499228838 0
0 0

0101101
*
Ed
 1e-07 1 1 0
1  6 0 0 6.28318530717959
2  10 3 0 0 6.28318530717959
2  11 4 0 0 6.28318530717959
4 G1 3 0 4 0
0

0101000
+17 4 -17 4 *
Ed
 1e-07 1 1 0
1  7 0 0 6.92133525181918
3  12 13CN 3 5 0 6.92133525181918
0

0101000
+22 0 -17 0 *
Wi

0101100
+21 0 -16 0 -15 4 +15 4 *
Fa
0  1e-07 3 0

0101000
+14 0 *
Ve
1e-07
8.5 46.9213352518192 0
0 0

0101101
*
Ed
 1e-07 1 1 0
1  8 0 0 6.28318530717959
2  14 4 0 0 6.28318530717959
2  15 5 0 0 6.28318530717959
4 G1 4 0 5 0
0

0101000
+12 4 -12 4 *
Ed
 1e-07 1 1 0
1  9 0 3.14159265358979 4.12621235355501
3  16 17CN 4 5 3.14159265358979 4.12621235355501
0

0101000
+12 0 -17 0 *
Wi

0101100
+11 0 -16 0 -10 4 +10 4 *
Fa
0  1e-07 4 0

0101000
+9 0 *
Ve
1e-07
8.5 53.53862 0
0 0

0101101
*
Ed
 1e-07 1 1 0
1  10 0 0 6.28318530717959
2  18 5 0 0 6.28318530717959
0

0101000
+7 4 -7 4 *
Ed
 1e-07 1 1 0
1  11 0 0 6.61728474818083
3  19 20CN 5 5 0 6.61728474818083
0

0101000
+7 0 -12 0 *
Wi

0101100
+6 0 -11 0 -5 4 +5 4 *
Fa
0  1e-07 5 0

0101000
+4 0 *
Sh

0101000
+23 0 +18 0 +13 0 -8 0 -3 0 *
Co

1100000
+2 1 *

+1 0 