DBRep_DrawableShape

CASCADE Topology V1, (c) Matra-Datavision
Locations 5
1
              1               0               0               0 
              0               1               0               0 
              0               0               1               0 
1
              1               0               0               0 
              0               1               0               0 
              0               0               1               0 
1
              1               0               0               0 
              0 2.22044604925031e-16              -1               0 
              0               1 2.22044604925031e-16               0 
2  2 1 3 1 0
2  3 -1 2 -1 0
Curve2ds 76
2 0 0 1 0 -0 1 16
2 0 0 1 -1.2418384702789541e-30 1.2418384702789541e-30 1 14.5
1 0 0 1 0 
1 0 28.781480694953363 1 0 
1 0 3.1806541049945885e-16 1 0 
1 6.2831853071795862 0 0 1 
1 0 0 0 1 
1 0 0.61086523819801586 1 0 
1 0 0 1 0 
1 6.2831853071795862 3.1806541049945885e-16 0 1 
1 0 3.1806541049945885e-16 0 1 
1 0 8.7154698488261229 1 0 
1 1.6774237609521965e-16 3.7524578917878086 1 0 
1 6.2831853071795862 0 0 1 
1 0 0 0 1 
1 1.6774237609521965e-16 3.1415926535897931 1 0 
1 0 0 1 0 
1 6.2831853071795862 1.7763568394002505e-15 0 1 
1 1.6774237609521965e-16 1.7763568394002505e-15 0 1 
1 0 17.045846746479917 1 0 
1 1.2844262366345532e-16 3.1415926535897931 1 0 
1 6.2831853071795862 0 0 1 
1 0 0 0 1 
1 1.2844262366345532e-16 2.530727415391782 1 0 
1 0 9.2164876227781534 1 0 
1 6.2831853071795862 2.6645352591003757e-15 0 1 
1 1.2844262366345532e-16 2.6645352591003757e-15 0 1 
1 0 0 1 0 
1 0 5.6723200689815707 1 0 
1 6.2831853071795862 0 0 1 
1 0 0 0 1 
1 0 6.2831853071795862 1 0 
1 0 34.05869816513129 1 0 
1 6.2831853071795862 0 0 1 
1 0 0 0 1 
1 0 0 1 0 
2 0 0 1 1.4358228078234042e-16 -1.4358228078234042e-16 1 14.5
1 6.2831853071795862 0 0 1 
1 0 0 0 1 
2 0 0 1 0 -0 1 16
1 0 34.48217829032437 1 0 
1 0 0 1 0 
1 0 6.2831853071795871 1 0 
1 6.2831853071795862 0 0 1 
1 0 0 0 1 
1 0 5.6723200689815716 1 0 
1 0 6.4842699633543548 1 0 
1 6.2831853071795862 0 0 1 
1 0 0 0 1 
1 0 0 1 0 
1 4.5581206053442617e-16 2.5307274153917776 1 0 
1 6.2831853071795862 0 0 1 
1 0 0 0 1 
1 4.5581206053442617e-16 3.1415926535897931 1 0 
1 0 0 1 0 
1 6.2831853071795871 0 0 1 
1 4.5581206053442617e-16 0 0 1 
1 0 11.237420344381341 1 0 
1 3.7887565911815571e-16 3.1415926535897931 1 0 
1 6.2831853071795862 0 0 1 
1 0 0 0 1 
1 3.7887565911815571e-16 3.7524578917878086 1 0 
1 0 0 1 0 
1 6.2831853071795862 0 0 1 
1 3.7887565911815571e-16 0 0 1 
1 0 6.8898279949538548 1 0 
1 0 0.6108652381980153 1 0 
1 6.2831853071795862 0 0 1 
1 0 0 0 1 
1 0 3.206169813439004e-16 1 0 
1 0 29.595361695243962 1 0 
1 6.2831853071795862 3.206169813439004e-16 0 1 
1 0 3.206169813439004e-16 0 1 
1 0 0 1 0 
1 6.2831853071795862 0 0 1 
1 0 0 0 1 
Curves 39
2 0 0 8.9483892352042313e-14 0 0 1 1 1.2418384702789541e-30 -0 -1.2418384702789541e-30 1 0 16
2 0 0 0 0 0 1 1 0 -0 -0 1 0 14.5
2 0 0 28.781480694953363 0 0 1 1 4.407429317288507e-16 -0 -4.407429317288507e-16 1 0 14.5
1 14.5 0 0 0 1 0 
2 0 0 30.99815257973453 0 0 1 1 4.9872687724211959e-16 -0 -4.9872687724211959e-16 1 0 13.801086039386405
2 10.635350505534898 28.781480694953363 0 0 0 1 1 0 0 0 1 0 3.8646494944651018
2 0 0 38.137447523339517 0 0 1 1 9.6206774363271698e-16 -0 -9.6206774363271698e-16 1 0 8.8020979023717256
1 13.801086039386405 30.99815257973453 0 -0.57357643635104627 0.81915204428899169 0 
2 0 0 39.095579660306505 0 0 1 1 1.0212897105868056e-15 -0 -1.0212897105868056e-15 1 0 8.5
2 10.170452403976691 39.095579660306505 0 0 0 1 1 0 0 0 1 0 1.670452403976691
2 0 0 56.141426406786422 0 0 1 1 1.466576570167366e-15 -0 -1.466576570167366e-15 1 0 8.5
1 8.5 39.095579660306505 0 0 1 0 
2 0 0 56.668408472292363 0 0 1 1 1.4519601538683212e-15 -0 -1.4519601538683212e-15 1 0 8.6661568070149695
2 9.4187651934561281 56.141426406786422 0 0 0 1 1 0 0 0 1 0 0.91876519345612762
2 0 0 64.218113149655281 0 0 1 1 1.0219866158521602e-15 -0 -1.0219866158521602e-15 1 0 13.952516933361583
1 13.952516933361583 64.218113149655281 0 -0.5735764363510456 -0.81915204428899213 0 
2 0 0 65.954507598187561 0 0 1 1 1.0099891436320367e-15 -0 -1.0099891436320367e-15 1 0 14.5
2 11.472688662772134 65.954507598187561 0 0 0 1 1 0 0 0 1 0 3.027311337227867
2 0 0 100.01320576331885 0 0 1 1 1.5315443283449653e-15 -0 -1.5315443283449653e-15 1 0 14.5
1 14.5 100.01320576331885 0 0 -1 0 
2 0 0 100.01320576331885 0 0 1 1 1.3879620475626249e-15 -0 -1.3879620475626249e-15 1 0 16
2 0 0 65.531027472994481 0 0 1 1 9.0942569409827721e-16 -0 -9.0942569409827721e-16 1 0 15.999999999999996
1 15.999999999999996 65.531027472994481 0 1.0303043064415061e-16 1 0 
2 0 0 62.74585571563415 0 0 1 1 9.2134157775397733e-16 -0 -9.2134157775397733e-16 1 0 15.121838718084334
2 11.144201224375736 65.531027472994481 0 0 0 1 1 0 0 0 1 0 4.85579877562426
2 0 0 57.434252719430724 0 0 1 1 1.1184247457008509e-15 -0 -1.1184247457008509e-15 1 0 11.402614260165414
1 11.402614260165414 57.434252719430724 0 0.57357643635104594 0.81915204428899202 0 
2 0 0 52.985728622169574 0 0 1 1 1.1765195178574567e-15 -0 -1.1765195178574567e-15 1 0 10
2 17.755765082613184 52.985728622169574 0 0 0 1 1 0 0 0 1 0 7.7557650826131841
2 0 0 41.748308277788233 0 0 1 1 9.2699866178299024e-16 -0 -9.2699866178299024e-16 1 0 10
1 10 52.985728622169574 0 0 -1 0 
2 0 0 37.783611497674656 0 0 1 1 7.4574215917851996e-16 -0 -7.4574215917851996e-16 1 0 11.250064093042216
2 16.912237896898301 41.748308277788233 0 0 0 1 1 0 0 0 1 0 6.9122378968982998
2 0 0 32.139794810808681 0 0 1 1 4.6944557698562243e-16 -0 -4.6944557698562243e-16 1 0 15.201907081459522
1 11.250064093042216 37.783611497674656 0 0.57357643635104627 -0.81915204428899169 0 
2 0 0 29.608567458562817 0 0 1 1 4.1090141648329494e-16 -0 -4.1090141648329494e-16 1 0 16
2 11.586939783738471 29.608567458562817 0 0 0 1 1 0 0 0 1 0 4.4130602162615293
2 0 0 0.013205763318855817 0 0 1 1 1.8326678117930064e-19 -0 -1.8326678117930064e-19 1 0 16
1 16 0.013205763318855817 0 0 1 0 
Polygon3D 0
PolygonOnTriangulations 0
Surfaces 20
1 0 0 8.9483892352042313e-14 -0 -0 -1 1 1.2418384702789541e-30 -0 -1.2418384702789541e-30 1 -0 
2 0 0 0 0 0 1 1 0 -0 -0 1 0 14.5
5 0 0 28.781480694953363 0 0 1 1 6.0089909653117865e-16 -0 -6.0089909653117865e-16 1 0 10.635350505534898 3.8646494944651018
3 0 0 30.99815257973453 0 0 1 1 4.9872687724211959e-16 -0 -4.9872687724211959e-16 1 0 13.801086039386405
-0.61086523819801553
5 0 0 39.095579660306505 0 0 1 1 8.5354733449158597e-16 -0 -8.5354733449158597e-16 1 0 10.170452403976691 1.670452403976691
2 0 0 39.095579660306505 0 0 1 1 1.0212897105868056e-15 -0 -1.0212897105868056e-15 1 0 8.5
5 0 0 56.141426406786422 0 0 1 1 1.3235175302048659e-15 -0 -1.3235175302048659e-15 1 0 9.4187651934561281 0.91876519345612762
3 0 0 64.218113149655281 -0 -0 -1 1 1.0219866158521602e-15 -0 -1.0219866158521602e-15 1 -0 13.952516933361583
-0.61086523819801475
5 0 0 65.954507598187561 0 0 1 1 1.2764961216271613e-15 -0 -1.2764961216271613e-15 1 0 11.472688662772134 3.027311337227867
2 0 0 100.01320576331885 -0 -0 -1 1 1.5315443283449653e-15 -0 -1.5315443283449653e-15 1 -0 14.5
1 0 0 100.01320576331885 0 0 1 1 1.3879620475626249e-15 -0 -1.3879620475626249e-15 1 0 
2 0 0 65.531027472994481 0 0 1 1 9.0942569409827721e-16 -0 -9.0942569409827721e-16 1 0 15.999999999999996
5 0 0 65.531027472994481 0 0 1 1 1.3056845271014498e-15 -0 -1.3056845271014498e-15 1 0 11.144201224375736 4.85579877562426
3 0 0 57.434252719430724 0 0 1 1 1.1184247457008509e-15 -0 -1.1184247457008509e-15 1 0 11.402614260165414
0.61086523819801508
5 0 0 52.985728622169574 0 0 1 1 6.6261268516642475e-16 -0 -6.6261268516642475e-16 1 0 17.755765082613184 7.7557650826131841
2 0 0 52.985728622169574 -0 -0 -1 1 1.1765195178574567e-15 -0 -1.1765195178574567e-15 1 -0 10
5 0 0 41.748308277788233 0 0 1 1 5.4812300266483453e-16 -0 -5.4812300266483453e-16 1 0 16.912237896898301 6.9122378968982998
3 0 0 37.783611497674656 -0 -0 -1 1 7.4574215917851996e-16 -0 -7.4574215917851996e-16 1 -0 11.250064093042216
0.61086523819801553
5 0 0 29.608567458562817 0 0 1 1 5.6739939849860109e-16 -0 -5.6739939849860109e-16 1 0 11.586939783738471 4.4130602162615293
2 0 0 0.013205763318855817 0 0 1 1 1.8326678117930064e-19 -0 -1.8326678117930064e-19 1 0 16
Triangulations 0

TShapes 104
Ve
1e-07
16 8.94838923520423e-14 0
0 0

0101101
*
Ed
 1e-07 1 1 0
1  1 0 0 6.28318530717959
2  1 1 0 0 6.28318530717959
0

0101000
+104 4 -104 4 *
Wi

0101100
+103 0 *
Ve
1e-07
14.5 0 0
0 0

0101101
*
Ed
 1e-07 1 1 0
1  2 0 0 6.28318530717959
2  2 1 0 0 6.28318530717959
2  3 2 0 0 6.28318530717959
0

0101000
+101 4 -101 4 *
Wi

0101100
-100 0 *
Fa
0  1e-07 1 0

0111000
+102 0 +99 0 *
Ve
1e-07
14.5 28.7814806949534 0
0 0

0101101
*
Ed
 1e-07 1 1 0
1  3 0 0 6.28318530717959
2  4 2 0 0 6.28318530717959
2  5 3 0 0 6.28318530717959
4 G1 2 0 3 0
0

0101000
+97 4 -97 4 *
Ed
 1e-07 1 1 0
1  4 0 0 28.7814806949534
3  6 7CN 2 5 0 28.7814806949534
0

0101000
+101 0 -97 0 *
Wi

0101100
+100 0 -96 0 -95 4 +95 4 *
Fa
0  1e-07 2 0

0111000
+94 0 *
Ve
1e-07
13.8010860393864 30.9981525797345 0
0 0

0101101
*
Ed
 1e-07 1 1 0
1  5 0 0 6.28318530717959
2  8 3 0 0 6.28318530717959
2  9 4 0 0 6.28318530717959
4 G1 3 0 4 0
0

0101000
+92 4 -92 4 *
Ed
 1e-07 1 1 0
1  6 0 0 0.610865238198016
3  10 11CN 3 5 0 0.610865238198016
0

0101000
+97 0 -92 0 *
Wi

0101100
+96 0 -91 0 -90 4 +90 4 *
Fa
0  1e-07 3 0

0111000
+89 0 *
Ve
1e-07
8.80209790237173 38.1374475233395 0
0 0

0101101
*
Ed
 1e-07 1 1 0
1  7 0 0 6.28318530717959
2  12 4 0 0 6.28318530717959
2  13 5 0 0 6.28318530717959
4 G1 4 0 5 0
0

0101000
+87 4 -87 4 *
Ed
 1e-07 1 1 0
1  8 0 0 8.71546984882612
3  14 15CN 4 5 0 8.71546984882612
0

0101000
+92 0 -87 0 *
Wi

0101100
+91 0 -86 0 -85 4 +85 4 *
Fa
0  1e-07 4 0

0111000
+84 0 *
Ve
1e-07
8.5 39.0955796603065 0
0 0

0101101
*
Ed
 1e-07 1 1 0
1  9 0 0 6.28318530717959
2  16 5 0 0 6.28318530717959
2  17 6 0 0 6.28318530717959
4 G1 5 0 6 0
0

0101000
+82 4 -82 4 *
Ed
 1e-07 1 1 0
1  10 0 3.14159265358979 3.75245789178781
3  18 19CN 5 5 3.14159265358979 3.75245789178781
0

0101000
+82 0 -87 0 *
Wi

0101100
+81 0 -86 0 -80 4 +80 4 *
Fa
0  1e-07 5 0

0111000
+79 0 *
Ve
1e-07
8.5 56.1414264067864 0
0 0

0101101
*
Ed
 1e-07 1 1 0
1  11 0 0 6.28318530717959
2  20 6 0 0 6.28318530717959
2  21 7 0 0 6.28318530717959
4 G1 6 0 7 0
0

0101000
+77 4 -77 4 *
Ed
 1e-07 1 1 0
1  12 0 0 17.0458467464799
3  22 23CN 6 5 0 17.0458467464799
0

0101000
+82 0 -77 0 *
Wi

0101100
+81 0 -76 0 -75 4 +75 4 *
Fa
0  1e-07 6 0

0111000
+74 0 *
Ve
1e-07
8.66615680701497 56.6684084722924 0
0 0

0101101
*
Ed
 1e-07 1 1 0
1  13 0 0 6.28318530717959
2  24 7 0 0 6.28318530717959
2  25 8 0 0 6.28318530717959
4 G1 7 0 8 0
0

0101000
+72 4 -72 4 *
Ed
 1e-07 1 1 0
1  14 0 2.53072741539178 3.14159265358979
3  26 27CN 7 5 2.53072741539178 3.14159265358979
0

0101000
+72 0 -77 0 *
Wi

0101100
+71 0 -76 0 -70 4 +70 4 *
Fa
0  1e-07 7 0

0111000
+69 0 *
Ve
1e-07
13.9525169333616 64.2181131496553 0
0 0

0101101
*
Ed
 1e-07 1 1 0
1  15 0 0 6.28318530717959
2  28 8 0 0 6.28318530717959
2  29 9 0 0 6.28318530717959
4 G1 8 0 9 0
0

0101000
+67 4 -67 4 *
Ed
 1e-07 1 1 0
1  16 0 0 9.21648762277815
3  30 31CN 8 5 0 9.21648762277815
0

0101000
+67 0 -72 0 *
Wi

0101100
+66 0 -71 0 -65 4 +65 4 *
Fa
0  1e-07 8 0

0111000
+64 0 *
Ve
1e-07
14.5 65.9545075981876 0
0 0

0101101
*
Ed
 1e-07 1 1 0
1  17 0 0 6.28318530717959
2  32 9 0 0 6.28318530717959
2  33 10 0 0 6.28318530717959
4 G1 9 0 10 0
0

0101000
+62 4 -62 4 *
Ed
 1e-07 1 1 0
1  18 0 5.67232006898157 6.28318530717959
3  34 35CN 9 5 5.67232006898157 6.28318530717959
0

0101000
+67 0 -62 0 *
Wi

0101100
+66 0 -61 0 -60 4 +60 4 *
Fa
0  1e-07 9 0

0111000
+59 0 *
Ve
1e-07
14.5 100.013205763319 0
0 0

0101101
*
Ed
 1e-07 1 1 0
1  19 0 0 6.28318530717959
2  36 10 0 0 6.28318530717959
2  37 11 0 0 6.28318530717959
0

0101000
+57 4 -57 4 *
Ed
 1e-07 1 1 0
1  20 0 0 34.0586981651313
3  38 39CN 10 5 0 34.0586981651313
0

0101000
+57 0 -62 0 *
Wi

0101100
+56 0 -61 0 -55 4 +55 4 *
Fa
0  1e-07 10 0

0111000
+54 0 *
Ve
1e-07
16 100.013205763319 0
0 0

0101101
*
Ed
 1e-07 1 1 0
1  21 0 0 6.28318530717959
2  40 11 0 0 6.28318530717959
2  41 12 0 0 6.28318530717959
0

0101000
+52 4 -52 4 *
Wi

0101100
+51 0 *
Wi

0101100
-56 0 *
Fa
0  1e-07 11 0

0111000
+50 0 +49 0 *
Ve
1e-07
16 65.5310274729945 0
0 0

0101101
*
Ed
 1e-07 1 1 0
1  22 0 0 6.28318530717959
2  42 12 0 0 6.28318530717959
2  43 13 0 0 6.28318530717959
4 G1 12 0 13 0
0

0101000
+47 4 -47 4 *
Ed
 1e-07 1 1 0
1  23 0 0 34.4821782903244
3  44 45CN 12 5 0 34.4821782903244
0

0101000
+47 0 -52 0 *
Wi

0101100
+46 0 -51 0 -45 4 +45 4 *
Fa
0  1e-07 12 0

0111000
+44 0 *
Ve
1.00000000888178e-07
15.1218387180843 62.7458557156341 0
0 0

0101101
*
Ed
 1.00000000888178e-07 1 1 0
1  24 0 0 6.28318530717959
2  46 13 0 0 6.28318530717959
2  47 14 0 0 6.28318530717959
4 G1 13 0 14 0
0

0101000
+42 4 -42 4 *
Ed
 1e-07 1 1 0
1  25 0 5.67232006898157 6.28318530717959
3  48 49CN 13 5 5.67232006898157 6.28318530717959
0

0101000
+42 0 -47 0 *
Wi

0101100
+41 0 -46 0 -40 4 +40 4 *
Fa
0  1e-07 13 0

0111000
+39 0 *
Ve
1e-07
11.4026142601654 57.4342527194307 0
0 0

0101101
*
Ed
 1e-07 1 1 0
1  26 0 0 6.28318530717959
2  50 14 0 0 6.28318530717959
2  51 15 0 0 6.28318530717959
4 G1 14 0 15 0
0

0101000
+37 4 -37 4 *
Ed
 1e-07 1 1 0
1  27 0 0 6.48426996335435
3  52 53CN 14 5 0 6.48426996335435
0

0101000
+37 0 -42 0 *
Wi

0101100
+36 0 -41 0 -35 4 +35 4 *
Fa
0  1e-07 14 0

0111000
+34 0 *
Ve
1e-07
10 52.9857286221696 0
0 0

0101101
*
Ed
 1e-07 1 1 0
1  28 0 0 6.28318530717959
2  54 15 0 0 6.28318530717959
2  55 16 0 0 6.28318530717959
4 G1 15 0 16 0
0

0101000
+32 4 -32 4 *
Ed
 1e-07 1 1 0
1  29 0 2.53072741539178 3.14159265358979
3  56 57CN 15 5 2.53072741539178 3.14159265358979
0

0101000
+37 0 -32 0 *
Wi

0101100
+36 0 -31 0 -30 4 +30 4 *
Fa
0  1e-07 15 0

0111000
+29 0 *
Ve
1e-07
10 41.7483082777882 0
0 0

0101101
*
Ed
 1e-07 1 1 0
1  30 0 0 6.28318530717959
2  58 16 0 0 6.28318530717959
2  59 17 0 0 6.28318530717959
4 G1 16 0 17 0
0

0101000
+27 4 -27 4 *
Ed
 1e-07 1 1 0
1  31 0 0 11.2374203443813
3  60 61CN 16 5 0 11.2374203443813
0

0101000
+32 0 -27 0 *
Wi

0101100
+31 0 -26 0 -25 4 +25 4 *
Fa
0  1e-07 16 0

0111000
+24 0 *
Ve
1e-07
11.2500640930422 37.7836114976747 0
0 0

0101101
*
Ed
 1e-07 1 1 0
1  32 0 0 6.28318530717959
2  62 17 0 0 6.28318530717959
2  63 18 0 0 6.28318530717959
4 G1 17 0 18 0
0

0101000
+22 4 -22 4 *
Ed
 1e-07 1 1 0
1  33 0 3.14159265358979 3.75245789178781
3  64 65CN 17 5 3.14159265358979 3.75245789178781
0

0101000
+27 0 -22 0 *
Wi

0101100
+26 0 -21 0 -20 4 +20 4 *
Fa
0  1e-07 17 0

0111000
+19 0 *
Ve
1e-07
15.2019070814595 32.1397948108087 0
0 0

0101101
*
Ed
 1e-07 1 1 0
1  34 0 0 6.28318530717959
2  66 18 0 0 6.28318530717959
2  67 19 0 0 6.28318530717959
4 G1 18 0 19 0
0

0101000
+17 4 -17 4 *
Ed
 1e-07 1 1 0
1  35 0 0 6.88982799495385
3  68 69CN 18 5 0 6.88982799495385
0

0101000
+22 0 -17 0 *
Wi

0101100
+21 0 -16 0 -15 4 +15 4 *
Fa
0  1e-07 18 0

0111000
+14 0 *
Ve
1e-07
16 29.6085674585628 0
0 0

0101101
*
Ed
 1e-07 1 1 0
1  36 0 0 6.28318530717959
2  70 19 0 0 6.28318530717959
2  71 20 0 0 6.28318530717959
4 G1 19 0 20 0
0

0101000
+12 4 -12 4 *
Ed
 1e-07 1 1 0
1  37 0 0 0.610865238198016
3  72 73CN 19 5 0 0.610865238198016
0

0101000
+12 0 -17 0 *
Wi

0101100
+11 0 -16 0 -10 4 +10 4 *
Fa
0  1e-07 19 0

0111000
+9 0 *
Ve
1e-07
16 0.0132057633188558 0
0 0

0101101
*
Ed
 1e-07 1 1 0
1  38 0 0 6.28318530717959
2  74 20 0 0 6.28318530717959
0

0101000
+7 4 -7 4 *
Ed
 1e-07 1 1 0
1  39 0 0 29.595361695244
3  75 76CN 20 5 0 29.595361695244
0

0101000
+7 0 -12 0 *
Wi

0101100
+6 0 -11 0 -5 4 +5 4 *
Fa
0  1e-07 20 0

0111000
+4 0 *
Sh

0101000
+98 0 +93 0 +88 0 +83 0 -78 0 +73 0 -68 0 -63 0 +58 0 -53 0 
-48 0 -43 0 -38 0 -33 0 +28 0 +23 0 +18 0 +13 0 -8 0 -3 0 
*
Co

1100000
+2 1 *

+1 0 