DBRep_DrawableShape

CASCADE Topology V1, (c) Matra-Datavision
Locations 5
1
              1               0               0               0 
              0               1               0               0 
              0               0               1               0 
1
              1               0               0               0 
              0               1               0               0 
              0               0               1               0 
1
              1               0               0               0 
              0 -4.44089209850063e-16              -1               0 
              0               1 -4.44089209850063e-16               0 
2  2 1 3 1 0
2  3 -1 2 -1 0
Curve2ds 76
2 0 0 1 0 -0 1 18.000000000000004
1 0 0 1 0 
2 0 0 1 7.7379192603547645e-47 -7.7379192603547645e-47 1 16.500000000000004
1 0 0 1 0 
1 0 38.92728235806905 1 0 
1 1.2004990322225816e-16 7.3955709864469857e-32 1 0 
1 6.2831853071795862 0 0 1 
1 0 0 0 1 
1 1.2004990322225816e-16 0.98461969996521503 1 0 
1 0 6.9213352518191797 1 0 
1 6.2831853071795862 -1.4356096678967999e-15 0 1 
1 1.2004990322225816e-16 -1.4356096678967999e-15 0 1 
1 0 0 1 0 
1 -8.8817841970012523e-16 4.1262123535550073 1 0 
1 6.2831853071795862 0 0 1 
1 0 0 0 1 
1 -8.8817841970012523e-16 3.1415926535897909 1 0 
1 0 26.434494926826083 1 0 
1 6.2831853071795853 -2.6645352591003757e-15 0 1 
1 -8.8817841970012523e-16 -2.6645352591003757e-15 0 1 
1 0 0 1 0 
1 0 3.14159265358979 1 0 
1 6.2831853071795862 0 0 1 
1 0 0 0 1 
1 0 2.1817906821318331 1 0 
1 0 0 1 0 
1 6.2831853071795862 8.8817841970012523e-16 0 1 
1 0 8.8817841970012523e-16 0 1 
1 0 7.6851398213735784 1 0 
1 1.9293335869263556e-16 5.3233833357216254 1 0 
1 6.2831853071795862 0 0 1 
1 0 0 0 1 
1 1.9293335869263556e-16 6.2831853071795862 1 0 
1 0 0 1 0 
1 6.2831853071795862 0 0 1 
1 1.9293335869263556e-16 0 0 1 
1 0 18.959029999981155 1 0 
2 0 0 1 0 -0 1 18.000000000000004
1 6.2831853071795862 0 0 1 
1 0 0 0 1 
2 0 0 1 -2.2428747972225366e-16 2.2428747972225366e-16 1 16.500000000000004
1 0 0 1 0 
1 0 18.959029999981169 1 0 
1 2.2849081712866206e-16 6.2831853071795862 1 0 
1 6.2831853071795862 0 0 1 
1 0 0 0 1 
1 2.2849081712866206e-16 5.3233833357216245 1 0 
1 0 0 1 0 
1 6.2831853071795862 -8.8817841970012523e-16 0 1 
1 2.2849081712866206e-16 -8.8817841970012523e-16 0 1 
1 0 7.6851398213735749 1 0 
1 -8.8817841970012523e-16 2.1817906821318327 1 0 
1 6.2831853071795862 0 0 1 
1 0 0 0 1 
1 -8.8817841970012523e-16 3.1415926535897913 1 0 
1 0 0 1 0 
1 6.2831853071795853 4.4408920985006262e-16 0 1 
1 -8.8817841970012523e-16 4.4408920985006262e-16 0 1 
1 0 26.434494926826076 1 0 
1 -8.8817841970012523e-16 3.1415926535897918 1 0 
1 6.2831853071795862 0 0 1 
1 0 0 0 1 
1 -8.8817841970012523e-16 4.1262123535550081 1 0 
1 0 6.9213352518191762 1 0 
1 6.2831853071795853 -8.8817841970012523e-16 0 1 
1 -8.8817841970012523e-16 -8.8817841970012523e-16 0 1 
1 0 0 1 0 
1 1.4451148224873704e-16 0.98461969996521503 1 0 
1 6.2831853071795862 0 0 1 
1 0 0 0 1 
1 1.4451148224873704e-16 9.8607613152626476e-32 1 0 
1 0 38.92728235806905 1 0 
1 6.2831853071795862 -8.7475231458861998e-18 0 1 
1 1.4451148224873704e-16 -8.7475231458861998e-18 0 1 
1 6.2831853071795862 0 0 1 
1 0 0 0 1 
Curves 38
2 0 0 -3.4500005394581164e-29 0 0 1 1 8.5117111863902449e-46 -0 -8.5117111863902449e-46 1 0 18.000000000000004
2 0 0 -3.4500005394581164e-29 0 0 1 1 9.2855031124257224e-46 -0 -9.2855031124257224e-46 1 0 16.500000000000004
2 0 0 38.927282358069057 0 0 1 1 -9.6039922577806468e-16 0 9.6039922577806468e-16 1 -0 18.000000000000004
1 18 -3.4500005394581159e-29 0 0 1 0 
2 0 0 40.59340591069266 0 0 1 1 -1.0538240527926182e-15 0 1.0538240527926182e-15 1 -0 17.106359935731994
2 16 38.92728235806905 0 0 0 1 1 0 0 0 1 0 2
2 0 0 44.422149922883783 0 0 1 1 -1.739558826661132e-15 0 1.739558826661132e-15 1 -0 11.340460096402014
1 11.340460096402012 44.422149922883776 0 0.833061776311802 -0.55317996786599655 0 
2 0 0 46.921335251819187 0 0 1 1 -2.0837258697090263e-15 0 2.0837258697090263e-15 1 -0 10.000000000000002
2 13 46.92133525181918 0 0 0 1 1 0 0 0 1 0 3
2 0 0 73.355830178645277 0 0 1 1 -3.2576532661929945e-15 0 3.2576532661929945e-15 1 -0 10.000000000000002
1 10 73.355830178645263 0 0 -1 0 
2 0 0 74.993986136470568 0 0 1 1 -3.0687494967050535e-15 0 3.0687494967050535e-15 1 -0 10.852635603724126
2 12 73.355830178645263 0 0 0 1 1 0 0 0 1 0 2
2 0 0 79.402814042193569 0 0 1 1 -2.0564054121068012e-15 0 2.0564054121068012e-15 1 -0 17.147364396275879
1 10.852635603724124 74.993986136470554 0 0.81907797891264456 0.57368219813793897 0 
2 0 0 81.040970000018859 0 0 1 1 -1.9994122407106105e-15 0 1.9994122407106105e-15 1 -0 18.000000000000004
2 16 81.040970000018845 0 0 0 1 1 0 0 0 1 0 2
2 0 0 100.00000000000003 0 0 1 1 -2.4671622769447918e-15 0 2.4671622769447918e-15 1 -0 18.000000000000004
1 18 81.040970000018845 0 0 1 0 
2 0 0 100.00000000000003 0 0 1 1 -2.6914497566670457e-15 0 2.6914497566670457e-15 1 -0 16.500000000000004
2 0 0 81.040970000018845 0 0 1 1 -2.1811769898661203e-15 0 2.1811769898661203e-15 1 -0 16.500000000000004
1 16.5 100 0 0 -1 0 
2 0 0 79.402814042193555 0 0 1 1 -2.2535381713396821e-15 0 2.2535381713396821e-15 1 -0 15.647364396275876
2 14.499999999999998 81.040970000018831 0 0 0 1 1 0 0 0 1 0 2
2 0 0 74.993986136470554 0 0 1 1 -3.5609235148208304e-15 0 3.5609235148208304e-15 1 -0 9.3526356037241261
1 15.647364396275872 79.40281404219354 0 -0.81907797891264433 -0.57368219813793919 0 
2 0 0 73.355830178645263 0 0 1 1 -3.8325332543446989e-15 0 3.8325332543446989e-15 1 -0 8.5000000000000018
2 10.5 73.355830178645249 0 0 0 1 1 0 0 0 1 0 2
2 0 0 46.92133525181918 0 0 1 1 -2.4514421996576776e-15 0 2.4514421996576776e-15 1 -0 8.5000000000000018
1 8.5 73.355830178645249 0 0 -1 0 
2 0 0 44.422149922883776 0 0 1 1 -2.0047230785791651e-15 0 2.0047230785791651e-15 1 -0 9.8404600964020137
2 11.5 46.921335251819173 0 0 0 1 1 0 0 0 1 0 3
2 0 0 40.59340591069266 0 0 1 1 -1.1551119947405484e-15 0 1.1551119947405484e-15 1 -0 15.606359935731994
1 15.606359935731991 40.593405910692653 0 -0.83306177631180245 0.55317996786599588 0 
2 0 0 38.927282358069057 0 0 1 1 -1.0477082463033431e-15 0 1.0477082463033431e-15 1 -0 16.500000000000004
2 14.5 38.92728235806905 0 0 0 1 1 0 0 0 1 0 2
1 16.5 -3.4500005394581159e-29 0 0 1 0 
Polygon3D 0
PolygonOnTriangulations 0
Surfaces 20
1 0 0 -3.4500005394581164e-29 0 0 1 1 8.5117111863902449e-46 -0 -8.5117111863902449e-46 1 0 
2 0 0 -3.4500005394581164e-29 0 0 1 1 8.5117111863902449e-46 -0 -8.5117111863902449e-46 1 0 18.000000000000004
2 0 0 -3.4500005394581164e-29 0 0 1 1 9.2855031124257224e-46 -0 -9.2855031124257224e-46 1 0 16.500000000000004
5 0 0 38.927282358069057 0 0 1 1 -1.0804491290003227e-15 0 1.0804491290003227e-15 1 -0 16.000000000000004 2.0000000000000004
3 0 0 44.422149922883783 -0 -0 -1 1 -1.739558826661132e-15 0 1.739558826661132e-15 1 -0 11.340460096402014
0.98461969996521448
5 0 0 46.921335251819187 0 0 1 1 -1.6028660536223279e-15 0 1.6028660536223279e-15 1 -0 13.000000000000004 3.0000000000000009
2 0 0 73.355830178645277 -0 -0 -1 1 -3.2576532661929945e-15 0 3.2576532661929945e-15 1 -0 10.000000000000002
5 0 0 73.355830178645277 0 0 1 1 -2.7147110551608287e-15 0 2.7147110551608287e-15 1 -0 12.000000000000004 2.0000000000000004
3 0 0 74.993986136470568 0 0 1 1 -3.0687494967050535e-15 0 3.0687494967050535e-15 1 -0 10.852635603724126
0.95980197145795931
5 0 0 81.040970000018859 0 0 1 1 -2.249338770799437e-15 0 2.249338770799437e-15 1 -0 16.000000000000004 2.0000000000000004
2 0 0 81.040970000018859 0 0 1 1 -1.9994122407106105e-15 0 1.9994122407106105e-15 1 -0 18.000000000000004
1 0 0 100.00000000000003 0 0 1 1 -2.4671622769447918e-15 0 2.4671622769447918e-15 1 -0 
2 0 0 100.00000000000003 -0 -0 -1 1 -2.6914497566670457e-15 0 2.6914497566670457e-15 1 -0 16.500000000000004
5 0 0 81.040970000018845 0 0 1 1 -2.4820289884683441e-15 0 2.4820289884683441e-15 1 -0 14.500000000000002 2.0000000000000004
3 0 0 79.402814042193555 -0 -0 -1 1 -2.2535381713396821e-15 0 2.2535381713396821e-15 1 -0 15.647364396275876
-0.95980197145795898
5 0 0 73.355830178645263 0 0 1 1 -3.1025269201838039e-15 0 3.1025269201838039e-15 1 -0 10.500000000000002 2.0000000000000004
2 0 0 73.355830178645263 -0 -0 -1 1 -3.8325332543446989e-15 0 3.8325332543446989e-15 1 -0 8.5000000000000018
5 0 0 46.92133525181918 0 0 1 1 -1.8119355388774143e-15 0 1.8119355388774143e-15 1 -0 11.500000000000002 3.0000000000000009
3 0 0 40.59340591069266 0 0 1 1 -1.1551119947405484e-15 0 1.1551119947405484e-15 1 -0 15.606359935731994
-0.98461969996521526
5 0 0 38.927282358069057 0 0 1 1 -1.1922197285520802e-15 0 1.1922197285520802e-15 1 -0 14.500000000000004 2.0000000000000004
Triangulations 0

TShapes 103
Ve
1e-07
18 -3.45000053945812e-29 0
0 0

0101101
*
Ed
 1e-07 1 1 0
1  1 0 0 6.28318530717959
2  1 1 0 0 6.28318530717959
2  2 2 0 0 6.28318530717959
0

0101000
+103 4 -103 4 *
Wi

0101100
+102 0 *
Ve
1e-07
16.5 -3.45000053945812e-29 0
0 0

0101101
*
Ed
 1e-07 1 1 0
1  2 0 0 6.28318530717959
2  3 1 0 0 6.28318530717959
2  4 3 0 0 6.28318530717959
0

0101000
+100 4 -100 4 *
Wi

0101100
-99 0 *
Fa
0  1e-07 1 0

0101000
+101 0 +98 0 *
Ve
1e-07
18 38.927282358069 0
0 0

0101101
*
Ed
 1e-07 1 1 0
1  3 0 0 6.28318530717959
2  5 2 0 0 6.28318530717959
2  6 4 0 0 6.28318530717959
4 G1 2 0 4 0
0

0101000
+96 4 -96 4 *
Ed
 1e-07 1 1 0
1  4 0 0 38.927282358069
3  7 8CN 2 5 0 38.927282358069
0

0101000
+103 0 -96 0 *
Wi

0101100
+102 0 -95 0 -94 4 +94 4 *
Fa
0  1e-07 2 0

0101000
+93 0 *
Ve
1e-07
17.106359935732 40.5934059106927 0
0 0

0101101
*
Ed
 1e-07 1 1 0
1  5 0 0 6.28318530717959
2  9 4 0 0 6.28318530717959
2  10 5 0 0 6.28318530717959
4 G1 4 0 5 0
0

0101000
+91 4 -91 4 *
Ed
 1e-07 1 1 0
1  6 0 1.4356096678968e-15 0.984619699965215
3  11 12CN 4 5 1.4356096678968e-15 0.984619699965215
0

0101000
+96 0 -91 0 *
Wi

0101100
+95 0 -90 0 -89 4 +89 4 *
Fa
0  1e-07 4 0

0101000
+88 0 *
Ve
1e-07
11.340460096402 44.4221499228838 0
0 0

0101101
*
Ed
 1e-07 1 1 0
1  7 0 0 6.28318530717959
2  13 5 0 0 6.28318530717959
2  14 6 0 0 6.28318530717959
4 G1 5 0 6 0
0

0101000
+86 4 -86 4 *
Ed
 1e-07 1 1 0
1  8 0 0 6.92133525181918
3  15 16CN 5 5 0 6.92133525181918
0

0101000
+86 0 -91 0 *
Wi

0101100
+85 0 -90 0 -84 4 +84 4 *
Fa
0  1e-07 5 0

0101000
+83 0 *
Ve
1e-07
10 46.9213352518192 0
0 0

0101101
*
Ed
 1e-07 1 1 0
1  9 0 0 6.28318530717959
2  17 6 0 0 6.28318530717959
2  18 7 0 0 6.28318530717959
4 G1 6 0 7 0
0

0101000
+81 4 -81 4 *
Ed
 1e-07 1 1 0
1  10 0 3.14159265358979 4.12621235355501
3  19 20CN 6 5 3.14159265358979 4.12621235355501
0

0101000
+81 0 -86 0 *
Wi

0101100
+80 0 -85 0 -79 4 +79 4 *
Fa
0  1e-07 6 0

0101000
+78 0 *
Ve
1e-07
10 73.3558301786453 0
0 0

0101101
*
Ed
 1e-07 1 1 0
1  11 0 0 6.28318530717959
2  21 7 0 0 6.28318530717959
2  22 8 0 0 6.28318530717959
4 G1 7 0 8 0
0

0101000
+76 4 -76 4 *
Ed
 1e-07 1 1 0
1  12 0 0 26.4344949268261
3  23 24CN 7 5 0 26.4344949268261
0

0101000
+76 0 -81 0 *
Wi

0101100
+75 0 -80 0 -74 4 +74 4 *
Fa
0  1e-07 7 0

0101000
+73 0 *
Ve
1e-07
10.8526356037241 74.9939861364706 0
0 0

0101101
*
Ed
 1e-07 1 1 0
1  13 0 0 6.28318530717959
2  25 8 0 0 6.28318530717959
2  26 9 0 0 6.28318530717959
4 G1 8 0 9 0
0

0101000
+71 4 -71 4 *
Ed
 1e-07 1 1 0
1  14 0 2.18179068213183 3.14159265358979
3  27 28CN 8 5 2.18179068213183 3.14159265358979
0

0101000
+71 0 -76 0 *
Wi

0101100
+70 0 -75 0 -69 4 +69 4 *
Fa
0  1e-07 8 0

0101000
+68 0 *
Ve
1e-07
17.1473643962759 79.4028140421936 0
0 0

0101101
*
Ed
 1e-07 1 1 0
1  15 0 0 6.28318530717959
2  29 9 0 0 6.28318530717959
2  30 10 0 0 6.28318530717959
4 G1 9 0 10 0
0

0101000
+66 4 -66 4 *
Ed
 1e-07 1 1 0
1  16 0 0 7.68513982137358
3  31 32CN 9 5 0 7.68513982137358
0

0101000
+71 0 -66 0 *
Wi

0101100
+70 0 -65 0 -64 4 +64 4 *
Fa
0  1e-07 9 0

0101000
+63 0 *
Ve
1e-07
18 81.0409700000188 0
0 0

0101101
*
Ed
 1e-07 1 1 0
1  17 0 0 6.28318530717959
2  33 10 0 0 6.28318530717959
2  34 11 0 0 6.28318530717959
4 G1 10 0 11 0
0

0101000
+61 4 -61 4 *
Ed
 1e-07 1 1 0
1  18 0 5.32338333572163 6.28318530717959
3  35 36CN 10 5 5.32338333572163 6.28318530717959
0

0101000
+66 0 -61 0 *
Wi

0101100
+65 0 -60 0 -59 4 +59 4 *
Fa
0  1e-07 10 0

0101000
+58 0 *
Ve
1e-07
18 100 0
0 0

0101101
*
Ed
 1e-07 1 1 0
1  19 0 0 6.28318530717959
2  37 11 0 0 6.28318530717959
2  38 12 0 0 6.28318530717959
0

0101000
+56 4 -56 4 *
Ed
 1e-07 1 1 0
1  20 0 0 18.9590299999812
3  39 40CN 11 5 0 18.9590299999812
0

0101000
+61 0 -56 0 *
Wi

0101100
+60 0 -55 0 -54 4 +54 4 *
Fa
0  1e-07 11 0

0101000
+53 0 *
Wi

0101100
+55 0 *
Ve
1e-07
16.5 100 0
0 0

0101101
*
Ed
 1e-07 1 1 0
1  21 0 0 6.28318530717959
2  41 12 0 0 6.28318530717959
2  42 13 0 0 6.28318530717959
0

0101000
+50 4 -50 4 *
Wi

0101100
-49 0 *
Fa
0  1e-07 12 0

0101000
+51 0 +48 0 *
Ve
1e-07
16.5 81.0409700000188 0
0 0

0101101
*
Ed
 1e-07 1 1 0
1  22 0 0 6.28318530717959
2  43 13 0 0 6.28318530717959
2  44 14 0 0 6.28318530717959
4 G1 13 0 14 0
0

0101000
+46 4 -46 4 *
Ed
 1e-07 1 1 0
1  23 0 0 18.9590299999812
3  45 46CN 13 5 0 18.9590299999812
0

0101000
+50 0 -46 0 *
Wi

0101100
+49 0 -45 0 -44 4 +44 4 *
Fa
0  1e-07 13 0

0101000
+43 0 *
Ve
1e-07
15.6473643962759 79.4028140421935 0
0 0

0101101
*
Ed
 1e-07 1 1 0
1  24 0 0 6.28318530717959
2  47 14 0 0 6.28318530717959
2  48 15 0 0 6.28318530717959
4 G1 14 0 15 0
0

0101000
+41 4 -41 4 *
Ed
 1e-07 1 1 0
1  25 0 5.32338333572163 6.28318530717959
3  49 50CN 14 5 5.32338333572163 6.28318530717959
0

0101000
+41 0 -46 0 *
Wi

0101100
+40 0 -45 0 -39 4 +39 4 *
Fa
0  1e-07 14 0

0101000
+38 0 *
Ve
1e-07
9.35263560372412 74.9939861364705 0
0 0

0101101
*
Ed
 1e-07 1 1 0
1  26 0 0 6.28318530717959
2  51 15 0 0 6.28318530717959
2  52 16 0 0 6.28318530717959
4 G1 15 0 16 0
0

0101000
+36 4 -36 4 *
Ed
 1e-07 1 1 0
1  27 0 0 7.68513982137357
3  53 54CN 15 5 0 7.68513982137357
0

0101000
+41 0 -36 0 *
Wi

0101100
+40 0 -35 0 -34 4 +34 4 *
Fa
0  1e-07 15 0

0101000
+33 0 *
Ve
1e-07
8.5 73.3558301786452 0
0 0

0101101
*
Ed
 1e-07 1 1 0
1  28 0 0 6.28318530717959
2  55 16 0 0 6.28318530717959
2  56 17 0 0 6.28318530717959
4 G1 16 0 17 0
0

0101000
+31 4 -31 4 *
Ed
 1e-07 1 1 0
1  29 0 2.18179068213183 3.14159265358979
3  57 58CN 16 5 2.18179068213183 3.14159265358979
0

0101000
+36 0 -31 0 *
Wi

0101100
+35 0 -30 0 -29 4 +29 4 *
Fa
0  1e-07 16 0

0101000
+28 0 *
Ve
1e-07
8.5 46.9213352518192 0
0 0

0101101
*
Ed
 1e-07 1 1 0
1  30 0 0 6.28318530717959
2  59 17 0 0 6.28318530717959
2  60 18 0 0 6.28318530717959
4 G1 17 0 18 0
0

0101000
+26 4 -26 4 *
Ed
 1e-07 1 1 0
1  31 0 0 26.4344949268261
3  61 62CN 17 5 0 26.4344949268261
0

0101000
+31 0 -26 0 *
Wi

0101100
+30 0 -25 0 -24 4 +24 4 *
Fa
0  1e-07 17 0

0101000
+23 0 *
Ve
1e-07
9.84046009640201 44.4221499228838 0
0 0

0101101
*
Ed
 1e-07 1 1 0
1  32 0 0 6.28318530717959
2  63 18 0 0 6.28318530717959
2  64 19 0 0 6.28318530717959
4 G1 18 0 19 0
0

0101000
+21 4 -21 4 *
Ed
 1e-07 1 1 0
1  33 0 3.14159265358979 4.12621235355501
3  65 66CN 18 5 3.14159265358979 4.12621235355501
0

0101000
+26 0 -21 0 *
Wi

0101100
+25 0 -20 0 -19 4 +19 4 *
Fa
0  1e-07 18 0

0101000
+18 0 *
Ve
1e-07
15.606359935732 40.5934059106927 0
0 0

0101101
*
Ed
 1e-07 1 1 0
1  34 0 0 6.28318530717959
2  67 19 0 0 6.28318530717959
2  68 20 0 0 6.28318530717959
4 G1 19 0 20 0
0

0101000
+16 4 -16 4 *
Ed
 1e-07 1 1 0
1  35 0 0 6.92133525181918
3  69 70CN 19 5 0 6.92133525181918
0

0101000
+16 0 -21 0 *
Wi

0101100
+15 0 -20 0 -14 4 +14 4 *
Fa
0  1e-07 19 0

0101000
+13 0 *
Ve
1e-07
16.5 38.927282358069 0
0 0

0101101
*
Ed
 1e-07 1 1 0
1  36 0 0 6.28318530717959
2  71 20 0 0 6.28318530717959
2  72 3 0 0 6.28318530717959
4 G1 20 0 3 0
0

0101000
+11 4 -11 4 *
Ed
 1e-07 1 1 0
1  37 0 8.7475231458863e-18 0.984619699965216
3  73 74CN 20 5 8.7475231458863e-18 0.984619699965216
0

0101000
+11 0 -16 0 *
Wi

0101100
+10 0 -15 0 -9 4 +9 4 *
Fa
0  1e-07 20 0

0101000
+8 0 *
Ed
 1e-07 1 1 0
1  38 0 0 38.927282358069
3  75 76CN 3 5 0 38.927282358069
0

0101000
+100 0 -11 0 *
Wi

0101100
+99 0 -10 0 -6 4 +6 4 *
Fa
0  1e-07 3 0

0101000
+5 0 *
Sh

0101100
+97 0 -92 0 -87 0 +82 0 +77 0 +72 0 +67 0 -62 0 -57 0 -52 0 
-47 0 -42 0 +37 0 -32 0 -27 0 -22 0 -17 0 +12 0 +7 0 +4 0 
*
So

0100000
-3 0 *
Co

1100000
+2 1 *

+1 0 