DBRep_DrawableShape

CASCADE Topology V1, (c) Matra-Datavision
Locations 3
1
              1               0               0               0 
              0               1               0               0 
              0               0               1               0 
1
              1               0               0               0 
              0               1               0               0 
              0               0               1              30 
2  2 -1 0
Curve2ds 5
1 0 0 0 -1 
1 6.2831853071795862 0 0 -1 
2 0 0 1 0 -0 1 10
1 0 0 1 0 
1 0 -30 1 0 
Curves 2
1 10 -2.4492935982947065e-15 0 0 0 1 
2 0 0 0 0 0 1 1 0 -0 -0 1 0 10
Polygon3D 0
PolygonOnTriangulations 5
2 1 2 
p 0.0466666673620542 1 0 30 
2 49 48 
p 0.0466666673620542 1 0 30 
47 1 50 51 52 53 54 55 56 57 58 59 60 61 62 63 64 65 66 67 68 69 70 71 72 73 74 75 76 77 78 79 80 81 82 83 84 85 86 87 88 89 90 91 92 93 94 49 
p 0.0466666673620542 1 0 0.136590984938687 0.273181969877373 0.40977295481606 0.546363939754747 0.682954924693433 0.81954590963212 0.956136894570806 1.09272787950949 1.22931886444818 1.36590984938687 1.50250083432555 1.63909181926424 1.77568280420293 1.91227378914161 2.0488647740803 2.18545575901899 2.32204674395767 2.45863772889636 2.59522871383505 2.73181969877373 2.86841068371242 3.00500166865111 3.14159265358979 3.27818363852848 3.41477462346717 3.55136560840585 3.68795659334454 3.82454757828323 3.96113856322191 4.0977295481606 4.23432053309929 4.37091151803797 4.50750250297666 4.64409348791535 4.78068447285403 4.91727545779272 5.05386644273141 5.1904574276701 5.32704841260878 5.46363939754747 5.60023038248616 5.73682136742484 5.87341235236353 6.01000333730222 6.1465943222409 6.28318530717959 
47 1 2 3 4 5 6 7 8 9 10 11 12 13 14 15 16 17 18 19 20 21 22 23 24 25 26 27 28 29 30 31 32 33 34 35 36 37 38 39 40 41 42 43 44 45 46 1 
p 0.0466666673620542 1 0 0.136590984938687 0.273181969877373 0.40977295481606 0.546363939754747 0.682954924693433 0.81954590963212 0.956136894570806 1.09272787950949 1.22931886444818 1.36590984938687 1.50250083432555 1.63909181926424 1.77568280420293 1.91227378914161 2.0488647740803 2.18545575901899 2.32204674395767 2.45863772889636 2.59522871383505 2.73181969877373 2.86841068371242 3.00500166865111 3.14159265358979 3.27818363852848 3.41477462346717 3.55136560840585 3.68795659334454 3.82454757828323 3.96113856322191 4.0977295481606 4.23432053309929 4.37091151803797 4.50750250297666 4.64409348791535 4.78068447285403 4.91727545779272 5.05386644273141 5.1904574276701 5.32704841260878 5.46363939754747 5.60023038248616 5.73682136742484 5.87341235236353 6.01000333730222 6.1465943222409 6.28318530717959 
47 2 3 4 5 6 7 8 9 10 11 12 13 14 15 16 17 18 19 20 21 22 23 24 25 26 27 28 29 30 31 32 33 34 35 36 37 38 39 40 41 42 43 44 45 46 47 48 
p 0.0466666673620542 1 0 0.136590984938687 0.273181969877373 0.40977295481606 0.546363939754747 0.682954924693433 0.81954590963212 0.956136894570806 1.09272787950949 1.22931886444818 1.36590984938687 1.50250083432555 1.63909181926424 1.77568280420293 1.91227378914161 2.0488647740803 2.18545575901899 2.32204674395767 2.45863772889636 2.59522871383505 2.73181969877373 2.86841068371242 3.00500166865111 3.14159265358979 3.27818363852848 3.41477462346717 3.55136560840585 3.68795659334454 3.82454757828323 3.96113856322191 4.0977295481606 4.23432053309929 4.37091151803797 4.50750250297666 4.64409348791535 4.78068447285403 4.91727545779272 5.05386644273141 5.1904574276701 5.32704841260878 5.46363939754747 5.60023038248616 5.73682136742484 5.87341235236353 6.01000333730222 6.1465943222409 6.28318530717959 
Surfaces 2
2 0 0 0 -0 -0 -1 1 0 -0 -0 1 0 10
1 0 0 0 0 0 1 1 0 -0 -0 1 0 
Triangulations 2
94 92 1 0.0466666673620542
10 -2.44929359829471e-15 0 10 -2.44929359829471e-15 30 9.90685946036331 1.36166649096247 30 9.62917287347799 2.69796771157024 30 9.17211301505453 3.98401089846241 30 8.54419404546489 5.19583950035434 30 7.7571129070442 6.31087944326053 30 6.82553143218654 7.30835964278124 30 5.76680322114867 8.16969893010442 30 4.60065037731152 8.87885218402375 30 3.34879612170986 9.4226092211882 30 2.03456013052634 9.79084087682323 30 0.682424133646715 9.97668769190539 30 -0.682424133646704 9.97668769190539 30 -2.03456013052633 9.79084087682323 30 -3.34879612170986 9.42260922118821 30 -4.60065037731152 8.87885218402375 30 -5.76680322114867 8.16969893010442 30 -6.82553143218654 7.30835964278125 30 -7.75711290704419 6.31087944326053 30 -8.54419404546488 5.19583950035434 30 -9.17211301505453 3.98401089846242 30 -9.62917287347799 2.69796771157025 30 -9.90685946036331 1.36166649096248 30 -10 1.01064309961486e-14 30 -9.90685946036331 -1.36166649096246 30 -9.629172873478 -2.69796771157023 30 -9.17211301505453 -3.9840108984624 30 -8.54419404546489 -5.19583950035432 30 -7.75711290704421 -6.31087944326052 30 -6.82553143218655 -7.30835964278123 30 -5.76680322114868 -8.16969893010441 30 -4.60065037731153 -8.87885218402375 30 -3.34879612170986 -9.4226092211882 30 -2.03456013052634 -9.79084087682323 30 -0.682424133646705 -9.97668769190539 30 0.682424133646719 -9.97668769190539 30 2.03456013052635 -9.79084087682322 30 3.34879612170988 -9.4226092211882 30 4.60065037731154 -8.87885218402374 30 5.76680322114869 -8.16969893010441 30 6.82553143218656 -7.30835964278122 30 7.75711290704422 -6.3108794432605 30 8.5441940454649 -5.19583950035431 30 9.17211301505455 -3.98401089846238 30 9.62917287347801 -2.6979677115702 30 9.90685946036331 -1.36166649096242 30 10 -2.44929359829471e-15 30 10 -2.44929359829471e-15 0 9.90685946036331 1.36166649096247 0 9.62917287347799 2.69796771157024 0 9.17211301505453 3.98401089846241 0 8.54419404546489 5.19583950035434 0 7.7571129070442 6.31087944326053 0 6.82553143218654 7.30835964278124 0 5.76680322114867 8.16969893010442 0 4.60065037731152 8.87885218402375 0 3.34879612170986 9.4226092211882 0 2.03456013052634 9.79084087682323 0 0.682424133646715 9.97668769190539 0 -0.682424133646704 9.97668769190539 0 -2.03456013052633 9.79084087682323 0 -3.34879612170986 9.42260922118821 0 -4.60065037731152 8.87885218402375 0 -5.76680322114867 8.16969893010442 0 -6.82553143218654 7.30835964278125 0 -7.75711290704419 6.31087944326053 0 -8.54419404546488 5.19583950035434 0 -9.17211301505453 3.98401089846242 0 -9.62917287347799 2.69796771157025 0 -9.90685946036331 1.36166649096248 0 -10 1.01064309961486e-14 0 -9.90685946036331 -1.36166649096246 0 -9.629172873478 -2.69796771157023 0 -9.17211301505453 -3.9840108984624 0 -8.54419404546489 -5.19583950035432 0 -7.75711290704421 -6.31087944326052 0 -6.82553143218655 -7.30835964278123 0 -5.76680322114868 -8.16969893010441 0 -4.60065037731153 -8.87885218402375 0 -3.34879612170986 -9.4226092211882 0 -2.03456013052634 -9.79084087682323 0 -0.682424133646705 -9.97668769190539 0 0.682424133646719 -9.97668769190539 0 2.03456013052635 -9.79084087682322 0 3.34879612170988 -9.4226092211882 0 4.60065037731154 -8.87885218402374 0 5.76680322114869 -8.16969893010441 0 6.82553143218656 -7.30835964278122 0 7.75711290704422 -6.3108794432605 0 8.5441940454649 -5.19583950035431 0 9.17211301505455 -3.98401089846238 0 9.62917287347801 -2.6979677115702 0 9.90685946036331 -1.36166649096242 0 0 0 0 -30 0.136590984938687 -30 0.273181969877373 -30 0.40977295481606 -30 0.546363939754747 -30 0.682954924693433 -30 0.81954590963212 -30 0.956136894570807 -30 1.09272787950949 -30 1.22931886444818 -30 1.36590984938687 -30 1.50250083432555 -30 1.63909181926424 -30 1.77568280420293 -30 1.91227378914161 -30 2.0488647740803 -30 2.18545575901899 -30 2.32204674395767 -30 2.45863772889636 -30 2.59522871383505 -30 2.73181969877373 -30 2.86841068371242 -30 3.00500166865111 -30 3.14159265358979 -30 3.27818363852848 -30 3.41477462346717 -30 3.55136560840585 -30 3.68795659334454 -30 3.82454757828323 -30 3.96113856322191 -30 4.0977295481606 -30 4.23432053309929 -30 4.37091151803797 -30 4.50750250297666 -30 4.64409348791535 -30 4.78068447285403 -30 4.91727545779272 -30 5.05386644273141 -30 5.1904574276701 -30 5.32704841260878 -30 5.46363939754747 -30 5.60023038248616 -30 5.73682136742484 -30 5.87341235236353 -30 6.01000333730222 -30 6.1465943222409 -30 6.28318530717959 -30 6.28318530717959 0 0.136590984938687 0 0.273181969877373 0 0.40977295481606 0 0.546363939754747 0 0.682954924693433 0 0.81954590963212 0 0.956136894570807 0 1.09272787950949 0 1.22931886444818 0 1.36590984938687 0 1.50250083432555 0 1.63909181926424 0 1.77568280420293 0 1.91227378914161 0 2.0488647740803 0 2.18545575901899 0 2.32204674395767 0 2.45863772889636 0 2.59522871383505 0 2.73181969877373 0 2.86841068371242 0 3.00500166865111 0 3.14159265358979 0 3.27818363852848 0 3.41477462346717 0 3.55136560840585 0 3.68795659334454 0 3.82454757828323 0 3.96113856322191 0 4.0977295481606 0 4.23432053309929 0 4.37091151803797 0 4.50750250297666 0 4.64409348791535 0 4.78068447285403 0 4.91727545779272 0 5.05386644273141 0 5.1904574276701 0 5.32704841260878 0 5.46363939754747 0 5.60023038248616 0 5.73682136742484 0 5.87341235236353 0 6.01000333730222 0 6.1465943222409 0 50 1 2 50 2 3 51 3 4 51 50 3 52 4 5 52 51 4 53 5 6 53 52 5 54 6 7 54 53 6 55 7 8 55 54 7 56 8 9 56 55 8 57 9 10 57 10 11 57 56 9 58 11 12 58 57 11 59 58 12 60 12 13 60 13 14 60 59 12 61 60 14 62 14 15 62 61 14 63 15 16 63 62 15 64 16 17 64 63 16 65 17 18 65 18 19 65 64 17 66 65 19 67 19 20 67 66 19 68 20 21 68 21 22 68 67 20 69 68 22 70 22 23 70 23 24 70 69 22 71 70 24 72 24 25 72 71 24 73 25 26 73 72 25 74 26 27 74 27 28 74 73 26 75 28 29 75 74 28 76 75 29 77 76 29 77 29 30 77 30 31 78 77 31 79 78 31 79 31 32 79 32 33 80 79 33 81 80 33 81 33 34 82 81 34 82 34 35 83 82 35 83 35 36 83 36 37 84 83 37 85 37 38 85 38 39 85 84 37 86 39 40 86 85 39 87 86 40 88 40 41 88 41 42 88 87 40 89 88 42 90 42 43 90 43 44 90 89 42 91 90 44 92 44 45 92 45 46 92 91 44 93 92 46 94 46 47 94 93 46 49 47 48 49 94 47 
46 44 1 0.0466666673620542
10 -2.44929359829471e-15 0 9.90685946036331 1.36166649096247 0 9.62917287347799 2.69796771157024 0 9.17211301505453 3.98401089846241 0 8.54419404546489 5.19583950035434 0 7.7571129070442 6.31087944326053 0 6.82553143218654 7.30835964278124 0 5.76680322114867 8.16969893010442 0 4.60065037731152 8.87885218402375 0 3.34879612170986 9.4226092211882 0 2.03456013052634 9.79084087682323 0 0.682424133646715 9.97668769190539 0 -0.682424133646704 9.97668769190539 0 -2.03456013052633 9.79084087682323 0 -3.34879612170986 9.42260922118821 0 -4.60065037731152 8.87885218402375 0 -5.76680322114867 8.16969893010442 0 -6.82553143218654 7.30835964278125 0 -7.75711290704419 6.31087944326053 0 -8.54419404546488 5.19583950035434 0 -9.17211301505453 3.98401089846242 0 -9.62917287347799 2.69796771157025 0 -9.90685946036331 1.36166649096248 0 -10 1.01064309961486e-14 0 -9.90685946036331 -1.36166649096246 0 -9.629172873478 -2.69796771157023 0 -9.17211301505453 -3.9840108984624 0 -8.54419404546489 -5.19583950035432 0 -7.75711290704421 -6.31087944326052 0 -6.82553143218655 -7.30835964278123 0 -5.76680322114868 -8.16969893010441 0 -4.60065037731153 -8.87885218402375 0 -3.34879612170986 -9.4226092211882 0 -2.03456013052634 -9.79084087682323 0 -0.682424133646705 -9.97668769190539 0 0.682424133646719 -9.97668769190539 0 2.03456013052635 -9.79084087682322 0 3.34879612170988 -9.4226092211882 0 4.60065037731154 -8.87885218402374 0 5.76680322114869 -8.16969893010441 0 6.82553143218656 -7.30835964278122 0 7.75711290704422 -6.3108794432605 0 8.5441940454649 -5.19583950035431 0 9.17211301505455 -3.98401089846238 0 9.62917287347801 -2.6979677115702 0 9.90685946036331 -1.36166649096242 0 10 -1.77635683940025e-15 9.90685946036331 1.36166649096247 9.62917287347799 2.69796771157024 9.17211301505453 3.98401089846242 8.54419404546488 5.19583950035434 7.7571129070442 6.31087944326053 6.82553143218654 7.30835964278124 5.76680322114867 8.16969893010442 4.60065037731152 8.87885218402375 3.34879612170987 9.4226092211882 2.03456013052634 9.79084087682323 0.682424133646714 9.97668769190539 -0.682424133646704 9.97668769190539 -2.03456013052633 9.79084087682323 -3.34879612170986 9.42260922118821 -4.60065037731152 8.87885218402375 -5.76680322114867 8.16969893010442 -6.82553143218654 7.30835964278124 -7.75711290704419 6.31087944326053 -8.54419404546488 5.19583950035434 -9.17211301505453 3.98401089846242 -9.62917287347799 2.69796771157025 -9.90685946036331 1.36166649096248 -10 1.06581410364015e-14 -9.90685946036331 -1.36166649096246 -9.629172873478 -2.69796771157023 -9.17211301505453 -3.9840108984624 -8.54419404546489 -5.19583950035432 -7.75711290704421 -6.31087944326052 -6.82553143218655 -7.30835964278123 -5.76680322114868 -8.16969893010441 -4.60065037731153 -8.87885218402375 -3.34879612170986 -9.4226092211882 -2.03456013052634 -9.79084087682323 -0.682424133646705 -9.97668769190539 0.682424133646718 -9.97668769190539 2.03456013052635 -9.79084087682322 3.34879612170988 -9.4226092211882 4.60065037731154 -8.87885218402374 5.76680322114869 -8.16969893010441 6.82553143218656 -7.30835964278122 7.75711290704422 -6.3108794432605 8.54419404546491 -5.19583950035431 9.17211301505455 -3.98401089846238 9.62917287347801 -2.6979677115702 9.90685946036331 -1.36166649096242 28 29 30 28 30 31 33 31 32 26 27 28 24 25 26 24 26 28 36 34 35 37 33 34 37 34 36 22 23 24 41 39 40 18 19 20 18 20 21 18 21 22 42 37 38 42 38 39 42 28 31 42 31 33 42 33 37 42 39 41 16 17 18 16 18 22 46 42 43 46 43 44 46 44 45 11 12 13 3 1 2 3 42 46 3 46 1 3 22 24 3 24 28 3 28 42 9 10 11 9 13 14 9 14 15 9 11 13 5 3 4 8 9 15 6 16 22 6 15 16 6 22 3 6 3 5 6 8 15 7 8 6 

TShapes 10
Ve
1e-07
10 -2.44929359829471e-15 0
0 0

0101101
*
Ed
 1e-07 1 1 0
1  1 0 0 30
3  1 2CN 1 0 0 30
7  1 2 1 0
0

0101000
+10 0 -10 2 *
Ed
 1e-07 1 1 0
1  2 0 0 6.28318530717959
2  3 2 0 0 6.28318530717959
2  4 1 0 0 6.28318530717959
2  5 1 3 0 6.28318530717959
6  3 1 0
6  4 2 0
6  5 1 3
0

0101000
+10 0 -10 0 *
Wi

0101100
+9 0 -9 0 -8 0 +8 2 *
Fa
0  1e-07 1 0
2  1
0111000
+7 0 *
Wi

0101100
-8 0 *
Fa
0  1e-07 2 0
2  2
0111000
-5 0 *
Sh

0101100
+6 0 +4 0 -4 2 *
So

0100000
-3 0 *
Co

1100000
+2 1 *

+1 0 