DBRep_DrawableShape

CASCADE Topology V3, (c) Open Cascade
Locations 1
1
              1               0               0               0 
              0               1               0               0 
              0               0               1               0 
Curve2ds 14
1 0 100 1 0 
2 0 0 1 0 -0 1 13
1 6.2831853071795862 -0 0 1 
1 0 -0 0 1 
1 0 0 1 0 
2 0 0 1 0 -0 1 13
1 0 100 1 0 
2 0 0 1 0 -0 1 11.5
2 0 0 1 0 -0 1 11.5
1 0 0 1 0 
2 0 0 1 0 -0 1 11.5
2 0 0 1 0 -0 1 11.5
1 6.2831853071795862 -0 0 1 
1 0 -0 0 1 
Curves 6
2 0 0 100 0 0 1 1 0 -0 -0 1 0 13
1 13 -3.1840816777831182e-15 0 0 0 1 
2 0 0 0 0 0 1 1 0 -0 -0 1 0 13
2 0 0 100 0 0 1 1 0 -0 -0 1 0 11.5
2 0 0 0 0 0 1 1 0 -0 -0 1 0 11.5
1 11.5 -2.8166876380389124e-15 0 0 0 1 
Polygon3D 0
PolygonOnTriangulations 0
Surfaces 6
2 0 0 0 0 0 1 1 0 -0 -0 1 0 13
1 0 0 100 0 0 1 1 0 -0 -0 1 0 
1 0 0 0 0 0 1 1 0 -0 -0 1 0 
2 0 0 0 0 0 1 1 0 -0 -0 1 0 11.5
1 0 0 100 0 0 1 1 0 -0 -0 1 0 
1 0 0 0 0 0 1 1 0 -0 -0 1 0 
Triangulations 0

TShapes 23
Ve
1e-07
13 -3.18408167778312e-15 100
0 0

0101101
*
Ed
 1e-07 1 1 0
1  1 0 0 6.28318530717959
2  1 1 0 0 6.28318530717959
2  2 2 0 0 6.28318530717959
0

0101000
+23 0 -23 0 *
Ve
1e-07
13 -3.18408167778312e-15 0
0 0

0101101
*
Ed
 1e-07 1 1 0
1  2 0 0 100
3  3 4CN 1 0 0 100
0

0101000
-23 0 +21 0 *
Ed
 1e-07 1 1 0
1  3 0 0 6.28318530717959
2  5 1 0 0 6.28318530717959
2  6 3 0 0 6.28318530717959
0

0101000
+21 0 -21 0 *
Wi

0101100
-22 0 +20 0 +19 0 -20 0 *
Fa
0  1e-07 1 0

0101000
+18 0 *
Wi

0101100
+22 0 *
Ve
1e-07
11.5 -2.81668763803891e-15 100
0 0

0101101
*
Ed
 1e-07 1 1 0
1  4 0 0 6.28318530717959
2  7 4 0 0 6.28318530717959
2  8 5 0 0 6.28318530717959
2  9 2 0 0 6.28318530717959
0

0101000
+15 0 -15 0 *
Wi

0101100
-14 0 *
Fa
0  1e-07 2 0

0101000
+16 0 +13 0 *
Wi

0101100
+19 0 *
Ve
1e-07
11.5 -2.81668763803891e-15 0
0 0

0101101
*
Ed
 1e-07 1 1 0
1  5 0 0 6.28318530717959
2  10 4 0 0 6.28318530717959
2  11 6 0 0 6.28318530717959
2  12 3 0 0 6.28318530717959
0

0101000
+10 0 -10 0 *
Wi

0101100
-9 0 *
Fa
0  1e-07 3 0

0101000
+11 0 +8 0 *
Ed
 1e-07 1 1 0
1  6 0 0 100
3  13 14CN 4 0 0 100
0

0101000
-15 0 +10 0 *
Wi

0101100
-14 0 +6 0 +9 0 -6 0 *
Fa
0  1e-07 4 0

0101000
+5 0 *
Sh

0101100
+17 0 +12 0 -7 0 -4 0 *
So

0100000
+3 0 *
Co

1100000
+2 1 *

+1 0 