DBRep_DrawableShape

CASCADE Topology V1, (c) Matra-Datavision
Locations 5
1
              1               0               0               0 
              0               1               0               0 
              0               0               1               0 
1
              1               0               0               0 
              0               1               0               0 
              0               0               1               0 
1
              1               0               0               0 
              0 2.22044604925031e-16              -1               0 
              0               1 2.22044604925031e-16               0 
2  2 1 3 1 0
2  3 -1 2 -1 0
Curve2ds 4
1 0 0 1 0 
1 0 60 1 0 
1 6.2831853071795862 0 0 1 
1 0 0 0 1 
Curves 3
2 0 0 60 0 0 1 1 1.3322676295501878e-15 -0 -1.3322676295501878e-15 1 0 10
2 0 0 0 0 0 1 1 0 -0 -0 1 0 10
1 10 60 0 0 -1 0 
Polygon3D 0
PolygonOnTriangulations 0
Surfaces 1
2 0 0 60 -0 -0 -1 1 1.3322676295501878e-15 -0 -1.3322676295501878e-15 1 -0 10
Triangulations 0

TShapes 9
Ve
1e-07
10 60 0
0 0

0101101
*
Ed
 1e-07 1 1 0
1  1 0 0 6.28318530717959
2  1 1 0 0 6.28318530717959
0

0101000
+9 4 -9 4 *
Ve
1e-07
10 0 0
0 0

0101101
*
Ed
 1e-07 1 1 0
1  2 0 0 6.28318530717959
2  2 1 0 0 6.28318530717959
0

0101000
+7 4 -7 4 *
Ed
 1e-07 1 1 0
1  3 0 0 60
3  3 4CN 1 5 0 60
0

0101000
+9 0 -7 0 *
Wi

0101100
+8 0 -6 0 -5 4 +5 4 *
Fa
0  1e-07 1 0

0111000
+4 0 *
Sh

0101000
+3 0 *
Co

1100000
-2 1 *

+1 0 