DBRep_DrawableShape

CASCADE Topology V1, (c) Matra-Datavision
Locations 9
1
              1               0               0               0 
              0               1               0               0 
              0               0               1               0 
1
              1               0               0               0 
              0 2.22044604925031e-16              -1               0 
              0               1 2.22044604925031e-16               0 
2  2 -1 0
1
              1               0               0               0 
              0               1               0               0 
              0               0               1               0 
1
              1               0               0               0 
              0 2.22044604925031e-16              -1               0 
              0               1 2.22044604925031e-16               0 
1
              1               0               0               0 
              0 -2.22044604925031e-16              -1               0 
              0               1 -2.22044604925031e-16               0 
2  4 1 5 1 6 -1 0
2  6 1 5 -1 4 -1 0
2  2 -1 6 1 5 -1 4 -1 0
Curve2ds 4
8 0 6.2831853071795862
1 0 0 1 0 
8 0 6.2831853071795862
1 0 99.999999999999986 1 0 
8 0 99.999999999999986
1 6.2831853071795862 0 0 1 
8 0 99.999999999999986
1 0 0 0 1 
Curves 3
2 0 3.330669073875469e-14 49.999999999999993 0 -6.6613381477509392e-16 -1 1 0 0 0 -1 6.6613381477509392e-16 19.999999999999996
2 0 -3.330669073875469e-14 -49.999999999999993 0 -6.6613381477509392e-16 -1 1 0 0 0 -1 6.6613381477509392e-16 19.999999999999996
1 19.999999999999996 1.1102230246251567e-14 49.999999999999993 0 -2.2204460492503136e-16 -1 
Polygon3D 0
PolygonOnTriangulations 6
42 1 2 3 4 5 6 7 8 9 10 11 12 13 14 15 16 17 18 19 20 21 22 23 24 25 26 27 28 29 30 31 32 33 34 35 36 37 38 39 40 41 42 
p 0.120000001788139 1 0 0.153248422126331 0.306496844252663 0.459745266378994 0.612993688505326 0.766242110631657 0.919490532757988 1.07273895488432 1.22598737701065 1.37923579913698 1.53248422126331 1.68573264338964 1.83898106551598 1.99222948764231 2.14547790976864 2.29872633189497 2.4519747540213 2.60522317614763 2.75847159827396 2.9117200204003 3.06496844252663 3.21821686465296 3.37146528677929 3.52471370890562 3.67796213103195 3.83121055315828 3.98445897528461 4.13770739741095 4.29095581953728 4.44420424166361 4.59745266378994 4.75070108591627 4.9039495080426 5.05719793016894 5.21044635229527 5.3636947744216 5.51694319654793 5.67019161867426 5.82344004080059 5.97668846292693 6.12993688505326 6.28318530717959 
42 1 2 3 4 5 6 7 8 9 10 11 12 13 14 15 16 17 18 19 20 21 22 23 24 25 26 27 28 29 30 31 32 33 34 35 36 37 38 39 40 41 1 
p 0.120000001788139 1 0 0.153248422126331 0.306496844252663 0.459745266378994 0.612993688505326 0.766242110631657 0.919490532757988 1.07273895488432 1.22598737701065 1.37923579913698 1.53248422126331 1.68573264338964 1.83898106551598 1.99222948764231 2.14547790976864 2.29872633189497 2.4519747540213 2.60522317614763 2.75847159827396 2.9117200204003 3.06496844252663 3.21821686465296 3.37146528677929 3.52471370890562 3.67796213103195 3.83121055315828 3.98445897528461 4.13770739741095 4.29095581953728 4.44420424166361 4.59745266378994 4.75070108591627 4.9039495080426 5.05719793016894 5.21044635229527 5.3636947744216 5.51694319654793 5.67019161867426 5.82344004080059 5.97668846292693 6.12993688505326 6.28318530717959 
42 44 45 46 47 48 49 50 51 52 53 54 55 56 57 58 59 60 61 62 63 64 65 66 67 68 69 70 71 72 73 74 75 76 77 78 79 80 81 82 83 84 43 
p 0.120000001788139 1 0 0.153248422126331 0.306496844252663 0.459745266378994 0.612993688505326 0.766242110631657 0.919490532757988 1.07273895488432 1.22598737701065 1.37923579913698 1.53248422126331 1.68573264338964 1.83898106551598 1.99222948764231 2.14547790976864 2.29872633189497 2.4519747540213 2.60522317614763 2.75847159827396 2.9117200204003 3.06496844252663 3.21821686465296 3.37146528677929 3.52471370890562 3.67796213103195 3.83121055315828 3.98445897528461 4.13770739741095 4.29095581953728 4.44420424166361 4.59745266378994 4.75070108591627 4.9039495080426 5.05719793016894 5.21044635229527 5.3636947744216 5.51694319654793 5.67019161867426 5.82344004080059 5.97668846292693 6.12993688505326 6.28318530717959 
42 1 2 3 4 5 6 7 8 9 10 11 12 13 14 15 16 17 18 19 20 21 22 23 24 25 26 27 28 29 30 31 32 33 34 35 36 37 38 39 40 41 1 
p 0.120000001788139 1 0 0.153248422126331 0.306496844252663 0.459745266378994 0.612993688505326 0.766242110631657 0.919490532757988 1.07273895488432 1.22598737701065 1.37923579913698 1.53248422126331 1.68573264338964 1.83898106551598 1.99222948764231 2.14547790976864 2.29872633189497 2.4519747540213 2.60522317614763 2.75847159827396 2.9117200204003 3.06496844252663 3.21821686465296 3.37146528677929 3.52471370890562 3.67796213103195 3.83121055315828 3.98445897528461 4.13770739741095 4.29095581953728 4.44420424166361 4.59745266378994 4.75070108591627 4.9039495080426 5.05719793016894 5.21044635229527 5.3636947744216 5.51694319654793 5.67019161867426 5.82344004080059 5.97668846292693 6.12993688505326 6.28318530717959 
2 42 43 
p 0.120000001788139 1 0 100 
2 1 44 
p 0.120000001788139 1 0 100 
Surfaces 3
1 0 3.330669073875469e-14 49.999999999999993 0 -6.6613381477509392e-16 -1 -1 0 -0 0 -1 6.6613381477509392e-16 
2 0 3.330669073875469e-14 49.999999999999993 0 -6.6613381477509392e-16 -1 1 0 0 0 -1 6.6613381477509392e-16 19.999999999999996
1 0 -3.330669073875469e-14 -49.999999999999993 0 -6.6613381477509392e-16 -1 1 0 0 0 -1 6.6613381477509392e-16 
Triangulations 3
41 39 1 0.120000001788139
20 3.33066907387547e-14 50 19.765608475607 -3.05298568437746 50 19.0679278410986 -6.03441197190381 50 17.9233111392211 -8.87439675733916 50 16.3585872153343 -11.5063732043724 50 14.4104318720157 -13.8686500158448 50 12.1245082193328 -15.9058574254685 50 9.55439637024525 -17.5702450182188 50 6.76033756817005 -18.8228009595912 50 3.80782218329337 -19.6341663999371 50 0.76605467380071 -19.9853236210162 50 -2.293668507968 -19.8680417951935 50 -5.29963004393323 -19.2850699090628 50 -8.18137274342679 -18.250072329531 50 -10.8713510000244 -16.787308522639 50 -13.3065140033113 -14.9310644322392 50 -15.4297835964388 -12.7248488465312 50 -17.191392139744 -10.2203735889422 50 -18.5500490220419 -7.47634143681536 50 -19.4739084775556 -4.55707017806274 50 -19.9413160236748 -1.5309850567299 50 -19.9413160236748 1.53098505672992 50 -19.4739084775556 4.55707017806276 50 -18.5500490220419 7.47634143681538 50 -17.191392139744 10.2203735889422 50 -15.4297835964389 12.7248488465312 50 -13.3065140033113 14.9310644322393 50 -10.8713510000244 16.787308522639 50 -8.18137274342682 18.250072329531 50 -5.29963004393325 19.2850699090628 50 -2.29366850796802 19.8680417951935 50 0.766054673800705 19.9853236210162 50 3.80782218329337 19.6341663999371 50 6.76033756817006 18.8228009595913 50 9.55439637024527 17.5702450182189 50 12.1245082193328 15.9058574254685 50 14.4104318720158 13.8686500158448 50 16.3585872153344 11.5063732043724 50 17.9233111392211 8.87439675733918 50 19.0679278410986 6.03441197190383 50 19.765608475607 3.05298568437746 50 -20 -3.5527136788005e-15 -19.765608475607 3.05298568437749 -19.0679278410986 6.03441197190385 -17.9233111392211 8.87439675733919 -16.3585872153343 11.5063732043724 -14.4104318720157 13.8686500158448 -12.1245082193328 15.9058574254685 -9.55439637024525 17.5702450182188 -6.76033756817005 18.8228009595912 -3.80782218329337 19.6341663999371 -0.76605467380071 19.9853236210162 2.293668507968 19.8680417951935 5.29963004393322 19.2850699090628 8.18137274342679 18.250072329531 10.8713510000244 16.787308522639 13.3065140033113 14.9310644322393 15.4297835964388 12.7248488465312 17.191392139744 10.2203735889422 18.5500490220419 7.47634143681539 19.4739084775556 4.55707017806277 19.9413160236748 1.53098505672994 19.9413160236748 -1.53098505672989 19.4739084775556 -4.55707017806272 18.5500490220419 -7.47634143681535 17.191392139744 -10.2203735889422 15.4297835964389 -12.7248488465312 13.3065140033113 -14.9310644322392 10.8713510000244 -16.787308522639 8.18137274342682 -18.250072329531 5.29963004393325 -19.2850699090628 2.29366850796802 -19.8680417951935 -0.766054673800706 -19.9853236210162 -3.80782218329337 -19.6341663999371 -6.76033756817007 -18.8228009595912 -9.55439637024527 -17.5702450182188 -12.1245082193328 -15.9058574254685 -14.4104318720158 -13.8686500158448 -16.3585872153344 -11.5063732043724 -17.9233111392211 -8.87439675733915 -19.0679278410986 -6.0344119719038 -19.765608475607 -3.05298568437743 38 37 36 34 36 35 34 38 36 2 40 39 2 41 40 2 1 41 30 32 31 29 33 32 29 32 30 4 3 2 5 2 39 5 4 2 25 27 26 8 6 5 8 7 6 8 34 33 8 39 38 8 38 34 8 5 39 24 28 27 24 29 28 24 27 25 11 9 8 11 10 9 11 8 33 20 22 21 19 22 20 19 23 22 19 24 23 18 24 19 16 11 33 16 24 18 16 12 11 16 13 12 16 14 13 16 15 14 16 18 17 16 33 29 16 29 24 
84 82 1 0.120000001788139
20 3.33066907387547e-14 50 19.765608475607 -3.05298568437746 50 19.0679278410986 -6.03441197190381 50 17.9233111392211 -8.87439675733916 50 16.3585872153343 -11.5063732043724 50 14.4104318720157 -13.8686500158448 50 12.1245082193328 -15.9058574254685 50 9.55439637024525 -17.5702450182188 50 6.76033756817005 -18.8228009595912 50 3.80782218329337 -19.6341663999371 50 0.76605467380071 -19.9853236210162 50 -2.293668507968 -19.8680417951935 50 -5.29963004393323 -19.2850699090628 50 -8.18137274342679 -18.250072329531 50 -10.8713510000244 -16.787308522639 50 -13.3065140033113 -14.9310644322392 50 -15.4297835964388 -12.7248488465312 50 -17.191392139744 -10.2203735889422 50 -18.5500490220419 -7.47634143681536 50 -19.4739084775556 -4.55707017806274 50 -19.9413160236748 -1.5309850567299 50 -19.9413160236748 1.53098505672992 50 -19.4739084775556 4.55707017806276 50 -18.5500490220419 7.47634143681538 50 -17.191392139744 10.2203735889422 50 -15.4297835964389 12.7248488465312 50 -13.3065140033113 14.9310644322393 50 -10.8713510000244 16.787308522639 50 -8.18137274342682 18.250072329531 50 -5.29963004393325 19.2850699090628 50 -2.29366850796802 19.8680417951935 50 0.766054673800705 19.9853236210162 50 3.80782218329337 19.6341663999371 50 6.76033756817006 18.8228009595913 50 9.55439637024527 17.5702450182189 50 12.1245082193328 15.9058574254685 50 14.4104318720158 13.8686500158448 50 16.3585872153344 11.5063732043724 50 17.9233111392211 8.87439675733918 50 19.0679278410986 6.03441197190383 50 19.765608475607 3.05298568437746 50 20 3.33066907387547e-14 50 20 -3.33066907387547e-14 -50 20 -3.33066907387547e-14 -50 19.765608475607 -3.05298568437752 -50 19.0679278410986 -6.03441197190388 -50 17.9233111392211 -8.87439675733923 -50 16.3585872153343 -11.5063732043724 -50 14.4104318720157 -13.8686500158449 -50 12.1245082193328 -15.9058574254686 -50 9.55439637024525 -17.5702450182189 -50 6.76033756817005 -18.8228009595913 -50 3.80782218329337 -19.6341663999371 -50 0.76605467380071 -19.9853236210162 -50 -2.293668507968 -19.8680417951935 -50 -5.29963004393323 -19.2850699090629 -50 -8.18137274342679 -18.250072329531 -50 -10.8713510000244 -16.787308522639 -50 -13.3065140033113 -14.9310644322393 -50 -15.4297835964388 -12.7248488465312 -50 -17.191392139744 -10.2203735889423 -50 -18.5500490220419 -7.47634143681543 -50 -19.4739084775556 -4.5570701780628 -50 -19.9413160236748 -1.53098505672997 -50 -19.9413160236748 1.53098505672985 -50 -19.4739084775556 4.55707017806269 -50 -18.5500490220419 7.47634143681531 -50 -17.191392139744 10.2203735889421 -50 -15.4297835964389 12.7248488465311 -50 -13.3065140033113 14.9310644322392 -50 -10.8713510000244 16.7873085226389 -50 -8.18137274342682 18.250072329531 -50 -5.29963004393325 19.2850699090628 -50 -2.29366850796802 19.8680417951935 -50 0.766054673800705 19.9853236210162 -50 3.80782218329337 19.6341663999371 -50 6.76033756817006 18.8228009595912 -50 9.55439637024527 17.5702450182188 -50 12.1245082193328 15.9058574254685 -50 14.4104318720158 13.8686500158448 -50 16.3585872153344 11.5063732043723 -50 17.9233111392211 8.87439675733912 -50 19.0679278410986 6.03441197190376 -50 19.765608475607 3.0529856843774 -50 0 0 0.153248422126331 0 0.306496844252663 0 0.459745266378994 0 0.612993688505326 0 0.766242110631657 0 0.919490532757988 0 1.07273895488432 0 1.22598737701065 0 1.37923579913698 0 1.53248422126331 0 1.68573264338964 0 1.83898106551598 0 1.99222948764231 0 2.14547790976864 0 2.29872633189497 0 2.4519747540213 0 2.60522317614763 0 2.75847159827396 0 2.9117200204003 0 3.06496844252663 0 3.21821686465296 0 3.37146528677929 0 3.52471370890562 0 3.67796213103195 0 3.83121055315828 0 3.98445897528461 0 4.13770739741095 0 4.29095581953728 0 4.44420424166361 0 4.59745266378994 0 4.75070108591627 0 4.9039495080426 0 5.05719793016894 0 5.21044635229527 0 5.3636947744216 0 5.51694319654793 0 5.67019161867426 0 5.82344004080059 0 5.97668846292693 0 6.12993688505326 0 6.28318530717959 0 6.28318530717959 100 0 100 0.153248422126331 100 0.306496844252663 100 0.459745266378994 100 0.612993688505326 100 0.766242110631657 100 0.919490532757988 100 1.07273895488432 100 1.22598737701065 100 1.37923579913698 100 1.53248422126331 100 1.68573264338964 100 1.83898106551598 100 1.99222948764231 100 2.14547790976864 100 2.29872633189497 100 2.4519747540213 100 2.60522317614763 100 2.75847159827396 100 2.9117200204003 100 3.06496844252663 100 3.21821686465296 100 3.37146528677929 100 3.52471370890562 100 3.67796213103195 100 3.83121055315828 100 3.98445897528461 100 4.13770739741095 100 4.29095581953728 100 4.44420424166361 100 4.59745266378994 100 4.75070108591627 100 4.9039495080426 100 5.05719793016894 100 5.21044635229527 100 5.3636947744216 100 5.51694319654793 100 5.67019161867426 100 5.82344004080059 100 5.97668846292693 100 6.12993688505326 100 44 1 2 45 2 3 45 44 2 46 45 3 47 3 4 47 4 5 47 46 3 48 47 5 49 48 5 49 5 6 50 6 7 50 49 6 51 7 8 51 50 7 52 8 9 52 51 8 53 9 10 53 52 9 54 10 11 54 53 10 55 11 12 55 12 13 55 54 11 56 13 14 56 55 13 57 56 14 58 14 15 58 57 14 59 15 16 59 58 15 60 16 17 60 59 16 61 17 18 61 18 19 61 60 17 62 19 20 62 61 19 63 62 20 64 20 21 64 63 20 65 21 22 65 64 21 66 22 23 66 65 22 67 23 24 67 66 23 68 24 25 68 67 24 69 25 26 69 68 25 70 26 27 70 69 26 71 27 28 71 70 27 72 28 29 72 71 28 73 72 29 73 29 30 74 73 30 74 30 31 75 74 31 75 31 32 76 75 32 76 32 33 77 76 33 77 33 34 78 77 34 78 34 35 79 78 35 79 35 36 80 79 36 80 36 37 81 80 37 81 37 38 82 81 38 82 38 39 83 39 40 83 82 39 84 40 41 84 83 40 43 41 42 43 84 41 
41 39 1 0.120000001788139
20 -3.33066907387547e-14 -50 19.765608475607 -3.05298568437752 -50 19.0679278410986 -6.03441197190388 -50 17.9233111392211 -8.87439675733923 -50 16.3585872153343 -11.5063732043724 -50 14.4104318720157 -13.8686500158449 -50 12.1245082193328 -15.9058574254686 -50 9.55439637024525 -17.5702450182189 -50 6.76033756817005 -18.8228009595913 -50 3.80782218329337 -19.6341663999371 -50 0.76605467380071 -19.9853236210162 -50 -2.293668507968 -19.8680417951935 -50 -5.29963004393323 -19.2850699090629 -50 -8.18137274342679 -18.250072329531 -50 -10.8713510000244 -16.787308522639 -50 -13.3065140033113 -14.9310644322393 -50 -15.4297835964388 -12.7248488465312 -50 -17.191392139744 -10.2203735889423 -50 -18.5500490220419 -7.47634143681543 -50 -19.4739084775556 -4.5570701780628 -50 -19.9413160236748 -1.53098505672997 -50 -19.9413160236748 1.53098505672985 -50 -19.4739084775556 4.55707017806269 -50 -18.5500490220419 7.47634143681531 -50 -17.191392139744 10.2203735889421 -50 -15.4297835964389 12.7248488465311 -50 -13.3065140033113 14.9310644322392 -50 -10.8713510000244 16.7873085226389 -50 -8.18137274342682 18.250072329531 -50 -5.29963004393325 19.2850699090628 -50 -2.29366850796802 19.8680417951935 -50 0.766054673800705 19.9853236210162 -50 3.80782218329337 19.6341663999371 -50 6.76033756817006 18.8228009595912 -50 9.55439637024527 17.5702450182188 -50 12.1245082193328 15.9058574254685 -50 14.4104318720158 13.8686500158448 -50 16.3585872153344 11.5063732043723 -50 17.9233111392211 8.87439675733912 -50 19.0679278410986 6.03441197190376 -50 19.765608475607 3.0529856843774 -50 20 -3.5527136788005e-15 19.765608475607 3.05298568437749 19.0679278410986 6.03441197190385 17.9233111392211 8.87439675733919 16.3585872153343 11.5063732043724 14.4104318720157 13.8686500158448 12.1245082193328 15.9058574254685 9.55439637024525 17.5702450182188 6.76033756817005 18.8228009595912 3.80782218329337 19.6341663999371 0.76605467380071 19.9853236210162 -2.293668507968 19.8680417951935 -5.29963004393323 19.2850699090628 -8.18137274342679 18.250072329531 -10.8713510000244 16.787308522639 -13.3065140033113 14.9310644322393 -15.4297835964388 12.7248488465312 -17.191392139744 10.2203735889422 -18.5500490220419 7.47634143681539 -19.4739084775556 4.55707017806277 -19.9413160236748 1.53098505672994 -19.9413160236748 -1.53098505672989 -19.4739084775556 -4.55707017806272 -18.5500490220419 -7.47634143681535 -17.191392139744 -10.2203735889422 -15.4297835964389 -12.7248488465312 -13.3065140033113 -14.9310644322392 -10.8713510000244 -16.787308522639 -8.18137274342682 -18.250072329531 -5.29963004393325 -19.2850699090628 -2.29366850796802 -19.8680417951935 0.766054673800706 -19.9853236210162 3.80782218329337 -19.6341663999371 6.76033756817007 -18.8228009595912 9.55439637024527 -17.5702450182188 12.1245082193328 -15.9058574254685 14.4104318720158 -13.8686500158448 16.3585872153344 -11.5063732043724 17.9233111392211 -8.87439675733915 19.0679278410986 -6.0344119719038 19.765608475607 -3.05298568437743 28 26 27 25 26 28 22 23 24 22 24 25 32 29 30 32 30 31 21 28 29 21 25 28 21 22 25 19 20 21 19 32 33 19 29 32 19 21 29 17 18 19 37 34 35 37 35 36 16 17 19 40 38 39 13 14 15 1 37 38 1 40 41 1 38 40 11 12 13 11 15 16 11 19 33 11 16 19 11 13 15 4 1 2 4 2 3 8 9 10 8 10 11 8 33 34 8 34 37 8 11 33 5 1 4 6 7 8 6 1 5 6 8 37 6 37 1 

TShapes 14
Ve
1e-07
20 -50 4.44089209850062e-14
0 0

0101101
*
Ed
 1e-07 1 1 0
1  1 0 0 6.28318530717959
2  1 2 0 0 6.28318530717959
6  1 2 0
6  2 1 0
0

0101000
+14 3 -14 3 *
Wi

0101100
-13 0 *
Fa
0  1e-07 1 0
2  1
0111000
+12 0 *
Ve
1e-07
20 50 -4.44089209850062e-14
0 0

0101101
*
Ed
 1e-07 1 1 0
1  2 0 0 6.28318530717959
2  2 2 0 0 6.28318530717959
6  3 2 0
6  4 3 0
0

0101000
+10 3 -10 3 *
Ed
 1e-07 1 1 0
1  3 0 0 100
3  3 4CN 2 8 0 100
7  5 6 2 8
0

0101000
+14 9 -10 9 *
Wi

0101100
+13 0 -9 0 -8 7 +8 7 *
Fa
0  1e-07 2 0
2  2
0111000
+7 0 *
Wi

0101100
+9 0 *
Fa
0  1e-07 3 0
2  3
0111000
+5 0 *
Sh

0101100
+11 0 +6 0 +4 0 *
So

0100000
+3 0 *
Co

1100000
+2 1 *

+1 0 